<svg xmlns="http://www.w3.org/2000/svg" xmlns:xlink="http://www.w3.org/1999/xlink" width="100.001" height="100" viewBox="0.429 0.1 100.001 100" enable-background="new 0.429 0.1 100.001 100"><image overflow="visible" width="152" height="158" xlink:href="9DBF6F897DE7B8D4.png" transform="translate(-21.334 -25.959)" opacity=".5"/><linearGradient id="a" gradientUnits="userSpaceOnUse" x1="-78.699" y1="121.813" x2="-47.461" y2="42.429" gradientTransform="matrix(1 0 0 -1 116 130.083)"><stop offset="0" stop-color="#3258A2"/><stop offset=".063" stop-color="#44338F"/><stop offset=".154" stop-color="#A3298D"/><stop offset=".23" stop-color="#E71787"/><stop offset=".435" stop-color="#EA2927"/><stop offset=".573" stop-color="#F48C23"/><stop offset=".698" stop-color="#FFEB2A"/><stop offset=".8" stop-color="#85C350"/><stop offset=".879" stop-color="#00A857"/><stop offset="1" stop-color="#009F82"/></linearGradient><path fill="url(#a)" d="M54.806 92.98c-.976 0-1.94-.327-2.868-.974-1.978-1.37-3.178-4.118-3.84-6.183-.588-1.843-.698-6.81-.593-9.07.104-2.268 1.37-14.667 1.552-15.57.05-.263.106-.688.153-1.147-.41.89-.9 1.99-1.255 2.792-.952 2.155-1.218 2.726-1.39 2.955-.354.472-.917.73-1.584.73-.233 0-.474-.03-.713-.09-.998-.26-1.624-1.138-1.492-2.09.043-.284.26-.87 1.11-3.055.323-.823.765-1.953 1.105-2.88-.295.36-.557.698-.704.916-.51.765-8.408 10.41-9.944 12.085-1.53 1.668-5.126 5.09-6.85 5.974-1.55.792-3.84 1.737-5.968 1.737-.384 0-.76-.03-1.124-.096-2.334-.428-3.79-1.99-4.1-4.397-.244-1.93.853-13.794 1.302-16.497.28-1.683 1.302-7.314 2.613-9.064 1.148-1.525 5.034-4.06 8.055-4.427 1.727-.212 3.363-.51 4.41-.71-.69-.384-1.665-.875-2.506-1.302-2.91-1.475-4.714-2.41-5.255-2.976-.13-.136-.264-.25-.395-.356-.95-.81-1.62-1.61-1.52-4.55.136-4.105 1.408-8.894 1.665-9.81.414-1.514.373-4.518.345-6.507-.01-.687-.017-1.287-.01-1.73.042-2.038 1.023-3.87 1.927-4.9.15-.17.31-.417.495-.695.788-1.176 2.11-3.143 4.485-3.318.1-.007.2-.01.304-.01 4.057 0 8.54 5.98 11.218 9.553l.67.89c2.27 2.98 3.77 4.95 4.724 7.492.885 2.357 2.42 9.752 2.575 14.075.045 1.25.084 2.178.112 2.875.176-.218.378-.387.607-.464.225-.075.676-.2 1.176-.2.298 0 .572.045.817.133.957.348 1.435 1.17 1.555 1.417.11.22.135.482.102.762.517-.473 1.202-1.097 2.12-1.95 3.17-2.934 9.5-7.06 11.792-8.097 2.485-1.12 4.936-1.444 8.644-1.934l1.112-.153c2.12-.298 5.022-.704 7.75-.704 3.56 0 5.893.7 7.132 2.144 1.554 1.808 1.09 4.133.81 5.523-.065.33-.125.614-.143.84-.097 1.368-.702 3.355-2.118 4.824-.308.316-.733.73-1.226 1.203-1.432 1.382-3.596 3.48-4.372 4.846-.476.827-2.984 5.115-5.784 8.094-1.463 1.554-2.51 2.162-3.722 2.162-.194 0-.383-.02-.576-.032-.157-.014-.314-.028-.483-.028h-.003c-.876 0-2.794-.616-5.858-1.627-.91-.298-1.964-.646-2.705-.87.595.885 1.54 2.26 2.61 3.638 1.875 2.402 2.82 6.945 2.545 8.836-.316 2.165-3.587 6.856-4.583 8.243-1.598 2.22-9.233 11.365-10.78 12.557-1.003.77-2.056 1.162-3.13 1.162z"/><g opacity=".8"><path d="M47.254 24.72c.89 2.372 2.37 9.638 2.52 13.79.15 4.152.224 4.745.15 5.19s0 1.294.22 1.37c.143.047.353.088.51.077.005-.05.005-.108.012-.148.075-.447 0-1.04-.15-5.19-.148-4.153-1.63-11.42-2.52-13.79-.382-1.02-.852-1.93-1.444-2.88.26.507.496 1.026.702 1.58zM45.367 56.624c.163-.468.27-.82.29-.99.11-.89-.036-.96-.333-.924-.298.035-2.077 2.148-2.52 2.816-.446.667-8.23 10.196-9.86 11.977-1.633 1.778-5.082 5.003-6.602 5.783-1.52.778-4.3 1.965-6.523 1.557-1.076-.196-1.84-.648-2.38-1.254.438 1.246 1.375 2.23 3.12 2.552 2.226.407 5.005-.78 6.524-1.558 1.52-.776 4.97-4.004 6.6-5.783 1.632-1.78 9.416-11.307 9.86-11.975.297-.445 1.176-1.515 1.823-2.2zM53.793 45.375c-.475.468-.893.78-.946.94-.05.154.288.394.497.497.208.105.866-.44 1.13-.81.134-.187.33-.383.893-.897.042-.183.056-.337.014-.424-.125-.25-.395-.596-.77-.825-.13.494-.48 1.185-.817 1.52zM24.822 37.734c-.254-.264-.51-.457-.747-.68.297 1.137.905 1.37 1.49 1.98.713.743 5.773 3.117 7.757 4.22.257-.076.536-.304.027-.813-.596-.592-7.674-3.816-8.528-4.706zM93.65 34.184c-.025-.03-.06-.048-.083-.075.545 1.68-.14 3.555-.205 4.496-.08 1.18-.61 2.96-1.872 4.268s-4.625 4.287-5.73 6.227c-1.107 1.937-3.373 5.496-5.66 7.924-2.285 2.434-2.965 1.807-4.198 1.825-1.23.022-8.512-2.727-9.35-2.727-.842-.003-.66.496-.5.704.06.073.284.417.62.92.02-.173.158-.325.624-.325.837 0 8.118 2.75 9.35 2.725 1.233-.02 1.912.607 4.198-1.824 2.285-2.43 4.552-5.987 5.66-7.923 1.104-1.94 4.467-4.92 5.732-6.228 1.26-1.305 1.79-3.086 1.87-4.267.083-1.182 1.165-3.834-.456-5.72zM71.677 69.583c-.24 1.652-2.714 5.47-4.425 7.85-1.71 2.382-9.204 11.302-10.596 12.374-1.393 1.073-3.096 1.46-4.954.17-.665-.462-1.233-1.12-1.715-1.848.603 1.21 1.407 2.418 2.457 3.147 1.857 1.29 3.56.9 4.954-.17 1.39-1.074 8.888-9.993 10.598-12.373 1.71-2.382 4.185-6.2 4.424-7.853.23-1.583-.6-5.6-2.164-7.856 1.078 2.27 1.612 5.25 1.42 6.56zM49.657 58.203c.048-.746.058-1.403-.028-1.515-.186-.232-.34-.287-.893.417-.554.71-3.085 6.837-3.403 7.253-.316.42-.91.43-1.364.313-.013-.003-.02-.01-.033-.014-.032.098-.055.174-.06.21-.072.52.297.963.835 1.104.455.115 1.048.108 1.365-.314.316-.417 2.85-6.546 3.4-7.253.074-.09.12-.135.18-.2z"/></g><g><path fill="#fff" d="M25.564 39.033c.075.078.214.182.377.292-.602-.537-1.086-1.2-1.004-3.666.11-3.338 1.037-7.452 1.63-9.603.594-2.15.336-6.636.372-8.453.035-1.817.927-3.45 1.704-4.338.777-.89 1.894-3.528 4.376-3.71 1.288-.094 2.685.598 4.062 1.678-1.708-1.57-3.488-2.685-5.1-2.567-2.483.182-3.6 2.82-4.377 3.71-.777.89-1.67 2.52-1.704 4.338-.037 1.817.222 6.303-.372 8.453s-1.52 6.266-1.63 9.602c-.114 3.334.813 3.373 1.666 4.263zM51.333 45.37c-.074.445 0 1.297.222 1.37.224.075.63.147.705 0 .075-.147 0-.665 0-1.332 0-.668.483-1.89.815-2.003.327-.108.913-.233 1.373-.08-.177-.31-.518-.708-1.003-.885-.468-.168-1.075-.037-1.41.075-.235.078-.546.72-.703 1.322.035.96.04 1.282 0 1.533zM49.985 86.443c-.52-1.628-.665-6.347-.555-8.76.11-2.412 1.378-14.653 1.535-15.438.16-.785.404-3.538.222-3.773-.184-.232-.338-.29-.892.416-.035.04-.073.104-.118.183-.054.868-.163 1.862-.25 2.286-.16.784-1.426 13.027-1.536 15.438-.11 2.413.035 7.132.556 8.758.52 1.627 1.64 4.436 3.5 5.726.05.034.1.055.148.09-1.332-1.44-2.18-3.58-2.61-4.925zM55.073 46.817c-.475.47-.893.78-.946.94-.05.154.288.393.497.498.21.104.866-.442 1.13-.81.264-.37.734-.734 3.784-3.555 3.05-2.824 9.245-6.897 11.555-7.94 2.31-1.042 4.513-1.352 8.395-1.862 3.5-.464 10.906-1.758 14.25.224-.036-.042-.05-.09-.087-.13-2.616-3.045-11.318-1.497-15.2-.983-3.883.51-6.087.82-8.397 1.86-2.31 1.044-8.503 5.117-11.554 7.94-1.302 1.202-2.115 1.94-2.66 2.444-.155.48-.463 1.07-.767 1.373zM44.363 64.695c.073-.52 2.63-6.637 2.744-7.527.11-.89-.038-.964-.335-.925-.125.015-.513.4-.95.887-.66 1.948-2.436 6.24-2.5 6.677-.07.517.3.963.836 1.102.07.016.146.024.22.035-.01-.083-.028-.163-.015-.25zM18.225 75.4c-.222-1.744.815-13.346 1.297-16.237.482-2.893 1.445-7.34 2.447-8.675 1-1.336 4.707-3.747 7.45-4.08 2.747-.335 5.303-.897 5.563-.928.26-.035.743-.26.15-.85-.1-.1-.386-.273-.78-.49.08.297-.22.425-.41.45-.26.034-2.815.596-5.56.93-2.744.33-6.453 2.743-7.454 4.077-1 1.335-1.965 5.784-2.448 8.676-.48 2.89-1.52 14.493-1.297 16.237.166 1.297.725 2.448 1.917 3.12-.494-.625-.77-1.396-.877-2.23z" opacity=".3"/></g><path fill="#fff" d="M32.218 8.66c3.964 0 8.855 7.04 11.18 10.092 2.374 3.114 3.71 4.894 4.6 7.266.89 2.37 2.37 9.64 2.52 13.79.15 4.152.227 4.744.15 5.19-.073.444 0 1.295.222 1.37.13.044.32.085.472.085.11 0 .202-.023.235-.084.072-.15 0-.668 0-1.335 0-.668.48-1.89.812-2.002.22-.073.554-.155.895-.155.178 0 .354.02.516.08.537.194.905.664 1.066.98.155.314-.372 1.52-.847 1.99-.477.47-.894.78-.948.942-.05.152.288.393.496.497.02.01.04.012.062.012.26 0 .83-.484 1.07-.822.262-.37.735-.733 3.783-3.554 3.05-2.824 9.244-6.897 11.556-7.94 2.307-1.042 4.51-1.35 8.393-1.862 2.088-.276 5.568-.85 8.744-.85 2.733 0 5.246.425 6.457 1.834 1.624 1.887.54 4.54.456 5.72-.083 1.18-.612 2.96-1.873 4.266-1.262 1.307-4.626 4.287-5.73 6.228-1.106 1.936-3.372 5.494-5.66 7.923-1.523 1.622-2.335 1.885-3.07 1.885-.35 0-.683-.058-1.066-.058h-.08c-1.28 0-8.497-2.725-9.33-2.725h-.01c-.83 0-.65.497-.492.702.162.21 1.57 2.42 3.264 4.6 1.7 2.182 2.605 6.51 2.363 8.16-.24 1.65-2.712 5.47-4.422 7.85-1.71 2.38-9.21 11.3-10.597 12.373-.778.6-1.653.982-2.596.982-.748 0-1.54-.24-2.36-.812-1.86-1.29-2.98-4.098-3.498-5.724-.52-1.627-.668-6.347-.556-8.76.113-2.41 1.38-14.652 1.536-15.437.16-.787.404-3.54.223-3.775-.074-.094-.142-.156-.233-.156-.137 0-.327.145-.66.572-.554.707-3.085 6.836-3.4 7.252-.212.28-.544.377-.877.377-.168 0-.337-.022-.49-.06-.537-.14-.907-.585-.834-1.104.075-.52 2.634-6.638 2.744-7.527.098-.78-.003-.933-.23-.933-.032 0-.067.004-.103.007-.296.037-2.076 2.148-2.52 2.816-.445.666-8.23 10.196-9.86 11.976-1.632 1.78-5.08 5.005-6.6 5.784-1.305.67-3.542 1.64-5.558 1.64-.33 0-.654-.026-.966-.083-2.224-.407-3.15-1.892-3.374-3.632-.222-1.745.815-13.346 1.297-16.237.48-2.893 1.444-7.342 2.446-8.676 1-1.335 4.708-3.747 7.453-4.08 2.744-.335 5.3-.896 5.56-.93.26-.033.744-.256.15-.85-.596-.593-7.674-3.816-8.528-4.707-.854-.89-1.78-.928-1.67-4.264.11-3.336 1.038-7.452 1.633-9.6.593-2.15.335-6.637.37-8.454.035-1.816.924-3.448 1.7-4.338.78-.89 1.895-3.53 4.377-3.71.076-.007.155-.01.236-.01m0-3.558c-.168 0-.333.005-.5.017-3.67.27-5.585 3.122-6.505 4.493-.113.17-.213.33-.308.45-.567.647-2.494 3.115-2.563 6.585-.01.467-.002 1.097.01 1.817.022 1.612.063 4.614-.253 5.76-.27.966-1.612 6.022-1.76 10.427-.122 3.708.85 5.302 2.46 6.673.064.052.13.106.197.172.393.41.91.792 1.833 1.327-2.797 1.104-5.538 3.027-6.748 4.64-1.49 1.988-2.515 6.656-3.11 10.225-.396 2.4-1.63 14.8-1.313 17.275.452 3.55 2.794 6.047 6.264 6.684.51.094 1.052.14 1.607.14 2.658 0 5.37-1.103 7.182-2.03 2.257-1.158 6.164-4.98 7.6-6.55.694-.756 2.75-3.21 4.837-5.74.61.73 1.455 1.286 2.45 1.545.456.118.922.18 1.382.18.175 0 .346-.01.517-.027-.325 3.27-.614 6.452-.662 7.47-.097 2.122-.05 7.592.722 10.005.783 2.455 2.26 5.763 4.86 7.563 1.382.96 2.858 1.446 4.39 1.446 1.65 0 3.3-.594 4.762-1.718 1.99-1.54 9.905-11.15 11.32-13.118 2.11-2.938 4.7-6.955 5.056-9.418.29-1.992-.28-5.29-1.47-8.05.945.254 1.596.363 2.153.363h.017c.162 0 .243.01.326.02.27.02.536.038.807.038 2.5 0 4.265-1.52 5.662-3.005 3.017-3.203 5.657-7.723 6.154-8.6.59-1.03 2.746-3.118 3.907-4.24.518-.502.97-.938 1.295-1.275 2.41-2.493 2.8-5.6 2.86-6.488.02-.12.057-.3.1-.504.324-1.62 1-4.99-1.403-7.786-1.777-2.067-4.773-3.073-9.156-3.073-2.913 0-5.924.423-8.12.733l-1.095.15c-3.943.52-6.55.863-9.39 2.15-2.747 1.236-9.03 5.408-12.347 8.42-.347-.242-.75-.46-1.21-.628-.314-.113-.64-.194-.976-.242-.215-4.48-1.678-11.798-2.73-14.606-1.09-2.91-2.685-5.004-5.1-8.173l-.656-.872C41.543 10.348 37.196 5.1 32.218 5.1z"/><g><path d="M47.996 26.016c.89 2.373 2.37 9.64 2.52 13.79.15 4.152.226 4.745.15 5.19-.075.444 0 1.296.222 1.37.027.01.062.017.096.026-.06-.302-.073-.69-.03-.952.074-.444 0-1.038-.15-5.188-.15-4.153-1.63-11.42-2.52-13.79-.465-1.238-1.053-2.314-1.842-3.502.643 1.017 1.148 1.976 1.554 3.056zM54.034 45.926c-.475.47-.893.78-.946.942-.037.11.142.275.32.395.106-.17.48-.46.915-.892.473-.47 1-1.676.845-1.99-.062-.124-.164-.267-.286-.41.12.345-.385 1.495-.848 1.956zM25.852 39.478c.848.883 7.8 4.054 8.5 4.685-.02-.115-.085-.25-.26-.425-.594-.593-7.673-3.817-8.526-4.707-.34-.355-.69-.58-.984-.928.327.644.807.892 1.27 1.376zM72.42 70.88c-.24 1.652-2.714 5.472-4.424 7.854-1.71 2.38-9.207 11.3-10.598 12.373-1.394 1.07-3.097 1.46-4.954.17-.637-.442-1.18-1.067-1.65-1.756.527.865 1.165 1.668 1.937 2.2 1.86 1.29 3.563.9 4.955-.17 1.392-1.073 8.888-9.99 10.597-12.372 1.71-2.38 4.186-6.2 4.425-7.852.224-1.536-.553-5.37-2.03-7.654 1.296 2.313 1.954 5.77 1.743 7.21zM94.145 34.948c.86 1.783.033 3.93-.04 4.955-.083 1.18-.61 2.962-1.873 4.268-1.264 1.307-4.626 4.287-5.73 6.227-1.107 1.938-3.373 5.495-5.658 7.926-2.287 2.432-2.97 1.803-4.2 1.824-1.232.024-8.513-2.725-9.35-2.725-.84-.004-.66.496-.5.702.032.038.112.16.22.322-.117-.232-.14-.58.566-.58.84 0 8.117 2.75 9.35 2.726 1.233-.02 1.91.607 4.198-1.825 2.287-2.43 4.553-5.986 5.66-7.922 1.103-1.94 4.468-4.92 5.73-6.227 1.262-1.306 1.793-3.088 1.87-4.268.082-1.118 1.028-3.546-.243-5.402zM50.203 57.888c-.01-.15-.025-.27-.054-.308-.185-.232-.338-.288-.892.418-.555.707-3.086 6.837-3.403 7.25-.316.422-.908.432-1.364.315-.21-.055-.382-.166-.523-.302.096.36.402.64.81.747.457.117 1.05.108 1.366-.314.317-.414 2.852-6.544 3.402-7.25.335-.43.52-.558.658-.555zM46.354 56.456c.03-.008.05 0 .08 0 0-.43-.138-.477-.367-.445-.297.036-2.076 2.148-2.52 2.815-.445.668-8.23 10.195-9.86 11.976-1.633 1.78-5.08 5.004-6.6 5.784s-4.3 1.965-6.525 1.558c-1.21-.222-2.026-.77-2.564-1.497.513.952 1.404 1.675 2.853 1.94 2.226.41 5.005-.78 6.524-1.556 1.52-.778 4.97-4.006 6.6-5.785 1.633-1.778 9.415-11.308 9.86-11.975.446-.667 2.222-2.78 2.52-2.814z"/></g></svg>