<svg xmlns="http://www.w3.org/2000/svg" width="250" height="202.054" viewBox="0 0 250 202.054"><path fill="#783535" d="M232.876 6.85l3.425 6.848-3.424 6.85z"/><path fill="#F7F6F5" d="M0 178.082l13.7-17.124h6.847z"/><path fill="#2D2827" d="M23.972 167.808l-3.425-6.85L0 178.082z"/><path fill="#EBCFBC" d="M13.7 160.958l37.67-44.52-30.823 44.52z"/><path fill="#754732" d="M65.068 126.712v10.274l-44.52 23.972z"/><path fill="#724134" d="M65.068 136.986l6.85 13.698-51.37 10.274z"/><path fill="#562D1F" d="M75.342 140.41l-3.425 10.274-6.85-13.698z"/><path fill="#E0C9B8" d="M51.37 116.438l13.698 10.274-44.52 34.246z"/><path fill="#6F3411" d="M71.917 150.684l54.795-44.52-51.37 34.247z"/><path fill="#623010" d="M184.932 61.644l-58.22 44.52 61.644-54.794z"/><path fill="#8F4414" d="M75.342 140.41l113.014-89.04-61.644 54.794z"/><path fill="#94400D" d="M65.068 136.986l17.124-23.973-6.85 27.398z"/><path fill="#8F3A0C" d="M65.068 126.712l17.124-13.7-17.124 23.974z"/><path fill="#9A4211" d="M75.342 140.41l113.014-89.04-106.164 61.643z"/><path fill="#9B4312" d="M184.932 37.67l3.424 13.7-106.164 61.643z"/><path fill="#DC7311" d="M181.507 37.67h3.425l-102.74 75.343z"/><path fill="#F3AD2B" d="M65.068 126.712l17.124-13.7-30.822 3.426z"/><path fill="#F5B530" d="M109.588 75.342l-27.396 37.67-30.822 3.426z"/><path fill="#F2B129" d="M181.507 37.67l-71.92 37.672-27.395 37.67z"/><path fill="#F7BB3B" d="M167.808 30.822l-58.22 44.52 71.92-37.67z"/><path fill="#D0C9C5" d="M181.507 20.547l-13.7 10.275 13.7 6.85z"/><path fill="#928277" d="M188.356 30.822l-6.85 6.85h3.426z"/><path fill="#F6F3F5" d="M181.507 20.547l13.698 3.425-6.85 6.85z"/><path fill="#C8C2BD" d="M181.507 37.67V20.548l6.85 10.275z"/><path fill="#8C7D74" d="M184.932 37.67h10.273l-6.85-6.848z"/><path fill="#988E84" d="M188.356 51.37l6.85-13.7H184.93z"/><path fill="#393939" d="M195.205 54.794l-6.85-3.424-3.423 10.274z"/><path fill="#BEBDBA" d="M195.205 37.67v17.124l-6.85-3.424z"/><path fill="#94908C" d="M202.054 47.945l-6.85 6.85V37.67z"/><path fill="#89807A" d="M212.33 41.096l-10.276 6.85 6.85-17.124z"/><path fill="#C3BEBB" d="M195.205 37.67l13.7-6.848-6.85 17.123z"/><path fill="#B1A79E" d="M188.356 30.822l6.85-6.85v13.7z"/><path fill="#928981" d="M208.904 30.822l-13.7-6.85v13.7z"/><path fill="#5E5C5B" d="M212.33 41.096l10.273-10.274h-13.7z"/><path fill="#B6B4B3" d="M222.603 20.547v10.275h-13.7z"/><path fill="#B4B2B0" d="M195.205 23.972l10.274-13.698 3.424 20.548z"/><path fill="#B6B6B5" d="M222.603 20.547L205.48 10.274l3.424 20.548z"/><path fill="#9E9589" d="M215.753 10.274l6.85 10.273-17.124-10.273z"/><path fill="#C3BCB8" d="M205.48 6.85v3.424h10.273z"/><path fill="#D6D1CE" d="M198.63 10.274h6.85V6.85z"/><path fill="#C2BBB5" d="M181.507 20.547l17.123-10.273-3.425 13.698z"/><path fill="#FCFEFB" d="M205.48 10.274l-10.275 13.698 3.425-13.698z"/><path fill="#F7AFB1" d="M215.753 0L205.48 6.85l10.273 3.424z"/><path fill="#F69697" d="M226.027 0l-10.274 10.274V0z"/><path fill="#994545" d="M232.876 6.85L226.026 0l-3.423 20.547z"/><path fill="#BB5A59" d="M215.753 10.274l6.85 10.273L226.027 0z"/><path fill="#732B2F" d="M232.876 6.85v13.697h-10.273z"/><path fill="#783236" d="M222.603 20.547v10.275l3.424-3.425z"/><path fill="#763739" d="M232.876 20.547l-6.85 6.85-3.423-6.85z"/><path fill="#6E493D" d="M20.547 160.958H44.52l-20.548 6.85z"/><path fill="#79564E" d="M71.917 150.684L44.52 160.958H20.547l51.37-10.274"/><g><path opacity=".5" fill="#271D19" d="M71.917 150.684l-3.424 27.398-23.973-17.124z"/><path opacity=".5" fill="#514848" d="M10.274 202.054l58.22-23.972-23.974-17.124z"/><path opacity=".5" fill="#4C382F" d="M71.917 150.684l47.946-3.425 6.85-41.096z"/><path opacity=".5" fill="#4E4740" d="M68.493 178.082l3.424-27.398 17.124 20.548z"/><path opacity=".5" fill="#534541" d="M119.863 147.26L89.04 171.23l-17.123-20.548z"/><path opacity=".5" fill="#473228" d="M184.932 61.644l-17.124 44.52h-41.096z"/><path opacity=".5" fill="#414040" d="M195.205 54.794l6.85 23.973-17.123-17.123z"/><path opacity=".5" fill="#584A48" d="M119.863 147.26l47.945-41.096h-41.096z"/><path opacity=".5" fill="#584B48" d="M184.932 61.644l-17.124 44.52 34.246-27.397z"/><path opacity=".5" fill="#404040" d="M202.054 47.945l10.275 23.972-17.125-17.123z"/><path opacity=".5" fill="#494949" d="M212.33 41.096l13.697 20.547-23.973-13.698z"/><path opacity=".5" fill="#5A5754" d="M202.054 78.767l10.275-6.85-17.125-17.123z"/><path opacity=".5" fill="#585657" d="M226.027 61.643L212.33 71.917l-10.276-23.972z"/><path opacity=".5" fill="#463F3E" d="M212.33 41.096l24.46 10.527-14.187-20.8z"/><path opacity=".5" fill="#5B5958" d="M226.027 61.643l10.762-10.02-24.46-10.527z"/><path opacity=".5" fill="#4D3D3B" d="M222.603 30.822l3.424-3.425L250 37.67z"/><path opacity=".5" fill="#645B5B" d="M236.79 51.623L250 37.67l-27.397-6.848z"/></g></svg>