<?xml version="1.0" encoding="utf-8"?>
<!-- Generator: Adobe Illustrator 16.0.0, SVG Export Plug-In . SVG Version: 6.00 Build 0)  -->
<!DOCTYPE svg PUBLIC "-//W3C//DTD SVG 1.1//EN" "http://www.w3.org/Graphics/SVG/1.1/DTD/svg11.dtd">
<svg version="1.1" id="Layer_2" xmlns="http://www.w3.org/2000/svg" xmlns:xlink="http://www.w3.org/1999/xlink" x="0px" y="0px"
	 width="500px" height="500px" viewBox="0 0 500 500" enable-background="new 0 0 500 500" xml:space="preserve">
<path d="M52.501,52.5v395h131.52l12.24-12.24l12.24,12.24h83l12.24-12.24l12.24,12.24H447.5v-395H52.501z M258.065,406.478
	c0,4.454-3.609,8.064-8.064,8.064c-4.454,0-8.064-3.61-8.064-8.064V317.23c0-4.454,3.61-8.064,8.064-8.064
	c4.455,0,8.064,3.61,8.064,8.064V406.478z M250,282.822c-18.127,0-32.822-14.695-32.822-32.822
	c0-18.127,14.695-32.822,32.822-32.822c18.128,0,32.822,14.695,32.822,32.822C282.823,268.127,268.128,282.822,250,282.822z"/>
</svg>
