<?xml version="1.0" encoding="utf-8"?>
<!-- Generator: Adobe Illustrator 16.0.0, SVG Export Plug-In . SVG Version: 6.00 Build 0)  -->
<!DOCTYPE svg PUBLIC "-//W3C//DTD SVG 1.1//EN" "http://www.w3.org/Graphics/SVG/1.1/DTD/svg11.dtd">
<svg version="1.1" xmlns="http://www.w3.org/2000/svg" xmlns:xlink="http://www.w3.org/1999/xlink" x="0px" y="0px" width="1000px"
	 height="1000px" viewBox="0 0 1000 1000" enable-background="new 0 0 1000 1000" xml:space="preserve">
<g id="Guides">
</g>
<g id="Layer_2">
	<g>
		<path d="M680.579,570H322.406c-27.474,0-49.747-31.582-49.747-70c0-38.419,22.272-70,49.747-70h358.173
			c27.474,0,49.746,31.581,49.746,70C730.325,538.418,708.053,570,680.579,570z"/>
	</g>
	<path d="M851.309,261H671.183c-50.193,0-94.214,46.134-118.604,115h109.619c5.532-8.696,10.37-13.592,13.115-15H846.73h0.448
		c4.42,0,14.435,13.433,23.884,34.861C883.76,424.659,891,461.294,891,499.599v0.802c0,38.305-7.24,74.94-19.938,103.738
		C861.612,625.567,851.599,636,847.178,639H675.312c-2.745-1.408-7.583-6.304-13.115-15H552.578
		c24.391,68.865,68.411,115,118.604,115h180.126C927.906,739,990,632.248,990,500.4v-0.802C990,367.751,927.906,261,851.309,261z"/>
	<path d="M337.861,624c-5.52,8.696-10.341,13.592-13.085,15H152.911c-4.42-3-14.479-13.433-23.929-34.862
		C116.284,575.341,109,538.705,109,500.4v-0.802c0-38.304,7.284-74.938,19.982-103.737C138.432,374.433,148.49,364,152.911,361
		h171.485h0.38c2.831,0,7.869,5.256,13.608,15h109.063c-24.366-68.866-68.348-115-118.541-115H148.78
		C72.183,261,10,367.751,10,499.599v0.802C10,632.248,72.183,739,148.78,739h180.126c50.192,0,94.174-46.135,118.541-115H337.861z"
		/>
</g>
</svg>
