<?xml version="1.0" encoding="utf-8"?>
<!-- Generator: Adobe Illustrator 16.0.0, SVG Export Plug-In . SVG Version: 6.00 Build 0)  -->
<!DOCTYPE svg PUBLIC "-//W3C//DTD SVG 1.1//EN" "http://www.w3.org/Graphics/SVG/1.1/DTD/svg11.dtd">
<svg version="1.1" id="Layer_1" xmlns="http://www.w3.org/2000/svg" xmlns:xlink="http://www.w3.org/1999/xlink" x="0px" y="0px"
	 width="500px" height="500px" viewBox="0 0 500 500" enable-background="new 0 0 500 500" xml:space="preserve">
<g id="Twitter_1_">
	<path d="M250,0C111.929,0,0,111.929,0,250s111.929,250,250,250s250-111.929,250-250S388.071,0,250,0z M389.386,193.414
		c-5.449,3.889-15.174,11.669-15.174,11.669s1.196,17.669-1.518,38.696c-10.026,54.289-47.347,98.996-97.202,119.382
		c-8.965,3.09-18.897,5.794-30.025,8.009c-16.215,3.229-30.827,4.047-43.814,3.358c-23.91-1.929-46.34-9.092-66.145-20.343
		c-4.968-3.253-7.508-5.573-7.508-5.573s31.117,2.723,52.899-7c21.784-9.722,28.785-17.117,28.785-17.117
		s-21.393-0.772-36.176-14.774c-14.779-14.002-15.168-25.283-15.168-25.283s7.392,2.334,12.448,2.334
		c5.059,0,11.669-2.334,11.669-2.334s-21.782-6.227-32.671-20.619c-10.892-14.394-12.059-35.396-12.059-35.396
		s5.445,3.498,12.059,5.053c6.611,1.555,12.833,2.333,12.833,1.166c0-1.166-19.839-13.999-22.56-31.505
		c-2.723-17.504-1.558-27.227,0.777-33.449c2.332-6.226,5.834-10.893,5.834-10.893s23.336,29.95,51.732,42.787
		c28.393,12.835,64.958,17.114,64.958,17.114s-3.505-28.005,6.221-42.008c9.724-14.002,27.229-30.73,57.57-27.616
		c30.336,3.113,32.674,18.281,32.674,18.281s6.999-1.166,16.337-5.056c9.33-3.893,19.055-10.504,19.055-10.504
		s-1.163,11.281-8.943,19.062c-7.781,7.776-13.224,12.841-13.219,12.841L403,176.299C403,176.299,394.835,189.523,389.386,193.414z"
		/>
</g>
</svg>
