<?xml version="1.0" encoding="utf-8"?>
<!-- Generator: Adobe Illustrator 16.0.0, SVG Export Plug-In . SVG Version: 6.00 Build 0)  -->
<!DOCTYPE svg PUBLIC "-//W3C//DTD SVG 1.1//EN" "http://www.w3.org/Graphics/SVG/1.1/DTD/svg11.dtd">
<svg version="1.1" id="Layer_4" xmlns="http://www.w3.org/2000/svg" xmlns:xlink="http://www.w3.org/1999/xlink" x="0px" y="0px"
	 width="100px" height="100px" viewBox="0 0 100 100" enable-background="new 0 0 100 100" xml:space="preserve">
<path d="M49.844,0C22.216,0-0.184,22.399-0.184,50.035c0,22.104,14.332,40.857,34.218,47.476c2.502,0.455,3.413-1.087,3.413-2.411
	c0-1.188-0.042-4.338-0.066-8.515c-13.917,3.024-16.857-6.707-16.857-6.707c-2.273-5.774-5.555-7.317-5.555-7.317
	c-4.541-3.101,0.345-3.041,0.345-3.041c5.021,0.354,7.664,5.16,7.664,5.16c4.463,7.641,11.71,5.434,14.559,4.155
	c0.456-3.231,1.749-5.44,3.18-6.688c-11.11-1.267-22.79-5.556-22.79-24.728c0-5.465,1.949-9.928,5.146-13.425
	c-0.513-1.266-2.231-6.353,0.492-13.243c0,0,4.2-1.347,13.759,5.129c3.992-1.109,8.27-1.665,12.525-1.683
	c4.25,0.018,8.528,0.573,12.525,1.683c9.554-6.476,13.746-5.129,13.746-5.129c2.731,6.89,1.012,11.977,0.499,13.243
	c3.204,3.497,5.141,7.96,5.141,13.425c0,19.222-11.697,23.45-22.844,24.687c1.796,1.547,3.396,4.601,3.396,9.268
	c0,6.689-0.062,12.081-0.062,13.727c0,1.338,0.899,2.892,3.44,2.406c19.865-6.63,34.186-25.371,34.186-47.47
	C99.878,22.399,77.479,0,49.844,0z"/>
</svg>
