<?xml version="1.0" encoding="utf-8"?>
<!-- Generator: Adobe Illustrator 16.0.0, SVG Export Plug-In . SVG Version: 6.00 Build 0)  -->
<!DOCTYPE svg PUBLIC "-//W3C//DTD SVG 1.1//EN" "http://www.w3.org/Graphics/SVG/1.1/DTD/svg11.dtd">
<svg version="1.1" id="Layer_4" xmlns="http://www.w3.org/2000/svg" xmlns:xlink="http://www.w3.org/1999/xlink" x="0px" y="0px"
	 width="100px" height="100px" viewBox="0 0 100 100" enable-background="new 0 0 100 100" xml:space="preserve">
<g>
	<circle cx="13.978" cy="86.132" r="13.647"/>
	<path d="M43.255,85.857c0,4.898-1.218,10.308-3.352,13.308h20.951c1.252-4,1.926-8.597,1.926-13.308
		c0-26.905-22.264-48.663-49.171-48.663c-4.718,0-9.383,0.812-13.967,2.066v20.955c3.056-2.142,9.061-3.497,13.967-3.497
		C29.751,56.719,43.255,69.717,43.255,85.857z"/>
	<path d="M80.122,85.857c0,4.654-0.485,9.308-1.405,13.308h19.861c0.704-4,1.068-8.713,1.068-13.308
		c0-22.881-8.912-44.259-25.094-60.438C58.375,9.238,36.49,0.395,13.608,0.395c-4.599,0-9.383,0.435-13.967,1.141v19.86
		c4.584-0.92,9.309-1.544,13.967-1.544C50.078,19.852,80.122,49.389,80.122,85.857z"/>
</g>
</svg>
