<?xml version="1.0" encoding="utf-8"?>
<!-- Generator: Adobe Illustrator 16.0.0, SVG Export Plug-In . SVG Version: 6.00 Build 0)  -->
<!DOCTYPE svg PUBLIC "-//W3C//DTD SVG 1.1//EN" "http://www.w3.org/Graphics/SVG/1.1/DTD/svg11.dtd">
<svg version="1.1" id="Layer_4" xmlns="http://www.w3.org/2000/svg" xmlns:xlink="http://www.w3.org/1999/xlink" x="0px" y="0px"
	 width="100px" height="100px" viewBox="0 0 100 100" enable-background="new 0 0 100 100" xml:space="preserve">
<path d="M93.809,17.039c2.822-2.822,3.244-6.914,3.244-6.914s-3.527,2.398-6.912,3.81c-3.387,1.411-5.926,1.834-5.926,1.834
	s-0.848-5.502-11.852-6.631C61.357,8.009,55.008,14.076,51.48,19.155c-3.527,5.08-2.256,15.238-2.256,15.238
	s-13.263-1.552-23.562-6.208c-10.3-4.656-18.765-15.52-18.765-15.52s-1.27,1.693-2.116,3.951c-0.847,2.257-1.27,5.784-0.282,12.133
	c0.987,6.35,8.183,11.005,8.183,11.428c0,0.423-2.257,0.141-4.655-0.423c-2.399-0.564-4.374-1.833-4.374-1.833
	s0.423,7.618,4.374,12.839c3.95,5.221,11.851,7.479,11.851,7.479s-2.398,0.847-4.233,0.847c-1.834,0-4.515-0.847-4.515-0.847
	s0.141,4.092,5.502,9.171c5.362,5.079,13.122,5.36,13.122,5.36s-2.539,2.682-10.441,6.209c-7.901,3.526-19.188,2.539-19.188,2.539
	s0.921,0.842,2.723,2.021c7.184,4.081,15.32,6.68,23.993,7.379c4.711,0.25,10.011-0.047,15.893-1.218
	c4.036-0.804,7.639-1.784,10.891-2.905C71.709,79.4,85.246,63.184,88.883,43.491c0.984-7.627,0.551-14.036,0.551-14.036
	s3.527-2.822,5.504-4.233c1.976-1.411,4.938-6.208,4.938-6.208l-10.862,2.683C89.012,21.697,90.986,19.86,93.809,17.039z"/>
</svg>
