<?xml version="1.0" encoding="utf-8"?><!DOCTYPE svg PUBLIC "-//W3C//DTD SVG 1.1//EN" "http://www.w3.org/Graphics/SVG/1.1/DTD/svg11.dtd"><svg xmlns="http://www.w3.org/2000/svg" width="32" height="32" viewBox="0 0 500 500"><path d="M52.5 52.5v395h131.52l12.24-12.24 12.24 12.24h83l12.24-12.24 12.24 12.24H447.5v-395h-395zm205.565 353.978a8.063 8.063 0 0 1-8.064 8.064 8.064 8.064 0 0 1-8.063-8.064V317.23a8.064 8.064 0 0 1 8.064-8.064 8.063 8.063 0 0 1 8.065 8.064v89.248zM250 282.822c-18.127 0-32.822-14.695-32.822-32.822 0-18.127 14.695-32.822 32.822-32.822 18.128 0 32.822 14.695 32.822 32.822 0 18.127-14.694 32.822-32.822 32.822z"/></svg>