<?xml version="1.0" encoding="utf-8"?><!DOCTYPE svg PUBLIC "-//W3C//DTD SVG 1.1//EN" "http://www.w3.org/Graphics/SVG/1.1/DTD/svg11.dtd"><svg xmlns="http://www.w3.org/2000/svg" width="32" height="32" viewBox="0 0 100 100"><path d="M49.844 0C22.216 0-.184 22.4-.184 50.035c0 22.104 14.332 40.857 34.218 47.476 2.502.456 3.413-1.086 3.413-2.41 0-1.188-.042-4.338-.066-8.515-13.916 3.024-16.856-6.707-16.856-6.707-2.273-5.774-5.555-7.317-5.555-7.317-4.542-3.1.344-3.04.344-3.04 5.02.354 7.664 5.16 7.664 5.16 4.463 7.64 11.71 5.434 14.56 4.155.455-3.23 1.748-5.44 3.18-6.688-11.11-1.267-22.79-5.556-22.79-24.728 0-5.466 1.948-9.93 5.145-13.426-.513-1.266-2.23-6.353.492-13.243 0 0 4.2-1.346 13.76 5.13 3.99-1.11 8.27-1.665 12.524-1.683 4.25.018 8.527.573 12.524 1.683 9.554-6.476 13.746-5.13 13.746-5.13 2.73 6.89 1.012 11.978.5 13.244 3.203 3.497 5.14 7.96 5.14 13.425 0 19.22-11.697 23.45-22.844 24.686 1.796 1.547 3.396 4.6 3.396 9.268 0 6.69-.062 12.08-.062 13.727 0 1.34.9 2.893 3.44 2.407 19.865-6.63 34.186-25.37 34.186-47.47C99.878 22.4 77.48 0 49.844 0z"/></svg>