<?xml version="1.0" encoding="utf-8"?><!DOCTYPE svg PUBLIC "-//W3C//DTD SVG 1.1//EN" "http://www.w3.org/Graphics/SVG/1.1/DTD/svg11.dtd"><svg xmlns="http://www.w3.org/2000/svg" width="32" height="32" viewBox="0 0 1000 1000"><path d="M680.58 570H322.405c-27.474 0-49.747-31.582-49.747-70 0-38.42 22.27-70 49.746-70H680.58c27.473 0 49.745 31.58 49.745 70 0 38.418-22.272 70-49.746 70z"/><path d="M851.31 261H671.182c-50.193 0-94.214 46.134-118.604 115h109.618c5.532-8.696 10.37-13.592 13.115-15h171.865c4.42 0 14.435 13.433 23.884 34.86C883.76 424.66 891 461.295 891 499.6v.8c0 38.306-7.24 74.94-19.938 103.74-9.45 21.427-19.463 31.86-23.884 34.86H675.312c-2.745-1.408-7.583-6.304-13.115-15h-109.62c24.392 68.865 68.412 115 118.605 115h180.126C927.906 739 990 632.248 990 500.4v-.802C990 367.75 927.906 261 851.31 261zM337.86 624c-5.52 8.696-10.34 13.592-13.084 15H152.91c-4.42-3-14.478-13.433-23.928-34.862C116.284 575.34 109 538.705 109 500.4v-.802c0-38.304 7.284-74.938 19.982-103.737 9.45-21.427 19.508-31.86 23.93-34.86h171.864c2.83 0 7.87 5.256 13.608 15h109.063c-24.366-68.866-68.348-115-118.54-115H148.78C72.183 261 10 367.75 10 499.6v.8C10 632.25 72.183 739 148.78 739h180.126c50.192 0 94.174-46.135 118.54-115H337.862z"/></svg>