<?xml version="1.0" encoding="utf-8"?><!DOCTYPE svg PUBLIC "-//W3C//DTD SVG 1.1//EN" "http://www.w3.org/Graphics/SVG/1.1/DTD/svg11.dtd"><svg xmlns="http://www.w3.org/2000/svg" width="32" height="32" viewBox="0 0 500 500"><path d="M250 0C111.93 0 0 111.93 0 250s111.93 250 250 250 250-111.93 250-250S388.07 0 250 0zm139.386 193.414c-5.45 3.89-15.174 11.67-15.174 11.67s1.196 17.668-1.518 38.695c-10.026 54.288-47.347 98.995-97.202 119.38-8.965 3.09-18.897 5.795-30.025 8.01-16.215 3.23-30.827 4.047-43.814 3.358a159.66 159.66 0 0 1-66.145-20.343c-4.968-3.253-7.508-5.573-7.508-5.573s31.117 2.723 52.9-7c21.783-9.722 28.784-17.117 28.784-17.117s-21.393-.772-36.176-14.774c-14.78-14-15.168-25.282-15.168-25.282s7.392 2.334 12.448 2.334c5.06 0 11.67-2.334 11.67-2.334s-21.783-6.227-32.672-20.62c-10.892-14.393-12.06-35.395-12.06-35.395s5.446 3.498 12.06 5.053c6.61 1.555 12.833 2.333 12.833 1.166 0-1.166-19.84-14-22.56-31.505-2.724-17.504-1.56-27.227.776-33.45 2.332-6.225 5.834-10.892 5.834-10.892s23.336 29.95 51.732 42.787c28.393 12.835 64.958 17.114 64.958 17.114s-3.505-28.005 6.22-42.008c9.725-14.002 27.23-30.73 57.57-27.616 30.337 3.113 32.675 18.28 32.675 18.28s7-1.165 16.337-5.055c9.33-3.893 19.055-10.504 19.055-10.504s-1.163 11.28-8.943 19.062c-7.78 7.776-13.224 12.84-13.22 12.84L403 176.3s-8.165 13.223-13.614 17.114z"/></svg>