<svg xmlns="http://www.w3.org/2000/svg" width="250" height="203.045" viewBox="0 0 250 203.045"><path opacity=".5" fill="#271D19" d="M76.498 152.997l-3.336 26.693-23.356-16.683z"/><path opacity=".5" fill="#514848" d="M16.44 203.045l56.722-23.355-23.356-16.683z"/><path opacity=".5" fill="#4C382F" d="M76.498 152.997l46.712-3.336 6.673-40.038z"/><path opacity=".5" fill="#4E4740" d="M73.162 179.69l3.336-26.693 16.684 20.02z"/><path opacity=".5" fill="#534541" d="M123.21 149.66l-30.028 23.357-16.684-20.02z"/><path opacity=".5" fill="#473228" d="M186.605 66.247l-16.682 43.375h-40.04z"/><path opacity=".5" fill="#414040" d="M196.615 59.574l6.673 23.356-16.683-16.683z"/><path opacity=".5" fill="#584A48" d="M123.21 149.66l46.713-40.038h-40.04z"/><path opacity=".5" fill="#584B48" d="M186.605 66.247l-16.682 43.375 33.365-26.692z"/><path opacity=".5" fill="#404040" d="M203.288 52.9l10.01 23.356-16.683-16.682z"/><path opacity=".5" fill="#494949" d="M213.298 46.228l13.345 20.02L203.288 52.9z"/><path opacity=".5" fill="#5A5754" d="M203.288 82.93l10.01-6.674-16.683-16.682z"/><path opacity=".5" fill="#585657" d="M226.643 66.247l-13.345 10.01-10.01-23.356z"/><path opacity=".5" fill="#463F3E" d="M213.298 46.228l23.83 10.257-13.82-20.267z"/><path opacity=".5" fill="#5B5958" d="M226.643 66.247l10.485-9.762-23.83-10.257z"/><path opacity=".5" fill="#4D3D3B" d="M223.307 36.218l3.336-3.336L250 42.892z"/><path opacity=".5" fill="#645B5B" d="M237.128 56.485L250 42.89l-26.693-6.672z"/><g><path fill="#6C3C29" d="M68.934 133.273v10.723l-18.382 3.064z"/><path fill="#754236" d="M76.594 150.124l-7.66-6.128-1.532 7.66z"/><path fill="#53291B" d="M71.998 157.783l4.596-7.66-9.192 1.533z"/><path fill="#794938" d="M50.552 147.06l16.85 4.596 1.532-7.66z"/><path fill="#BBA58C" d="M68.934 133.273l-6.127-1.53-12.255 15.317z"/><path fill="#DFB992" d="M56.68 128.677l-7.66 7.66 13.787-4.595z"/><path fill="#C2967F" d="M50.552 147.06l-1.532-10.723 13.787-4.595z"/><path fill="#EBCEBB" d="M56.68 128.677v-4.596L42.89 134.806z"/><path fill="#EAD2BD" d="M52.083 124.08h4.596L42.89 134.806z"/><path fill="#FCE2D4" d="M49.02 136.337l-6.128-1.532 13.787-6.128z"/><path fill="#D7CDCE" d="M13.787 170.038l4.595 1.532L0 186.89z"/><path fill="#3D3A3A" d="M22.978 177.698v-4.596L0 186.89z"/><path fill="#1E1816" d="M18.382 171.57l4.596 1.532L0 186.89z"/><path fill="#DFC1AF" d="M35.233 159.315l-16.85 12.255 4.595-12.255z"/><path fill="#D9B8A4" d="M13.787 170.038l9.19-10.723-4.595 12.255z"/><path fill="#DABAA7" d="M35.233 159.315l15.32-12.255-15.32-3.064z"/><path fill="#E5D3C5" d="M22.978 159.315l12.255-15.32v15.32z"/><path fill="#E1C1AB" d="M49.02 136.337l-13.787 7.66 15.32 3.063z"/><path fill="#EFD9CB" d="M42.892 134.805l-7.66 9.19 13.788-7.658z"/><path fill="#6D412D" d="M35.233 159.315l-6.128 7.66-10.723 4.595z"/><path fill="#7B4935" d="M22.978 173.102l6.127-6.127-10.723 4.595z"/><path fill="#623828" d="M39.83 160.847l-4.597-1.532-6.128 7.66z"/><path fill="#5F3021" d="M50.552 147.06l-3.064 9.192-12.255 3.063z"/><path fill="#744839" d="M67.402 151.656l-19.914 4.596 3.064-9.192z"/><path fill="#71453A" d="M56.68 163.91l-9.192-7.658 19.914-4.596z"/><path fill="#6B4237" d="M71.998 157.783l-15.32 6.128 10.724-12.254z"/><path fill="#5F3626" d="M39.83 160.847l-4.597-1.532 12.255-3.063z"/><path fill="#704032" d="M56.68 163.91l-16.85-3.063 7.658-4.595z"/><path fill="#805348" d="M38.298 171.57l1.53-10.723 16.85 3.064z"/><path fill="#734436" d="M29.105 166.975l9.193 4.595 1.53-10.723z"/><path fill="#643F35" d="M22.978 177.698v-4.596l15.32-1.532z"/><path fill="#683D31" d="M29.105 166.975l-6.127 6.127 15.32-1.532z"/><path fill="#EFBB78" d="M56.68 124.08v-3.062l-4.597 3.063z"/><path fill="#F2A625" d="M68.934 133.273v-9.192l-6.127 7.662z"/><path fill="#F6AB28" d="M56.68 128.677l12.254-4.596-6.127 7.662z"/><path fill="#F7B12D" d="M56.68 121.018v7.66l12.254-4.597z"/><path fill="#F5B833" d="M76.594 105.785L56.68 121.018l12.254 3.063z"/><path fill="#F0A023" d="M68.934 133.273l19.915-16.85-19.916 7.658z"/><path fill="#944512" d="M68.934 143.996l22.978-6.127-15.318 12.254z"/><path fill="#783A11" d="M71.998 157.783l15.32-12.255-10.724 4.596z"/><path fill="#854217" d="M91.912 137.87l-4.595 7.658-10.723 4.596z"/><path fill="#823D12" d="M101.104 134.805l-13.787 10.723 4.595-7.66z"/><path fill="#973E0D" d="M68.934 133.273l22.978 4.596-22.978 6.126z"/><path fill="#994010" d="M88.85 116.422l-19.916 16.85 22.978 4.597z"/><path fill="#F5B02B" d="M76.594 105.274l12.255 11.148-19.916 7.66z"/><path fill="#9A4C1C" d="M91.912 137.87l21.446-16.852-12.254 13.787z"/><path fill="#672E13" d="M125.614 116.422l-24.51 18.383 12.254-13.787z"/><path fill="#984110" d="M88.85 116.422l24.508 4.596-21.446 16.85z"/><path fill="#F6B22F" d="M76.594 105.274l12.255 11.148 3.062-21.445z"/><path fill="#F5B128" d="M113.358 98.04l-24.51 18.382 3.064-21.445z"/><path fill="#9B4312" d="M113.358 121.018V98.04l-24.51 18.382z"/><path fill="#914717" d="M125.614 116.422l3.063-7.66-15.32 12.256z"/><path fill="#974412" d="M113.358 98.04l15.32 10.723-15.32 12.255z"/><path fill="#F6BF44" d="M113.358 79.657V98.04l-21.446-3.063z"/><path fill="#9B4312" d="M128.677 108.763l6.128-26.042-21.447 15.32z"/><path fill="#F5B733" d="M113.358 79.657l21.447 3.064-21.447 15.32z"/><path fill="#9C4312" d="M154.72 88.85l-26.043 19.913 6.128-26.042z"/><path fill="#8B3F14" d="M145.528 101.104l-16.85 7.66 26.04-19.915z"/><path fill="#6B3014" d="M125.614 116.422l3.063-7.66 16.85-7.658z"/><path fill="#F5B62E" d="M134.805 82.72l3.063-21.445-24.51 18.382z"/><path fill="#EC9821" d="M162.38 62.807L134.804 82.72l3.063-21.445z"/><path fill="#9A4211" d="M154.72 88.85l7.66-26.043-27.575 19.914z"/><path fill="#94420F" d="M191.485 61.275l-29.106 1.532-7.66 26.042z"/><path fill="#904215" d="M174.634 78.125L154.72 88.85l36.765-27.575z"/><path fill="#713312" d="M145.528 101.104l9.19-12.255 19.916-10.725z"/><path fill="#984311" d="M162.38 62.807l29.105-21.446v19.915z"/><path fill="#F7C95C" d="M162.38 42.893v19.914l-24.512-1.532z"/><path fill="#F6B734" d="M191.485 41.36L162.38 62.808V42.893z"/><path fill="#F8C042" d="M173.1 35.232l-10.72 7.66 29.105-1.53z"/><path fill="#FFBB49" d="M177.698 33.702l-4.597 1.53 18.385 6.13z"/><path fill="#F0954C" d="M186.89 36.765l-9.192-3.063 13.787 7.66z"/><path fill="#673215" d="M191.485 61.275h4.595l-21.446 16.85z"/><path fill="#99470F" d="M191.485 41.36l6.127 13.787-6.127 6.128z"/><path fill="#6D3823" d="M196.08 47.488l-4.595-6.127 6.127 13.787z"/><path fill="#8B4517" d="M196.08 61.275l1.532-6.128-6.127 6.128z"/><path fill="#F0AFAE" d="M222.122 9.19l-7.66-1.53 9.192-6.128z"/><path fill="#EE9398" d="M235.91 3.063L222.122 9.19l1.532-7.658z"/><path fill="#ED9B96" d="M229.78 0l-6.126 1.532 12.256 1.53z"/><path fill="#E37F7E" d="M228.25 15.32l-6.128-6.13 13.788-6.127z"/><path fill="#BE5B5B" d="M240.505 7.66l-12.255 7.66 7.66-12.257z"/><path fill="#8A3637" d="M231.313 18.382l-3.063-3.063 12.255-7.66z"/><path fill="#6E2628" d="M243.57 21.446l-12.257-3.064 9.192-10.722z"/><path fill="#7D4145" d="M243.57 13.787v7.66L240.504 7.66z"/><path fill="#6E3232" d="M238.972 27.574l-4.595-3.064-1.532 7.66z"/><path fill="#752D2E" d="M231.313 18.382l3.064 6.128 9.192-3.064z"/><path fill="#79383A" d="M238.972 27.574l-4.595-3.064 9.192-3.064z"/><path fill="#CFCAC6" d="M177.698 33.702l4.595-4.597 4.596 7.66z"/><path fill="#988C80" d="M191.485 41.36l3.063-6.128-7.66 1.533z"/><path fill="#736A5D" d="M200.676 42.893l-9.19-1.532 4.594 6.128z"/><path fill="#B1A8A1" d="M182.293 29.105l12.255 6.127-7.66 1.533z"/><path fill="#8D7D73" d="M191.485 41.36l3.063-6.128 6.128 7.66z"/><path fill="#BDBFBC" d="M196.08 47.488l6.127 3.064-4.595 4.595z"/><path fill="#A39F9B" d="M200.676 42.893l-4.596 4.595 6.127 3.064z"/><path fill="#4C4644" d="M197.612 55.147l3.064 3.065-4.596 3.063z"/><path fill="#636160" d="M202.207 50.552l-1.53 7.66-3.065-3.065z"/><path fill="#757473" d="M205.27 52.083l-3.063-1.53-1.53 7.66z"/><path fill="#474645" d="M211.4 52.083l-10.724 6.13 4.595-6.13z"/><path fill="#585855" d="M212.93 44.424l-7.66 7.66h6.13z"/><path fill="#CAC8C6" d="M202.207 50.552l1.533-6.128-3.064-1.53z"/><path fill="#766A64" d="M205.27 52.083l-1.53-7.66-1.533 6.13z"/><path fill="#CAC6C4" d="M212.93 44.424h-9.19l1.53 7.66z"/><path fill="#B2ACA6" d="M211.4 36.765l1.53 7.66h-9.19z"/><path fill="#BEB4A7" d="M194.548 35.232v-4.595l3.064 4.595z"/><path fill="#524337" d="M199.144 30.637h-4.596l3.064 4.595z"/><path fill="#ADA39B" d="M200.676 42.893l-3.064-7.66h-3.064z"/><path fill="#8C857B" d="M203.74 39.83l-3.064 3.063 3.064 1.53z"/><path fill="#998F88" d="M211.4 36.765l-7.66 7.66v-4.596z"/><path fill="#85796F" d="M197.612 35.232l6.128 4.597-3.064 3.063z"/><path fill="#D8D3CD" d="M194.548 35.232l-12.255-6.127 12.255 1.532z"/><path fill="#D4D0D0" d="M185.357 26.042l-3.064 3.063 12.255 1.532z"/><path fill="#DDDBDB" d="M197.612 35.232l1.532-4.595 4.596 9.192z"/><path fill="#6C544E" d="M211.4 36.765l-3.064-6.128-4.596 9.192z"/><path fill="#91887E" d="M199.144 30.637h9.192l-4.596 9.192z"/><path fill="#D7D1CC" d="M200.676 24.51l-1.532 6.127h9.192z"/><path fill="#EBE6E4" d="M194.548 30.637l6.128-6.127-1.532 6.127z"/><path fill="#DAD6D4" d="M191.485 21.446l-6.128 4.596 9.19 4.595z"/><path fill="#FCFEFF" d="M200.676 24.51l-6.128 6.127-3.063-9.19z"/><path fill="#D2D1CF" d="M214.463 7.66v4.595l-6.127-1.532z"/><path fill="#D6D4D1" d="M211.4 7.66l-3.064 3.063 6.127-3.063z"/><path fill="#CCC9C2" d="M214.463 12.255l7.66-3.064-7.66-1.53z"/><path fill="#A49B93" d="M228.25 15.32l-6.128 1.53V9.19z"/><path fill="#B9B3AC" d="M214.463 12.255l7.66-3.064v7.66z"/><path fill="#75695E" d="M228.25 15.32l3.063 3.062-6.127 3.064z"/><path fill="#8C7E73" d="M222.122 16.85l3.064 4.596 3.064-6.127z"/><path fill="#9B8F86" d="M231.313 18.382l-4.595 6.128h7.66z"/><path fill="#83776B" d="M225.186 21.446l1.532 3.064 4.595-6.128z"/><path fill="#949896" d="M234.377 24.51l-6.127 7.66h4.595z"/><path fill="#AFA9A5" d="M226.718 24.51l1.532 3.064 6.127-3.064z"/><path fill="#C6C7C3" d="M228.25 32.17v-4.596l6.127-3.064z"/><path fill="#5F5C5A" d="M232.845 32.17l-4.595 4.595V32.17z"/><path fill="#DBD5D4" d="M199.144 16.85l9.192-6.127-3.065 7.66z"/><path fill="#FFFCFB" d="M214.463 12.255l-9.192 6.127 3.066-7.66z"/><path fill="#D3D4D5" d="M222.122 16.85l-7.66 1.532v-6.127z"/><path fill="#C5BCB9" d="M205.27 18.382h6.13l3.063-6.127z"/><path fill="#BFB6AE" d="M211.4 22.978v-4.596h-6.13z"/><path fill="#CFC7C1" d="M214.463 18.382H211.4l3.063-6.127z"/><path fill="#BFB4AA" d="M211.4 22.978h4.595l-4.596-4.596z"/><path fill="#7D736F" d="M214.463 18.382H211.4l4.595 4.596z"/><path fill="#F2ECEA" d="M222.122 16.85l-6.127 6.128-1.532-4.596z"/><path fill="#867C76" d="M225.186 21.446l-3.064 1.532V16.85z"/><path fill="#91867F" d="M226.718 24.51l-3.064 1.532 1.532-4.596z"/><path fill="#625146" d="M222.122 22.978l1.532 3.064 1.532-4.596z"/><path fill="#CCC3BD" d="M215.995 22.978h6.127V16.85z"/><path fill="#968E87" d="M215.995 29.105l-4.596-6.127h4.595z"/><path fill="#8A7771" d="M220.59 27.574l-4.595-4.596h6.127z"/><path fill="#8A7F79" d="M223.654 26.042l-3.063 1.532 1.532-4.596z"/><path fill="#84746B" d="M215.995 29.105l4.596-1.53-4.595-4.597z"/><path fill="#7A6F69" d="M219.057 33.702l-3.062-4.597 4.596-1.53z"/><path fill="#A8A19B" d="M226.718 24.51l-6.127 3.064h7.66z"/><path fill="#A19D98" d="M219.057 33.702l9.193-6.128h-7.66z"/><path fill="#B9B7B6" d="M228.25 32.17l-3.064 1.532 3.064-6.128z"/><path fill="#BDB7B8" d="M219.057 33.702h6.13l3.063-6.128z"/><path fill="#CACBCA" d="M219.057 39.83V33.7h6.13z"/><path fill="#BFC4C3" d="M225.186 38.297v-4.595l-6.13 6.127z"/><path fill="#C9C6C6" d="M228.25 32.17l-3.064 1.532v4.595z"/><path fill="#585452" d="M228.25 36.765l-3.064 1.532 3.064-6.128z"/><path fill="#5E5C5C" d="M219.057 39.83v4.594l6.13-6.127z"/><path fill="#4B4546" d="M228.25 36.765l-9.193 7.66 6.13-6.128z"/><path fill="#CEC7C2" d="M191.485 21.446l7.66-4.595 1.53 7.66z"/><path fill="#AAA69E" d="M205.27 18.382l-4.594 6.128-1.532-7.66z"/><path fill="#C9C2BC" d="M211.4 22.978l-10.724 1.532 4.595-6.128z"/><path fill="#96867E" d="M208.336 30.637l3.063-7.66-10.724 1.533z"/><path fill="#BAB4B0" d="M215.995 29.105l-7.66 1.532 3.064-7.66z"/><path fill="#AEADAE" d="M211.4 36.765l4.595-7.66-7.66 1.532z"/><path fill="#8A837B" d="M219.057 33.702l-7.658 3.063 7.657 3.064z"/><path fill="#8D837D" d="M215.995 29.105l-4.596 7.66 7.657-3.063z"/><path fill="#8D8A81" d="M212.93 44.424l-1.53-7.66 7.657 3.065z"/><path fill="#787776" d="M211.4 52.083l7.657-7.66h-6.126z"/><path fill="#89817B" d="M219.057 39.83v4.594h-6.126z"/></g></svg>