<?xml version="1.0" standalone="no"?>
<!DOCTYPE svg PUBLIC "-//W3C//DTD SVG 1.1//EN" "http://www.w3.org/Graphics/SVG/1.1/DTD/svg11.dtd" >
<svg xmlns="http://www.w3.org/2000/svg">
<metadata></metadata>
<defs>
<font id="cassettecassette" horiz-adv-x="1024" >
<font-face units-per-em="2048" ascent="1536" descent="-512" />
<missing-glyph horiz-adv-x="1396" />
<glyph horiz-adv-x="2048" />
<glyph horiz-adv-x="2048" />
<glyph unicode="&#xd;" horiz-adv-x="2048" />
<glyph unicode=" "  horiz-adv-x="1396" />
<glyph unicode="&#x09;" horiz-adv-x="1396" />
<glyph unicode="&#xa0;" horiz-adv-x="1396" />
<glyph unicode="!" horiz-adv-x="258" d="M9 -20q-11 34 5 69q31 66 109 82q35 6 65.5 -14.5t36.5 -57.5q6 -35 -10 -62.5t-47 -37.5q-29 -39 -74 -39q-18 0 -39 10q-35 16 -46 50zM33 1307q-12 35 3 68.5t50 45.5t68 -3t47 -50q37 -102 36 -224t-12 -239q-4 -47 -6 -89t-2 -79v-221q0 -37 -26.5 -63.5 t-63.5 -26.5t-62.5 26.5t-25.5 63.5v221q0 41 2 87t6 96q4 51 7 103t3 103.5t-5 97.5t-19 83z" />
<glyph unicode="&#x22;" horiz-adv-x="641" d="M53 963q0 45 3 103t9.5 119.5t14.5 122t20 109.5q8 35 40 55.5t67 10.5q35 -8 55.5 -40t9.5 -67q-10 -43 -17 -96t-12 -109.5t-8.5 -110.5t-3.5 -97q0 -37 -26.5 -63t-63.5 -26t-62.5 26t-25.5 63zM311 954q6 39 11.5 85t9.5 94q10 92 17 149t22 92q14 35 47.5 49t68.5 0 t49.5 -48t-1.5 -68q-4 -10 -7.5 -32t-6.5 -49.5t-7 -57t-6 -54.5q-4 -49 -9 -98t-14 -90q-4 -33 -29.5 -53.5t-56.5 -20.5h-16q-35 6 -56.5 37t-15.5 65z" />
<glyph unicode="#" horiz-adv-x="1550" d="M33 621q-8 37 12.5 67.5t54.5 38.5q14 4 64.5 20.5t124.5 40.5q-4 37 -5 71t-3 69q-6 119 -11.5 214t-7.5 154q-4 37 21.5 65t62.5 30q35 2 62.5 -24t29.5 -62q4 -59 9.5 -153.5t11.5 -213.5q0 -23 1 -45.5t3 -44.5q115 41 236.5 84t224.5 78q-4 49 -6.5 96t-4.5 92 q-8 119 -12 214t-8 155q-2 37 22.5 64.5t61.5 29.5q35 2 63.5 -23.5t30.5 -62.5q4 -59 8 -153.5t11 -213.5q2 -33 4 -67.5t4 -69.5q51 18 91 31.5t62 23.5q35 12 69 -4t44 -51q12 -35 -3 -67.5t-50 -45.5q-29 -10 -82 -28.5t-121 -42.5q6 -141 13 -285.5t14 -282.5 q63 23 111 39.5t75 26.5q35 12 68 -4t45 -51t-4.5 -68t-51.5 -45q-31 -10 -92 -32.5t-143 -51.5q6 -121 9 -219t3 -166q0 -37 -26.5 -62.5t-63.5 -25.5t-62.5 25.5t-25.5 62.5q0 59 -2 141t-6 183q-121 -41 -229.5 -80t-200.5 -70q-20 -8 -29 -10q6 -135 9 -248t3 -186 q0 -37 -25.5 -62.5t-62.5 -25.5t-63.5 25.5t-26.5 62.5q0 66 -3 162t-7 213q-47 -16 -80 -26.5t-45 -12.5q-37 -10 -67.5 10t-39.5 57q-8 35 12.5 67t55.5 38q12 4 54 16t102 35q-6 137 -13.5 281.5t-15.5 285.5q-61 -23 -101 -35t-57 -16q-37 -8 -67.5 12.5t-38.5 55.5z M473 664q8 -139 15.5 -284t13.5 -284q111 39 232.5 82t226.5 80q-6 135 -13.5 279.5t-15.5 287.5q-129 -45 -245 -86t-214 -75z" />
<glyph unicode="$" horiz-adv-x="1189" d="M10 582q4 20 17.5 44.5t40 48t70.5 39t112 17.5q39 2 64.5 -23.5t27.5 -62.5t-23.5 -63.5t-62.5 -28.5q-23 0 -37 -2t-22 -6t-15 -6q-6 -23 26 -73t79 -105.5t99 -104.5t89 -68q27 -14 63.5 -20t77.5 -8q-4 29 -9 55.5t-11 54.5q-12 66 -23.5 130.5t-19.5 127.5 q-4 35 -9 69t-9 69q-29 10 -56.5 21t-50.5 22q-78 35 -140.5 81t-74.5 121q-6 41 6 77t32.5 64.5t42 50t34.5 32.5q35 31 74.5 54t86.5 42q-2 43 -2 85v83q-2 37 25 62.5t63 25.5q35 2 62 -24.5t27 -63.5q0 -29 1 -57.5t1 -57.5q53 10 105 14.5t99 -0.5q37 -2 61.5 -29.5 t20.5 -64.5q-2 -37 -29.5 -61.5t-64.5 -22.5q-82 6 -184 -16q4 -74 10 -150.5t16 -158.5q68 -27 135.5 -56.5t129 -67.5t109.5 -85t77 -105q47 -100 33.5 -190t-84.5 -162q-51 -49 -124 -82t-155 -49q10 -88 13.5 -174t-9.5 -172q-4 -35 -28.5 -55.5t-59.5 -20.5h-2 q-49 0 -78 35q-10 10 -20 30.5t-6 55.5q2 16 8 28.5t16 22.5q4 57 0 114.5t-10 117.5q-72 2 -136.5 13t-111.5 36q-25 12 -66.5 43.5t-87.5 76t-93.5 97.5t-82 110.5t-52 115.5t-5.5 110zM389 936q2 0 21.5 -16.5t91.5 -49.5l12 -6q-4 47 -7 90t-7 86q-35 -20 -56 -39 q-20 -16 -30.5 -28t-16.5 -21q-8 -8 -8 -16zM723 592q2 -10 3 -19.5t3 -19.5q8 -61 19.5 -122.5t23.5 -127.5q6 -33 12.5 -64.5t10.5 -64.5q55 12 103 32.5t77 49.5q20 20 31.5 54t-15.5 96q-29 57 -103.5 103t-164.5 83z" />
<glyph unicode="%" horiz-adv-x="1314" d="M0 1008q-23 98 31 196q27 51 75 95t107 75t126 44.5t132 2.5q16 25 46 35t58 0q31 -12 59 -24.5t50 -28.5q31 -10 65.5 -14.5t69.5 4.5q61 12 103 73q20 31 55 39t65 -12q33 -18 41.5 -54t-12.5 -67q-8 -14 -41 -67.5t-80 -128t-104.5 -164.5t-113.5 -179.5t-108.5 -169 t-88.5 -137.5q-92 -143 -145.5 -245.5t-76.5 -167.5q18 -8 32.5 -22.5t19.5 -37.5q10 -29 7 -62.5t-7 -64.5q-4 -33 -30 -53t-59 -20h-10q-92 10 -131 90q-8 16 -16 53t9 112.5t75.5 199.5t183.5 315q16 25 33.5 53.5t40.5 60.5q-90 -10 -178 14.5t-166 84.5 q-94 74 -117 172zM171 1054.5q1 -34.5 56 -77.5q51 -41 99.5 -53.5t89.5 -10.5t73.5 13.5t51.5 21.5q63 33 100 85t33 106q-2 35 -21.5 60.5t-48.5 43.5q-20 8 -29 12q-10 -16 -34 -34q-27 -27 -63 -26t-62 28q-12 8 -19 22q-63 -4 -123.5 -42t-87.5 -85q-16 -29 -15 -63.5z M526 227q2 57 22.5 115.5t53.5 109t77 91.5t95 65q103 52 199 23q109 0 189.5 -59.5t117.5 -163.5q25 -66 28 -137.5t-13.5 -138t-51.5 -125t-84 -99.5q-33 -27 -84 -50.5t-123 -23.5q-53 0 -119.5 19.5t-144.5 66.5q-84 53 -125 131t-37 176zM705 219q-6 -94 77 -147 q29 -18 63 -33.5t68.5 -22t68.5 -1.5t65 30q27 23 46 57.5t28 76.5t8 86t-15 83q-25 66 -76 90q-45 -20 -88 8q-4 4 -16 10.5t-31 6.5q-23 0 -51 -14q-29 -14 -55.5 -39t-46 -56.5t-31.5 -66.5t-14 -68z" />
<glyph unicode="&#x26;" horiz-adv-x="1110" d="M-342 299q-6 72 21.5 141.5t71.5 132t97.5 115.5t98.5 96q-16 45 -21.5 89.5t2.5 87.5q4 23 14.5 53t29 63t43 61.5t57.5 49.5q72 45 145 20q80 -25 110.5 -64.5t39.5 -74.5q8 -43 -5.5 -85t-41 -83t-65.5 -79t-81 -74q8 -10 15.5 -17.5l13.5 -13.5q55 -53 127.5 -102.5 t152.5 -100.5q14 -10 28.5 -18.5t29.5 -18.5q39 47 70.5 89t54.5 77q39 59 61.5 129t26.5 140.5t-10.5 138t-47.5 123.5q-18 33 -10 68.5t41 53.5q31 18 66.5 10t54.5 -40q47 -78 67.5 -170t16.5 -188.5t-34 -189.5t-85 -175q-61 -90 -123 -166q80 -59 148.5 -130 t111.5 -161q86 53 150.5 108.5t110.5 121t74 149.5t40 197q6 63 8 125.5t-1 118t-9 97t-14 64.5q-29 2 -51.5 20.5t-30.5 47.5q-10 35 9 66.5t56 41.5q74 16 129 -31q41 -37 60.5 -105.5t25.5 -150.5t3 -165t-9 -146q-16 -152 -57 -262.5t-105.5 -195.5t-148.5 -150.5 t-184 -124.5q16 -117 -18 -232.5t-114 -224.5q-49 -66 -109 -119t-127 -94t-137.5 -65.5t-138.5 -30.5q-8 -2 -28 -2q-39 0 -90 7t-104.5 23.5t-102.5 42t-86 64.5q-80 80 -68 193q12 94 58.5 155.5t117 103.5t158.5 69.5t180 52.5q102 29 202.5 60.5t197.5 82.5 q-35 72 -93.5 131t-132.5 113q-199 -205 -387 -255t-356 60q-158 104 -170 252zM-166 313q2 -10 14.5 -42.5t75.5 -73.5q61 -41 125 -43t127.5 22.5t126 68.5t117.5 99l-31 18q-84 53 -165 107.5t-146 120.5q-10 10 -18.5 19t-18.5 20q-35 -33 -72 -72t-68.5 -81t-51 -84 t-15.5 -79zM59 -549q0 -10 2 -21.5t17 -25.5q23 -23 58.5 -39t74.5 -26.5t76 -14.5t61 -2q49 4 100.5 23.5t102.5 51.5t97 74t83 91q94 125 100 254q-98 -47 -196 -77t-191 -54q-88 -25 -156.5 -46.5t-117.5 -48t-76.5 -59.5t-34.5 -80zM102 922q45 43 64.5 68.5t23.5 37.5 q-4 4 -10 5t-16 5q-6 -2 -15.5 -12t-18.5 -25.5t-16.5 -34t-9.5 -34.5q-2 -4 -2 -10z" />
<glyph unicode="'" horiz-adv-x="428" d="M127 1425q-10 37 8.5 69t52.5 42q35 10 68 -8.5t43 -52.5q14 -53 14 -102.5t-2 -96.5q-2 -39 -2 -76t10 -70q10 -35 -7 -67.5t-52 -42.5q-16 -4 -24 -4q-29 0 -52.5 17.5t-33.5 45.5q-16 53 -17.5 105.5t0.5 99.5q4 39 4 75t-10 66z" />
<glyph unicode="(" horiz-adv-x="684" d="M10 717q4 119 26.5 228.5t55.5 199.5q33 94 84 169t105 144q41 53 75.5 102.5t59.5 104.5q16 35 50 47t69 -4t47 -50t-4 -69q-31 -68 -73 -126t-83 -113q-49 -63 -92 -127t-70 -138q-35 -98 -53.5 -202.5t-19.5 -206t15.5 -195.5t49.5 -174q27 -68 65.5 -132t81.5 -113.5 t86 -78t78 -24.5q37 4 66.5 -17.5t34.5 -58.5q4 -37 -18.5 -66.5t-59.5 -33.5q-8 -2 -16.5 -2h-16.5q-68 0 -126 30.5t-108.5 78t-90.5 102.5t-69.5 106.5t-48 90t-22.5 51.5q-47 113 -64.5 235.5t-13.5 241.5z" />
<glyph unicode=")" horiz-adv-x="403" d="M6 1505.5q0 36.5 27 63.5q29 27 64.5 26.5t62.5 -28.5q199 -199 225 -738q6 -121 -3 -225t-31.5 -204.5t-58.5 -200t-81 -207.5q-10 -25 -32.5 -39t-49.5 -14q-16 0 -35 6q-35 14 -48 48t1 68q43 100 76 191.5t53.5 181.5t28.5 184.5t2 202.5q-25 471 -174 621 q-27 27 -27 63.5z" />
<glyph unicode="*" horiz-adv-x="612" d="M2 1298q-4 37 21.5 65t62.5 30q8 2 16.5 2t18.5 2q-6 8 -13.5 16t-11.5 17q-23 31 -14.5 66.5t37.5 55.5q31 23 66.5 16t58.5 -38q8 -12 19 -26.5t24 -30.5q20 29 37.5 53t27.5 41q23 29 58.5 36t64.5 -16q31 -23 37 -58.5t-14 -66.5q-4 -6 -10.5 -13t-12.5 -17q2 2 8 2 q37 8 68 -11.5t39 -56.5q10 -35 -10.5 -65.5t-57.5 -40.5q-4 0 -11 -1.5t-17 -3.5q4 -4 7 -6t7 -4q29 -23 36 -58.5t-16 -66.5q-29 -37 -73 -37q-25 0 -52 17q-16 12 -40.5 33.5t-53.5 50.5q-20 -29 -36.5 -54.5t-30.5 -44.5q-12 -18 -32 -27t-40 -9q-31 0 -53 16 q-29 23 -35 58.5t16 64.5q6 12 19 29h-21h-6q-35 0 -60.5 23.5t-27.5 57.5z" />
<glyph unicode="+" horiz-adv-x="1067" d="M2 780q-2 37 23.5 64.5t62.5 27.5q51 4 127 1t166 -7q2 70 9 137.5t28 131.5q10 35 44 51t68 6q35 -12 51.5 -45t4.5 -68q-16 -47 -21.5 -105.5t-5.5 -117.5q68 -4 131.5 -9t119.5 -10.5t100 -10.5t73 -9q35 -6 57.5 -35.5t16.5 -66.5q-4 -33 -30 -53.5t-58 -20.5h-13 q-51 8 -160.5 17.5t-238.5 19.5v-6q0 -25 1 -49.5t1 -49.5q4 -49 4 -99t-6 -101q-4 -35 -28.5 -57.5t-59.5 -22.5h-10q-37 4 -59.5 33.5t-18.5 64.5q4 41 4 85t-2 91q-2 27 -3 53.5t-1 53.5v14q-86 4 -161 7t-124 1q-37 -4 -63.5 21.5t-28.5 62.5z" />
<glyph unicode="," horiz-adv-x="561" d="M354 207q-10 37 8.5 68.5t53.5 41.5t67.5 -8t42.5 -53q14 -53 14.5 -102.5t-1.5 -96.5q-2 -39 -2 -75.5t10 -69.5q10 -35 -7.5 -67.5t-52.5 -43.5q-16 -4 -24 -4q-29 0 -52.5 17.5t-33.5 46.5q-16 53 -17.5 105t0.5 100q4 39 4.5 74.5t-10.5 66.5z" />
<glyph unicode="-" horiz-adv-x="759" d="M37 657q0 37 24.5 62.5t65.5 25.5q70 0 137.5 -4t132.5 -8q66 -4 127.5 -7t124.5 -3q37 0 62.5 -26.5t25.5 -63.5t-25.5 -62.5t-62.5 -25.5q-68 0 -133 4t-131 8q-63 4 -127.5 7t-130.5 3q-37 0 -63.5 27t-26.5 63z" />
<glyph unicode="." horiz-adv-x="403" d="M147 150q4 35 34 57t67 16q35 -4 56.5 -29.5t19.5 -58.5q16 -29 10 -61.5t-33 -53.5q-25 -18 -55 -18q-45 0 -70 35q-39 51 -29 113z" />
<glyph unicode="/" d="M69.5 -329q-10.5 36 6.5 69q27 49 62.5 130t75.5 177t81 198.5t78 192.5q23 55 42 104.5t36 88.5q20 53 50.5 129t63.5 160t66 169t60.5 155.5t46 119.5t22.5 61q10 35 42.5 51.5t67.5 6.5t52.5 -44t5.5 -69q-4 -14 -23.5 -65.5t-47.5 -123t-60.5 -157.5t-66.5 -170 t-64.5 -161t-51.5 -128q-16 -41 -35.5 -89t-41.5 -105q-39 -96 -81 -200.5t-82 -201t-77 -179.5t-64 -134q-12 -23 -33.5 -35t-43.5 -12q-18 0 -43 10q-33 16 -43.5 52z" />
<glyph unicode="0" horiz-adv-x="864" d="M7 470q1 56 3 99l2 58q2 57 6.5 133t13.5 158.5t25.5 166.5t45 158t69.5 133.5t98 91.5q137 78 316 -20q14 -8 27.5 -16.5t27.5 -18.5q57 4 104 -41q43 -39 64.5 -115.5t29 -167t3.5 -184.5t-11.5 -172t-15.5 -128t-8 -52q-16 -57 -55 -148.5t-100.5 -178.5 t-145.5 -149.5t-189 -62.5q-14 0 -24 2q-76 6 -128 38t-84 79t-48.5 104.5t-21.5 117t-4 115.5zM166 430q10 29 21.5 57.5t21.5 59.5q72 188 150.5 387t156.5 373l-4 4q-39 20 -66.5 27.5t-46.5 7.5q-23 0 -35 -4.5t-16 -8.5q-39 -23 -66.5 -73t-47 -116.5t-32 -142 t-19.5 -147.5t-10 -133.5t-3 -99.5l-4 -60q-2 -70 0 -131zM231 201q33 -27 76 -29q59 -6 115.5 38t102.5 109.5t80 141.5t50 133q6 27 13.5 82t11.5 123.5t5 142.5t-3 139h-4q-53 10 -64 62q-66 -154 -132 -323t-126 -328q-23 -59 -44 -117t-42 -109q-4 -16 -13 -31.5 t-26 -33.5z" />
<glyph unicode="1" horiz-adv-x="1034" d="M334 1073q-10 31 5 58.5t44 37.5q25 8 72 37t94 63t84 67.5t41 56.5q4 31 29.5 48t56.5 13t49 -29.5t14 -56.5q-18 -133 -37.5 -280.5t-30 -301t-10.5 -310.5t23 -308q2 -8 -2 -25q35 -4 72 -6t90 4q31 4 56.5 -14t29.5 -51q4 -31 -15.5 -56.5t-50.5 -29.5q-55 -6 -94 -6 q-41 0 -75 4t-64 10q-47 8 -98.5 12t-135.5 -8q-33 -4 -58.5 14.5t-29.5 51.5q-4 31 14.5 56.5t51.5 29.5q47 6 85 8t70 0l-4 24v13q-14 119 -16 239.5t3 240.5t16.5 236.5t25.5 227.5q-35 -25 -69.5 -46.5t-63.5 -37t-49.5 -24.5t-26.5 -11q-29 -10 -57.5 5t-38.5 44z" />
<glyph unicode="2" horiz-adv-x="1163" d="M16 88q23 35 69 88t114 129q53 57 117.5 130t131 154t128 165t107.5 165.5t71.5 157.5t19.5 137q-6 70 -67 117q-37 12 -107 -25.5t-143.5 -100t-138 -135.5t-93.5 -132q-14 -29 -46 -41t-60 4q-31 14 -42 46t3 61q18 41 62 98t102.5 118.5t127 118t140.5 95.5t140.5 52 t127.5 -13q4 -2 6 -4.5t7 -4.5q125 -88 143 -237q8 -80 -16.5 -167t-70.5 -178t-110.5 -184.5t-136.5 -181.5t-145.5 -170t-137.5 -153q-10 -10 -17 -18.5t-15 -18.5q68 8 124 12t107 6t99.5 1t99.5 -1h114q29 0 72 -6q20 -2 51 -4t54 0q18 35 59 41q35 6 61.5 -13.5 t30.5 -54.5q8 -51 -26 -90q-41 -41 -105.5 -43t-138.5 4q-16 2 -31.5 3t-26.5 1h-116q-68 2 -130.5 2t-132 -4t-154.5 -15t-198 -32q-4 -2 -14 -2q-43 0 -66 35q-31 43 -4 88z" />
<glyph unicode="3" horiz-adv-x="1245" d="M21.5 378q-1.5 28 3.5 50q14 82 84.5 155.5t181.5 123.5q29 12 57.5 0.5t40.5 -39.5q12 -29 2 -56.5t-39 -40.5q-74 -35 -124 -81t-58 -89q-2 -10 2 -37.5t47 -68.5q55 -53 157.5 -83t213 -35t211 12.5t155.5 58.5q92 66 125 144.5t2 160.5q-18 51 -58 94t-91 73 t-111.5 44t-122.5 8q-25 -4 -45 10.5t-30 36.5q-10 23 -4 46.5t26 39.5q47 37 115.5 103.5t134.5 132.5l35 35q-86 2 -187.5 4t-201 4t-189.5 4t-155 6q-4 -29 -7.5 -54.5t-5.5 -37.5q-2 -31 -25.5 -51.5t-51.5 -18.5q-31 2 -52.5 25.5t-17.5 54.5q0 2 2 19.5t5 44t8 57.5 t12 57q8 27 29.5 42.5t47.5 13.5q45 -2 120 -5.5t166 -6.5t189.5 -5t191.5 -3t173 -2t133 -1q23 0 42.5 -12.5t27.5 -34.5q16 -49 -21 -84q-29 -25 -71.5 -67t-92.5 -89l-67.5 -67.5t-65.5 -63.5q123 -33 218.5 -110.5t136.5 -188.5q47 -129 1 -255t-180 -224 q-68 -49 -176 -74.5t-231 -25.5q-74 0 -148.5 9t-143.5 29.5t-127 51t-101 71.5q-35 33 -55.5 67t-29.5 64.5t-10.5 58.5z" />
<glyph unicode="4" horiz-adv-x="1497" d="M-18 346q6 51 40.5 143.5t86 203t115 228t128 220t125 179.5t105.5 103q29 16 62.5 8t49.5 -36q16 -29 8 -63t-36 -50q-27 -16 -68 -66.5t-87 -123t-95 -160.5t-95.5 -177t-84 -172t-62.5 -149q147 18 305 36.5t324 33.5q10 72 19 145.5t20 145.5q6 47 13 94t13 94 q4 35 30 54.5t60 15.5q35 -4 54.5 -31t15.5 -61q-6 -47 -12 -94.5t-15 -94.5q-8 -66 -16 -129t-16 -127q20 0 40.5 1t43.5 1q59 2 120.5 5t114.5 14q20 35 60 41q57 6 104 -19q47 -27 43 -78t-51 -69q-90 -35 -190.5 -43.5t-196.5 -12.5q-29 -2 -54.5 -2t-52.5 -2 q-10 -88 -14 -171t-2 -158q0 -35 -22.5 -58.5t-57.5 -25.5h-2q-33 0 -56.5 22.5t-23.5 56.5q-4 76 1 156t13 166q-193 -16 -373 -38.5t-339 -45.5q-4 -2 -11 -2q-37 0 -57 25q-29 29 -24 67z" />
<glyph unicode="5" horiz-adv-x="1658" d="M16 428q4 35 29 57.5t57 20.5q35 -2 57.5 -26.5t20.5 -59.5q-4 -72 14.5 -120t50 -80t71.5 -48t79 -22q70 -12 146.5 0t144.5 43.5t120 83t73 118.5q37 127 -54 246q-43 57 -108.5 105.5t-139 82t-146.5 52t-132 16.5q-47 0 -70 41q-27 39 -2 80q8 16 17.5 37.5 t19.5 46.5q23 59 52.5 121.5t76.5 97.5q33 25 72 36t80 15t83 2t83 -4q23 -2 42 -3t38 -1h833q33 0 56.5 -23.5t23.5 -58.5t-23.5 -58.5t-56.5 -23.5h-833q-23 0 -45.5 1t-45.5 3q-29 2 -59.5 4t-59 1t-52 -6t-37.5 -15q-20 -14 -40 -58.5t-34 -82.5q70 -12 145.5 -39 t147 -66t135 -91t110.5 -114q68 -92 88.5 -190t-10.5 -201q-27 -88 -85 -156.5t-136 -114.5t-168 -70.5t-178 -24.5q-27 0 -51.5 2t-48.5 6q-172 29 -265.5 146.5t-85.5 291.5z" />
<glyph unicode="6" horiz-adv-x="909" d="M-13.5 390q15.5 122 60.5 253t114.5 261t150.5 243t166 199t161 129q29 16 61.5 5.5t49.5 -38.5q16 -29 6 -62t-39 -49q-61 -35 -133 -108.5t-142.5 -172t-132 -213t-104.5 -227.5q53 27 112.5 39.5t118 14.5t112.5 -7.5t101 -25.5q92 -33 143.5 -78t74 -91t25.5 -87 t-1 -66q-10 -74 -55 -141.5t-112 -119.5t-148.5 -86t-167.5 -38q-10 -2 -18.5 -2h-18.5q-98 0 -165 25.5t-110 63.5t-65.5 81t-32.5 80q-27 96 -11.5 218zM156 211q6 -23 20 -46.5t42 -42t71 -29.5t110 -7q59 2 116.5 26.5t103 60.5t75 78t35.5 81q16 92 -133 145 q-45 16 -96 21.5t-99.5 -0.5t-91 -20.5t-73.5 -39.5q-72 -59 -60 -164q2 -37 -20 -63z" />
<glyph unicode="7" d="M-23 1340q-12 32 5 63q14 31 45.5 42t62.5 -5q80 -39 170 -66.5t183.5 -47t189.5 -34t192 -24.5q47 -6 113 -12.5t136.5 -9.5t141 1t125.5 19q10 4 22.5 8t25.5 8q31 10 60.5 -4t41.5 -45q10 -31 -3 -60.5t-42 -44.5l-55 -18q-16 -4 -29.5 -8t-26.5 -8 q-43 -14 -74.5 -24.5t-56 -23t-45 -29t-41.5 -40.5q-61 -72 -109 -136.5t-96 -129.5q41 2 89.5 4t103.5 6q35 2 59.5 -19.5t26.5 -54.5q4 -35 -18.5 -59.5t-57.5 -28.5q-100 -6 -176 -9t-141 -7q-14 -23 -28.5 -43.5t-31.5 -44.5q-16 -25 -47 -66q-20 -27 -44.5 -60.5 t-48.5 -70.5t-43 -75t-30 -70q29 -16 39 -52q8 -29 -5 -56.5t-42 -37.5q-10 -8 -25.5 -16t-39.5 -8q-6 0 -12.5 1t-14.5 3q-49 10 -61 59q-14 61 0 125t45.5 126t72.5 120.5t78 109.5q10 14 20.5 27.5t20.5 26.5h-29h-104h-145q-35 0 -58.5 23.5t-23.5 58.5t23.5 58.5 t58.5 23.5h147q72 -2 129 -2.5t113 2.5q66 96 129 185t151 191l6 6q-53 4 -100 9.5t-86 9.5q-207 23 -409.5 62.5t-383.5 125.5q-31 14 -43 46z" />
<glyph unicode="8" d="M-18 172q-18 61 4 128t72.5 135.5t124 138t155.5 139.5q-23 18 -37 43q-29 49 -37 116.5t-3 135t18.5 126t27.5 89.5q25 51 71 105t105.5 96t128 64.5t138.5 10.5q86 -16 125.5 -59t56.5 -82q20 -55 13 -117.5t-28.5 -123t-52 -113t-57.5 -89.5q-43 -53 -121 -120 q66 -29 119 -74q78 -68 124 -156t50 -182q10 -182 -105 -287q-78 -72 -184 -98.5t-213 -26.5q-35 0 -68.5 2t-64.5 7q-29 2 -83 10t-110.5 28.5t-103.5 57.5t-65 96zM137 219q0 -2 7.5 -11t30 -21.5t66.5 -24.5t119 -21q141 -16 246 3.5t158 68.5q59 59 53 162 q-4 59 -33.5 117.5t-83.5 103.5q-72 59 -161 76q-55 -47 -129 -111.5t-137.5 -129t-104.5 -122t-31 -90.5zM422 975q-2 -51 4 -91t20 -50h5q8 2 16 2h16q66 53 118 100t77 80t47.5 72.5t37.5 79.5t20 75t-3 57q-4 6 -14 18.5t-47 20.5q-4 0 -9 1t-12 1q-31 0 -67.5 -16 t-70.5 -44t-62.5 -61.5t-42.5 -66.5q-14 -29 -22.5 -78t-10.5 -100z" />
<glyph unicode="9" horiz-adv-x="933" d="M20 1092q16 88 69.5 161.5t137.5 122.5q98 59 216 74.5t225 -18.5q18 -4 50 -16.5t66 -31.5h2q23 0 41.5 -13t26.5 -34q29 -27 46.5 -57.5t6.5 -69.5q-10 -43 -49 -55q-2 -10 -2 -18.5t-2 -18.5q-8 -141 -22.5 -278.5t-30.5 -272.5q-12 -100 -23.5 -201.5t-19.5 -205.5 q2 -8 2 -23v-12q2 -29 0 -60.5t-19 -66.5q-10 -23 -27.5 -34t-39.5 -11q-12 0 -19 2q-27 6 -42 27.5t-13 48.5q8 141 22.5 279.5t30.5 273.5q4 47 10.5 94t10.5 94q-20 -14 -42 -27.5t-48 -23.5q-55 -23 -116.5 -30t-122 0t-116 29.5t-98.5 57.5q-72 59 -100.5 139 t-10.5 175zM166 1063q-18 -106 57 -168q57 -47 142.5 -57.5t160.5 20.5q92 39 131.5 111.5t49.5 181.5q2 27 3 52.5t1 49.5q-37 20 -88 37q-55 16 -111 17q-111 0 -209 -58q-39 -23 -81 -67.5t-56 -118.5z" />
<glyph unicode=":" horiz-adv-x="262" d="M6 459q4 35 33.5 57t66.5 16q35 -4 56.5 -29.5t19.5 -58.5q16 -29 10 -61.5t-32 -52.5q-25 -18 -56 -19q-45 0 -69 35q-39 51 -29 113zM10 1069q4 35 34 57.5t67 16.5q35 -4 56 -30t19 -58q16 -29 10 -61.5t-32 -53.5q-25 -18 -55 -18q-45 0 -70 34q-39 51 -29 113z" />
<glyph unicode=";" horiz-adv-x="575" d="M9 130.5q-7 35.5 16 64.5q35 51 72.5 99t76.5 95q59 74 114.5 146.5t98.5 150.5q16 33 51 43t68 -6q35 -16 44 -52t-7 -69q-47 -90 -107.5 -169t-124.5 -157q-37 -47 -72.5 -91t-68.5 -91q-27 -39 -72 -39q-25 0 -51 17q-31 23 -38 58.5zM164 995.5q-2 36.5 24 65.5 q23 25 57 28t62 -18q29 12 58.5 4t48.5 -33q23 -31 16.5 -66.5t-35.5 -57.5q-37 -29 -88 -29q-29 0 -58.5 11t-53.5 34q-29 25 -31 61.5z" />
<glyph unicode="&#x3c;" horiz-adv-x="1226" d="M16 784q-2 29 12.5 51.5t39.5 32.5l120 60q57 29 137.5 67.5t168.5 81.5l176 86t160.5 81t123 64.5t64.5 37.5q31 23 66.5 17.5t58.5 -36.5q23 -29 17.5 -64.5t-36.5 -58.5q-41 -33 -250.5 -138t-572.5 -280q53 -31 117.5 -69.5t144.5 -85.5q76 -47 163 -98.5t167 -97.5 t141 -79t90 -41q35 -10 52.5 -42.5t7.5 -67.5q-10 -29 -34 -46.5t-52 -17.5q-16 0 -25 4q-66 20 -219.5 107.5t-382.5 226.5q-61 37 -123.5 74t-118 68.5t-96.5 55t-59 30.5q-53 20 -58 77z" />
<glyph unicode="=" horiz-adv-x="897" d="M16 510q10 35 43 52.5t68 6.5q49 -16 109.5 -22t125 -8t132 0t133.5 6q43 2 83.5 4t77.5 2t64 -25.5t27 -62.5t-26 -63.5t-62 -26.5q-74 0 -156 -6q-57 -2 -114.5 -4.5t-117.5 -2.5q-88 0 -173 8.5t-156 30.5q-35 10 -52.5 43t-5.5 68zM43 838q0 37 26.5 62.5t63.5 25.5 q29 0 58.5 1t60.5 3q55 2 111.5 3t112.5 -3t110.5 -17.5t101.5 -40.5q33 -18 42 -53t-7 -67q-27 -45 -78 -45q-25 0 -43 12q-63 35 -154.5 36t-187.5 -3q-33 -2 -64.5 -3t-62.5 -1q-37 0 -63.5 26.5t-26.5 63.5z" />
<glyph unicode="&#x3e;" horiz-adv-x="1179" d="M37 1282.5q-4 36.5 18 65.5q23 29 60 32.5t65 -18.5q29 -23 86.5 -55.5t131 -71.5t157.5 -81t166 -81q102 -49 194 -95t160 -83q39 -23 45 -64q6 -43 -20 -73q-29 -31 -89.5 -83t-139 -113.5t-171 -128t-181.5 -129t-169 -115t-135 -85.5q-25 -10 -43 -10q-53 0 -78 43 q-18 33 -9 69t42 54q68 39 168 106.5t207.5 143.5t208 152.5t170.5 134.5q-53 27 -113.5 56.5t-124.5 59.5q-94 45 -182 89.5t-164 84t-135.5 74.5t-91.5 62q-29 23 -33 59.5z" />
<glyph unicode="?" horiz-adv-x="942" d="M2 1059.5q-8 62.5 14 126.5q20 61 71.5 110.5t118 86t143.5 59t151 28.5q137 12 240.5 -28.5t154.5 -130.5q43 -74 38 -145.5t-39 -139.5t-85 -131.5t-102 -120.5q-18 -20 -43 -49t-47.5 -57.5t-37 -53t-10.5 -36.5q4 -8 17 -17q18 -14 80 -33q35 -10 52 -42.5t7 -67.5 q-8 -29 -31.5 -46.5t-52.5 -17.5q-8 0 -25 4q-18 4 -48.5 15.5t-64.5 31t-63.5 50t-42.5 73.5q-12 47 -1.5 92.5t36 90.5t63 90t78.5 92q47 53 86 100t62.5 88t30 76t-10.5 66q-23 41 -83 59t-142 10q-61 -6 -118.5 -23.5t-101.5 -41t-75 -50t-39 -51.5q-6 -23 -4 -40t8 -25 q2 -4 6.5 -6t16.5 0q37 4 65.5 -19.5t32.5 -60.5t-19.5 -65.5t-60.5 -32.5q-53 -4 -101 14t-79 59q-37 47 -45 109.5zM430 -90q0 37 25 63q27 27 63.5 27t63.5 -27l10 -12q27 -27 26.5 -62.5t-26.5 -62.5q-25 -27 -62 -26q-39 0 -63 26l-12 10q-25 27 -25 64z" />
<glyph unicode="@" horiz-adv-x="1392" d="M1 580.5q-9 105.5 11.5 212t70.5 210t126 189.5q129 147 292 200.5t335 2.5q82 -25 151.5 -84.5t121.5 -138t86 -169t46 -176.5q23 -158 -23.5 -278.5t-150.5 -188.5q-139 -86 -236 -30q-29 16 -51 43q-37 -39 -90 -54.5t-119 -3.5q-59 10 -117.5 44t-101.5 82 t-67.5 108.5t-16.5 124.5q12 98 71.5 178t147.5 121q70 29 139.5 27.5t133.5 -35.5q29 20 57 18q35 -2 60.5 -26.5t25.5 -59.5v-78q0 -4 -2 -6v-33q-2 -27 -3 -70.5t0 -89t5 -84t17 -53.5q2 4 15 8.5t36 20.5q41 25 62.5 62.5t29.5 77.5t7 80t-5 69q-10 74 -38 143.5 t-65.5 127.5t-84 98t-91.5 55q-119 35 -234.5 -4t-209.5 -148q-59 -66 -97 -145.5t-55.5 -161.5t-12.5 -163t36 -148q37 -86 116 -156t176 -113t200.5 -55t193.5 16q51 16 105.5 48t99.5 67t74.5 66.5t33.5 50.5q-4 37 20.5 63.5t61.5 30.5q37 2 64.5 -23.5t30.5 -62.5 q4 -63 -42.5 -127.5t-115 -121t-144 -98.5t-133.5 -60q-47 -16 -94 -22.5t-96 -6.5q-109 0 -217.5 31.5t-204.5 88t-172 136.5t-119 176q-41 92 -50 197.5zM444 653q-4 -25 10.5 -52.5t38 -50t53 -38.5t58.5 -23q35 -6 48.5 6.5t19.5 39.5q10 47 20 100t21 149q-4 4 -17 13 q-41 27 -78 26q-33 0 -57 -14q-47 -20 -78.5 -63.5t-38.5 -92.5z" />
<glyph unicode="A" horiz-adv-x="1075" d="M3 514q-3 10 -3 21q0 18 10 36q16 27 45 36t56 -7q34 -19 96 -19q51 0 121 13q4 14 8 26.5t8 26.5q12 39 23.5 73t19.5 62q8 31 14.5 77t12.5 99q8 66 17 134.5t25.5 130t43 111.5t69.5 81q22 15 44 15q18 0 36 -11q37 -21 37 -61v-8q-2 -23 5 -58t18.5 -74.5t26 -81.5 t28.5 -81q23 -61 41 -119.5t29 -106.5q4 -23 7 -46t7 -48q10 -23 6 -41q2 -16 4 -33.5t4 -35.5q8 -70 17.5 -142.5t24 -139.5t35.5 -125t56 -99q19 -21 19 -48q0 -32 -25 -55q-23 -18 -49 -18q-29 0 -55 22l-6 7q-20 23 -42 45t-38 51q-14 19 -14 39q0 13 6 28 q-29 86 -44.5 179.5t-25.5 185.5q-68 -27 -138.5 -49.5t-140.5 -38.5q-16 -53 -32.5 -108.5t-28.5 -105.5t-19.5 -95t-7.5 -78q0 -31 -21.5 -52.5t-51.5 -21.5h-2q-29 2 -51.5 23.5t-20.5 52.5q0 70 21.5 163t50.5 193q-18 -2 -37 -3t-35 -1q-49 0 -91 8.5t-77 26.5 q-27 16 -36 45zM496 635q94 27 204 72v12q-4 23 -6 43t-6 39q-8 41 -25.5 93t-37.5 112q-10 29 -19.5 56.5t-19.5 55.5q-8 -45 -14.5 -90t-10.5 -86q-6 -57 -13 -109.5t-20 -91.5q-6 -23 -14 -49t-18 -57z" />
<glyph unicode="B" d="M-66 377q-4 12 -4 25q0 16 8 32q14 28 44 39q31 12 61.5 0t40.5 -43q14 -41 53 -86t92 -82q-10 52 -12 116q-1 32 -1 67.5t1 74.5v66.5t-2 52.5q-4 39 -7 77t-7 79q-10 109 -21.5 217t-44.5 211v2q-23 -4 -36 -2t-29 12q-14 8 -23.5 21.5t-13.5 27.5q-8 33 8 59.5 t51 34.5q6 2 23 2q6 2 17 5.5t28 7.5q53 14 125.5 31.5t148.5 25.5q38 4 75 4t73 -4q72 -8 127 -45q35 -29 57 -68t27 -88q1 -9 0 -18q0 -57 -22 -109q-26 -61 -71 -119.5t-103 -110.5t-118 -97q127 -41 242 -108t174 -173q43 -77 43 -164q0 -71 -29 -149 q-41 -109 -127 -166.5t-209 -57.5h-2q-94 0 -194.5 34t-188.5 89.5t-156.5 127t-97.5 149.5zM285 1266q29 -92 42 -185.5t21 -185.5q139 94 216 185q73 87 73 150v7q-2 20 -7.5 28.5t-13.5 12.5q-22 14 -62 18q-20 2 -41.5 2t-44.5 -2q-46 -4 -94 -13t-89 -17zM369 653 q4 -25 4 -59.5v-75.5v-70.5t2 -85t8 -79t16 -47.5q35 -22 35 -60q0 -9 -2 -18q35 -10 71 -17.5t70 -7.5q142 0 189 123q19 49 19 93q0 50 -25 91q-35 70 -136.5 127.5t-250.5 96.5v-11z" />
<glyph unicode="C" horiz-adv-x="1236" d="M-4 963q41 274 215 399q85 64 193 84q52 10 109 9q61 0 128 -11q185 -34 281 -138q78 -86 78 -199q0 -25 -3 -52q-4 -35 -29.5 -53.5t-56.5 -14.5q-33 4 -51 29.5t-14 56.5q1 12 1 24q-1 41 -17 72q-22 39 -58.5 65t-79.5 39t-78 19q-36 6 -74 8q-12 1 -24 1 q-27 1 -55 -3q-41 -6 -82 -19t-78 -40q-123 -90 -154 -301q-9 -60 -9 -122q0 -64 10 -130q18 -131 67 -244.5t128 -196.5t183 -108q35 -7 73 -7q15 0 31 1q56 4 112.5 21.5t111.5 47t102 70.5q25 20 55.5 54t56.5 80.5t41 103.5q11 41 11 87q0 19 -2 38q-2 33 18.5 57.5 t51.5 26.5q33 4 57.5 -17.5t24.5 -52.5q2 -26 2 -51q0 -113 -44 -217q-54 -127 -169 -225q-98 -86 -219 -132.5t-238 -46.5q-29 0 -56.5 4.5t-53.5 8.5q-137 33 -239.5 134t-167.5 239.5t-89 296.5q-12 80 -11 156q0 76 11 149z" />
<glyph unicode="D" horiz-adv-x="1775" d="M-66 131q-9 23 -9 46q0 81 112 161q22 15 47 15q8 0 16 -1q34 -6 56 -35q14 -23 14 -48q0 -7 -1 -15q-5 -34 -34 -53l-20 -15q31 -10 79 -16t101 -9t106.5 -4t96.5 -1q-16 76 -30.5 150.5t-29.5 148.5q-10 53 -20 104t-21 105q-12 59 -19 126.5t-13 133.5 q-10 98 -20.5 193t-39.5 169q-8 16 -4 39q-27 10 -42 33.5t-11 52.5q4 35 30 57q22 18 49 18q5 0 11 -1q53 -6 141 -27.5t196.5 -58.5t229.5 -87t240 -111.5t228.5 -132.5t193.5 -149.5t137 -163.5t59 -175q1 -13 1 -26q0 -106 -58 -188q-66 -92 -175.5 -157.5 t-248.5 -107.5t-274.5 -66.5t-253 -33.5t-187.5 -9q-115 0 -221 4t-192 19.5t-145 42t-75 73.5zM479 1286q23 -82 33 -170t20 -178q4 -66 11.5 -127t17.5 -115q10 -53 20.5 -105t20.5 -106q16 -78 31.5 -158.5t32.5 -158.5q78 6 179 16.5t206.5 28.5t206 47t177 72 t121.5 100q41 52 41 122v13q-6 70 -63 143.5t-150.5 144.5t-210 137.5t-239.5 122.5t-242 100.5t-213 70.5z" />
<glyph unicode="E" horiz-adv-x="1386" d="M16 708q12 30 39 46q47 23 99.5 34t107.5 19q-4 117 -6 239v49q0 96 6 181q-84 8 -172 29q-33 8 -50 35.5t-9 60.5q7 33 35 50q19 12 40 12q10 0 21 -3q175 -41 375 -42h36q182 0 367 9q72 4 139.5 5.5t133.5 3.5h2q29 0 51 -18.5t26 -47.5t-9 -54.5t-40 -35.5 q-33 -10 -62.5 -32.5t-55.5 -51.5q-25 -27 -60 -27q-33 0 -53 21q-16 16 -22.5 36.5t-2.5 43.5q-10 -2 -20 -2h-21q-123 -4 -245 -8q-50 -1 -101 -1q-72 0 -143 3q-6 -78 -6 -170v-46q2 -118 6 -229h48q71 0 138 -4q90 -6 162 -12q41 -4 66 -6q35 -4 56 -28t17 -58 q-3 -33 -27 -55q-22 -20 -53 -19h-6q-29 2 -67 6q-63 6 -149.5 12t-178.5 6q2 -29 3 -54t1 -46q2 -37 5 -75t7 -78q4 -41 8.5 -81t6.5 -81q35 -2 71.5 -4t71.5 -4q70 -4 139.5 -8.5t141.5 -12.5q18 -3 53 -3h19q49 1 101 4t97 7t59 8q33 8 60.5 -7t38.5 -48q4 -12 4 -24 q1 -18 -9 -36q-16 -28 -49 -38q-25 -8 -80 -13.5t-116.5 -8.5t-116.5 -4h-21q-39 0 -59 3q-68 10 -136.5 13.5t-133.5 7.5q-35 4 -71 5t-70 5q-2 -6 -2 -11t-2 -9q-6 -39 -39 -56q-16 -10 -39 -10q-16 0 -31 6q-45 18 -106.5 56t-110.5 79q-23 16 -28 44t5 53q12 25 37 37 t53 6q51 -12 109 -19q-4 31 -6 62.5t-6 64.5q-4 41 -8.5 82t-6.5 82q0 20 -1 44t-1 50q-41 -4 -78.5 -13t-68.5 -26q-16 -6 -33 -6q-23 0 -42.5 11t-29.5 34q-8 17 -8 34q1 13 6 27zM16 708q12 30 39 46q47 23 99.5 34t107.5 19q-4 117 -6 239v49q0 96 6 181q-84 8 -172 29 q-33 8 -50 35.5t-9 60.5q7 33 35 50q19 12 40 12q10 0 21 -3q175 -41 375 -42h36q182 0 367 9q72 4 139.5 5.5t133.5 3.5h2q29 0 51 -18.5t26 -47.5t-9 -54.5t-40 -35.5q-33 -10 -62.5 -32.5t-55.5 -51.5q-25 -27 -60 -27q-33 0 -53 21q-16 16 -22.5 36.5t-2.5 43.5 q-10 -2 -20 -2h-21q-123 -4 -245 -8q-50 -1 -101 -1q-72 0 -143 3q-6 -78 -6 -170v-46q2 -118 6 -229h48q71 0 138 -4q90 -6 162 -12q41 -4 66 -6q35 -4 56 -28t17 -58q-3 -33 -27 -55q-22 -20 -53 -19h-6q-29 2 -67 6q-63 6 -149.5 12t-178.5 6q2 -29 3 -54t1 -46 q2 -37 5 -75t7 -78q4 -41 8.5 -81t6.5 -81q35 -2 71.5 -4t71.5 -4q70 -4 139.5 -8.5t141.5 -12.5q18 -3 53 -3h19q49 1 101 4t97 7t59 8q33 8 60.5 -7t38.5 -48q4 -12 4 -24q1 -18 -9 -36q-16 -28 -49 -38q-25 -8 -80 -13.5t-116.5 -8.5t-116.5 -4h-21q-39 0 -59 3 q-68 10 -136.5 13.5t-133.5 7.5q-35 4 -71 5t-70 5q-2 -6 -2 -11t-2 -9q-6 -39 -39 -56q-16 -10 -39 -10q-16 0 -31 6q-45 18 -106.5 56t-110.5 79q-23 16 -28 44t5 53q12 25 37 37t53 6q51 -12 109 -19q-4 31 -6 62.5t-6 64.5q-4 41 -8.5 82t-6.5 82q0 20 -1 44t-1 50 q-41 -4 -78.5 -13t-68.5 -26q-16 -6 -33 -6q-23 0 -42.5 11t-29.5 34q-8 17 -8 34q1 13 6 27z" />
<glyph unicode="F" horiz-adv-x="1140" d="M-2 1284q-7 16 -7 32q0 20 11 40q18 35 59 39q193 23 382.5 36t375.5 25q59 4 115.5 7t114.5 7h9q44 0 64 -38q14 -22 14 -43t-14 -41q-31 -47 -82 -85t-100 -73q-12 -8 -22.5 -14.5t-20.5 -14.5q-29 -18 -60.5 -13t-52.5 32q-18 29 -13 60.5t34 51.5q2 0 6 4 q-156 -10 -313.5 -21t-317.5 -28q23 -84 33 -174t16 -176q2 -23 4.5 -42t4.5 -40q53 18 114.5 26.5t119.5 10.5q29 1 55.5 1t50.5 -1q48 -2 77 -6q33 -4 53 -31q15 -21 14 -45q0 -8 -1 -16q-4 -33 -30.5 -51.5t-59.5 -14.5q-45 6 -105.5 6t-119 -6t-104.5 -18.5t-60 -28.5 q-2 -18 -2 -38.5v-43.5v-125v-139.5t2 -123.5t8 -79q12 -20 12 -43.5t-16 -46.5q-25 -31 -64 -31q-27 0 -47 15q-18 14 -30.5 36.5t-18.5 81t-7 166.5v80q0 89 1 211q0 37 1 72t1 65.5t-1 53t-1 32.5q-4 25 -5 49.5t-3 49.5q-10 104 -23.5 211.5t-50.5 189.5z" />
<glyph unicode="G" horiz-adv-x="1392" d="M-32 646q3 118 34 229.5t74 193.5q57 111 151.5 197t207 141t235.5 75q57 10 112 10q64 0 127 -13q25 -4 68 -16.5t83 -37t68 -64.5q21 -31 21 -76q0 -14 -2 -28q-4 -33 -28.5 -53t-59.5 -16q-33 4 -53.5 28.5t-16.5 59.5q0 2 -3 6t-14 10t-34 14.5t-61 16.5 q-48 10 -97 10q-45 0 -90 -8q-98 -16 -187 -61t-165 -114t-121 -155q-41 -78 -64.5 -170t-25.5 -184v-14q0 -84 23 -161q24 -83 79 -140q25 -25 80.5 -49.5t129 -44t159.5 -32t170 -14.5h23q71 0 137 10q76 13 129 44q53 27 65 71q-2 18 -2 36v36v19q0 49 8 98q11 57 21 114 q10 47 16 91.5t9 85.5q-15 1 -29 1q-36 0 -73 -6q-54 -10 -111 -20q-78 -16 -160 -26q-27 -3 -55 -3l-109 13q-31 10 -48.5 36.5t-8.5 59.5q8 33 35.5 50t60.5 9q33 -9 70 -9q24 0 50 4q64 9 134 24q86 16 171 25q23 2 47 2q62 0 126 -17q51 -14 57 -68q4 -31 4 -62 q0 -39 -6 -78q-10 -71 -24 -140q-8 -43 -14.5 -84t-10.5 -80q8 -31 8 -60.5t-4 -58.5q4 -33 10 -64.5t13 -64.5q8 -39 15 -79t11 -83q1 -5 1 -11q0 -26 -18 -47q-20 -26 -54 -30h-9q-29 0 -51 20.5t-26 51.5q-4 29 -9.5 58.5t-9.5 58.5q-6 -4 -11 -7.5t-11 -7.5 q-70 -39 -162 -55t-193 -16q-102 0 -204.5 15t-192.5 41t-160.5 59.5t-107.5 72.5q-84 86 -117 199q-30 105 -30 212v20z" />
<glyph unicode="H" horiz-adv-x="1130" d="M-4 696q-10 20 -10 38q0 20 12 40q26 35 66 35h4t50 -2t132 -6q4 53 5 105t3 106q4 102 7 205.5t14 207.5q3 33 27 53q20 17 46 18q5 0 10 -1q31 -4 52.5 -27.5t17.5 -54.5q-10 -102 -13 -203.5t-7 -201.5q-2 -53 -3 -108.5t-6 -108.5q88 -6 188.5 -14.5t205.5 -18.5v16 q-12 150 -26.5 300.5t-37.5 293.5q-6 31 12.5 56.5t49.5 31.5t57.5 -12.5t30.5 -50.5q27 -147 41 -301t24 -306l4 -45q33 -4 64.5 -8t62.5 -8q31 -5 51 -29q16 -20 16 -46q0 -5 -1 -11q-4 -31 -28.5 -50.5t-57.5 -15.5l-98 13v-162q0 -92 2 -182t12 -152q6 -33 -12.5 -58.5 t-49.5 -31.5h-14q-29 0 -49.5 17.5t-26.5 45.5q-12 72 -14 168.5t-2 194.5q2 46 2 90t-2 86q-109 12 -213.5 20.5t-196.5 14.5q0 -45 1 -100.5t3 -113.5t5.5 -115.5t7.5 -104.5q2 -2 2 -6q10 -29 4 -50q2 -8 3 -16t3 -14q6 -18 12 -43q10 -29 -3 -56.5t-42 -37.5 q-16 -6 -28 -7q-47 0 -70 45q-4 10 -7 21.5t-7 26.5q-12 43 -20.5 73.5t-6.5 53.5q-20 49 -55 119.5t-73 142t-74 137t-56 104.5zM197 649q10 -20 22 -43.5t27 -48.5v90q-14 0 -26.5 1t-22.5 1z" />
<glyph unicode="I" horiz-adv-x="956" d="M-23 1403q0 2 2.5 14.5t9.5 25.5t23.5 25.5t46.5 14.5h7h10h12h6q29 0 54.5 -1t54.5 -1q27 -2 53.5 -2h52.5q2 0 10 4q18 2 39 -4h38q84 0 164 7q98 9 188 38q13 4 26 4q18 0 36 -8q30 -14 40 -45q4 -13 4 -26q0 -19 -8 -37q-14 -30 -47 -40q-88 -31 -183.5 -42 t-193.5 -13q7 -86 7 -173q0 -35 -1 -69q-4 -121 -14 -241q-10 -150 -16 -290q-1 -27 0 -55q0 -113 18 -221q66 16 129 18h34q46 0 91 -3q44 -3 86 -3h21q52 1 106 13q33 6 60.5 -10.5t35.5 -51.5q3 -10 3 -20q0 -21 -12 -41q-18 -28 -50 -35q-70 -16 -134 -17h-25 q-50 0 -99 3q-51 4 -97.5 4t-91.5 -10v-19q1 -6 1 -11q0 -31 -20 -53q-22 -26 -61 -32q-4 -2 -12 -2q-25 0 -45.5 14.5t-30.5 38.5q-14 -6 -27.5 -12t-27.5 -10q-43 -18 -79 -33.5t-48 -22.5q-18 -6 -35 -6q-51 0 -74 47q-14 31 -1.5 61.5t42.5 45.5q14 6 51 22.5t82 32.5 q18 10 38 17.5t38 15.5q-27 138 -27 277q1 20 1 40q4 160 14 320q10 126 14 242q1 33 1 66q0 83 -7 165h-61q-35 2 -67 2h-62h-11v2q-82 10 -82 80z" />
<glyph unicode="J" horiz-adv-x="1667" d="M-12 710v7q0 97 51 172q47 68 124 99q56 23 121 23q26 0 52 -3q35 -4 54.5 -30t15.5 -58q-4 -35 -30 -54.5t-59 -15.5q-13 1 -26 1q-24 0 -51 -4q-43 -7 -68 -48q-24 -35 -24 -83v-12q4 -57 36 -114q27 -45 78 -103.5t119 -119t144.5 -116.5t153.5 -98t149 -65 q49 -15 91 -15q18 0 35 3q82 12 121 82.5t49 181.5q4 48 4 101q0 70 -8 149q-12 139 -33 291q-10 86 -19 157.5t-9 126.5q-197 25 -404 68l-65 12q-18 4 -47 10.5t-62 12.5q-27 6 -61.5 14t-68.5 15.5t-62.5 12.5t-40.5 5q-25 -4 -47.5 6t-34.5 33q-16 29 -9 60.5t36 47.5 q14 8 29 12q6 1 16 1q12 0 30 -3q33 -4 90.5 -15t155.5 -34q70 -12 107 -22l65 -12q39 -8 99.5 -19.5t131 -24t148.5 -21.5t151 -12q32 -1 62 -1q40 0 78 2q65 4 114 20q-15 21 -15 45q0 13 5 27q10 33 40 47t61 4l16 -6q12 -4 27.5 -9t31 -17.5t28.5 -31t19 -49.5 q3 -10 3 -20q0 -25 -19 -47q-57 -68 -158.5 -96.5t-232.5 -28.5q-6 0 -12.5 1t-14.5 1q-4 -12 -8 -18q-12 -16 -20 -21q4 -45 10 -99t14 -114l25.5 -195.5t16.5 -207.5q1 -23 1 -45q0 -81 -9 -157q-11 -97 -45 -176t-94.5 -132.5t-158.5 -69.5q-14 -2 -27.5 -3t-27.5 -1 q-78 0 -164 29.5t-174 78t-172 111t-157 129t-128 131t-86 117.5q-55 98 -57 200z" />
<glyph unicode="K" horiz-adv-x="1140" d="M-2 66q-3 10 -2 20q0 16 6 31q18 41 26 107q9 64 10 138v50q0 50 -1 100q-2 76 -4 139q-2 41 -3 79t-3 69q0 66 2 121t6 104q2 54 4 102q1 24 1 48t-1 49q-2 49 -8 102t-19 115q-6 33 12.5 59.5t51.5 34.5q8 1 16 1q24 1 44 -13q26 -18 34 -52q14 -68 20.5 -127t7.5 -113 v-36q0 -36 -1 -70q-2 -52 -4 -108q-2 -49 -4.5 -102.5t-2.5 -112.5q0 -61 7 -144q2 -53 4 -107t2 -112q0 4 2 6q37 123 92 255t119.5 259t135 241t142.5 202q20 25 51 30t58 -14q27 -18 32 -49t-12 -59q-59 -98 -102 -205t-84 -223q-23 -59 -44.5 -119t-45.5 -119 q-16 -41 -35 -80t-39 -78q113 -20 210 -62t195 -89q57 -29 118 -56.5t128 -54.5q30 -11 44 -41q7 -16 7 -31t-6 -30q-10 -31 -40.5 -44.5t-61.5 -2.5q-72 29 -135.5 58.5t-124.5 57.5q-104 51 -203.5 92.5t-216.5 55.5q-29 -51 -60.5 -100.5t-62.5 -98.5q-16 -25 -31.5 -49 t-31.5 -49q-18 -29 -52 -35q-4 0 -8 -1t-8 -1q-15 0 -27 6q-15 -6 -29 -6q-26 0 -48 19q-21 17 -27 43zM197 338q6 8 11 15t9 16l-4 4q-4 8 -8 15t-6 15v-32.5t-2 -32.5z" />
<glyph unicode="L" horiz-adv-x="1122" d="M-2 121q33 117 69.5 285.5t57.5 353.5l8 80q6 53 14.5 125.5t14.5 145.5t11 136.5t5 100.5q-2 33 20.5 56t57.5 23t57.5 -22.5t22.5 -54.5q0 -39 -4 -104.5t-11.5 -140.5t-15.5 -149.5t-14 -134.5l-8 -78q-16 -160 -46 -305t-59 -262q92 0 194.5 10.5t207.5 22.5 q124 13 236 25q83 9 160 9q27 0 52 -1q34 -2 56 -26q21 -22 20 -52v-6q-2 -33 -27.5 -55.5t-54.5 -20.5q-26 1 -54 1q-70 0 -146 -7q-108 -10 -224 -25q-109 -12 -217.5 -23.5t-210.5 -11.5q-27 0 -51 1t-49 3q-39 4 -60 33q-16 21 -16 45q0 11 4 23z" />
<glyph unicode="M" horiz-adv-x="1497" d="M-39 82q27 66 61.5 179.5t70.5 249.5t70 280.5t59.5 270.5t39.5 221q12 83 12 123v11q-4 33 16.5 57.5t53.5 28.5q6 1 11 1q25 0 47 -16q26 -20 30 -50q18 -106 62.5 -219t91.5 -224q18 -43 35.5 -84t33.5 -82q10 -31 27.5 -65.5t34.5 -71.5q14 -29 28.5 -58.5 t28.5 -58.5q2 8 10 25q20 53 35 106.5t29 112.5q14 53 27.5 105.5t33.5 105.5q35 96 76 206t82 191q12 25 34.5 37.5t49.5 8.5t45 -22.5t23 -47.5q16 -129 45.5 -253t60.5 -247q27 -98 51.5 -200.5t42.5 -206.5q4 -31 11.5 -63t15.5 -64q16 -78 30.5 -155t16.5 -148 q0 -33 -22.5 -56.5t-55.5 -25.5h-2q-33 0 -56.5 22.5t-23.5 54.5q-2 61 -14 131t-29 142q-8 35 -15 68.5t-13 66.5q-16 100 -41 198.5t-50 196.5q-16 61 -31.5 123t-29.5 127q-14 -35 -26.5 -69.5t-24.5 -69.5q-16 -47 -29.5 -95.5t-25.5 -99.5q-16 -59 -33 -119.5 t-39 -119.5q-8 -23 -17.5 -42.5t-19.5 -39.5q-20 -41 -33.5 -75t-13.5 -71v-14q0 -33 -22.5 -56.5t-55.5 -23.5h-2q-33 0 -55.5 21.5t-24.5 54.5v16q-4 68 -40 151t-75 161q-18 41 -35.5 76.5t-31.5 70.5q-16 41 -32.5 81t-35.5 81q-12 33 -25.5 63.5t-27.5 63.5 q-27 -137 -63.5 -292t-74.5 -299t-75 -264t-63 -184q-10 -23 -30 -36t-44 -13q-17 1 -31 9q-29 12 -42 42q-7 16 -7 32q0 14 6 28z" />
<glyph unicode="N" horiz-adv-x="1083" d="M-24 1338q6 30 30 48q25 18 54.5 15.5t52.5 -25.5q43 -47 72.5 -100t52.5 -113q47 -86 94 -161.5t96 -139.5q27 -33 52.5 -67.5t51.5 -69.5q88 -117 184.5 -238.5t203.5 -220.5q6 66 7 163v66q0 67 -1 141q-2 110 -8.5 222.5t-16.5 209.5t-21.5 171t-25.5 107 q-33 24 -33 63q1 35 27 59q22 21 52 21h5q20 -2 45 -14.5t43 -53.5q18 -39 36 -143t31 -242t20 -290q5 -119 5 -227v-61q-2 -136 -14 -239.5t-39 -140.5q-20 -27 -53 -33q-33 -4 -59 14q-74 55 -142.5 123t-133 142.5t-124 152.5t-114.5 152q-27 35 -52.5 68.5t-50.5 68.5 q-4 0 -4 4q1 -35 1 -70v-34q-1 -52 -1 -101v-104v-76v-142.5t-2 -142.5q4 -33 1 -59.5t-32 -48.5q-23 -12 -45 -12q-25 0 -39 10q-25 14 -35 39.5t-10 72.5q2 72 2 141.5v141.5v76v106v132t-4 137.5t-14 135t-31 128.5q-4 8 -9 16t-9 17q-23 39 -43.5 75.5t-42.5 73.5 q-12 20 -12 41q0 7 2 15z" />
<glyph unicode="O" horiz-adv-x="1163" d="M4 740q20 134 80.5 259t151.5 215q134 134 288 142q10 1 21 0q142 0 268 -109q20 -16 27 -45q66 -51 124 -121.5t103 -156.5q82 -162 92 -318q1 -21 1 -42q0 -131 -56 -232q-84 -150 -200 -236t-251 -100q-12 -2 -25.5 -2h-25.5q-129 0 -252 64.5t-229 187.5 q-85 100 -111 230q-15 75 -15 151q1 56 9 113zM171 526q17 -100 79 -172q88 -104 188 -152q82 -40 163 -40q17 0 34 2q96 10 178 73.5t143 174.5q35 63 35 153q0 21 -2 43q-10 118 -71 240q-61 121 -151.5 199.5t-180.5 89.5q-48 6 -68 51q-49 -8 -90 -34t-76 -58 q-68 -68 -115 -165t-65 -201q-9 -54 -9 -107q0 -49 8 -97z" />
<glyph unicode="P" horiz-adv-x="1089" d="M-18 548q4 23 20 42q37 39 88 57q27 10 53.5 2t42.5 -31q41 2 83 7t87 12q-2 47 -6 95t-10 97q-18 141 -30 296q-19 231 -19 346q0 36 28 63q23 20 53 20q8 0 17 -2q57 -10 123 -34.5t130.5 -56t121.5 -69.5t98 -73q244 -200 244 -389v-6q-4 -137 -137 -240 q-78 -59 -195 -105.5t-248 -76.5q-2 -127 -18 -251t-49 -257q-8 -29 -30.5 -46.5t-51.5 -17.5q-12 0 -19 2q-35 8 -53 37q-12 20 -12 43q0 10 2 21q57 223 63 436q-82 -13 -156 -19q-42 -4 -82 -3q-30 0 -59 2q-53 4 -73 53q-7 16 -7 33q0 6 1 13zM463 1358q6 -145 16 -269 t27 -239q6 -47 10 -90t6 -88q104 29 195.5 64.5t150.5 80.5q50 41 60 71t10 44q0 50 -45 116q-47 68 -137 144q-53 43 -133 89t-160 77z" />
<glyph unicode="Q" horiz-adv-x="1153" d="M-9 666q-4 53 -4 106q0 66 6 132q11 120 46 230.5t94 190.5q98 129 238 129q78 0 162.5 -50t187.5 -134q53 -39 105.5 -86.5t97.5 -106.5q37 -49 73.5 -113.5t60 -144.5t30.5 -175q1 -21 1 -43q0 -76 -18 -161q-16 -82 -44 -150.5t-66 -123.5q35 -49 73.5 -100.5 t76.5 -93.5t73 -68q32 -23 55 -23h4q12 0 23.5 14.5t17.5 24.5q16 29 48 38t61 -7t37 -48q3 -10 3 -20q0 -21 -12 -41q-41 -72 -88 -95t-84 -26h-8q-98 0 -194.5 91.5t-200.5 238.5q-51 -37 -111.5 -57.5t-126.5 -22.5q-8 -2 -20 -2q-94 0 -181.5 35t-161 98.5t-130 152.5 t-86.5 196q-29 96 -38 215zM150 692q6 -106 32 -196v-2q14 10 29.5 18t38.5 18q49 18 112 24q44 5 87 5q20 0 39 -1q63 -3 119.5 -15.5t92.5 -34.5q33 -18 68 -64.5t92 -132.5q37 72 55 160q14 70 14 133q0 16 -1 31q-4 76 -23.5 139.5t-48.5 114.5t-59 90q-72 94 -162 156 q-8 4 -12 8q-72 49 -143.5 75.5t-127.5 30.5q-29 2 -51 23q-10 -10 -20.5 -19.5t-20.5 -23.5q-41 -55 -68.5 -142.5t-37.5 -188.5q-7 -62 -7 -126q0 -40 3 -80zM254 332q72 -109 166 -158q87 -45 167 -45h13q45 2 83 16.5t73 36.5q-4 4 -5 7.5t-6 7.5q-18 27 -36.5 55.5 t-37 53t-32.5 43t-23 24.5q-27 16 -80 22q-45 5 -92 5h-16q-55 -1 -100 -11t-56 -29q-6 -16 -18 -28z" />
<glyph unicode="R" horiz-adv-x="1452" d="M-100 1380q4 36 28 56q22 19 52 18h6q16 -2 28.5 -8t22.5 -16q20 -4 55 -5.5t76 -1.5t82 1t72 1q59 1 104 3q10 0 20 1q32 0 54 -4l26 -4q119 -12 237 -29.5t217 -47t174 -74.5t106 -111q18 -42 18 -98q0 -55 -47 -129q-47 -72 -127 -120t-175 -81t-196.5 -49t-189.5 -23 q133 -45 255 -99t239.5 -118.5t233 -138.5t234.5 -156q29 -18 34 -51q1 -7 1 -14q0 -25 -14 -45q-25 -35 -66 -35q-25 0 -45 14q-133 92 -260 172t-255 146.5t-263 121t-287 97.5q10 -88 16 -176q5 -67 5 -136v-42q14 -6 26 -19q23 -25 21 -57.5t-27 -54.5l-10 -13 q-12 -10 -28.5 -24.5t-45.5 -24.5q-16 -4 -26 -4q-29 0 -50 18q-29 22 -29 58q0 7 1 14q10 76 10 156q0 45 -3 91q-9 128 -24 255q-31 8 -61.5 14t-63.5 13q-27 4 -43 23.5t-20 45.5q-4 25 9 48.5t36 33.5q59 27 123 37q-3 46 -3 90v23q1 56 1 110q2 59 2 117.5t-4 114.5 q-109 0 -161 10t-77 37q-25 26 -25 58q0 5 1 11zM322 922.5q0 -52.5 4 -105.5h43h36.5t36.5 -2q76 0 174.5 11.5t192.5 36t173 63.5t116 94q22 33 22 49t-6 23q-10 20 -42 42.5t-99.5 46t-180 45t-280.5 38.5l-29 2q-16 3 -47 3h-17q-44 -1 -93 -3h-4q4 -59 4 -119t-2 -119 q-2 -53 -2 -105.5z" />
<glyph unicode="S" horiz-adv-x="1763" d="M-18 504q2 16 8 37.5t20.5 43t39 43t65.5 38.5q31 12 61.5 -1.5t42.5 -43.5q12 -29 -1 -60t-44 -43q-33 -16 -33 -29q-2 -18 11.5 -45.5t37 -57.5t52 -56.5t55.5 -44.5q98 -66 231.5 -103t273.5 -48q67 -5 133 -5q72 0 143 6q136 12 241 47q86 29 140 66t65 74 q4 18 -3.5 36.5t-20.5 37t-28.5 34.5t-27.5 29q-51 45 -119 74.5t-145.5 49t-161.5 31t-170 21.5q-127 14 -241.5 31.5t-215.5 56.5q-59 25 -110.5 53.5t-82.5 71.5q-30 42 -34 106v13q0 60 33 143q45 115 138 182.5t203 99.5q112 32 224 36q29 1 56 1q79 0 143 -10 q338 -43 428 -164q36 -46 36 -100q0 -13 -2 -27q-4 -33 -30.5 -52t-59.5 -15t-52 30.5t-15 59.5q0 4 -4 8t-18.5 16.5t-49.5 28t-96.5 30.5t-157.5 28q-56 7 -133 7h-19q-90 -1 -178 -22.5t-161.5 -67.5t-104.5 -126q-16 -43 -21.5 -67.5t5 -43t40 -34t83.5 -36.5 q86 -35 191.5 -50t221.5 -29q94 -10 189.5 -23.5t184.5 -36t168 -59.5t144 -96q134 -121 134 -244q0 -24 -5 -47q-37 -168 -311 -256q-92 -29 -202.5 -45.5t-231.5 -16.5q-96 0 -194.5 10.5t-192.5 33t-179 57.5t-157 82q-31 18 -73 56t-78.5 85t-60.5 103q-19 43 -19 84 q0 12 2 24z" />
<glyph unicode="T" horiz-adv-x="1216" d="M-35 1341q-1 6 -1 12q0 25 16 47q18 26 51 32q61 10 134 18t143 13t132 7q28 1 52 2q28 0 51 -2q104 -4 163.5 -10t94.5 -10q20 -4 36.5 -5t36 0t45 5t66.5 14q2 31 21.5 52.5t50.5 23.5q8 1 15 1l31 -3q23 -4 46 -22q12 -12 20 -29q39 -23 43 -68q0 -29 -16 -51.5 t-45 -28.5q-94 -23 -149.5 -35t-92.5 -17q-26 -4 -48 -4q-9 0 -17 1q-28 2 -66 8q-23 4 -56.5 7.5t-86.5 7.5q10 -105 10 -267v-56q-2 -200 -8 -464q-2 -72 -4 -143.5t-3 -133t-1 -109.5t4 -68q10 -23 8 -43q0 -33 -23.5 -54.5t-54.5 -21.5h-4q-37 2 -57 16q-19 13 -26 71 q-6 50 -6 145v28q1 115 7 317q2 100 5 214t3 221.5t-2 199.5t-8 152q-43 0 -95 -3t-108.5 -8.5t-112 -11.5t-102.5 -14h-12q-29 0 -52.5 19.5t-27.5 47.5z" />
<glyph unicode="U" d="M14 1065q16 160 68 283q12 31 43 43q16 6 31 6t30 -6q31 -12 43.5 -43t-0.5 -62q-43 -104 -57 -242q-7 -69 -7 -139.5t7 -141.5q14 -142 54 -272.5t102 -214.5q83 -111 187 -111q11 0 22 1q125 12 194.5 75.5t103 168t38.5 246.5q3 79 3 165q0 69 -2 144q-4 98 -4 189 t11 169q5 33 31 53q22 16 48 16q5 0 11 -1q33 -4 52 -30q16 -21 16 -47q0 -5 -1 -11q-9 -64 -9 -140v-15q1 -85 5 -179q2 -97 3 -201v-17q0 -95 -10 -189q-11 -102 -40 -198t-83 -170.5t-139 -125t-212 -62.5q-10 0 -18.5 -1t-18.5 -1q-184 0 -315 178q-76 100 -123 250 q-48 150 -64 312q-9 83 -8 166q0 77 8 155z" />
<glyph unicode="V" horiz-adv-x="1380" d="M-7 1258q11 30 40 45q31 16 61.5 4.5t44.5 -41.5q14 -29 44 -86.5t69 -135.5q106 -205 204.5 -399t164.5 -340q35 76 77.5 145.5t87.5 139.5q10 18 22.5 35.5t22.5 36.5q51 78 100.5 167t98.5 179q53 98 102.5 185t96.5 159q15 23 43 31q12 3 24 3q16 0 31 -6 q27 -10 40 -36q9 -17 9 -36q0 -9 -2 -18q-10 -43 -18 -76.5t-19 -68.5q-10 -37 -22 -83t-29 -114q-8 -33 -35.5 -50t-60.5 -9q-20 4 -33 16q-47 -86 -95 -169t-95 -158q-10 -18 -22.5 -37t-24.5 -39q-68 -104 -130.5 -213t-84.5 -226q-6 -29 -27 -45t-49 -18h-2 q-29 0 -49.5 15.5t-28.5 41.5q-14 51 -63.5 159t-114 240t-135 269t-125.5 248q-41 78 -71 136t-44 87q-8 17 -8 35q0 14 5 27z" />
<glyph unicode="W" horiz-adv-x="1761" d="M0 1305q-4 13 -4 27q0 16 7 34q13 30 46 41q31 10 60.5 -4t40.5 -45q23 -63 39 -168t34 -234q12 -84 26.5 -186t35 -203.5t45 -189.5t55.5 -146q41 68 88 133.5t96 129.5q27 35 52.5 67.5t50.5 67.5q23 35 43 65.5t41 61.5q-47 86 -98.5 177t-98.5 183l-72 131 q-16 29 -6 61t39 48t60.5 6t48.5 -39l71 -131q35 -70 74 -141.5t76 -139.5q35 59 65.5 116.5t63.5 117.5q29 55 59.5 112.5t65.5 122.5q16 29 48 38t60 -7q29 -16 38.5 -48t-7.5 -60q-35 -63 -65.5 -121t-59.5 -111q-43 -84 -85 -160.5t-91 -156.5q23 -35 42.5 -66t37.5 -55 q27 -37 53.5 -75t52.5 -79q47 -68 95.5 -135.5t99.5 -126.5q41 141 84 288.5t83 295t73.5 292t56.5 277.5q4 34 32 52q23 15 48 15q6 0 12 -1q34 -6 52 -33q14 -20 13 -44q0 -8 -1 -16q-25 -141 -61 -293.5t-77 -308t-86 -309t-88 -301.5l-28 -92q-10 -41 -56 -55 q-6 -2 -20 -2q-29 0 -53 20q-88 82 -163 182.5t-147 204.5q-27 39 -52 76t-52 72q-10 16 -21.5 32.5t-23.5 34.5q-10 -16 -22.5 -32.5t-24.5 -34.5q-49 -68 -105 -142q-63 -82 -122.5 -165t-96.5 -167q-12 -33 -47 -45q-16 -4 -24 -4q-18 0 -39 11q-66 35 -112 114.5 t-80 197.5t-59.5 268.5t-49.5 328.5q-16 117 -33 217t-33 154z" />
<glyph unicode="X" horiz-adv-x="1198" d="M31 47q0 39 12 73t32.5 63.5t45 55t47.5 48.5q25 20 43 43q74 84 145.5 169t141.5 171q10 10 14 16q-61 88 -120.5 168t-110.5 150l-29 36q-25 33 -50.5 69t-50 78t-46 93t-39.5 119q-8 33 8 60.5t49 37.5q10 3 20 3q19 0 39 -11q28 -16 37 -49q14 -55 32.5 -97.5t39 -78 t42 -66.5t46.5 -61l31 -37q47 -63 99 -136t109 -151q14 18 29 35.5t31 36.5q31 37 59.5 74.5t60 82.5t67.5 99.5t83 124.5l80 123q18 29 50 33.5t61 -11.5q29 -18 35 -50q1 -8 1 -15q0 -24 -14 -46l-80 -122q-47 -72 -85 -128.5t-69.5 -102.5t-62 -86t-65.5 -81 q-23 -25 -43.5 -50t-42.5 -52q31 -41 59.5 -84t56.5 -84q27 -41 66 -96.5t80 -112.5t80 -111.5t69 -93.5q20 -27 16.5 -58.5t-30.5 -51.5q-18 -16 -49 -17q-39 0 -64 31q-31 39 -70.5 94.5t-81.5 113.5t-81 114.5t-66 97.5q-23 35 -45 66.5t-45 64.5q-68 -82 -137.5 -165 t-140.5 -163q-10 -12 -23.5 -24.5t-25.5 -26.5q-33 -31 -62 -62.5t-29 -60.5q2 -33 -21.5 -56.5t-55.5 -23.5h-2q-33 0 -55.5 22.5t-24.5 55.5z" />
<glyph unicode="Y" horiz-adv-x="864" d="M-11 1316q5 32 34 52q29 18 60.5 12t49.5 -32q47 -68 94 -118t97 -100q43 -41 85 -85t83 -97q55 104 103 215t71 230q6 33 34 51q20 14 44 14q8 0 16 -2q33 -6 51 -34q13 -20 13 -44q0 -8 -1 -16q-33 -158 -95 -294t-134 -265q2 -10 2 -27q-4 -23 -17.5 -39t-31.5 -24 q-43 -78 -80 -155t-64.5 -155.5t-40.5 -160.5q-10 -57 -10 -116q0 -27 2 -54q2 -31 -17.5 -55.5t-49.5 -28.5q-6 -2 -17 -2q-35 0 -61 20q-37 29 -47 84q-4 23 6 43.5t27 34.5q4 86 22.5 167t48 157.5t66.5 151.5t76 147q-47 70 -95.5 122t-99.5 105q-53 51 -105.5 106.5 t-105.5 130.5q-14 23 -14 47q0 7 1 14z" />
<glyph unicode="Z" horiz-adv-x="1464" d="M33 1313q2 35 26.5 56.5t59.5 16.5q49 -4 115.5 -5t134 -1t130 3t105.5 8q47 4 98.5 13t104.5 19q105 20 209 36q67 10 133 10q37 0 74 -3q45 -4 69 -45q8 -16 11.5 -32.5t-12 -47t-55.5 -84t-117 -143.5t-198.5 -225t-299.5 -330l-50 -51q-20 -23 -54 -61.5t-74 -87 t-80.5 -99.5t-77.5 -96q72 0 166 1t196.5 2t208.5 2q53 0 103 0.5t98 -0.5q96 -1 177 -1t134 -2q34 -2 56 -26q21 -22 20 -51v-5q0 -35 -24.5 -57.5t-57.5 -20.5q-70 2 -188.5 3t-257 1t-279.5 -1t-256 -2t-188.5 -2t-75.5 -1h-2q-49 0 -72 45q-9 18 -9 35q0 25 19 49 q4 4 28.5 35t61.5 76t82 100t88 107.5t81 96.5t61 68l47 52q49 53 124.5 135t156.5 172t158 178t130 152q-57 -4 -115.5 -15.5t-117.5 -21.5q-53 -10 -107.5 -20.5t-107.5 -16.5q-47 -4 -113 -7t-138.5 -3t-142 1t-125.5 5q-33 5 -54 29q-18 21 -18 47q0 5 1 10z" />
<glyph unicode="[" horiz-adv-x="808" d="M66 1755q0 37 26.5 63.5t63.5 26.5h391q37 0 62.5 -26.5t25.5 -63.5t-25.5 -62.5t-62.5 -25.5h-301q4 -82 8 -201.5t10 -255.5q4 -102 9.5 -208.5t8.5 -208t6 -191.5t3 -160q2 -84 6 -161q2 -63 3 -119t-1 -110t-8 -108.5t-19 -115.5q86 10 183.5 14t191.5 -10 q35 -6 57.5 -35.5t16.5 -66.5q-4 -35 -34 -56.5t-66 -17.5q-86 12 -204 6t-247 -29q-4 -2 -14 -2q-39 0 -68 29q-16 16 -20.5 38.5t2.5 45.5q23 78 34 141.5t15 124t3 124t-3 140.5q-2 39 -3 79t-1 87q-2 68 -5.5 158t-6.5 189.5t-8 206t-9 208.5q-4 94 -7 182.5t-6 160 t-5 125.5t-2 85z" />
<glyph unicode="\" d="M35 1331q-14 35 0 68t49 49q35 14 68 0t47 -49t49 -107.5t82 -170t104.5 -214t117.5 -238.5t120.5 -241t116 -223.5t99.5 -186t73 -127.5q18 -33 10 -68.5t-41 -53.5q-25 -14 -45 -15q-49 0 -76 43q-39 63 -105.5 188.5t-145.5 279t-163 321.5t-156.5 317.5t-128 264 t-75.5 163.5z" />
<glyph unicode="]" horiz-adv-x="669" d="M25 -229q0 37 25.5 62.5t62.5 27.5q25 0 49 -1t51 -3q41 -4 81 -4t77 4q0 61 5 123.5t13 125.5q6 59 11.5 119t7.5 113q2 287 10 576.5t18 576.5l4 72q-88 -4 -143 -1t-90 11q-6 -2 -10 0v2q-41 10 -54.5 20.5t-17.5 18.5q-27 45 0 92t82 43h6q12 -2 43 -4t74 -3t94 -1 t102 4q39 0 68 -25q27 -27 27 -67l-7 -168q-10 -287 -18 -574.5t-10 -572.5q-2 -61 -7.5 -124.5t-13.5 -127.5q-8 -78 -14 -151.5t0 -137.5q2 -29 -13.5 -53.5t-41.5 -34.5q-49 -20 -98.5 -27.5t-96.5 -7.5q-27 0 -51.5 1t-46.5 3q-23 2 -45.5 3.5t-42.5 1.5h-2 q-37 0 -62.5 25.5t-25.5 62.5z" />
<glyph unicode="^" horiz-adv-x="882" d="M1 810.5q-5 35.5 17 66.5q41 55 83 111t85 112q125 166 246 332q14 20 38 29t46 5q25 -4 44.5 -19t27.5 -40q18 -53 52 -129t71 -155t73.5 -153.5t61.5 -125.5l12 -27q16 -33 5 -67.5t-46 -51.5q-16 -8 -39 -8q-53 0 -80 49l-12 27q-20 41 -46 92t-53.5 108.5t-54 116 t-51.5 113.5l-153 -203q-41 -57 -84 -112.5t-84 -110.5q-23 -29 -58.5 -35t-64.5 17q-31 23 -36 58.5z" />
<glyph unicode="_" horiz-adv-x="1478" d="M41 -92q4 37 33.5 59.5t64.5 18.5q14 -2 71.5 -2t139.5 -1t182.5 0t203 1t197.5 1t169 1h256q37 0 63.5 -26t26.5 -62q0 -37 -26.5 -62.5t-63.5 -25.5q-35 0 -101.5 -1.5t-152.5 -1.5q-178 -2 -341 -2h-296h-231.5t-116.5 5q-37 4 -59.5 33.5t-18.5 64.5z" />
<glyph unicode="`" horiz-adv-x="688" d="M27.5 1831q-11.5 35 5.5 67q18 33 52 45.5t69 -6.5q61 -33 119.5 -65.5t113.5 -67.5q57 -35 110.5 -66.5t110.5 -60.5q33 -16 43.5 -51t-6.5 -67q-16 -33 -51 -44.5t-68 5.5q-59 31 -116.5 64.5t-112.5 66.5t-110.5 65.5t-114.5 61.5v2q-33 16 -44.5 51z" />
<glyph unicode="a" horiz-adv-x="946" d="M-126 514q-3 10 -3 21q0 18 10 36q16 27 45 36t56 -7q34 -19 96 -19q51 0 121 13q4 14 8 26.5t8 26.5q12 39 23.5 73t19.5 62q8 31 14.5 77t12.5 99q8 66 17 134.5t25.5 130t43 111.5t69.5 81q22 15 44 15q18 0 36 -11q37 -21 37 -61v-8q-2 -23 5 -58t18.5 -74.5 t26 -81.5t28.5 -81q23 -61 41 -119.5t29 -106.5q4 -23 7 -46t7 -48q10 -23 6 -41q2 -16 4 -33.5t4 -35.5q8 -70 17.5 -142.5t23.5 -139.5t35.5 -125t56.5 -99q19 -21 19 -48q0 -32 -25 -55q-23 -18 -49 -18q-29 0 -55 22l-6 7q-20 23 -42 45t-38 51q-14 19 -14 39q0 13 6 28 q-29 86 -44.5 179.5t-25.5 185.5q-68 -27 -138.5 -49.5t-140.5 -38.5q-16 -53 -32.5 -108.5t-28.5 -105.5t-19.5 -95t-7.5 -78q0 -31 -21.5 -52.5t-51.5 -21.5h-2q-29 2 -51.5 23.5t-20.5 52.5q0 70 21.5 163t50.5 193q-18 -2 -37 -3t-35 -1q-49 0 -91 8.5t-77 26.5 q-27 16 -36 45zM367 635q94 27 204 72v12q-4 23 -6 43t-6 39q-8 41 -25.5 93t-37.5 112q-10 29 -19.5 56.5t-19.5 55.5q-8 -45 -14.5 -90t-10.5 -86q-6 -57 -13 -109.5t-20 -91.5q-6 -23 -14 -49t-18 -57z" />
<glyph unicode="b" d="M-66 377q-4 12 -4 25q0 16 8 32q14 28 44 39q31 12 61.5 0t40.5 -43q14 -41 53 -86t92 -82q-10 52 -12 116q-1 32 -1 67.5t1 74.5v66.5t-2 52.5q-4 39 -7 77t-7 79q-10 109 -21.5 217t-44.5 211v2q-23 -4 -36 -2t-29 12q-14 8 -23.5 21.5t-13.5 27.5q-8 33 8 59.5 t51 34.5q6 2 23 2q6 2 17 5.5t28 7.5q53 14 125.5 31.5t148.5 25.5q38 4 75 4t73 -4q72 -8 127 -45q35 -29 57 -68t27 -88q1 -9 0 -18q0 -57 -22 -109q-26 -61 -71 -119.5t-103 -110.5t-118 -97q127 -41 242 -108t174 -173q43 -77 43 -164q0 -71 -29 -149 q-41 -109 -127 -166.5t-209 -57.5h-2q-94 0 -194.5 34t-188.5 89.5t-156.5 127t-97.5 149.5zM285 1266q29 -92 42 -185.5t21 -185.5q139 94 216 185q73 87 73 150v7q-2 20 -7.5 28.5t-13.5 12.5q-22 14 -62 18q-20 2 -41.5 2t-44.5 -2q-46 -4 -94 -13t-89 -17zM369 653 q4 -25 4 -59.5v-75.5v-70.5t2 -85t8 -79t16 -47.5q35 -22 35 -60q0 -9 -2 -18q35 -10 71 -17.5t70 -7.5q142 0 189 123q19 49 19 93q0 50 -25 91q-35 70 -136.5 127.5t-250.5 96.5v-11z" />
<glyph unicode="c" horiz-adv-x="1363" d="M-4 963q41 274 215 399q85 64 193 84q52 10 109 9q61 0 128 -11q185 -34 281 -138q78 -86 78 -199q0 -25 -3 -52q-4 -35 -29.5 -53.5t-56.5 -14.5q-33 4 -51 29.5t-14 56.5q1 12 1 24q-1 41 -17 72q-22 39 -58.5 65t-79.5 39t-78 19q-36 6 -74 8q-12 1 -24 1 q-27 1 -55 -3q-41 -6 -82 -19t-78 -40q-123 -90 -154 -301q-9 -60 -9 -122q0 -64 10 -130q18 -131 67 -244.5t128 -196.5t183 -108q35 -7 73 -7q15 0 31 1q56 4 112.5 21.5t111.5 47t102 70.5q25 20 55.5 54t56.5 80.5t41 103.5q11 41 11 87q0 19 -2 38q-2 33 18.5 57.5 t51.5 26.5q33 4 57.5 -17.5t24.5 -52.5q2 -26 2 -51q0 -113 -44 -217q-54 -127 -169 -225q-98 -86 -219 -132.5t-238 -46.5q-29 0 -56.5 4.5t-53.5 8.5q-137 33 -239.5 134t-167.5 239.5t-89 296.5q-12 80 -11 156q0 76 11 149z" />
<glyph unicode="d" horiz-adv-x="1918" d="M-66 131q-9 23 -9 46q0 81 112 161q22 15 47 15q8 0 16 -1q34 -6 56 -35q14 -23 14 -48q0 -7 -1 -15q-5 -34 -34 -53l-20 -15q31 -10 79 -16t101 -9t106.5 -4t96.5 -1q-16 76 -30.5 150.5t-29.5 148.5q-10 53 -20 104t-21 105q-12 59 -19 126.5t-13 133.5 q-10 98 -20.5 193t-39.5 169q-8 16 -4 39q-27 10 -42 33.5t-11 52.5q4 35 30 57q22 18 49 18q5 0 11 -1q53 -6 141 -27.5t196.5 -58.5t229.5 -87t240 -111.5t228.5 -132.5t193.5 -149.5t137 -163.5t59 -175q1 -13 1 -26q0 -106 -58 -188q-66 -92 -175.5 -157.5 t-248.5 -107.5t-274.5 -66.5t-253 -33.5t-187.5 -9q-115 0 -221 4t-192 19.5t-145 42t-75 73.5zM479 1286q23 -82 33 -170t20 -178q4 -66 11.5 -127t17.5 -115q10 -53 20.5 -105t20.5 -106q16 -78 31.5 -158.5t32.5 -158.5q78 6 179 16.5t206.5 28.5t206 47t177 72 t121.5 100q41 52 41 122v13q-6 70 -63 143.5t-150.5 144.5t-210 137.5t-239.5 122.5t-242 100.5t-213 70.5z" />
<glyph unicode="e" horiz-adv-x="1386" d="M16 708q12 30 39 46q47 23 99.5 34t107.5 19q-4 117 -6 239v49q0 96 6 181q-84 8 -172 29q-33 8 -50 35.5t-9 60.5q7 33 35 50q19 12 40 12q10 0 21 -3q175 -41 375 -42h36q182 0 367 9q72 4 139.5 5.5t133.5 3.5h2q29 0 51 -18.5t26 -47.5t-9 -54.5t-40 -35.5 q-33 -10 -62.5 -32.5t-55.5 -51.5q-25 -27 -60 -27q-33 0 -53 21q-16 16 -22.5 36.5t-2.5 43.5q-10 -2 -20 -2h-21q-123 -4 -245 -8q-50 -1 -101 -1q-72 0 -143 3q-6 -78 -6 -170v-46q2 -118 6 -229h48q71 0 138 -4q90 -6 162 -12q41 -4 66 -6q35 -4 56 -28t17 -58 q-3 -33 -27 -55q-22 -20 -53 -19h-6q-29 2 -67 6q-63 6 -149.5 12t-178.5 6q2 -29 3 -54t1 -46q2 -37 5 -75t7 -78q4 -41 8.5 -81t6.5 -81q35 -2 71.5 -4t71.5 -4q70 -4 139.5 -8.5t141.5 -12.5q18 -3 53 -3h19q49 1 101 4t97 7t59 8q33 8 60.5 -7t38.5 -48q4 -12 4 -24 q1 -18 -9 -36q-16 -28 -49 -38q-25 -8 -80 -13.5t-116.5 -8.5t-116.5 -4h-21q-39 0 -59 3q-68 10 -136.5 13.5t-133.5 7.5q-35 4 -71 5t-70 5q-2 -6 -2 -11t-2 -9q-6 -39 -39 -56q-16 -10 -39 -10q-16 0 -31 6q-45 18 -106.5 56t-110.5 79q-23 16 -28 44t5 53q12 25 37 37 t53 6q51 -12 109 -19q-4 31 -6 62.5t-6 64.5q-4 41 -8.5 82t-6.5 82q0 20 -1 44t-1 50q-41 -4 -78.5 -13t-68.5 -26q-16 -6 -33 -6q-23 0 -42.5 11t-29.5 34q-8 17 -8 34q1 13 6 27zM16 708q12 30 39 46q47 23 99.5 34t107.5 19q-4 117 -6 239v49q0 96 6 181q-84 8 -172 29 q-33 8 -50 35.5t-9 60.5q7 33 35 50q19 12 40 12q10 0 21 -3q175 -41 375 -42h36q182 0 367 9q72 4 139.5 5.5t133.5 3.5h2q29 0 51 -18.5t26 -47.5t-9 -54.5t-40 -35.5q-33 -10 -62.5 -32.5t-55.5 -51.5q-25 -27 -60 -27q-33 0 -53 21q-16 16 -22.5 36.5t-2.5 43.5 q-10 -2 -20 -2h-21q-123 -4 -245 -8q-50 -1 -101 -1q-72 0 -143 3q-6 -78 -6 -170v-46q2 -118 6 -229h48q71 0 138 -4q90 -6 162 -12q41 -4 66 -6q35 -4 56 -28t17 -58q-3 -33 -27 -55q-22 -20 -53 -19h-6q-29 2 -67 6q-63 6 -149.5 12t-178.5 6q2 -29 3 -54t1 -46 q2 -37 5 -75t7 -78q4 -41 8.5 -81t6.5 -81q35 -2 71.5 -4t71.5 -4q70 -4 139.5 -8.5t141.5 -12.5q18 -3 53 -3h19q49 1 101 4t97 7t59 8q33 8 60.5 -7t38.5 -48q4 -12 4 -24q1 -18 -9 -36q-16 -28 -49 -38q-25 -8 -80 -13.5t-116.5 -8.5t-116.5 -4h-21q-39 0 -59 3 q-68 10 -136.5 13.5t-133.5 7.5q-35 4 -71 5t-70 5q-2 -6 -2 -11t-2 -9q-6 -39 -39 -56q-16 -10 -39 -10q-16 0 -31 6q-45 18 -106.5 56t-110.5 79q-23 16 -28 44t5 53q12 25 37 37t53 6q51 -12 109 -19q-4 31 -6 62.5t-6 64.5q-4 41 -8.5 82t-6.5 82q0 20 -1 44t-1 50 q-41 -4 -78.5 -13t-68.5 -26q-16 -6 -33 -6q-23 0 -42.5 11t-29.5 34q-8 17 -8 34q1 13 6 27z" />
<glyph unicode="f" horiz-adv-x="1003" d="M-2 1284q-7 16 -7 32q0 19 11 40q18 35 59 39q193 23 382.5 36t375.5 25q59 4 115.5 7t114.5 7h9q44 0 64 -38q14 -22 14 -43t-14 -41q-31 -47 -82 -85t-100 -73q-12 -8 -22.5 -14.5t-20.5 -14.5q-29 -18 -60.5 -13t-52.5 32q-18 29 -13 60.5t34 51.5q2 0 6 4 q-156 -10 -313.5 -21t-317.5 -28q23 -84 33 -174t16 -176q2 -23 4.5 -42t4.5 -40q53 18 114.5 26.5t119.5 10.5q29 1 55.5 1t50.5 -1q49 -2 77 -6q33 -4 53 -31q14 -21 14 -45q0 -8 -1 -16q-4 -33 -30.5 -51.5t-59.5 -14.5q-45 6 -105.5 6t-119 -6t-104.5 -18.5t-60 -28.5 q-2 -18 -2 -38.5v-43.5v-125v-139.5t2 -123.5t8 -79q12 -20 12 -43.5t-16 -46.5q-25 -31 -64 -31q-27 0 -47 15q-18 14 -30.5 36.5t-18.5 81t-7 166.5v80q0 88 1 211q0 37 1 72t1 65.5t-1 53t-1 32.5q-4 25 -5 49.5t-3 49.5q-10 104 -23.5 211.5t-50.5 189.5z" />
<glyph unicode="g" horiz-adv-x="1593" d="M-32 646q3 118 34 229.5t74 193.5q57 111 151.5 197t207 141t235.5 75q57 10 112 10q64 0 127 -13q25 -4 68 -16.5t83 -37t68 -64.5q21 -31 21 -76q0 -14 -2 -28q-4 -33 -28.5 -53t-59.5 -16q-33 4 -53.5 28.5t-16.5 59.5q0 2 -3 6t-14 10t-34 14.5t-61 16.5 q-48 10 -97 10q-45 0 -90 -8q-98 -16 -187 -61t-165 -114t-121 -155q-41 -78 -64.5 -170t-25.5 -184v-14q0 -84 23 -161q24 -83 79 -140q25 -25 80.5 -49.5t129 -44t159.5 -32t170 -14.5h23q71 0 137 10q76 13 129 44q53 27 65 71q-2 18 -2 36v36v19q0 49 8 98q11 57 21 114 q10 47 16 91.5t9 85.5q-15 1 -29 1q-36 0 -73 -6q-54 -10 -111 -20q-78 -16 -160 -26q-27 -3 -55 -3l-109 13q-31 10 -48.5 36.5t-8.5 59.5q8 33 35.5 50t60.5 9q33 -9 70 -9q24 0 50 4q64 9 134 24q86 16 171 25q23 2 47 2q62 0 126 -17q51 -14 57 -68q4 -31 4 -62 q0 -39 -6 -78q-10 -71 -24 -140q-8 -43 -14.5 -84t-10.5 -80q8 -31 8 -60.5t-4 -58.5q4 -33 10 -64.5t13 -64.5q8 -39 15 -79t11 -83q1 -5 1 -11q0 -26 -18 -47q-20 -26 -54 -30h-9q-29 0 -51 20.5t-26 51.5q-4 29 -9.5 58.5t-9.5 58.5q-6 -4 -11 -7.5t-11 -7.5 q-70 -39 -162 -55t-193 -16q-102 0 -204.5 15t-192.5 41t-160.5 59.5t-107.5 72.5q-84 86 -117 199q-30 105 -30 212v20z" />
<glyph unicode="h" horiz-adv-x="874" d="M-154 696q-10 20 -10 38q0 20 12 40q26 35 66 35h4t50 -2t132 -6q4 53 5 105t4 106q4 102 7 205.5t13 207.5q3 33 27 53q20 17 46 18q5 0 11 -1q31 -4 52.5 -27.5t17.5 -54.5q-10 -102 -13.5 -203.5t-7.5 -201.5q-2 -53 -3 -108.5t-5 -108.5q88 -6 188.5 -14.5 t204.5 -18.5v16q-12 150 -26.5 300.5t-36.5 293.5q-6 31 12 56.5t49 31.5t57.5 -12.5t30.5 -50.5q27 -147 41 -301t25 -306l4 -45q33 -4 64.5 -8t62.5 -8q31 -5 50 -29q16 -20 16 -46q0 -5 -1 -11q-4 -31 -28.5 -50.5t-57.5 -15.5l-98 13v-162q0 -92 2 -182t13 -152 q6 -33 -12.5 -58.5t-49.5 -31.5h-14q-29 0 -49.5 17.5t-26.5 45.5q-12 72 -14.5 168.5t-2.5 194.5q2 46 2 90t-2 86q-109 12 -213 20.5t-196 14.5q0 -45 1 -100.5t3 -113.5t5 -115.5t7 -104.5q2 -2 2 -6q10 -29 4 -50q2 -8 3 -16t3 -14q6 -18 13 -43q10 -29 -3.5 -56.5 t-41.5 -37.5q-16 -6 -29 -7q-47 0 -70 45q-4 10 -7 21.5t-7 26.5q-12 43 -20.5 73.5t-6.5 53.5q-20 49 -55 119.5t-72.5 142t-73.5 137t-57 104.5zM47 649q10 -20 22.5 -43.5t26.5 -48.5v90q-14 0 -26.5 1t-22.5 1z" />
<glyph unicode="i" horiz-adv-x="956" d="M-23 1403q0 2 2.5 14.5t9.5 25.5t23.5 25.5t46.5 14.5h7h10h12h6q29 0 54.5 -1t54.5 -1q27 -2 53.5 -2h52.5q2 0 10 4q18 2 39 -4h38q84 0 164 7q98 9 188 38q13 4 26 4q18 0 36 -8q30 -14 40 -45q4 -13 4 -26q0 -19 -8 -37q-14 -30 -47 -40q-88 -31 -183.5 -42 t-193.5 -13q7 -86 7 -173q0 -35 -1 -69q-4 -121 -14 -241q-10 -150 -16 -290q-1 -27 0 -55q0 -113 18 -221q66 16 129 18h34q46 0 91 -3q44 -3 86 -3h21q52 1 106 13q33 6 60.5 -10.5t35.5 -51.5q3 -10 3 -20q0 -21 -12 -41q-18 -28 -50 -35q-70 -16 -134 -17h-25 q-50 0 -99 3q-51 4 -97.5 4t-91.5 -10v-19q1 -6 1 -11q0 -31 -20 -53q-22 -26 -61 -32q-4 -2 -12 -2q-25 0 -45.5 14.5t-30.5 38.5q-14 -6 -27.5 -12t-27.5 -10q-43 -18 -79 -33.5t-48 -22.5q-18 -6 -35 -6q-51 0 -74 47q-14 31 -1.5 61.5t42.5 45.5q14 6 51 22.5t82 32.5 q18 10 38 17.5t38 15.5q-27 138 -27 277q1 20 1 40q4 160 14 320q10 126 14 242q1 33 1 66q0 83 -7 165h-61q-35 2 -67 2h-62h-11v2q-82 10 -82 80z" />
<glyph unicode="j" horiz-adv-x="1667" d="M-12 710v7q0 97 51 172q47 68 124 99q56 23 121 23q26 0 52 -3q35 -4 54.5 -30t15.5 -58q-4 -35 -30 -54.5t-59 -15.5q-13 1 -26 1q-24 0 -51 -4q-43 -7 -68 -48q-24 -35 -24 -83v-12q4 -57 36 -114q27 -45 78 -103.5t119 -119t144.5 -116.5t153.5 -98t149 -65 q49 -15 91 -15q18 0 35 3q82 12 121 82.5t49 181.5q4 48 4 101q0 70 -8 149q-12 139 -33 291q-10 86 -19 157.5t-9 126.5q-197 25 -404 68l-65 12q-18 4 -47 10.5t-62 12.5q-27 6 -61.5 14t-68.5 15.5t-62.5 12.5t-40.5 5q-25 -4 -47.5 6t-34.5 33q-16 29 -9 60.5t36 47.5 q14 8 29 12q6 1 16 1q12 0 30 -3q33 -4 90.5 -15t155.5 -34q70 -12 107 -22l65 -12q39 -8 99.5 -19.5t131 -24t148.5 -21.5t151 -12q32 -1 62 -1q40 0 78 2q65 4 114 20q-15 21 -15 45q0 13 5 27q10 33 40 47t61 4l16 -6q12 -4 27.5 -9t31 -17.5t28.5 -31t19 -49.5 q3 -10 3 -20q0 -25 -19 -47q-57 -68 -158.5 -96.5t-232.5 -28.5q-6 0 -12.5 1t-14.5 1q-4 -12 -8 -18q-12 -16 -20 -21q4 -45 10 -99t14 -114l25.5 -195.5t16.5 -207.5q1 -23 1 -45q0 -81 -9 -157q-11 -97 -45 -176t-94.5 -132.5t-158.5 -69.5q-14 -2 -27.5 -3t-27.5 -1 q-78 0 -164 29.5t-174 78t-172 111t-157 129t-128 131t-86 117.5q-55 98 -57 200z" />
<glyph unicode="k" horiz-adv-x="1140" d="M-2 66q-3 10 -2 20q0 16 6 31q18 41 26 107q9 64 10 138v50q0 50 -1 100q-2 76 -4 139q-2 41 -3 79t-3 69q0 66 2 121t6 104q2 54 4 102q1 24 1 48t-1 49q-2 49 -8 102t-19 115q-6 33 12.5 59.5t51.5 34.5q8 1 16 1q24 1 44 -13q26 -18 34 -52q14 -68 20.5 -127t7.5 -113 v-36q0 -36 -1 -70q-2 -52 -4 -108q-2 -49 -4.5 -102.5t-2.5 -112.5q0 -61 7 -144q2 -53 4 -107t2 -112q0 4 2 6q37 123 92 255t119.5 259t135 241t142.5 202q20 25 51 30t58 -14q27 -18 32 -49t-12 -59q-59 -98 -102 -205t-84 -223q-23 -59 -44.5 -119t-45.5 -119 q-16 -41 -35 -80t-39 -78q113 -20 210 -62t195 -89q57 -29 118 -56.5t128 -54.5q30 -11 44 -41q7 -16 7 -31t-6 -30q-10 -31 -40.5 -44.5t-61.5 -2.5q-72 29 -135.5 58.5t-124.5 57.5q-104 51 -203.5 92.5t-216.5 55.5q-29 -51 -60.5 -100.5t-62.5 -98.5q-16 -25 -31.5 -49 t-31.5 -49q-18 -29 -52 -35q-4 0 -8 -1t-8 -1q-15 0 -27 6q-15 -6 -29 -6q-26 0 -48 19q-21 17 -27 43zM197 338q6 8 11 15t9 16l-4 4q-4 8 -8 15t-6 15v-32.5t-2 -32.5z" />
<glyph unicode="l" horiz-adv-x="1193" d="M-2 121q33 117 69.5 285.5t57.5 353.5l8 80q6 53 14.5 125.5t14.5 145.5t11 136.5t5 100.5q-2 33 20.5 56t57.5 23t57.5 -22.5t22.5 -54.5q0 -39 -4 -104.5t-11.5 -140.5t-15.5 -149.5t-14 -134.5l-8 -78q-16 -160 -46 -305t-59 -262q92 0 194.5 10.5t207.5 22.5 q124 13 236 25q83 9 160 9q27 0 52 -1q34 -2 56 -26q21 -22 20 -52v-6q-2 -33 -27.5 -55.5t-54.5 -20.5q-26 1 -54 1q-70 0 -146 -7q-108 -10 -224 -25q-109 -12 -217.5 -23.5t-210.5 -11.5q-27 0 -51 1t-49 3q-39 4 -60 33q-16 21 -16 45q0 11 4 23z" />
<glyph unicode="m" horiz-adv-x="1708" d="M-39 82q27 66 61.5 179.5t70.5 249.5t70 280.5t59.5 270.5t39.5 221q12 83 12 123v11q-4 33 16.5 57.5t53.5 28.5q6 1 11 1q25 0 47 -16q26 -20 30 -50q18 -106 62.5 -219t91.5 -224q18 -43 35.5 -84t33.5 -82q10 -31 27.5 -65.5t34.5 -71.5q14 -29 28.5 -58.5 t28.5 -58.5q2 8 10 25q20 53 35 106.5t29 112.5q14 53 27.5 105.5t33.5 105.5q35 96 76 206t82 191q12 25 34.5 37.5t49.5 8.5t45 -22.5t23 -47.5q16 -129 45.5 -253t60.5 -247q27 -98 51.5 -200.5t42.5 -206.5q4 -31 11.5 -63t15.5 -64q16 -78 30.5 -155t16.5 -148 q0 -33 -22.5 -56.5t-55.5 -25.5h-2q-33 0 -56.5 22.5t-23.5 54.5q-2 61 -14 131t-29 142q-8 35 -15 68.5t-13 66.5q-16 100 -41 198.5t-50 196.5q-16 61 -31.5 123t-29.5 127q-14 -35 -26.5 -69.5t-24.5 -69.5q-16 -47 -29.5 -95.5t-25.5 -99.5q-16 -59 -33 -119.5 t-39 -119.5q-8 -23 -17.5 -42.5t-19.5 -39.5q-20 -41 -33.5 -75t-13.5 -71v-14q0 -33 -22.5 -56.5t-55.5 -23.5h-2q-33 0 -55.5 21.5t-24.5 54.5v16q-4 68 -40 151t-75 161q-18 41 -35.5 76.5t-31.5 70.5q-16 41 -32.5 81t-35.5 81q-12 33 -25.5 63.5t-27.5 63.5 q-27 -137 -63.5 -292t-74.5 -299t-75 -264t-63 -184q-10 -23 -30 -36t-44 -13q-17 1 -31 9q-29 12 -42 42q-7 16 -7 32q0 14 6 28z" />
<glyph unicode="n" horiz-adv-x="1308" d="M-24 1338q6 30 30 48q25 18 54.5 15.5t52.5 -25.5q43 -47 72.5 -100t52.5 -113q47 -86 94 -161.5t96 -139.5q27 -33 52.5 -67.5t51.5 -69.5q88 -117 184.5 -238.5t203.5 -220.5q6 66 7 163v66q0 67 -1 141q-2 110 -8.5 222.5t-16.5 209.5t-21.5 171t-25.5 107 q-33 24 -33 63q1 35 27 59q22 21 52 21h5q20 -2 45 -14.5t43 -53.5q18 -39 36 -143t31 -242t20 -290q5 -119 5 -227v-61q-2 -136 -14 -239.5t-39 -140.5q-20 -27 -53 -33q-33 -4 -59 14q-74 55 -142.5 123t-133 142.5t-124 152.5t-114.5 152q-27 35 -52.5 68.5t-50.5 68.5 q-4 0 -4 4q1 -35 1 -70v-34q-1 -52 -1 -101v-104v-76v-142.5t-2 -142.5q4 -33 1 -59.5t-32 -48.5q-23 -12 -45 -12q-25 0 -39 10q-25 14 -35 39.5t-10 72.5q2 72 2 141.5v141.5v76v106v132t-4 137.5t-14 135t-31 128.5q-4 8 -9 16t-9 17q-23 39 -43.5 75.5t-42.5 73.5 q-12 20 -12 41q0 7 2 15z" />
<glyph unicode="o" horiz-adv-x="1323" d="M4 740q20 134 80.5 259t151.5 215q134 134 288 142q10 1 21 0q142 0 268 -109q20 -16 27 -45q66 -51 124 -121.5t103 -156.5q82 -162 92 -318q1 -21 1 -42q0 -131 -56 -232q-84 -150 -200 -236t-251 -100q-12 -2 -25.5 -2h-25.5q-129 0 -252 64.5t-229 187.5 q-85 100 -111 230q-15 75 -15 151q1 56 9 113zM171 526q17 -100 79 -172q88 -104 188 -152q82 -40 163 -40q17 0 34 2q96 10 178 73.5t143 174.5q35 63 35 153q0 21 -2 43q-10 118 -71 240q-61 121 -151.5 199.5t-180.5 89.5q-48 6 -68 51q-49 -8 -90 -34t-76 -58 q-68 -68 -115 -165t-65 -201q-9 -54 -9 -107q0 -49 8 -97z" />
<glyph unicode="p" horiz-adv-x="1089" d="M-18 548q4 23 20 42q37 39 88 57q27 10 53.5 2t42.5 -31q41 2 83 7.5t87 11.5q-2 47 -6 95t-10 97q-18 141 -30 296q-19 231 -19 346q0 36 28 63q23 20 53 20q8 0 17 -2q57 -10 123 -34.5t130.5 -56t121.5 -69.5t98 -73q244 -200 244 -389v-6q-4 -137 -137 -240 q-78 -59 -195 -105.5t-248 -76.5q-2 -127 -18 -251t-49 -257q-8 -29 -30.5 -46.5t-51.5 -17.5q-12 0 -19 2q-35 8 -53 37q-12 20 -12 43q0 10 2 21q57 223 63 436q-82 -12 -156 -19q-43 -3 -82 -3q-30 0 -59 2q-53 4 -73 53q-7 16 -7 33q0 6 1 13zM463 1358q6 -145 16 -269 t27 -239q6 -47 10 -90t6 -88q104 29 195.5 64.5t150.5 80.5q51 41 60 71q10 30 10 44q0 52 -45 116q-47 68 -137 144q-53 43 -133 89t-160 77z" />
<glyph unicode="q" horiz-adv-x="1153" d="M-9 666q-4 53 -4 106q0 66 6 132q11 120 46 230.5t94 190.5q98 129 238 129q78 0 162.5 -50t187.5 -134q53 -39 105.5 -86.5t97.5 -106.5q37 -49 73.5 -113.5t60 -144.5t30.5 -175q1 -21 1 -43q0 -76 -18 -161q-16 -82 -44 -150.5t-66 -123.5q35 -49 73.5 -100.5 t76.5 -93.5t73 -68q32 -23 55 -23h4q12 0 23.5 14.5t17.5 24.5q16 29 48 38t61 -7t37 -48q3 -10 3 -20q0 -21 -12 -41q-41 -72 -88 -95t-84 -26h-8q-98 0 -194.5 91.5t-200.5 238.5q-51 -37 -111.5 -57.5t-126.5 -22.5q-8 -2 -20 -2q-94 0 -181.5 35t-161 98.5t-130 152.5 t-86.5 196q-29 96 -38 215zM150 692q6 -106 32 -196v-2q14 10 29.5 18t38.5 18q49 18 112 24q44 5 87 5q20 0 39 -1q63 -3 119.5 -15.5t92.5 -34.5q33 -18 68 -64.5t92 -132.5q37 72 55 160q14 70 14 133q0 16 -1 31q-4 76 -23.5 139.5t-48.5 114.5t-59 90q-72 94 -162 156 q-8 4 -12 8q-72 49 -143.5 75.5t-127.5 30.5q-29 2 -51 23q-10 -10 -20.5 -19.5t-20.5 -23.5q-41 -55 -68.5 -142.5t-37.5 -188.5q-7 -62 -7 -126q0 -40 3 -80zM254 332q72 -109 166 -158q87 -45 167 -45h13q45 2 83 16.5t73 36.5q-4 4 -5 7.5t-6 7.5q-18 27 -36.5 55.5 t-37 53t-32.5 43t-23 24.5q-27 16 -80 22q-45 5 -92 5h-16q-55 -1 -100 -11t-56 -29q-6 -16 -18 -28z" />
<glyph unicode="r" horiz-adv-x="1708" d="M20 1380q4 36 29 56q23 19 51 18h6q16 -2 28.5 -8t23.5 -16q20 -4 55 -5.5t76 -1.5t82 1t71 1q58 1 104 3q10 0 21 1q32 0 54 -4l26 -4q119 -12 236.5 -29.5t217 -47t174.5 -74.5t105 -111q16 -37 18 -94q0 -3 1 -6q0 -55 -47 -127t-127 -120t-175.5 -81t-196.5 -49 t-189 -23q133 -45 254.5 -99t239.5 -118.5t233.5 -138.5t234.5 -156q29 -18 34 -51q1 -7 1 -14q0 -25 -14 -45q-25 -35 -66 -35q-25 0 -45 14q-133 92 -260 172t-255 146.5t-263 121t-287 97.5q11 -88 17 -176q5 -67 4 -136v-42q14 -6 26 -19q23 -25 21 -57.5t-27 -54.5 l-10 -13q-12 -10 -28.5 -24.5t-45.5 -24.5q-16 -4 -27 -4q-29 0 -49 18q-29 22 -29 58q0 7 1 14q10 76 10 156q0 45 -3 91q-9 128 -24 255q-31 8 -61.5 14t-63.5 13q-27 4 -43 23.5t-20 45.5q-4 25 9 48.5t36 33.5q59 27 123 37q-3 46 -3 90v23q1 56 1 110q2 59 2 117.5 t-4 114.5q-109 0 -161 10t-77 37t-25 60v9zM442 922.5q0 -52.5 4 -105.5h43h37t37 -2q76 0 174.5 11.5t192.5 36t173 63.5t116 94q22 33 22 49t-6 23q-10 20 -42 42.5t-99.5 46t-180 45t-280.5 38.5l-29 2q-16 3 -47 3h-17q-44 -1 -94 -3h-4q4 -59 4 -119t-2 -119 q-2 -53 -2 -105.5z" />
<glyph unicode="s" horiz-adv-x="1792" d="M-18 504q2 16 8 37.5t20.5 43t39 43t65.5 38.5q31 12 61.5 -1.5t42.5 -43.5q12 -29 -1 -60t-44 -43q-33 -16 -33 -29q-2 -18 11.5 -45.5t37 -57.5t52 -56.5t55.5 -44.5q98 -66 231.5 -103t273.5 -48q67 -5 133 -5q72 0 143 6q136 12 241 47q86 29 140 66t65 74 q4 18 -3.5 36.5t-20.5 37t-28.5 34.5t-27.5 29q-51 45 -119 74.5t-145.5 49t-161.5 31t-170 21.5q-127 14 -241.5 31.5t-215.5 56.5q-59 25 -110.5 53.5t-82.5 71.5q-30 42 -34 106v13q0 60 33 143q45 115 138 182.5t203 99.5q112 32 224 36q29 1 56 1q79 0 143 -10 q338 -43 428 -164q36 -46 36 -100q0 -13 -2 -27q-4 -33 -30.5 -52t-59.5 -15t-52 30.5t-15 59.5q0 4 -4 8t-18.5 16.5t-49.5 28t-96.5 30.5t-157.5 28q-56 7 -133 7h-19q-90 -1 -178 -22.5t-161.5 -67.5t-104.5 -126q-16 -43 -21.5 -67.5t5 -43t40 -34t83.5 -36.5 q86 -35 191.5 -50t221.5 -29q94 -10 189.5 -23.5t184.5 -36t168 -59.5t144 -96q134 -121 134 -244q0 -24 -5 -47q-37 -168 -311 -256q-92 -29 -202.5 -45.5t-231.5 -16.5q-96 0 -194.5 10.5t-192.5 33t-179 57.5t-157 82q-31 18 -73 56t-78.5 85t-60.5 103q-19 43 -19 84 q0 12 2 24z" />
<glyph unicode="t" horiz-adv-x="1300" d="M-35 1341q-1 6 -1 12q0 25 16 47q18 26 51 32q61 10 134 18t143 13t132 7q28 1 52 2q28 0 51 -2q104 -4 163.5 -10t94.5 -10q20 -4 36.5 -5t36 0t45 5t66.5 14q2 31 21.5 52.5t50.5 23.5q8 1 15 1l31 -3q23 -4 46 -22q12 -12 20 -29q39 -23 43 -68q0 -29 -16 -51.5 t-45 -28.5q-94 -23 -149.5 -35t-92.5 -17q-26 -4 -48 -4q-9 0 -17 1q-28 2 -66 8q-23 4 -56.5 7.5t-86.5 7.5q10 -105 10 -267v-56q-2 -200 -8 -464q-2 -72 -4 -143.5t-3 -133t-1 -109.5t4 -68q10 -23 8 -43q0 -33 -23.5 -54.5t-54.5 -21.5h-4q-37 2 -57 16q-19 13 -26 71 q-6 50 -6 145v28q1 115 7 317q2 100 5 214t3 221.5t-2 199.5t-8 152q-43 0 -95 -3t-108.5 -8.5t-112 -11.5t-102.5 -14h-12q-29 0 -52.5 19.5t-27.5 47.5z" />
<glyph unicode="u" horiz-adv-x="1337" d="M66 1065q16 160 69 283q12 31 43 43q16 6 31 6l31 -6q31 -12 43 -43t0 -62q-43 -104 -57 -242q-7 -69 -7.5 -139.5t7.5 -141.5q14 -142 53.5 -272.5t101.5 -214.5q83 -111 187 -111q11 0 22 1q125 12 194.5 75.5t103.5 168t39 246.5q3 79 3 165q0 69 -2 144q-4 98 -4 189 t10 169q4 33 30 53q22 16 49 16q5 0 11 -1q32 -4 52 -30q16 -22 17 -47q0 -5 -1 -11q-10 -67 -10 -147v-8q0 -85 5 -179q1 -97 3 -201q0 -12 1 -24q-1 -92 -11 -182q-12 -102 -40 -198t-82.5 -170.5t-139.5 -125t-212 -62.5q-10 0 -18 -1t-19 -1q-184 0 -315 178 q-76 100 -123 250t-63 312q-9 83 -9 166q-1 77 7 155z" />
<glyph unicode="v" horiz-adv-x="1380" d="M-7 1258q11 30 40 45q31 16 61.5 4.5t44.5 -41.5q14 -29 44 -86.5t69 -135.5q106 -205 204.5 -399t164.5 -340q35 76 77.5 145.5t87.5 139.5q10 18 22.5 35.5t22.5 36.5q51 78 100.5 167t98.5 179q53 98 102.5 185t96.5 159q15 23 43 31q12 3 24 3q16 0 31 -6 q27 -10 40 -36q9 -17 9 -36q0 -9 -2 -18q-10 -43 -18 -76.5t-19 -68.5q-10 -37 -22 -83t-29 -114q-8 -33 -35.5 -50t-60.5 -9q-20 4 -33 16q-47 -86 -95 -169t-95 -158q-10 -18 -22.5 -37t-24.5 -39q-68 -104 -130.5 -213t-84.5 -226q-6 -29 -27 -45t-49 -18h-2 q-29 0 -49.5 15.5t-28.5 41.5q-14 51 -63.5 159t-114 240t-135 269t-125.5 248q-41 78 -71 136t-44 87q-8 17 -8 35q0 14 5 27z" />
<glyph unicode="w" horiz-adv-x="1875" d="M0 1305q-4 13 -4 27q0 16 7 34q13 30 46 41q31 10 60.5 -4t40.5 -45q23 -63 39 -168t34 -234q12 -84 26.5 -186t35 -203.5t45 -189.5t55.5 -146q41 68 88 133.5t96 129.5q27 35 52.5 67.5t50.5 67.5q23 35 43 65.5t41 61.5q-47 86 -98.5 177t-98.5 183l-72 131 q-16 29 -6 61t39 48t60.5 6t48.5 -39l71 -131q35 -70 74 -141.5t76 -139.5q35 59 65.5 116.5t63.5 117.5q29 55 59.5 112.5t65.5 122.5q16 29 48 38t60 -7q29 -16 38.5 -48t-7.5 -60q-35 -63 -65.5 -121t-59.5 -111q-43 -84 -85 -160.5t-91 -156.5q23 -35 42.5 -66t37.5 -55 q27 -37 53.5 -75t52.5 -79q47 -68 95.5 -135.5t99.5 -126.5q41 141 84 288.5t83 295t73.5 292t56.5 277.5q4 34 32 52q23 15 48 15q6 0 12 -1q34 -6 52 -33q14 -20 13 -44q0 -8 -1 -16q-25 -141 -61 -293.5t-77 -308t-86 -309t-88 -301.5l-28 -92q-10 -41 -56 -55 q-6 -2 -20 -2q-29 0 -53 20q-88 82 -163 182.5t-147 204.5q-27 39 -52 76t-52 72q-10 16 -21.5 32.5t-23.5 34.5q-10 -16 -22.5 -32.5t-24.5 -34.5q-49 -68 -105 -142q-63 -82 -122.5 -165t-96.5 -167q-12 -33 -47 -45q-16 -4 -24 -4q-18 0 -39 11q-66 35 -112 114.5 t-80 197.5t-59.5 268.5t-49.5 328.5q-16 117 -33 217t-33 154z" />
<glyph unicode="x" horiz-adv-x="1198" d="M31 47q0 39 12 73t32.5 63.5t45 55t47.5 48.5q25 20 43 43q74 84 145.5 169t141.5 171q10 10 14 16q-61 88 -120.5 168t-110.5 150l-29 36q-25 33 -50.5 69t-50 78t-46 93t-39.5 119q-8 33 8 60.5t49 37.5q10 3 20 3q19 0 39 -11q28 -16 37 -49q14 -55 32.5 -97.5t39 -78 t42 -66.5t46.5 -61l31 -37q47 -63 99 -136t109 -151q14 18 29 35.5t31 36.5q31 37 59.5 74.5t60 82.5t67.5 99.5t83 124.5l80 123q18 29 50 33.5t61 -11.5q29 -18 35 -50q1 -8 1 -15q0 -24 -14 -46l-80 -122q-47 -72 -85 -128.5t-69.5 -102.5t-62 -86t-65.5 -81 q-23 -25 -43.5 -50t-42.5 -52q31 -41 59.5 -84t56.5 -84q27 -41 66 -96.5t80 -112.5t80 -111.5t69 -93.5q20 -27 16.5 -58.5t-30.5 -51.5q-18 -16 -49 -17q-39 0 -64 31q-31 39 -70.5 94.5t-81.5 113.5t-81 114.5t-66 97.5q-23 35 -45 66.5t-45 64.5q-68 -82 -137.5 -165 t-140.5 -163q-10 -12 -23.5 -24.5t-25.5 -26.5q-33 -31 -62 -62.5t-29 -60.5q2 -33 -21.5 -56.5t-55.5 -23.5h-2q-33 0 -55.5 22.5t-24.5 55.5z" />
<glyph unicode="y" horiz-adv-x="864" d="M-11 1316q5 32 34 52q29 18 60.5 12t49.5 -32q47 -68 94 -118t97 -100q43 -41 85 -85t83 -97q55 104 103 215t71 230q6 33 34 51q20 14 44 14q8 0 16 -2q33 -6 51 -34q13 -20 13 -44q0 -8 -1 -16q-33 -158 -95 -294t-134 -265q2 -10 2 -27q-4 -23 -17.5 -39t-31.5 -24 q-43 -78 -80 -155t-64.5 -155.5t-40.5 -160.5q-10 -57 -10 -116q0 -27 2 -54q2 -31 -17.5 -55.5t-49.5 -28.5q-6 -2 -17 -2q-35 0 -61 20q-37 29 -47 84q-4 23 6 43.5t27 34.5q4 86 22.5 167t48 157.5t66.5 151.5t76 147q-47 70 -95.5 122t-99.5 105q-53 51 -105.5 106.5 t-105.5 130.5q-14 23 -14 47q0 7 1 14z" />
<glyph unicode="z" horiz-adv-x="1464" d="M33 1313q2 35 26.5 56.5t59.5 16.5q49 -4 115.5 -5t134 -1t130 3t105.5 8q47 4 98.5 13t104.5 19q105 20 209 36q67 10 133 10q37 0 74 -3q45 -4 69 -45q8 -16 11.5 -32.5t-12 -47t-55.5 -84t-117 -143.5t-198.5 -225t-299.5 -330l-50 -51q-20 -23 -54 -61.5t-74 -87 t-80.5 -99.5t-77.5 -96q72 0 166 1t196.5 2t208.5 2q53 0 103 0.5t98 -0.5q96 -1 177 -1t134 -2q34 -2 56 -26q21 -22 20 -51v-5q0 -35 -24.5 -57.5t-57.5 -20.5q-70 2 -188.5 3t-257 1t-279.5 -1t-256 -2t-188.5 -2t-75.5 -1h-2q-49 0 -72 45q-9 18 -9 35q0 25 19 49 q4 4 28.5 35t61.5 76t82 100t88 107.5t81 96.5t61 68l47 52q49 53 124.5 135t156.5 172t158 178t130 152q-57 -4 -115.5 -15.5t-117.5 -21.5q-53 -10 -107.5 -20.5t-107.5 -16.5q-47 -4 -113 -7t-138.5 -3t-142 1t-125.5 5q-33 5 -54 29q-18 21 -18 47q0 5 1 10z" />
<glyph unicode="{" horiz-adv-x="933" d="M0 692q10 29 33.5 46.5t52.5 17.5q4 0 8 -1t8 -1q23 2 69 12t89 51q98 98 86 330q-2 31 -7 65.5t-11 73.5q-10 61 -18.5 131t-0.5 138.5t41 131t105 107.5q43 27 99 40t108.5 18.5t90.5 5.5h42q37 -2 61.5 -29t22.5 -64t-29 -62.5t-64 -23.5q-31 0 -65.5 -2t-67 -6 t-60.5 -11.5t-42 -17.5q-33 -20 -48.5 -49.5t-18.5 -70.5t3.5 -92.5t16.5 -114.5q6 -41 11 -81t9 -79q16 -311 -139 -463q-10 -10 -17.5 -17t-17.5 -13q6 -4 11.5 -10.5t11.5 -10.5q39 -43 62.5 -95t35.5 -106.5t13 -109t-1 -99.5q-2 -18 -4 -39.5t-6 -48.5q-6 -47 -12 -104 t-5 -114.5t14 -109t46 -83.5q70 -70 242 -47q35 4 64.5 -18.5t33.5 -57.5q4 -37 -18.5 -66.5t-57.5 -34.5q-53 -6 -100 -6q-186 0 -291 105q-55 55 -79.5 126.5t-30 146.5t2 149.5t15.5 136.5q4 23 5 42t3 36q2 27 2 62.5t-6 74.5t-20.5 75t-38.5 64q-49 51 -144 58h-16 q-20 0 -37.5 9t-30.5 25q-27 37 -14 80z" />
<glyph unicode="|" horiz-adv-x="415" d="M39 1354q-4 37 21.5 63.5t62.5 30.5q35 2 62.5 -23.5t29.5 -62.5q4 -59 9 -154.5t12 -212.5q6 -119 13 -254t14 -274t13.5 -277.5t11.5 -261.5t8 -224t3 -169q0 -37 -25.5 -62.5t-62.5 -25.5t-63.5 25.5t-26.5 62.5q0 66 -3 167t-8.5 223t-11.5 258t-13 275.5 t-14.5 273.5t-13.5 253t-11 214t-7 155z" />
<glyph unicode="}" horiz-adv-x="829" d="M29 -410q0 37 25.5 64t62.5 27q63 0 108 51q37 45 59.5 113.5t32 142t8.5 142.5t-10 114q-29 160 -18.5 265t63.5 177q35 43 78 72q-86 72 -110.5 170t-28.5 205q-4 72 -2 131t6 108q2 74 2 113t-13 58.5t-43 25.5t-85 10q-37 4 -61.5 31.5t-20.5 64.5t32.5 61.5 t63.5 20.5q119 -10 182.5 -45t91 -88t29.5 -119.5t-2 -140.5q-2 -49 -4 -103.5t2 -119.5q2 -72 11.5 -124t34 -89t70.5 -58.5t126 -31.5q35 -6 56.5 -31t19.5 -59q0 -35 -21.5 -60t-56.5 -29q-88 -10 -139.5 -29.5t-73.5 -49.5q-55 -72 -15 -304q8 -49 11.5 -133t-9 -177 t-42 -186t-87.5 -161q-96 -117 -245 -117q-37 0 -62.5 26t-25.5 62z" />
<glyph unicode="~" horiz-adv-x="761" d="M20 681.5q7 27.5 31 43.5q63 39 117.5 49t99.5 5t82 -21.5t68 -32.5q27 -14 50.5 -24.5t48 -13.5t50 3t60.5 25q27 16 54.5 8t41.5 -33q16 -27 8 -54.5t-35 -41.5q-47 -27 -86.5 -38t-74.5 -11q-55 0 -100.5 18.5t-82.5 36.5q-29 14 -53.5 25.5t-50 14.5t-55 -5 t-68.5 -31q-25 -14 -52.5 -7t-43.5 32t-9 52.5z" />
<glyph unicode="&#xa1;" horiz-adv-x="284" d="M49 1343q-6 35 9.5 63t45.5 40q29 39 74 39q16 2 39 -8q35 -16 47 -50t-4 -69q-30 -66 -106 -84q-35 -6 -67 13.5t-38 55.5zM58 260q-1 123 8 238q2 47 4 89t0 79l-4 221q0 37 25.5 64.5t62.5 27.5q37 2 63.5 -24.5t26.5 -63.5l4 -221q2 -41 0 -87t-4 -96 q-6 -102 -6 -207.5t28 -179.5q12 -35 -2 -68.5t-49 -45.5q-35 -14 -68 1t-49 50q-39 100 -40 223z" />
<glyph unicode="&#xa2;" horiz-adv-x="1495" d="M31 985q47 303 239 445q86 61 197 86q-2 16 -2 30.5t-2 26.5q-2 37 23.5 63.5t62.5 28.5q35 4 62.5 -21.5t29.5 -62.5q0 -12 1 -24.5t1 -26.5q47 0 105 -10q207 -35 313 -152t84 -283q-4 -35 -33 -56t-63 -17q-35 4 -56.5 32.5t-17.5 63.5q8 63 -16.5 107.5t-64.5 72 t-88 41.5t-87 21q-16 4 -32.5 5t-33.5 3q2 -35 3 -70t6 -76q6 -129 14 -277.5t15 -301t14.5 -300t11.5 -272.5q96 4 197.5 44t185.5 112q27 25 60.5 61.5t62 87t45 114t10.5 141.5q-4 35 19.5 61.5t58.5 30.5t61.5 -19.5t30.5 -60.5q14 -154 -47.5 -295t-190.5 -252 q-104 -90 -233 -140t-254 -55q0 -41 1 -74.5t1 -62.5q0 -37 -26.5 -63.5t-63.5 -26.5t-62.5 26.5t-25.5 63.5v73t-2 87q-143 45 -250 158.5t-173.5 264t-90 320.5t-0.5 328zM197 706q14 -131 58 -249.5t115.5 -212.5t166.5 -142q-4 123 -11.5 265.5t-14.5 287t-14.5 285.5 t-13.5 264q-2 37 -4 71t-4 66q-57 -16 -104 -51q-137 -99 -170 -332q-18 -121 -4 -252z" />
<glyph unicode="&#xa3;" horiz-adv-x="1499" d="M43 -57.5q10 32.5 41 51.5q31 18 70 39q49 37 88 91t67.5 114.5t50 121t37.5 109.5q-20 2 -39.5 2t-35.5 2q-37 4 -61.5 33t-20.5 65q4 37 32.5 60.5t63.5 19.5q31 -4 64.5 -4h70.5q10 20 21.5 41t21.5 41q-29 0 -58.5 -1t-58.5 -1q-37 0 -62.5 25.5t-25.5 62.5 t25.5 63.5t62.5 26.5q53 0 107.5 1t107.5 3v2q23 41 46.5 83t46.5 85q-51 20 -99.5 49t-89.5 61t-71.5 68.5t-43.5 73.5q-10 35 5.5 69t50.5 44q35 12 68.5 -4.5t45.5 -50.5q6 -23 62.5 -67t152.5 -85q4 4 5.5 9t5.5 11q6 10 11 22.5t9 25.5q10 27 25.5 59.5t39 61t58.5 48 t86 21.5q82 4 143.5 -39t85.5 -121q27 -82 0.5 -160.5t-92.5 -121.5q-61 -41 -139 -43t-147 14q-16 -29 -29.5 -56.5t-30.5 -56.5q143 6 291 7q37 0 62.5 -27t25.5 -64t-25.5 -62.5t-62.5 -25.5h-23q-86 0 -171 -2t-171 -4h-24q-10 -20 -21.5 -39.5t-21.5 -38.5 q94 6 185 16.5t169 20.5q35 6 64.5 -16.5t35.5 -57.5q4 -37 -17 -66.5t-58 -35.5q-104 -16 -227 -27.5t-242 -17.5q-10 -25 -19 -55q-20 -59 -45.5 -132t-62.5 -147q109 25 218 37t211.5 17.5t194 5.5t164.5 -2h6q-4 31 13 55q18 33 54 41t69 -10q55 -35 80.5 -86.5 t13.5 -106.5q-6 -29 -27.5 -47t-50.5 -23q-27 -4 -67 -3t-95 1q-92 2 -216 2t-258 -12t-270.5 -42t-252.5 -85q-43 -27 -84 -43q-16 -6 -33 -6q-25 0 -46.5 12.5t-33.5 36.5q-16 31 -6 63.5zM963 1190q37 -4 63.5 -1t38.5 13q18 10 22.5 34t-2.5 46q-10 29 -26.5 33t-24.5 2 q-12 0 -20 -12.5t-31 -65.5q-6 -12 -11 -24.5t-9 -24.5z" />
<glyph unicode="&#xa4;" horiz-adv-x="1286" d="M32.5 666q16.5 129 72 251.5t139.5 215.5q-72 147 -99 213q-16 35 -1.5 67.5t49.5 48.5q35 14 68.5 0t47.5 -49q10 -23 28.5 -65.5t47.5 -100.5q96 53 195.5 52t193.5 -56q37 98 64.5 168t31.5 86q10 35 43 51.5t68 5.5q35 -12 52.5 -44.5t6.5 -67.5q-8 -23 -43.5 -116 t-83.5 -214q111 -96 187 -246q84 -162 93.5 -318.5t-56.5 -273.5q-35 -61 -75 -112t-87 -92q29 -53 53.5 -95.5t40.5 -70.5q20 -31 11 -67t-40 -54q-20 -14 -47 -14q-23 0 -43 11t-32 32q-16 29 -40 69.5t-53 93.5q-70 -29 -139 -34q-12 -2 -25.5 -3t-25.5 -1q-45 0 -90 8 t-88 24q-33 -76 -61.5 -138t-51.5 -105q-27 -47 -78 -48q-23 0 -43 13q-33 16 -43 51t6 68q23 41 51.5 104t61.5 141q-39 29 -75 62t-70 73q-82 96 -110 221.5t-11.5 254.5zM207 622.5q-8 -90.5 9 -174t67 -149.5q51 -70 98 -111t93 -61.5t94 -23.5t102 3q35 4 80 22.5 t89 50.5t85 77t65 100q37 82 22.5 195t-61.5 240q-14 41 -37.5 90t-62.5 93t-95.5 73.5t-136.5 33.5q-47 4 -67 49q-12 -2 -42 -15t-63.5 -35.5t-67.5 -52.5t-54 -62q-47 -76 -78 -164t-39 -178.5z" />
<glyph unicode="&#xa5;" horiz-adv-x="1218" d="M68 449q-4 37 19.5 64.5t64.5 29.5q70 4 137 3t133 -3h24q12 33 25.5 63.5t28.5 59.5h-80q-66 2 -130.5 3t-129.5 -3q-37 -2 -63.5 22.5t-28.5 61.5q-4 37 19.5 64.5t64.5 29.5q70 4 137 3t133 -3h147q-41 63 -87 112.5t-95 96.5q-51 51 -104.5 107.5t-106.5 131.5 q-18 29 -12 60.5t33 50.5q29 20 60.5 14t49.5 -33q47 -68 94.5 -117.5t98.5 -99.5q41 -41 83 -85t83 -97q57 104 104 214t72 231q6 33 32.5 51t59.5 12q35 -8 52.5 -34.5t10.5 -59.5q-31 -156 -93 -290t-130 -263q76 2 138.5 2t88.5 2q37 2 65 -22.5t30 -61.5t-23.5 -63.5 t-62.5 -30.5q-18 0 -53 -1t-79 -2t-96.5 -1h-103.5q-16 -31 -30.5 -62t-29.5 -63q55 0 116 1t113 2t94 2t60 1q37 2 65 -22.5t30 -61.5t-23.5 -63.5t-62.5 -28.5q-25 -2 -76 -3t-115.5 -2t-134.5 -2t-129 -1q-16 -61 -22.5 -125t-2.5 -131q2 -33 -17 -57.5t-50 -28.5h-19 q-35 0 -61 20q-39 29 -45 84q-4 23 5 43t26 33q4 43 9 83t13 81q-57 0 -114.5 1t-116.5 -3q-37 -2 -63.5 22.5t-28.5 61.5z" />
<glyph unicode="&#xa6;" horiz-adv-x="313" d="M33 -94q-2 66 2 131t8 131t7 129t3 129v2q-2 37 24.5 62.5t63.5 25.5t62.5 -23.5t25.5 -64.5q2 -70 -2 -137.5t-8 -132.5q-4 -66 -7 -127.5t-3 -124.5q0 -37 -25.5 -62.5t-62.5 -27.5q-37 0 -62.5 26.5t-25.5 63.5zM49 956q0 66 3 131.5t7 131.5t7.5 130t3.5 128v2 q0 37 25.5 62.5t62.5 25.5q37 2 63.5 -22.5t26.5 -65.5q0 -70 -3 -137.5t-7 -133.5t-7.5 -127.5t-3.5 -124.5q0 -37 -26.5 -62.5t-63.5 -25.5q-35 -2 -61.5 25t-26.5 63z" />
<glyph unicode="&#xa7;" horiz-adv-x="849" d="M16 229q4 37 32 61.5t67 20.5q37 -4 60.5 -31.5t19.5 -64.5q-6 -104 75 -152q35 -23 76 -31.5t81 -10t75 6t53 19.5q115 76 33 223q-16 27 -33 45q-6 4 -18 17q-29 23 -67 34t-89 23q-53 12 -109.5 29.5t-105.5 58.5q-23 18 -48.5 51t-46 75t-32.5 91t-10 101 q2 49 19.5 93t47.5 81q-31 47 -36 104t12 144q20 109 105 190.5t202 105.5q117 23 224.5 -25t180.5 -159q23 -31 15 -66.5t-39 -56.5q-31 -23 -67 -14.5t-56 39.5q-90 131 -223 106q-61 -12 -108.5 -56t-57.5 -97q-8 -41 -10 -64.5t2 -39t13 -24.5t26 -22q25 -20 61.5 -31.5 t81.5 -21.5q39 -8 83 -20.5t87 -34t83 -57t70 -93.5q68 -127 52.5 -226t-70.5 -167q4 -6 9 -12t9 -15q45 -82 52.5 -152.5t-10 -130t-54.5 -104.5t-82 -73q-39 -25 -95 -39.5t-122 -14.5t-132 16.5t-124 51.5q-88 53 -130 134t-32 185zM207 786q0 -29 8 -56.5t19.5 -51 t24 -40t20.5 -22.5q25 -23 61.5 -33t81.5 -20q41 -10 86 -22.5t88 -34.5q53 72 -8 184q-33 57 -82 79t-125 38q-35 8 -73 19.5t-75 27.5q-25 -29 -26 -68z" />
<glyph unicode="&#xa8;" d="M258 1587q4 35 33.5 57.5t66.5 16.5q35 -4 56.5 -29.5t19.5 -58.5q16 -29 10 -61.5t-32 -53.5q-25 -18 -56 -18q-45 0 -69 35q-39 51 -29 112zM581 1616q1 33 23 57q23 23 51 27q45 6 74 -23q47 -43 47 -106q2 -35 -23.5 -62.5t-64.5 -27.5q-35 0 -59.5 21.5t-28.5 53.5 q-20 27 -19 60z" />
<glyph unicode="&#xa9;" horiz-adv-x="1400" d="M5.5 815q23.5 160 96 308.5t179.5 254.5q80 78 167 120t176 48t177 -25.5t168 -101.5q23 -23 32 -55q78 -59 147 -143t122 -189q98 -193 110.5 -378t-65.5 -326q-98 -176 -236.5 -278.5t-300.5 -119.5q-16 -2 -30.5 -2h-28.5q-154 0 -300.5 76t-271.5 223 q-102 119 -133.5 273.5t-8 314.5zM205.5 560q19.5 -118 93.5 -202q104 -123 223 -182t236 -47q113 10 211 87t170 210q27 45 36 105.5t2.5 128t-27 139t-56.5 143.5q-74 145 -181.5 238.5t-214.5 105.5q-57 11 -80 60q-59 -8 -108 -39t-88 -70q-80 -80 -137.5 -195.5 t-78 -239.5t-1 -242zM358 811q14 88 49 138t68 73q92 68 230 45l49.5 -11t64.5 -23.5t59.5 -45.5t34.5 -74q8 -41 -15.5 -74.5t-63.5 -39.5q-35 -8 -66 9t-45 50q-6 2 -18.5 5t-34.5 7q-16 4 -39 3t-39 -13t-23.5 -34.5t-11.5 -43.5q-6 -41 0 -84t20.5 -78.5t37 -61.5 t47.5 -32q37 -8 61.5 5.5t64.5 48.5l19 16q33 27 74 22.5t67 -34.5q27 -33 23 -74t-35 -68l-16 -14q-35 -31 -92.5 -67.5t-139.5 -36.5q-31 0 -72 10q-72 16 -125 65.5t-85.5 117t-45 144t-2.5 150.5z" />
<glyph unicode="&#xaa;" horiz-adv-x="487" d="M14 1063q16 37 32.5 84t35.5 100q29 86 58.5 167t58.5 138q20 39 61 35q18 0 33.5 -11t23.5 -28q12 -33 26.5 -78t27 -96l25 -102t22.5 -96q10 -41 16 -73t10 -52q4 -27 -11 -48.5t-42 -25.5t-48 10t-26 41q-4 12 -7 28.5t-7 35.5q-33 -4 -69.5 -7.5t-73.5 -5.5 q-6 -16 -13.5 -32.5t-11.5 -30.5q-8 -20 -24.5 -30.5t-34.5 -10.5q-8 0 -25 4q-25 10 -36 34.5t-1 49.5zM205 1210q18 2 36.5 3t34.5 6q-6 29 -13 57.5t-15 56.5z" />
<glyph unicode="&#xab;" horiz-adv-x="1802" d="M16 784q-2 29 12.5 51.5t39.5 32.5l120 60q57 29 137.5 67.5t168.5 81.5l176 86t160.5 81t123 64.5t64.5 37.5q31 23 66.5 17.5t58.5 -36.5q23 -29 17.5 -64.5t-36.5 -58.5q-41 -33 -250.5 -138t-572.5 -280q53 -31 117.5 -69.5t144.5 -85.5q76 -47 163 -98.5t167 -97.5 t141 -79t90 -41q35 -10 52.5 -42.5t7.5 -67.5q-10 -29 -34 -46.5t-52 -17.5q-16 0 -25 4q-66 20 -219.5 107.5t-382.5 226.5q-61 37 -123.5 74t-118 68.5t-96.5 55t-59 30.5q-53 20 -58 77zM614 762q-2 29 12.5 51.5t39.5 32.5l120 59q57 29 137.5 68t168.5 82l176 86 t160.5 81t123 64.5t64.5 36.5q31 23 66.5 17.5t58.5 -35.5q23 -29 17.5 -65t-36.5 -58q-41 -33 -250.5 -138.5t-572.5 -279.5q53 -31 117.5 -70t144.5 -86q76 -47 163 -98t167 -97t141 -79t90 -41q35 -10 52.5 -43t7.5 -68q-10 -29 -34 -46t-52 -17q-16 0 -25 4 q-66 20 -219.5 107t-382.5 227q-61 37 -123.5 73.5t-118 68.5t-96.5 55.5t-59 29.5q-53 20 -58 78z" />
<glyph unicode="&#xac;" horiz-adv-x="1966" d="M82 795q-2 37 22.5 63.5t61.5 28.5q53 2 136 4t171 4t169 2h134q133 -2 273 -12q129 -6 262 -10.5t264 4.5q8 0 12 -2q4 4 7 4t8 2q35 10 67.5 -8.5t42.5 -53.5q14 -53 15.5 -102t-3.5 -94q-2 -41 -1.5 -78t10.5 -68q10 -35 -7.5 -68.5t-52.5 -43.5q-8 -2 -24 -2 q-29 0 -52.5 16t-33.5 45q-16 53 -17.5 105.5t2.5 99.5q0 18 1 34.5t-1 32.5q-33 -2 -64.5 -2h-66.5q-96 0 -190 4.5t-187 8.5q-68 4 -135 6t-133 4h-131t-166 -2t-167 -4t-134 -4q-37 -2 -63.5 23.5t-28.5 62.5z" />
<glyph unicode="&#xad;" horiz-adv-x="759" d="M37 657q0 37 24.5 62.5t65.5 25.5q70 0 137.5 -4t132.5 -8q66 -4 127.5 -7t124.5 -3q37 0 62.5 -26.5t25.5 -63.5t-25.5 -62.5t-62.5 -25.5q-68 0 -133 4t-131 8q-63 4 -127.5 7t-130.5 3q-37 0 -63.5 27t-26.5 63z" />
<glyph unicode="&#xae;" horiz-adv-x="1318" d="M10.5 741.5q22.5 149.5 90 288.5t167.5 240q150 147 322 157.5t323 -120.5q20 -16 29 -50q76 -57 140.5 -136t113.5 -177q92 -180 102.5 -354t-61.5 -305q-92 -166 -221 -261.5t-283 -111.5q-14 -2 -27.5 -3t-27.5 -1q-143 0 -280.5 72.5t-256.5 209.5 q-94 111 -123.5 256.5t-7 295zM197.5 501.5q19.5 -110.5 87.5 -190.5q98 -115 208.5 -170t221.5 -43q86 8 161.5 56.5t139.5 134.5q-27 4 -43 14q-92 66 -177 114t-182 83q0 -10 1 -20.5t1 -20.5q23 -29 20 -67t-32 -62q-8 -10 -20.5 -19.5t-32.5 -17.5q-18 -6 -33 -6 q-29 0 -59 20q-39 33 -33 86q4 37 2 78t-6 82q-6 0 -10 2q-29 4 -49.5 26.5t-24.5 53.5t10 57.5t43 38.5q4 2 8 3t9 3v27.5t2 26.5v43q-31 4 -51.5 11t-36.5 23q-31 33 -27 78q4 39 32.5 63.5t67.5 20.5q25 -4 39 -12q18 -2 48 -1t50 1q59 4 86 0l11 -2q59 -6 116.5 -14.5 t106.5 -24.5t85 -42t54 -65q10 -23 15.5 -62.5t-29.5 -92.5q-25 -39 -64 -63.5t-82 -41.5q63 -33 124 -70.5t124 -82.5q6 -4 10.5 -9.5t8.5 -9.5q23 86 6 198t-74 224q-70 135 -170 223t-201 101q-27 4 -45 18.5t-28 36.5q-55 -6 -102.5 -35.5t-84.5 -66.5 q-76 -74 -128 -182.5t-72.5 -225.5t-1 -227.5zM596 756q61 2 116.5 14t84.5 29q-23 8 -66 16t-121 16h-12h-2v-45v-30z" />
<glyph unicode="&#xb0;" horiz-adv-x="526" d="M6 1499q4 72 47 138.5t107 97.5q64 30 123 12q66 0 117 -36t73 -101q29 -82 7.5 -170t-83.5 -140q-20 -16 -51 -30.5t-76 -14.5q-35 0 -75.5 12.5t-88.5 41.5q-106 66 -100 190zM117 1493q-6 -57 47 -92q35 -23 81 -34.5t83 17.5q35 29 47 84.5t-6 104.5q-12 39 -45 55 q-12 -4 -27.5 -4t-28.5 10q-4 2 -11 6.5t-17 4.5q-12 0 -33 -11q-35 -16 -61.5 -58t-28.5 -83z" />
<glyph unicode="&#xb1;" d="M-12 965q-2 37 23.5 63.5t62.5 28.5q51 4 128 1t165 -7q2 70 9 137t27 131q12 35 45 51t68 6q35 -12 51.5 -45t5.5 -67q-16 -47 -21 -105.5t-7 -118.5q68 -4 131 -9t119.5 -10t100.5 -10.5t73 -9.5q37 -6 58.5 -35.5t14.5 -66.5q-4 -33 -28.5 -54.5t-59.5 -21.5 q-4 0 -6 1t-6 1q-51 8 -160.5 17.5t-238.5 19.5v-6q0 -25 1 -49.5t3 -48.5q2 -49 2 -99.5t-6 -101.5q-4 -35 -29 -57.5t-59 -22.5h-11q-37 4 -59.5 34t-17.5 64q4 41 4 85.5t-2 91.5q-2 27 -3 53t1 53v14q-88 4 -163 7.5t-124 1.5q-37 -4 -63.5 21.5t-28.5 62.5zM18 276 q-2 39 21.5 66t64.5 29q68 4 136.5 3t134.5 -1h66h103.5t121 1t121 2t102.5 1t65 2q37 2 63.5 -23.5t29.5 -62.5q2 -37 -23 -63.5t-61 -28.5q-23 0 -69 -1t-104.5 -2t-123 -2t-123 -1h-105.5h-67q-63 2 -128 2t-130 -4q-37 -2 -65 23.5t-30 59.5z" />
<glyph unicode="&#xb2;" horiz-adv-x="591" d="M52.5 1032q-1.5 21 8.5 37t27.5 35.5t46.5 52.5q25 27 61.5 69t70.5 87t56.5 88t20.5 72q0 2 -1 3t-1 3q-14 -6 -33.5 -20.5t-39 -32t-36 -37t-22.5 -33.5q-14 -27 -41 -37t-53 4q-27 12 -36 39t3 53q12 27 47 69t80 76.5t95 52t95 -2.5q4 -2 5.5 -3t5.5 -3 q63 -45 69 -117q4 -41 -9 -85t-38.5 -90t-62.5 -93.5t-80 -94.5h69l43 -2q10 0 37 4t45 9q29 4 52.5 -11.5t27.5 -44.5q6 -29 -9 -52t-44 -30q-10 -2 -46 -8t-63 -6h-45h-47t-47.5 -1t-56.5 -5t-72 -10q-4 -2 -12 -2q-39 0 -57 30q-12 16 -13.5 37z" />
<glyph unicode="&#xb3;" horiz-adv-x="661" d="M51 1139q6 31 22.5 54.5t37 41.5t41 29.5t32.5 17.5q27 10 53.5 1t38.5 -36q10 -29 1 -55.5t-35 -36.5q-25 -12 -38.5 -24.5t-15.5 -16.5l11 -10q16 -16 52 -25.5t73.5 -11.5t73.5 3t53 17q55 39 38 82q-10 27 -43.5 48.5t-74.5 17.5q-23 -4 -42.5 8t-27.5 35 q-10 23 -3 44t24 36q10 8 22 19.5t27 23.5q-70 2 -136.5 3t-101.5 5q-29 2 -48 23.5t-17 50.5t23.5 48t49.5 17q27 -2 81 -4t113.5 -3t115 -2t88.5 -1q49 0 65 -45q8 -20 3 -40.5t-21 -35.5q-12 -10 -28.5 -27.5t-37.5 -35.5l-12 -13q82 -45 113 -122q25 -66 1 -130.5 t-90 -111.5q-33 -25 -83 -37t-103 -12q-72 0 -138.5 19.5t-107.5 56.5q-41 41 -47 76.5t-2 58.5z" />
<glyph unicode="&#xb4;" horiz-adv-x="665" d="M7 1595.5q7 34.5 42 55.5q59 35 118.5 66.5t119.5 60.5q59 31 114.5 59t108.5 61q31 18 66.5 9t54.5 -41q18 -31 10 -67t-41 -54q-57 -35 -115.5 -65.5t-115.5 -59.5t-114.5 -58.5t-113.5 -64.5h-2q-31 -18 -66.5 -10t-54.5 41q-18 33 -11 67.5z" />
<glyph unicode="&#xb5;" horiz-adv-x="1058" d="M45 -461q4 61 9 152.5t10.5 203t9.5 237.5t8 255q0 20 2 27q4 154 8 300t8 275q4 119 7.5 214t5.5 157q2 37 28.5 61.5t63.5 22.5q35 0 61.5 -27.5t24.5 -64.5q-4 -59 -6 -153.5t-6 -213.5q-4 -141 -9.5 -304t-9.5 -329q10 -10 21.5 -23.5t21.5 -27.5q92 -125 209 -113 q125 12 194.5 77t102.5 169.5t38 245.5t1 309q-4 98 -3 188.5t11 168.5q4 33 29.5 53t58.5 16q35 -4 54.5 -30.5t15.5 -59.5q-10 -68 -10 -154t4 -178q2 -96 3 -201.5t-10.5 -208t-39 -196.5t-82 -169t-140.5 -125t-211 -62q-10 -2 -19 -2h-20q-133 0 -237 92 q-8 -188 -15.5 -345t-15.5 -251q-4 -37 -31.5 -61.5t-64.5 -20.5t-60.5 31.5t-19.5 64.5z" />
<glyph unicode="&#xb6;" horiz-adv-x="1224" d="M-29 840q-18 324 154 499q74 76 169 115t192.5 54.5t188.5 14.5t159 -3q27 -2 53 -3t37 1q18 4 37.5 -1.5t35.5 -19.5q33 -27 33 -70q-2 -43 -3 -120.5t-1 -177v-216v-239.5t1 -246t1 -235q0 -135 1 -249t1 -186q0 -37 -26.5 -63.5t-63.5 -26.5t-63.5 26.5t-26.5 63.5 v435q0 145 -1 309t-1 319.5v290.5t2 227q-6 0 -12.5 1t-12.5 1h-23.5t-25.5 2q-2 -37 -5 -99t-7 -144q-8 -137 -18.5 -313.5t-18.5 -362.5t-14 -367.5t-6 -328.5q0 -37 -27 -62.5t-64 -25.5t-63.5 25.5t-26.5 62.5q0 141 5.5 312t15.5 351q-16 0 -29.5 1t-28.5 1 q-90 4 -179 14.5t-160.5 53.5t-119.5 131t-59 248z" />
<glyph unicode="&#xb7;" horiz-adv-x="358" d="M41 770q8 51 52.5 85t99.5 26q51 -8 83.5 -46t28.5 -87q23 -43 14.5 -92.5t-47.5 -80.5q-18 -14 -39.5 -20t-44.5 -6q-29 0 -57.5 13t-46.5 38q-55 74 -43 170z" />
<glyph unicode="&#xb8;" d="M295 -561q-4 33 18 57q18 23 47 29t54 -8q14 -6 50 -12.5t78 -8.5t85 4t71 27q14 10 29.5 32.5t15.5 69.5q0 29 -8 41.5t-18 18.5q-23 12 -57.5 13t-70.5 -4t-68 -15.5t-50 -20.5q-20 -12 -45 -11t-43 17q-20 16 -28.5 40t-0.5 46q12 43 18.5 117t6.5 139q2 33 24.5 55.5 t55.5 22.5h2q33 0 56.5 -23.5t21.5 -56.5q0 -31 -2 -71.5t-7 -86.5q66 14 136.5 12.5t128.5 -34.5q109 -63 108 -199q0 -88 -40 -154.5t-115 -101.5q-41 -20 -91.5 -28.5t-97.5 -8.5q-84 0 -150.5 16.5t-84.5 33.5q-25 20 -29 53z" />
<glyph unicode="&#xb9;" horiz-adv-x="454" d="M72 973q2 29 22.5 49t48.5 18h15q-8 76 -5 153t11 148q-29 -10 -53.5 3.5t-34.5 41.5q-10 27 2 50.5t35 33.5q10 8 39.5 30t56.5 44q16 14 37.5 16.5t40.5 -8.5q20 -10 29.5 -29.5t5.5 -41.5q-14 -98 -25.5 -215t0.5 -230l35 -2q29 0 48 -20.5t19 -48.5 q-2 -29 -21.5 -49.5t-47.5 -20.5h-2l-189 6q-29 0 -48 21.5t-19 50.5z" />
<glyph unicode="&#xba;" horiz-adv-x="552" d="M40 1109q-1 42 1 67v22q2 57 8 113.5t18.5 104.5t35 85t59.5 58q25 14 65.5 18t96.5 -27l8 -4l8 -4q31 -6 53 -26q33 -31 42 -90.5t8 -119t-8 -104.5l-7 -45q-8 -31 -26.5 -73t-47 -78.5t-67.5 -62t-86 -25.5q-10 0 -15 2q-59 4 -89.5 35.5t-43 71.5t-13.5 82z M180 1094.5q2 -35.5 19 -37.5q23 0 51.5 43t42.5 94q4 20 8 66.5t2 87.5q-14 10 -22.5 27.5t-4.5 37.5q-12 8 -16 12l-4 5q-19 8 -25 8h-2q-2 0 -9 -8.5t-14 -34t-15.5 -73.5t-10.5 -130v-23q-2 -39 0 -74.5z" />
<glyph unicode="&#xbb;" horiz-adv-x="1179" d="M37 1282.5q-4 36.5 18 65.5q23 29 60 32.5t65 -18.5q29 -23 86.5 -55.5t131 -71.5t157.5 -81t166 -81q102 -49 194 -95t160 -83q39 -23 45 -64q6 -43 -20 -73q-29 -31 -89.5 -83t-139 -113.5t-171 -128t-181.5 -129t-169 -115t-135 -85.5q-25 -10 -43 -10q-53 0 -78 43 q-18 33 -9 69t42 54q68 39 168 106.5t207.5 143.5t208 152.5t170.5 134.5q-53 27 -113.5 56.5t-124.5 59.5q-94 45 -182 89.5t-164 84t-135.5 74.5t-91.5 62q-29 23 -33 59.5zM766 1255.5q-4 36.5 18 65.5q23 29 60 33t65 -19q29 -23 86.5 -55.5t131 -71.5t157.5 -81 t166 -80q102 -49 194 -95.5t160 -83.5q39 -23 45 -63q6 -43 -20 -74q-29 -31 -89.5 -83t-139 -113.5t-171 -128t-181.5 -129t-169 -114.5t-135 -85q-25 -10 -43 -10q-53 0 -78 43q-18 33 -9 68.5t42 53.5q68 39 168 107t207.5 143.5t208 152.5t170.5 134q-53 27 -113.5 56.5 t-124.5 60.5q-94 45 -182 89t-164 84t-135.5 74.5t-91.5 61.5q-29 23 -33 59.5z" />
<glyph unicode="&#xbc;" horiz-adv-x="1265" d="M88 897q0 29 21.5 49.5t50.5 18.5h14q-8 76 -5 152.5t11 148.5q-29 -10 -53.5 3t-34.5 42q-10 27 2 50t35 34q10 8 40 29.5t56 43.5q16 14 38 16.5t40 -7.5q20 -10 29.5 -30t5.5 -42q-14 -98 -25.5 -215t0.5 -229l33 -3q29 0 49.5 -20t20.5 -49q-2 -29 -21.5 -49.5 t-48.5 -20.5h-2l-188 6q-29 0 -48.5 21.5t-19.5 50.5zM92 -189q-10 35 6 68q27 49 63 131t75.5 178.5t80.5 197.5t78 192q23 57 42.5 106t35.5 88q20 53 51 129t64 160t65.5 169t60 155.5t46 119.5t22.5 62q10 35 43 51t68 6q35 -12 52.5 -45t4.5 -68q-4 -14 -23.5 -65 t-47 -124t-60.5 -158t-66.5 -170t-64.5 -160.5t-51 -128.5q-16 -39 -35.5 -88.5t-42.5 -104.5q-39 -96 -81 -200.5t-82 -202t-76.5 -180.5t-63.5 -134q-27 -45 -80 -45q-23 0 -41 10q-33 16 -43 51zM545 195q4 31 30.5 95t63.5 133t78 128t71 78q25 16 52.5 8t44.5 -33 q14 -25 7 -52.5t-32 -41.5q-12 -10 -29.5 -35.5t-38 -59.5t-40 -72t-35.5 -73q35 4 69.5 7.5t69.5 7.5l12 80l9 69q4 29 26.5 47.5t50.5 14.5q29 -4 47.5 -28t14.5 -52l-10 -72l-7 -49q23 0 45.5 2t38.5 6q23 14 52 10q25 -4 42 -24.5t17 -46.5q0 -23 -13.5 -39.5 t-33.5 -24.5q-39 -16 -80 -19t-78 -3q-2 0 -3 -1t-3 -1q-2 -23 -3 -43.5t1 -40.5q0 -29 -20.5 -50.5t-49.5 -21.5h-2q-29 0 -48 19.5t-21 48.5q0 18 1 37.5t1 39.5q-59 -4 -113.5 -11t-105.5 -15h-11q-29 0 -47 20q-27 25 -20 58z" />
<glyph unicode="&#xbd;" horiz-adv-x="1167" d="M86 961q0 29 21.5 49t50.5 18h14q-8 76 -5 152.5t11 148.5h-2q-27 -10 -52.5 3.5t-35.5 41.5q-8 27 3 50.5t36 33.5q10 8 39 29.5t57 44.5q16 14 38 16t40 -8q41 -25 35 -72q-14 -98 -25.5 -214.5t0.5 -229.5l33 -2q29 0 49.5 -20.5t18.5 -49.5q0 -29 -20.5 -49 t-49.5 -20l-188 6q-29 0 -49.5 21.5t-18.5 50.5zM90 -125q-10 35 6 68q27 49 63 131t75.5 178t80.5 197.5t78 191.5q23 57 42.5 106.5t35.5 88.5q20 53 51 128.5t63.5 159.5t65.5 169t59.5 156t45 120t22.5 61q12 35 45 51.5t68 6.5q35 -12 51 -45t6 -68q-4 -14 -23.5 -65.5 t-47 -124t-60.5 -157.5t-66.5 -170t-64.5 -161t-51 -129q-16 -39 -35.5 -88t-42.5 -105q-39 -96 -81 -200.5t-82 -201.5t-76.5 -180t-63.5 -134q-27 -45 -80 -45q-27 0 -41 10q-33 16 -43 51zM588 127q10 14 27.5 33.5t46.5 54.5q25 27 61.5 69t70 87t56 87t20.5 70 q0 4 -2 7q-14 -6 -33.5 -19.5t-39 -32t-36 -38t-22.5 -33.5q-12 -27 -39.5 -36t-54.5 3t-36 38.5t3 53.5t47 69t80 76.5t95.5 53t95.5 -1.5q4 -2 5 -3t5 -3q63 -45 70 -119q4 -41 -8.5 -85t-39 -89t-62.5 -92.5t-79 -96.5h68h43q12 0 37.5 3t44.5 7q29 6 52 -10t30 -45 q4 -29 -11.5 -52.5t-44.5 -29.5q-10 -2 -46 -7t-62 -5h-45q-49 0 -95.5 -2t-127.5 -16q-5 -3 -13 -3q-37 0 -57 31q-25 35 -4 76z" />
<glyph unicode="&#xbe;" horiz-adv-x="1411" d="M68 1135q6 31 22 54t36.5 41.5t41 30t33.5 17.5q27 10 53.5 1t38.5 -36q10 -29 1 -55.5t-38 -36.5q-25 -12 -37 -24.5t-14 -16.5l2 -2q2 -2 2 -4t4 -4q18 -16 53 -25.5t74 -11.5t75 3t52 17q55 41 39 82q-10 27 -44 48.5t-75 17.5q-25 -4 -43 8t-27 35q-10 23 -4 44 t25 36q10 8 22.5 19t26.5 24q-70 2 -137.5 3t-102.5 5q-29 2 -47 23.5t-16 50.5t23.5 48t50.5 17q27 -2 81 -4t113.5 -3t114.5 -2t88 -1q23 0 40 -11.5t26 -33.5q8 -20 2.5 -41t-21.5 -35q-12 -10 -29.5 -27.5l-35.5 -35.5l-13 -13q39 -23 68 -53.5t43 -69.5q25 -66 2 -130 t-88 -111q-35 -25 -84.5 -37t-102.5 -12q-72 0 -139 19.5t-106 55.5q-41 41 -47.5 77t-1.5 59zM237.5 -168q-10.5 35 6.5 68q27 49 62.5 131t75.5 178t81 197.5t78 191.5q23 57 42 106.5t35 88.5q23 53 52.5 128.5t63.5 159.5t67 169t59.5 156t45 120t22.5 61 q10 35 43.5 51.5t68.5 6.5q35 -12 51.5 -45t6.5 -68q-6 -16 -24.5 -66.5t-46.5 -123t-61.5 -157.5t-66.5 -170t-63.5 -161t-53.5 -129q-33 -82 -75 -193q-39 -96 -81 -200.5t-83 -201.5t-78 -180t-64 -134q-27 -45 -77 -45q-25 0 -43 10q-33 16 -43.5 51zM668 147 q4 31 30.5 95.5t64.5 133t79 128t71 78.5q25 16 52.5 8t42.5 -33q16 -25 9 -52.5t-32 -41.5q-12 -10 -29.5 -36t-38 -59.5t-40 -71.5t-35.5 -73q35 4 69.5 7t69.5 8q4 20 5 39.5t5 39.5l10 70q4 29 27 47.5t51 14.5q29 -4 46.5 -28t13.5 -52l-11 -72l-6 -49q23 0 45.5 2 t40.5 6q22 16 49 10q27 -4 44.5 -24.5t15.5 -44.5q0 -23 -13.5 -40.5t-33.5 -25.5q-39 -16 -79 -19t-79 -3h-4q-4 -23 -4 -44.5v-41.5q2 -29 -18.5 -50.5t-49.5 -21.5h-2q-29 0 -49 19.5t-20 47.5v38t2 40q-59 -4 -114.5 -11t-104.5 -15h-11q-29 0 -49 20q-25 25 -20 57z " />
<glyph unicode="&#xbf;" horiz-adv-x="942" d="M-4 45.5q4 71.5 35.5 140t83 133t100.5 123.5q16 20 41 49t46.5 59t35.5 54.5t10 36.5q-4 6 -16 14q-10 6 -29.5 14.5t-52.5 18.5q-35 10 -53.5 42t-8.5 69q8 29 32 46t52 17q6 0 12.5 -1t12.5 -1q18 -4 49 -14t64.5 -29.5t63.5 -49.5t44 -73q14 -47 4 -93t-34.5 -91 t-61.5 -91t-76 -93q-94 -109 -145 -192t-17 -142q23 -39 83.5 -56.5t142.5 -7.5q61 6 117.5 24.5t101.5 43t73.5 52.5t38.5 52q4 23 2 40.5t-8 25.5q-2 4 -6 5t-16 -1q-37 -4 -65.5 18.5t-35.5 59.5q-4 37 18.5 66.5t59.5 33.5q53 6 102.5 -12.5t80.5 -56.5q39 -47 48 -110 t-14 -126q-20 -61 -69 -111.5t-116 -87.5t-142.5 -61.5t-149.5 -32.5q-137 -16 -241.5 24t-157.5 128q-43 72 -39 143.5zM285.5 1318q-0.5 36 25.5 64q25 27 62 27q41 0 63 -25l13 -10q25 -27 25.5 -63.5t-23.5 -63.5q-27 -27 -64 -27.5t-63 25.5l-11 12q-27 25 -27.5 61z " />
<glyph unicode="&#xc0;" horiz-adv-x="1075" d="M3 514q-9 29 7 57q16 27 45 36t56 -7q63 -35 217 -6q4 14 8 26.5t8 26.5q12 39 23.5 73t19.5 62q8 31 14.5 77t12.5 99q8 66 17 134.5t25.5 130t43 111.5t69.5 81q41 27 80 4q41 -23 37 -69q-2 -23 5 -58t18.5 -74.5t26 -81.5t28.5 -81q23 -61 41 -119.5t29 -106.5 q4 -23 7 -46t7 -48q10 -23 6 -41q2 -16 4 -33.5t4 -35.5q8 -70 17.5 -142.5t24 -139.5t35.5 -125t56 -99q20 -23 18.5 -52.5t-24.5 -50.5q-23 -18 -49 -18q-29 0 -55 22l-6 7q-20 23 -42 45t-38 51q-23 31 -8 67q-29 86 -44.5 179.5t-25.5 185.5q-68 -27 -138.5 -49.5 t-140.5 -38.5q-16 -53 -32.5 -108.5t-28.5 -105.5t-19.5 -95t-7.5 -78q0 -31 -21.5 -52.5t-51.5 -21.5h-2q-29 2 -51.5 23.5t-20.5 52.5q0 70 21.5 163t50.5 193q-18 -2 -37 -3t-35 -1q-49 0 -91 8.5t-77 26.5q-27 16 -36 45zM376 1798q-11 35 5 68q18 33 52 45t69 -6 q61 -33 119.5 -66t113.5 -67q57 -35 110.5 -66.5t110.5 -60.5q33 -16 43.5 -51t-6.5 -68q-16 -33 -51 -44.5t-68 5.5q-59 31 -116.5 64.5t-112.5 66.5t-110.5 65.5t-114.5 61.5v2q-33 16 -44 51zM496 635q94 27 204 72v12q-4 23 -6 43t-6 39q-8 41 -25.5 93t-37.5 112 q-10 29 -19.5 56.5t-19.5 55.5q-8 -45 -14.5 -90t-10.5 -86q-6 -57 -13 -109.5t-20 -91.5q-6 -23 -14 -49t-18 -57z" />
<glyph unicode="&#xc1;" horiz-adv-x="1075" d="M3 514q-9 29 7 57q16 27 45 36t56 -7q63 -35 217 -6q4 14 8 26.5t8 26.5q12 39 23.5 73t19.5 62q8 31 14.5 77t12.5 99q8 66 17 134.5t25.5 130t43 111.5t69.5 81q41 27 80 4q41 -23 37 -69q-2 -23 5 -58t18.5 -74.5t26 -81.5t28.5 -81q23 -61 41 -119.5t29 -106.5 q4 -23 7 -46t7 -48q10 -23 6 -41q2 -16 4 -33.5t4 -35.5q8 -70 17.5 -142.5t24 -139.5t35.5 -125t56 -99q20 -23 18.5 -52.5t-24.5 -50.5q-23 -18 -49 -18q-29 0 -55 22l-6 7q-20 23 -42 45t-38 51q-23 31 -8 67q-29 86 -44.5 179.5t-25.5 185.5q-68 -27 -138.5 -49.5 t-140.5 -38.5q-16 -53 -32.5 -108.5t-28.5 -105.5t-19.5 -95t-7.5 -78q0 -31 -21.5 -52.5t-51.5 -21.5h-2q-29 2 -51.5 23.5t-20.5 52.5q0 70 21.5 163t50.5 193q-18 -2 -37 -3t-35 -1q-49 0 -91 8.5t-77 26.5q-27 16 -36 45zM378 1595.5q7 34.5 42 55.5q59 35 118.5 66.5 t118.5 60.5q59 31 115 59t109 61q31 18 66.5 9t53.5 -41q18 -31 10.5 -67t-40.5 -54q-57 -35 -115.5 -65.5t-116.5 -59.5q-57 -29 -114.5 -58.5t-112.5 -64.5h-2q-31 -18 -66.5 -10t-54.5 41q-18 33 -11 67.5zM496 635q94 27 204 72v12q-4 23 -6 43t-6 39q-8 41 -25.5 93 t-37.5 112q-10 29 -19.5 56.5t-19.5 55.5q-8 -45 -14.5 -90t-10.5 -86q-6 -57 -13 -109.5t-20 -91.5q-6 -23 -14 -49t-18 -57z" />
<glyph unicode="&#xc2;" horiz-adv-x="1075" d="M3 514q-9 29 7 57q16 27 45 36t56 -7q63 -35 217 -6q4 14 8 26.5t8 26.5q12 39 23.5 73t19.5 62q8 31 14.5 77t12.5 99q8 66 17 134.5t25.5 130t43 111.5t69.5 81q41 27 80 4q41 -23 37 -69q-2 -23 5 -58t18.5 -74.5t26 -81.5t28.5 -81q23 -61 41 -119.5t29 -106.5 q4 -23 7 -46t7 -48q10 -23 6 -41q2 -16 4 -33.5t4 -35.5q8 -70 17.5 -142.5t24 -139.5t35.5 -125t56 -99q20 -23 18.5 -52.5t-24.5 -50.5q-23 -18 -49 -18q-29 0 -55 22l-6 7q-20 23 -42 45t-38 51q-23 31 -8 67q-29 86 -44.5 179.5t-25.5 185.5q-68 -27 -138.5 -49.5 t-140.5 -38.5q-16 -53 -32.5 -108.5t-28.5 -105.5t-19.5 -95t-7.5 -78q0 -31 -21.5 -52.5t-51.5 -21.5h-2q-29 2 -51.5 23.5t-20.5 52.5q0 70 21.5 163t50.5 193q-18 -2 -37 -3t-35 -1q-49 0 -91 8.5t-77 26.5q-27 16 -36 45zM146 1489q1 35 30 63q51 47 102.5 90.5 t104.5 83.5q102 80 192 162q16 16 39 21.5t45 -0.5q10 -4 19.5 -8.5t17.5 -12.5q53 -45 101.5 -92t95.5 -94t91 -90t91 -84q29 -25 31 -60.5t-23 -64.5t-60.5 -31t-64.5 23q-51 43 -98 89t-92 93q-33 31 -65.5 63.5t-67.5 63.5q-35 -31 -71 -59.5t-70 -57.5 q-49 -41 -99.5 -82t-97.5 -84v-2q-29 -25 -64.5 -23.5t-60.5 29.5q-27 29 -26 64zM496 635q94 27 204 72v12q-4 23 -6 43t-6 39q-8 41 -25.5 93t-37.5 112q-10 29 -19.5 56.5t-19.5 55.5q-8 -45 -14.5 -90t-10.5 -86q-6 -57 -13 -109.5t-20 -91.5q-6 -23 -14 -49t-18 -57z " />
<glyph unicode="&#xc3;" horiz-adv-x="1075" d="M3 513.5q9 -28.5 36 -44.5q35 -18 77 -26.5t91 -8.5q16 0 34.5 1t37.5 3q-29 -100 -50.5 -193t-21.5 -163q-2 -31 20.5 -52.5t51.5 -23.5h2q31 0 52 21.5t21 52.5q0 33 7.5 78t19.5 95t28.5 105.5t32.5 108.5q70 16 140.5 38.5t138.5 49.5q10 -92 25.5 -185.5 t44.5 -179.5q-14 -37 8 -67q16 -29 37.5 -51.5t42.5 -44.5l6 -7q27 -23 55 -22q27 0 49 18q23 20 24.5 50t-18.5 53q-35 41 -56 99t-35.5 125t-24 139.5t-17.5 142.5q-2 18 -4 35.5t-4 33.5q4 18 -6 41q-4 25 -7 48.5t-7 45.5q-10 47 -29 105.5t-41 120.5q-14 39 -28.5 81 t-26 81.5t-18.5 74.5t-5 58q4 47 -37 69q-39 23 -80 -4q-43 -31 -69.5 -81t-43 -111.5t-25.5 -130t-17 -134.5q-6 -53 -12.5 -99t-14.5 -77q-8 -29 -19.5 -62.5t-23.5 -72.5q-4 -14 -8 -26.5t-8 -26.5q-154 -29 -217 6q-27 16 -55.5 7t-45.5 -36q-16 -29 -7 -57.5zM322 1616 q6 24 28 39q55 33 103.5 43t88.5 5t72.5 -19.5t59.5 -28.5q25 -12 45 -21.5t41.5 -12.5t45 2t54.5 22q23 14 47.5 8t36.5 -29q14 -23 7 -48.5t-29 -37.5q-41 -23 -77 -33t-67 -10q-49 0 -89 16.5t-73 32.5q-25 12 -47 22.5t-44.5 12.5t-49 -5t-59.5 -28q-23 -10 -47.5 -5 t-38.5 28t-8 47zM496 635q10 31 18 57.5t14 48.5q12 39 19.5 91.5t13.5 109.5q4 41 10.5 86t14.5 90q10 -29 19 -56.5t20 -55.5q20 -59 37.5 -111.5t25.5 -93.5q4 -18 6 -39t6 -43v-12q-111 -45 -204 -72z" />
<glyph unicode="&#xc4;" horiz-adv-x="1075" d="M3 514q-9 29 7 57q16 27 45 36t56 -7q63 -35 217 -6q4 14 8 26.5t8 26.5q12 39 23.5 73t19.5 62q8 31 14.5 77t12.5 99q8 66 17 134.5t25.5 130t43 111.5t69.5 81q41 27 80 4q41 -23 37 -69q-2 -23 5 -58t18.5 -74.5t26 -81.5t28.5 -81q23 -61 41 -119.5t29 -106.5 q4 -23 7 -46t7 -48q10 -23 6 -41q2 -16 4 -33.5t4 -35.5q8 -70 17.5 -142.5t24 -139.5t35.5 -125t56 -99q20 -23 18.5 -52.5t-24.5 -50.5q-23 -18 -49 -18q-29 0 -55 22l-6 7q-20 23 -42 45t-38 51q-23 31 -8 67q-29 86 -44.5 179.5t-25.5 185.5q-68 -27 -138.5 -49.5 t-140.5 -38.5q-16 -53 -32.5 -108.5t-28.5 -105.5t-19.5 -95t-7.5 -78q0 -31 -21.5 -52.5t-51.5 -21.5h-2q-29 2 -51.5 23.5t-20.5 52.5q0 70 21.5 163t50.5 193q-18 -2 -37 -3t-35 -1q-49 0 -91 8.5t-77 26.5q-27 16 -36 45zM330 1630q4 35 33.5 57.5t66.5 16.5 q35 -4 56.5 -29.5t19.5 -58.5q16 -29 10 -61.5t-33 -53.5q-25 -18 -55 -18q-45 0 -70 35q-39 51 -28 112zM496 635q94 27 204 72v12q-4 23 -6 43t-6 39q-8 41 -25.5 93t-37.5 112q-10 29 -19.5 56.5t-19.5 55.5q-8 -45 -14.5 -90t-10.5 -86q-6 -57 -13 -109.5t-20 -91.5 q-6 -23 -14 -49t-18 -57zM656.5 1575.5q0.5 32.5 23.5 56.5q23 23 51 27q45 6 74 -23q47 -43 47 -106q2 -35 -23.5 -62.5t-64.5 -27.5q-35 0 -59.5 21.5t-28.5 54.5q-20 27 -19.5 59.5z" />
<glyph unicode="&#xc5;" horiz-adv-x="1075" d="M3 514q-9 29 7 57q16 27 45 36t56 -7q63 -35 217 -6q4 14 8 26.5t8 26.5q12 39 23.5 73t19.5 62q8 31 14.5 77t12.5 99q8 66 17 134.5t25.5 130t43 111.5t69.5 81q41 27 80 4q41 -23 37 -69q-2 -23 5 -58t18.5 -74.5t26 -81.5t28.5 -81q23 -61 41 -119.5t29 -106.5 q4 -23 7 -46t7 -48q10 -23 6 -41q2 -16 4 -33.5t4 -35.5q8 -70 17.5 -142.5t24 -139.5t35.5 -125t56 -99q20 -23 18.5 -52.5t-24.5 -50.5q-23 -18 -49 -18q-29 0 -55 22l-6 7q-20 23 -42 45t-38 51q-23 31 -8 67q-29 86 -44.5 179.5t-25.5 185.5q-68 -27 -138.5 -49.5 t-140.5 -38.5q-16 -53 -32.5 -108.5t-28.5 -105.5t-19.5 -95t-7.5 -78q0 -31 -21.5 -52.5t-51.5 -21.5h-2q-29 2 -51.5 23.5t-20.5 52.5q0 70 21.5 163t50.5 193q-18 -2 -37 -3t-35 -1q-49 0 -91 8.5t-77 26.5q-27 16 -36 45zM358 1565q4 72 47.5 138t106.5 97q64 30 123 12 q66 0 117 -35.5t73 -101.5q29 -82 7.5 -170t-82.5 -139q-20 -16 -51 -30.5t-76 -14.5q-35 0 -76 12.5t-88 40.5q-106 66 -101 191zM469 1559q-6 -57 47 -93q35 -23 81 -34t83 18q35 29 47 84t-6 104q-12 39 -45 56q-12 -4 -27.5 -4t-27.5 10q-4 2 -11.5 6t-17.5 4 q-12 0 -33 -10q-35 -16 -61.5 -58.5t-28.5 -82.5zM496 635q94 27 204 72v12q-4 23 -6 43t-6 39q-8 41 -25.5 93t-37.5 112q-10 29 -19.5 56.5t-19.5 55.5q-8 -45 -14.5 -90t-10.5 -86q-6 -57 -13 -109.5t-20 -91.5q-6 -23 -14 -49t-18 -57z" />
<glyph unicode="&#xc6;" horiz-adv-x="1867" d="M44 754.5q-3 31.5 17 56.5q23 27 54.5 30t58.5 -18q57 -47 223 -47q2 4 18.5 50t42 114t57.5 146.5t67.5 149.5t72.5 123t70 68q43 20 82 -8q86 -20 151.5 -24t129 -1t135 11t172.5 12q72 4 140.5 6t133.5 2q29 0 51.5 -18t26.5 -47q6 -29 -8.5 -53.5t-40.5 -34.5 q-66 -27 -119 -86q-27 -27 -59 -27q-29 0 -54 21q-35 35 -24 80q-10 0 -20.5 -1.5t-20.5 -1.5q-123 -4 -246 -7t-244 3q-8 -98 -6 -215.5t6 -228.5q96 2 187.5 -5t163.5 -13q16 -2 32.5 -3.5t30.5 -3.5q35 -2 56.5 -26.5t17.5 -59.5q-2 -33 -26.5 -54t-57.5 -17 q-16 0 -32.5 1t-35.5 3q-66 6 -151.5 12t-177.5 6q2 -29 3 -54.5t1 -45.5q2 -35 5 -74t7 -80t8 -80t6 -79q35 -4 72 -5.5t74 -5.5q68 -4 137 -8t141 -12q23 -4 72 -3t101 4t97.5 7t59.5 8q33 10 61.5 -6t38.5 -49q10 -31 -6 -59.5t-49 -38.5q-25 -6 -80 -11.5t-116.5 -8.5 t-117 -4t-79.5 3q-68 8 -135.5 12t-135.5 9q-18 0 -63 -3.5t-96.5 -5.5t-94.5 2.5t-57 20.5q-8 8 -12 57t-6 126t-2 174.5t2 201.5q-76 -4 -142.5 -10t-117.5 -8q-29 -53 -68 -132t-77 -161t-67.5 -153t-35.5 -105q-6 -33 -33 -51.5t-59 -12.5q-33 6 -51.5 33t-12.5 59 q6 37 34 104.5t62.5 144.5t70.5 150.5t60 123.5q-20 2 -38.5 4t-36.5 6q-51 10 -94.5 25.5t-73.5 41.5q-27 23 -30 54.5zM582 786q35 8 82 11.5t94 5.5q4 129 9 247.5t13 206.5q-33 -57 -64.5 -133.5t-59 -147.5t-48 -124.5t-26.5 -65.5z" />
<glyph unicode="&#xc7;" horiz-adv-x="1355" d="M-27 915q39 279 222 414q178 127 444 84q193 -35 291 -142.5t78 -260.5q-4 -35 -30 -54.5t-60 -15.5q-33 4 -52.5 30.5t-15.5 59.5q8 59 -14.5 99t-59.5 67t-82 40t-82 19q-35 6 -75.5 8.5t-82.5 -3t-85 -19.5t-80 -41q-127 -92 -158 -309q-18 -125 0.5 -260t69.5 -252 t133 -203t188 -110q49 -12 107.5 -8.5t117 22t115 49.5t105.5 72q25 23 56.5 57.5t57 81.5t41 105.5t8.5 129.5q-2 35 19.5 58.5t54.5 28.5q35 2 58.5 -18.5t27.5 -53.5q12 -145 -45 -275.5t-176 -234.5q-88 -76 -195.5 -122t-216.5 -56q0 -47 -6 -99q66 14 136.5 12.5 t127.5 -34.5q109 -63 109 -199q0 -88 -40 -154.5t-116 -101.5q-43 -20 -92 -28.5t-96 -8.5q-84 0 -150.5 16.5t-85.5 32.5q-25 20 -28.5 53.5t18.5 57.5q18 23 47 29t54 -8q14 -6 48.5 -12.5t78 -8.5t85 4t72.5 27q14 10 29.5 32.5t15.5 69.5q0 29 -8 41t-18 19 q-23 12 -58 13t-70.5 -4t-67.5 -15.5t-50 -20.5q-20 -12 -45 -11t-45 17q-18 16 -26.5 40t-0.5 46q10 35 15.5 89t9.5 112q-4 2 -15 2q-141 33 -247.5 138.5t-173 247.5t-90 305t-1.5 314z" />
<glyph unicode="&#xc8;" horiz-adv-x="1386" d="M15.5 708.5q11.5 30.5 39.5 45.5q47 23 99.5 34t107.5 19q-4 117 -6 239.5t6 229.5q-84 8 -172 29q-33 8 -50 35.5t-9 60.5t35.5 50t60.5 9q174 -41 374.5 -42t403.5 9q72 4 139.5 5.5t133.5 3.5h2q29 0 51 -18.5t26 -47.5t-9 -54.5t-40 -35.5q-33 -10 -62.5 -32.5 t-55.5 -51.5q-25 -27 -60 -27q-33 0 -53 21q-16 16 -22.5 36.5t-2.5 43.5q-10 -2 -20 -2h-21q-123 -4 -245.5 -7.5t-243.5 1.5q-8 -98 -6 -216t6 -229q96 2 186 -4t162 -12q41 -4 66 -6q35 -4 56 -28t17 -58q-2 -33 -26.5 -54.5t-59.5 -19.5q-29 2 -67 6q-63 6 -149.5 12 t-178.5 6q2 -29 3 -54t1 -46q2 -37 5 -75t7 -78q4 -41 8.5 -81t6.5 -81q35 -2 71.5 -4t71.5 -4q70 -4 139.5 -8.5t141.5 -12.5q23 -4 72 -3t101 4t97 7t59 8q33 8 60.5 -7t38.5 -48q10 -31 -5.5 -59.5t-48.5 -38.5q-25 -8 -80 -13.5t-116.5 -8.5t-116.5 -4t-80 3 q-68 10 -136.5 13.5t-133.5 7.5q-35 4 -71 5t-70 5q-2 -6 -2 -11t-2 -9q-6 -39 -39 -56q-16 -10 -39 -10q-16 0 -31 6q-45 18 -106.5 56t-110.5 79q-23 16 -28 44t5 53q12 25 37 37t53 6q51 -12 109 -19q-4 31 -6 62.5t-6 64.5q-4 41 -8.5 82t-6.5 82q0 20 -1 44t-1 50 q-41 -4 -78.5 -13t-68.5 -26q-16 -6 -33 -6q-23 0 -42.5 11t-29.5 34q-14 31 -2.5 61.5zM15.5 708.5q11.5 30.5 39.5 45.5q47 23 99.5 34t107.5 19q-4 117 -6 239.5t6 229.5q-84 8 -172 29q-33 8 -50 35.5t-9 60.5t35.5 50t60.5 9q174 -41 374.5 -42t403.5 9q72 4 139.5 5.5 t133.5 3.5h2q29 0 51 -18.5t26 -47.5t-9 -54.5t-40 -35.5q-33 -10 -62.5 -32.5t-55.5 -51.5q-25 -27 -60 -27q-33 0 -53 21q-16 16 -22.5 36.5t-2.5 43.5q-10 -2 -20 -2h-21q-123 -4 -245.5 -7.5t-243.5 1.5q-8 -98 -6 -216t6 -229q96 2 186 -4t162 -12q41 -4 66 -6 q35 -4 56 -28t17 -58q-2 -33 -26.5 -54.5t-59.5 -19.5q-29 2 -67 6q-63 6 -149.5 12t-178.5 6q2 -29 3 -54t1 -46q2 -37 5 -75t7 -78q4 -41 8.5 -81t6.5 -81q35 -2 71.5 -4t71.5 -4q70 -4 139.5 -8.5t141.5 -12.5q23 -4 72 -3t101 4t97 7t59 8q33 8 60.5 -7t38.5 -48 q10 -31 -5.5 -59.5t-48.5 -38.5q-25 -8 -80 -13.5t-116.5 -8.5t-116.5 -4t-80 3q-68 10 -136.5 13.5t-133.5 7.5q-35 4 -71 5t-70 5q-2 -6 -2 -11t-2 -9q-6 -39 -39 -56q-16 -10 -39 -10q-16 0 -31 6q-45 18 -106.5 56t-110.5 79q-23 16 -28 44t5 53q12 25 37 37t53 6 q51 -12 109 -19q-4 31 -6 62.5t-6 64.5q-4 41 -8.5 82t-6.5 82q0 20 -1 44t-1 50q-41 -4 -78.5 -13t-68.5 -26q-16 -6 -33 -6q-23 0 -42.5 11t-29.5 34q-14 31 -2.5 61.5zM306 1827q-11 35 5 67q18 33 52 45.5t69 -6.5q61 -33 119.5 -65.5t114.5 -67.5q57 -35 110.5 -66.5 t110.5 -60.5q33 -16 43 -51t-6 -68t-51 -44t-68 6q-59 31 -116.5 64.5t-113.5 66.5q-55 33 -110 65.5t-115 61.5v2q-33 16 -44 51z" />
<glyph unicode="&#xc9;" horiz-adv-x="1386" d="M15.5 708.5q11.5 30.5 39.5 45.5q47 23 99.5 34t107.5 19q-4 117 -6 239.5t6 229.5q-84 8 -172 29q-33 8 -50 35.5t-9 60.5t35.5 50t60.5 9q174 -41 374.5 -42t403.5 9q72 4 139.5 5.5t133.5 3.5h2q29 0 51 -18.5t26 -47.5t-9 -54.5t-40 -35.5q-33 -10 -62.5 -32.5 t-55.5 -51.5q-25 -27 -60 -27q-33 0 -53 21q-16 16 -22.5 36.5t-2.5 43.5q-10 -2 -20 -2h-21q-123 -4 -245.5 -7.5t-243.5 1.5q-8 -98 -6 -216t6 -229q96 2 186 -4t162 -12q41 -4 66 -6q35 -4 56 -28t17 -58q-2 -33 -26.5 -54.5t-59.5 -19.5q-29 2 -67 6q-63 6 -149.5 12 t-178.5 6q2 -29 3 -54t1 -46q2 -37 5 -75t7 -78q4 -41 8.5 -81t6.5 -81q35 -2 71.5 -4t71.5 -4q70 -4 139.5 -8.5t141.5 -12.5q23 -4 72 -3t101 4t97 7t59 8q33 8 60.5 -7t38.5 -48q10 -31 -5.5 -59.5t-48.5 -38.5q-25 -8 -80 -13.5t-116.5 -8.5t-116.5 -4t-80 3 q-68 10 -136.5 13.5t-133.5 7.5q-35 4 -71 5t-70 5q-2 -6 -2 -11t-2 -9q-6 -39 -39 -56q-16 -10 -39 -10q-16 0 -31 6q-45 18 -106.5 56t-110.5 79q-23 16 -28 44t5 53q12 25 37 37t53 6q51 -12 109 -19q-4 31 -6 62.5t-6 64.5q-4 41 -8.5 82t-6.5 82q0 20 -1 44t-1 50 q-41 -4 -78.5 -13t-68.5 -26q-16 -6 -33 -6q-23 0 -42.5 11t-29.5 34q-14 31 -2.5 61.5zM15.5 708.5q11.5 30.5 39.5 45.5q47 23 99.5 34t107.5 19q-4 117 -6 239.5t6 229.5q-84 8 -172 29q-33 8 -50 35.5t-9 60.5t35.5 50t60.5 9q174 -41 374.5 -42t403.5 9q72 4 139.5 5.5 t133.5 3.5h2q29 0 51 -18.5t26 -47.5t-9 -54.5t-40 -35.5q-33 -10 -62.5 -32.5t-55.5 -51.5q-25 -27 -60 -27q-33 0 -53 21q-16 16 -22.5 36.5t-2.5 43.5q-10 -2 -20 -2h-21q-123 -4 -245.5 -7.5t-243.5 1.5q-8 -98 -6 -216t6 -229q96 2 186 -4t162 -12q41 -4 66 -6 q35 -4 56 -28t17 -58q-2 -33 -26.5 -54.5t-59.5 -19.5q-29 2 -67 6q-63 6 -149.5 12t-178.5 6q2 -29 3 -54t1 -46q2 -37 5 -75t7 -78q4 -41 8.5 -81t6.5 -81q35 -2 71.5 -4t71.5 -4q70 -4 139.5 -8.5t141.5 -12.5q23 -4 72 -3t101 4t97 7t59 8q33 8 60.5 -7t38.5 -48 q10 -31 -5.5 -59.5t-48.5 -38.5q-25 -8 -80 -13.5t-116.5 -8.5t-116.5 -4t-80 3q-68 10 -136.5 13.5t-133.5 7.5q-35 4 -71 5t-70 5q-2 -6 -2 -11t-2 -9q-6 -39 -39 -56q-16 -10 -39 -10q-16 0 -31 6q-45 18 -106.5 56t-110.5 79q-23 16 -28 44t5 53q12 25 37 37t53 6 q51 -12 109 -19q-4 31 -6 62.5t-6 64.5q-4 41 -8.5 82t-6.5 82q0 20 -1 44t-1 50q-41 -4 -78.5 -13t-68.5 -26q-16 -6 -33 -6q-23 0 -42.5 11t-29.5 34q-14 31 -2.5 61.5zM378 1595.5q7 34.5 42 55.5q59 35 118.5 66.5t118.5 60.5q59 31 115 59t109 61q31 18 66.5 9 t53.5 -41q18 -31 10.5 -67t-40.5 -54q-57 -35 -115.5 -65.5t-116.5 -59.5q-57 -29 -114.5 -58.5t-112.5 -64.5h-2q-31 -18 -66.5 -10t-54.5 41q-18 33 -11 67.5z" />
<glyph unicode="&#xca;" horiz-adv-x="1386" d="M15.5 708.5q11.5 30.5 39.5 45.5q47 23 99.5 34t107.5 19q-4 117 -6 239.5t6 229.5q-84 8 -172 29q-33 8 -50 35.5t-9 60.5t35.5 50t60.5 9q174 -41 374.5 -42t403.5 9q72 4 139.5 5.5t133.5 3.5h2q29 0 51 -18.5t26 -47.5t-9 -54.5t-40 -35.5q-33 -10 -62.5 -32.5 t-55.5 -51.5q-25 -27 -60 -27q-33 0 -53 21q-16 16 -22.5 36.5t-2.5 43.5q-10 -2 -20 -2h-21q-123 -4 -245.5 -7.5t-243.5 1.5q-8 -98 -6 -216t6 -229q96 2 186 -4t162 -12q41 -4 66 -6q35 -4 56 -28t17 -58q-2 -33 -26.5 -54.5t-59.5 -19.5q-29 2 -67 6q-63 6 -149.5 12 t-178.5 6q2 -29 3 -54t1 -46q2 -37 5 -75t7 -78q4 -41 8.5 -81t6.5 -81q35 -2 71.5 -4t71.5 -4q70 -4 139.5 -8.5t141.5 -12.5q23 -4 72 -3t101 4t97 7t59 8q33 8 60.5 -7t38.5 -48q10 -31 -5.5 -59.5t-48.5 -38.5q-25 -8 -80 -13.5t-116.5 -8.5t-116.5 -4t-80 3 q-68 10 -136.5 13.5t-133.5 7.5q-35 4 -71 5t-70 5q-2 -6 -2 -11t-2 -9q-6 -39 -39 -56q-16 -10 -39 -10q-16 0 -31 6q-45 18 -106.5 56t-110.5 79q-23 16 -28 44t5 53q12 25 37 37t53 6q51 -12 109 -19q-4 31 -6 62.5t-6 64.5q-4 41 -8.5 82t-6.5 82q0 20 -1 44t-1 50 q-41 -4 -78.5 -13t-68.5 -26q-16 -6 -33 -6q-23 0 -42.5 11t-29.5 34q-14 31 -2.5 61.5zM15.5 708.5q11.5 30.5 39.5 45.5q47 23 99.5 34t107.5 19q-4 117 -6 239.5t6 229.5q-84 8 -172 29q-33 8 -50 35.5t-9 60.5t35.5 50t60.5 9q174 -41 374.5 -42t403.5 9q72 4 139.5 5.5 t133.5 3.5h2q29 0 51 -18.5t26 -47.5t-9 -54.5t-40 -35.5q-33 -10 -62.5 -32.5t-55.5 -51.5q-25 -27 -60 -27q-33 0 -53 21q-16 16 -22.5 36.5t-2.5 43.5q-10 -2 -20 -2h-21q-123 -4 -245.5 -7.5t-243.5 1.5q-8 -98 -6 -216t6 -229q96 2 186 -4t162 -12q41 -4 66 -6 q35 -4 56 -28t17 -58q-2 -33 -26.5 -54.5t-59.5 -19.5q-29 2 -67 6q-63 6 -149.5 12t-178.5 6q2 -29 3 -54t1 -46q2 -37 5 -75t7 -78q4 -41 8.5 -81t6.5 -81q35 -2 71.5 -4t71.5 -4q70 -4 139.5 -8.5t141.5 -12.5q23 -4 72 -3t101 4t97 7t59 8q33 8 60.5 -7t38.5 -48 q10 -31 -5.5 -59.5t-48.5 -38.5q-25 -8 -80 -13.5t-116.5 -8.5t-116.5 -4t-80 3q-68 10 -136.5 13.5t-133.5 7.5q-35 4 -71 5t-70 5q-2 -6 -2 -11t-2 -9q-6 -39 -39 -56q-16 -10 -39 -10q-16 0 -31 6q-45 18 -106.5 56t-110.5 79q-23 16 -28 44t5 53q12 25 37 37t53 6 q51 -12 109 -19q-4 31 -6 62.5t-6 64.5q-4 41 -8.5 82t-6.5 82q0 20 -1 44t-1 50q-41 -4 -78.5 -13t-68.5 -26q-16 -6 -33 -6q-23 0 -42.5 11t-29.5 34q-14 31 -2.5 61.5zM204.5 1606.5q0.5 31.5 26.5 56.5q45 41 90.5 80t92.5 76q47 35 89 70.5t83 72.5q33 31 73 16 q20 -4 33 -16q47 -41 90 -83t84 -83t81 -80t81 -76q25 -23 28 -54.5t-20 -55.5q-23 -25 -54.5 -27t-55.5 21q-47 39 -88 80l-82 82q-29 27 -58.5 55t-58.5 57q-33 -29 -63.5 -53.5t-63.5 -50.5q-43 -35 -87 -72t-87 -76v-2q-25 -23 -56.5 -20.5t-54.5 26.5 q-23 25 -22.5 56.5z" />
<glyph unicode="&#xcb;" horiz-adv-x="1386" d="M15.5 708.5q11.5 30.5 39.5 45.5q47 23 99.5 34t107.5 19q-4 117 -6 239.5t6 229.5q-84 8 -172 29q-33 8 -50 35.5t-9 60.5t35.5 50t60.5 9q174 -41 374.5 -42t403.5 9q72 4 139.5 5.5t133.5 3.5h2q29 0 51 -18.5t26 -47.5t-9 -54.5t-40 -35.5q-33 -10 -62.5 -32.5 t-55.5 -51.5q-25 -27 -60 -27q-33 0 -53 21q-16 16 -22.5 36.5t-2.5 43.5q-10 -2 -20 -2h-21q-123 -4 -245.5 -7.5t-243.5 1.5q-8 -98 -6 -216t6 -229q96 2 186 -4t162 -12q41 -4 66 -6q35 -4 56 -28t17 -58q-2 -33 -26.5 -54.5t-59.5 -19.5q-29 2 -67 6q-63 6 -149.5 12 t-178.5 6q2 -29 3 -54t1 -46q2 -37 5 -75t7 -78q4 -41 8.5 -81t6.5 -81q35 -2 71.5 -4t71.5 -4q70 -4 139.5 -8.5t141.5 -12.5q23 -4 72 -3t101 4t97 7t59 8q33 8 60.5 -7t38.5 -48q10 -31 -5.5 -59.5t-48.5 -38.5q-25 -8 -80 -13.5t-116.5 -8.5t-116.5 -4t-80 3 q-68 10 -136.5 13.5t-133.5 7.5q-35 4 -71 5t-70 5q-2 -6 -2 -11t-2 -9q-6 -39 -39 -56q-16 -10 -39 -10q-16 0 -31 6q-45 18 -106.5 56t-110.5 79q-23 16 -28 44t5 53q12 25 37 37t53 6q51 -12 109 -19q-4 31 -6 62.5t-6 64.5q-4 41 -8.5 82t-6.5 82q0 20 -1 44t-1 50 q-41 -4 -78.5 -13t-68.5 -26q-16 -6 -33 -6q-23 0 -42.5 11t-29.5 34q-14 31 -2.5 61.5zM15.5 708.5q11.5 30.5 39.5 45.5q47 23 99.5 34t107.5 19q-4 117 -6 239.5t6 229.5q-84 8 -172 29q-33 8 -50 35.5t-9 60.5t35.5 50t60.5 9q174 -41 374.5 -42t403.5 9q72 4 139.5 5.5 t133.5 3.5h2q29 0 51 -18.5t26 -47.5t-9 -54.5t-40 -35.5q-33 -10 -62.5 -32.5t-55.5 -51.5q-25 -27 -60 -27q-33 0 -53 21q-16 16 -22.5 36.5t-2.5 43.5q-10 -2 -20 -2h-21q-123 -4 -245.5 -7.5t-243.5 1.5q-8 -98 -6 -216t6 -229q96 2 186 -4t162 -12q41 -4 66 -6 q35 -4 56 -28t17 -58q-2 -33 -26.5 -54.5t-59.5 -19.5q-29 2 -67 6q-63 6 -149.5 12t-178.5 6q2 -29 3 -54t1 -46q2 -37 5 -75t7 -78q4 -41 8.5 -81t6.5 -81q35 -2 71.5 -4t71.5 -4q70 -4 139.5 -8.5t141.5 -12.5q23 -4 72 -3t101 4t97 7t59 8q33 8 60.5 -7t38.5 -48 q10 -31 -5.5 -59.5t-48.5 -38.5q-25 -8 -80 -13.5t-116.5 -8.5t-116.5 -4t-80 3q-68 10 -136.5 13.5t-133.5 7.5q-35 4 -71 5t-70 5q-2 -6 -2 -11t-2 -9q-6 -39 -39 -56q-16 -10 -39 -10q-16 0 -31 6q-45 18 -106.5 56t-110.5 79q-23 16 -28 44t5 53q12 25 37 37t53 6 q51 -12 109 -19q-4 31 -6 62.5t-6 64.5q-4 41 -8.5 82t-6.5 82q0 20 -1 44t-1 50q-41 -4 -78.5 -13t-68.5 -26q-16 -6 -33 -6q-23 0 -42.5 11t-29.5 34q-14 31 -2.5 61.5zM330 1712q4 35 33.5 57.5t66.5 16.5q35 -4 56.5 -29.5t19.5 -58.5q16 -29 10 -61.5t-33 -53.5 q-25 -18 -55 -18q-45 0 -70 34q-39 51 -28 113zM656.5 1657q0.5 33 23.5 57q23 23 51 27q45 6 74 -23q47 -43 47 -106q2 -35 -23.5 -62.5t-64.5 -27.5q-35 0 -59.5 21.5t-28.5 53.5q-20 27 -19.5 60z" />
<glyph unicode="&#xcc;" horiz-adv-x="956" d="M-23 1403q0 2 2.5 14.5t9.5 25.5t23.5 25.5t46.5 14.5h7h10h12h6q29 0 54.5 -1t54.5 -1q27 -2 53.5 -2h52.5q2 0 10 4q18 2 39 -4q104 -2 202.5 7t187.5 38q33 10 62.5 -4.5t39.5 -44.5q10 -33 -4.5 -63t-46.5 -40q-88 -31 -183.5 -42t-193.5 -13q10 -121 6 -242 t-14 -241q-10 -150 -15.5 -290.5t17.5 -275.5q66 16 129 17.5t125 -2.5q55 -4 107 -3t106 13q33 6 60.5 -10.5t35.5 -51.5q8 -33 -9.5 -60.5t-49.5 -35.5q-70 -16 -133.5 -17t-124.5 3q-51 4 -97.5 4t-91.5 -10v-19q4 -37 -18.5 -63.5t-61.5 -32.5q-4 -2 -12 -2 q-25 0 -45.5 14.5t-30.5 38.5q-14 -6 -27.5 -12t-27.5 -10q-43 -18 -79 -33.5t-48 -22.5q-18 -6 -35 -6q-51 0 -74 47q-14 31 -1.5 61.5t42.5 45.5q14 6 51 22.5t82 32.5q18 10 38 17.5t38 15.5q-31 158 -26.5 317.5t14.5 319.5q10 125 14 241.5t-6 231.5h-61q-35 2 -67 2 h-62h-11v2q-82 10 -82 80zM105.5 1863q-11.5 35 5.5 68q18 33 52 45.5t68 -6.5q61 -33 120 -65.5t114 -67.5q57 -35 110.5 -66.5t110.5 -60.5q33 -16 43 -51t-6 -68t-51 -44t-68 5q-59 31 -116.5 65t-112.5 66q-55 33 -110.5 66t-114.5 61v2q-33 16 -44.5 51z" />
<glyph unicode="&#xcd;" horiz-adv-x="956" d="M-23 1403q0 2 2.5 14.5t9.5 25.5t23.5 25.5t46.5 14.5h7h10h12h6q29 0 54.5 -1t54.5 -1q27 -2 53.5 -2h52.5q2 0 10 4q18 2 39 -4q104 -2 202.5 7t187.5 38q33 10 62.5 -4.5t39.5 -44.5q10 -33 -4.5 -63t-46.5 -40q-88 -31 -183.5 -42t-193.5 -13q10 -121 6 -242 t-14 -241q-10 -150 -15.5 -290.5t17.5 -275.5q66 16 129 17.5t125 -2.5q55 -4 107 -3t106 13q33 6 60.5 -10.5t35.5 -51.5q8 -33 -9.5 -60.5t-49.5 -35.5q-70 -16 -133.5 -17t-124.5 3q-51 4 -97.5 4t-91.5 -10v-19q4 -37 -18.5 -63.5t-61.5 -32.5q-4 -2 -12 -2 q-25 0 -45.5 14.5t-30.5 38.5q-14 -6 -27.5 -12t-27.5 -10q-43 -18 -79 -33.5t-48 -22.5q-18 -6 -35 -6q-51 0 -74 47q-14 31 -1.5 61.5t42.5 45.5q14 6 51 22.5t82 32.5q18 10 38 17.5t38 15.5q-31 158 -26.5 317.5t14.5 319.5q10 125 14 241.5t-6 231.5h-61q-35 2 -67 2 h-62h-11v2q-82 10 -82 80zM134 1638.5q7 34.5 42 55.5q59 35 118.5 66.5t119.5 60.5q59 31 114.5 59.5t108.5 61.5q31 18 66.5 9t54.5 -42q18 -31 10 -67t-41 -54q-57 -35 -115.5 -65.5t-115.5 -59.5t-114.5 -58.5t-113.5 -64.5h-2q-31 -18 -66.5 -10t-54.5 41 q-18 33 -11 67.5z" />
<glyph unicode="&#xce;" horiz-adv-x="956" d="M-23 1403q0 2 2.5 14.5t9.5 25.5t23.5 25.5t46.5 14.5h7h10h12h6q29 0 54.5 -1t54.5 -1q27 -2 53.5 -2h52.5q2 0 10 4q18 2 39 -4q104 -2 202.5 7t187.5 38q33 10 62.5 -4.5t39.5 -44.5q10 -33 -4.5 -63t-46.5 -40q-88 -31 -183.5 -42t-193.5 -13q10 -121 6 -242 t-14 -241q-10 -150 -15.5 -290.5t17.5 -275.5q66 16 129 17.5t125 -2.5q55 -4 107 -3t106 13q33 6 60.5 -10.5t35.5 -51.5q8 -33 -9.5 -60.5t-49.5 -35.5q-70 -16 -133.5 -17t-124.5 3q-51 4 -97.5 4t-91.5 -10v-19q4 -37 -18.5 -63.5t-61.5 -32.5q-4 -2 -12 -2 q-25 0 -45.5 14.5t-30.5 38.5q-14 -6 -27.5 -12t-27.5 -10q-43 -18 -79 -33.5t-48 -22.5q-18 -6 -35 -6q-51 0 -74 47q-14 31 -1.5 61.5t42.5 45.5q14 6 51 22.5t82 32.5q18 10 38 17.5t38 15.5q-31 158 -26.5 317.5t14.5 319.5q10 125 14 241.5t-6 231.5h-61q-35 2 -67 2 h-62h-11v2q-82 10 -82 80zM5.5 1642.5q0.5 26.5 23.5 49.5q39 37 77.5 70.5t79.5 66.5q41 31 78 61.5t74 63.5q27 25 63 14q12 -2 29 -14q41 -35 78 -73t74 -73q67 -72 141 -135q23 -18 24 -46t-18 -50q-18 -23 -46 -24t-50 18q-41 35 -77 69.5t-71 71.5q-25 23 -50 48.5 t-52 49.5q-29 -25 -55.5 -47t-55.5 -45q-37 -31 -74.5 -62.5t-76.5 -64.5v-2q-23 -18 -50.5 -18t-45.5 22q-20 23 -19.5 49.5z" />
<glyph unicode="&#xcf;" horiz-adv-x="956" d="M-23 1403q0 2 2.5 14.5t9.5 25.5t23.5 25.5t46.5 14.5h7h10h12h6q29 0 54.5 -1t54.5 -1q27 -2 53.5 -2h52.5q2 0 10 4q18 2 39 -4q104 -2 202.5 7t187.5 38q33 10 62.5 -4.5t39.5 -44.5q10 -33 -4.5 -63t-46.5 -40q-88 -31 -183.5 -42t-193.5 -13q10 -121 6 -242 t-14 -241q-10 -150 -15.5 -290.5t17.5 -275.5q66 16 129 17.5t125 -2.5q55 -4 107 -3t106 13q33 6 60.5 -10.5t35.5 -51.5q8 -33 -9.5 -60.5t-49.5 -35.5q-70 -16 -133.5 -17t-124.5 3q-51 4 -97.5 4t-91.5 -10v-19q4 -37 -18.5 -63.5t-61.5 -32.5q-4 -2 -12 -2 q-25 0 -45.5 14.5t-30.5 38.5q-14 -6 -27.5 -12t-27.5 -10q-43 -18 -79 -33.5t-48 -22.5q-18 -6 -35 -6q-51 0 -74 47q-14 31 -1.5 61.5t42.5 45.5q14 6 51 22.5t82 32.5q18 10 38 17.5t38 15.5q-31 158 -26.5 317.5t14.5 319.5q10 125 14 241.5t-6 231.5h-61q-35 2 -67 2 h-62h-11v2q-82 10 -82 80zM129 1704q4 35 33.5 57.5t66.5 16.5q35 -4 56.5 -30t19.5 -58q16 -29 10 -62t-32 -53q-25 -18 -56 -19q-45 0 -69 35q-39 51 -29 113zM452 1732.5q1 32.5 23 57.5q23 23 51 27q45 6 74 -23q47 -43 47 -106q2 -35 -23.5 -63t-64.5 -28 q-35 0 -59.5 21.5t-28.5 54.5q-20 27 -19 59.5z" />
<glyph unicode="&#xd0;" horiz-adv-x="1765" d="M20 758q0 37 25 63.5t66 26.5q76 0 153 -6q-4 25 -5 48t-5 46q-10 100 -21.5 198.5t-39.5 176.5q-8 16 -5 41q-27 10 -43 34.5t-12 53.5q4 35 32 58.5t62 19.5q55 -6 146.5 -29t203 -60.5t235.5 -90t247 -116t235.5 -136t199.5 -154.5t142.5 -170t61.5 -180 q8 -127 -59.5 -219.5t-181.5 -157t-257 -105.5t-283.5 -66.5t-261 -37.5t-192.5 -21q-70 -8 -105.5 17.5t-43 58.5t13 62.5t63.5 31.5q-16 78 -31.5 155t-29.5 153q-10 53 -20.5 105t-20.5 106q-45 2 -89 4t-89 2q-37 0 -64 25.5t-27 62.5zM371 1311q25 -84 36 -175.5 t19 -183.5q4 -33 6 -62.5t6 -58.5q49 -4 97.5 -6t97.5 -2q37 0 62.5 -25.5t25.5 -62.5t-26.5 -63.5t-61.5 -26.5h-2q-41 0 -82 2l-82 4q10 -41 17.5 -83t15.5 -83q16 -82 31.5 -164.5t33.5 -162.5q82 6 186.5 17t213 30.5t212 48.5t182.5 73t126 103t41 139q-6 74 -65.5 150 t-155 148.5t-216 141t-247.5 127t-250 103.5t-221 72z" />
<glyph unicode="&#xd1;" horiz-adv-x="1083" d="M-25 1338.5q-6 -29.5 11 -56.5q23 -37 43 -74t43 -75q4 -8 9 -16.5t9 -16.5q20 -61 30.5 -128t14.5 -135.5t4 -137v-132.5v-106v-76v-141.5t-2 -141.5q0 -47 10.5 -72.5t34.5 -39.5q14 -10 39 -10q23 0 45 12q29 23 32 49.5t-1 58.5q2 72 2 142.5v142.5v76v104 q0 49 1 100.5t-1 104.5q0 -4 4 -4q25 -35 50.5 -68.5t52.5 -68.5q55 -74 114.5 -152t124 -152.5t133 -142t142.5 -123.5q27 -18 59 -14q33 6 53 33q27 37 39 140.5t14 239.5t-5 288.5t-20 290t-31 241.5t-36 143q-18 41 -42.5 53.5t-45.5 14.5q-33 2 -57.5 -20.5 t-26.5 -55.5q-2 -43 33 -67q14 -33 25.5 -107t21.5 -171t16.5 -210t8.5 -222.5t1 -206.5t-7 -163q-106 98 -202.5 220t-185.5 239q-27 35 -52 69.5t-52 67.5q-49 63 -96 139t-94 162q-23 59 -52.5 112.5t-72.5 100.5q-23 23 -52.5 26t-54.5 -16q-25 -18 -31 -47.5z M193 1663.5q6 24.5 28 38.5q55 33 103.5 43t88.5 5t72.5 -19.5t59.5 -28.5q25 -12 45 -21.5t41.5 -12.5t45 2t54.5 22q23 14 47.5 8t36.5 -29q14 -23 7 -48.5t-29 -37.5q-41 -23 -77 -33t-67 -10q-49 0 -89 16.5t-73 32.5q-25 12 -47 22.5t-44.5 12.5t-49.5 -5t-59 -28 q-23 -10 -47.5 -5t-38.5 28t-8 47.5z" />
<glyph unicode="&#xd2;" horiz-adv-x="1163" d="M3.5 740q19.5 134 80.5 259t152 215q135 133 288.5 141.5t288.5 -108.5q20 -16 27 -45q66 -51 124 -121.5t103 -156.5q82 -162 92 -318.5t-55 -273.5q-84 -150 -200 -236t-251 -100q-12 -2 -25.5 -2h-25.5q-129 0 -252 64.5t-229 187.5q-84 100 -110.5 230t-7 264z M171 525.5q17 -99.5 79 -171.5q88 -104 187.5 -152t197.5 -38q96 10 178 73.5t143 174.5q43 78 33 196.5t-71 239.5t-151.5 199.5t-180.5 89.5q-48 6 -68 51q-49 -8 -90 -34t-76 -58q-68 -68 -115 -165t-65 -201.5t-1 -204zM306 1827q-11 35 5 67q18 33 52 45.5t69 -6.5 q61 -33 119.5 -65.5t114.5 -67.5q57 -35 110.5 -66.5t110.5 -60.5q33 -16 43 -51t-6 -68t-51 -44t-68 6q-59 31 -116.5 64.5t-113.5 66.5q-55 33 -110 65.5t-115 61.5v2q-33 16 -44 51z" />
<glyph unicode="&#xd3;" horiz-adv-x="1163" d="M3.5 740q19.5 134 80.5 259t152 215q135 133 288.5 141.5t288.5 -108.5q20 -16 27 -45q66 -51 124 -121.5t103 -156.5q82 -162 92 -318.5t-55 -273.5q-84 -150 -200 -236t-251 -100q-12 -2 -25.5 -2h-25.5q-129 0 -252 64.5t-229 187.5q-84 100 -110.5 230t-7 264z M171 525.5q17 -99.5 79 -171.5q88 -104 187.5 -152t197.5 -38q96 10 178 73.5t143 174.5q43 78 33 196.5t-71 239.5t-151.5 199.5t-180.5 89.5q-48 6 -68 51q-49 -8 -90 -34t-76 -58q-68 -68 -115 -165t-65 -201.5t-1 -204zM278 1513.5q7 34.5 41 55.5q59 35 119 66.5 t119 60.5q59 31 114.5 59.5t108.5 61.5q31 18 67 9t54 -42q18 -31 10 -67t-41 -54q-57 -35 -115.5 -65.5t-115.5 -59.5t-114.5 -58.5t-112.5 -64.5h-2q-31 -18 -67 -10t-54 41t-11 67.5z" />
<glyph unicode="&#xd4;" horiz-adv-x="1163" d="M3.5 740q19.5 134 80.5 259t152 215q135 133 288.5 141.5t288.5 -108.5q20 -16 27 -45q66 -51 124 -121.5t103 -156.5q82 -162 92 -318.5t-55 -273.5q-84 -150 -200 -236t-251 -100q-12 -2 -25.5 -2h-25.5q-129 0 -252 64.5t-229 187.5q-84 100 -110.5 230t-7 264z M171 525.5q17 -99.5 79 -171.5q88 -104 187.5 -152t197.5 -38q96 10 178 73.5t143 174.5q43 78 33 196.5t-71 239.5t-151.5 199.5t-180.5 89.5q-48 6 -68 51q-49 -8 -90 -34t-76 -58q-68 -68 -115 -165t-65 -201.5t-1 -204zM222.5 1495.5q0.5 26.5 23.5 48.5q39 37 77.5 71 t79.5 66q41 31 78 62t74 63q27 25 63 15q12 -2 29 -15q41 -35 78 -72.5t74 -72.5q67 -72 141 -135q23 -18 24 -46t-18 -50q-18 -23 -46 -24t-50 17q-41 35 -77 70t-71 72q-25 23 -50 48t-52 50q-29 -25 -55.5 -47.5t-55.5 -44.5q-37 -31 -74.5 -62.5t-76.5 -64.5v-2 q-23 -18 -50.5 -18.5t-45.5 22.5q-20 23 -19.5 49.5z" />
<glyph unicode="&#xd5;" horiz-adv-x="1163" d="M3.5 740q19.5 134 80.5 259t152 215q135 133 288.5 141.5t288.5 -108.5q20 -16 27 -45q66 -51 124 -121.5t103 -156.5q82 -162 92 -318.5t-55 -273.5q-84 -150 -200 -236t-251 -100q-12 -2 -25.5 -2h-25.5q-129 0 -252 64.5t-229 187.5q-84 100 -110.5 230t-7 264z M171 525.5q17 -99.5 79 -171.5q88 -104 187.5 -152t197.5 -38q96 10 178 73.5t143 174.5q43 78 33 196.5t-71 239.5t-151.5 199.5t-180.5 89.5q-48 6 -68 51q-49 -8 -90 -34t-76 -58q-68 -68 -115 -165t-65 -201.5t-1 -204zM291 1599.5q6 24.5 28 38.5q55 33 103.5 43.5 t88.5 5t72.5 -19.5t59.5 -29q25 -12 45.5 -21t42 -12t45 2t53.5 21q23 14 47.5 8t36.5 -28q14 -23 7 -48.5t-29 -37.5q-41 -23 -76.5 -33t-66.5 -10q-49 0 -89.5 16t-72.5 33q-25 12 -47.5 22.5t-45 12.5t-49 -5.5t-59.5 -27.5q-23 -10 -47.5 -5t-38.5 27q-14 23 -8 47.5z " />
<glyph unicode="&#xd6;" horiz-adv-x="1163" d="M3.5 740q19.5 134 80.5 259t152 215q135 133 288.5 141.5t288.5 -108.5q20 -16 27 -45q66 -51 124 -121.5t103 -156.5q82 -162 92 -318.5t-55 -273.5q-84 -150 -200 -236t-251 -100q-12 -2 -25.5 -2h-25.5q-129 0 -252 64.5t-229 187.5q-84 100 -110.5 230t-7 264z M171 525.5q17 -99.5 79 -171.5q88 -104 187.5 -152t197.5 -38q96 10 178 73.5t143 174.5q43 78 33 196.5t-71 239.5t-151.5 199.5t-180.5 89.5q-48 6 -68 51q-49 -8 -90 -34t-76 -58q-68 -68 -115 -165t-65 -201.5t-1 -204zM258 1587q4 35 33.5 57.5t66.5 16.5 q35 -4 56.5 -29.5t19.5 -58.5q16 -29 10 -61.5t-32 -53.5q-25 -18 -56 -18q-45 0 -69 35q-39 51 -29 112zM581 1616q1 33 23 57q23 23 51 27q45 6 74 -23q47 -43 47 -106q2 -35 -23.5 -62.5t-64.5 -27.5q-35 0 -59.5 21.5t-28.5 53.5q-20 27 -19 60z" />
<glyph unicode="&#xd7;" horiz-adv-x="1273" d="M32.5 1169.5q-1.5 36.5 24.5 65.5q25 29 61 30t64 -24q39 -37 99.5 -92t125 -115.5t123 -118t95.5 -94.5l18 -18q6 6 8 10q31 41 76 106.5t93 137t92 139.5t73 113q18 31 55 39t68 -13q31 -20 39 -55t-12 -68q-29 -45 -74 -113.5t-94 -142t-95.5 -140t-76.5 -109.5 q-6 -8 -13.5 -16.5t-13.5 -18.5q10 -12 21.5 -24.5t21.5 -22.5q90 -96 182.5 -192.5t190.5 -182.5q29 -23 29.5 -59.5t-21.5 -65.5q-25 -29 -61.5 -31t-65.5 23q-31 29 -61.5 56.5t-59.5 55.5q-70 68 -134.5 136.5t-127.5 138.5l-12 12t-11 12q-8 -10 -15 -19t-13 -20 q-80 -104 -160 -209.5t-147 -216.5q-20 -33 -56.5 -41t-66.5 13q-33 18 -41 54t12 69q23 35 45.5 68.5t46.5 68.5q53 78 110.5 153.5t114.5 149.5q10 16 22.5 30.5t23.5 30.5l-37 37q-35 37 -92.5 92.5t-121 115t-123 114.5t-98.5 90q-29 25 -30.5 61.5z" />
<glyph unicode="&#xd8;" horiz-adv-x="1265" d="M40.5 637q20.5 135 81 260t150.5 215q117 115 250 136.5t256 -52.5q37 98 64.5 168t31.5 86q10 35 43 51.5t68 5.5q35 -12 52.5 -44.5t6.5 -67.5q-8 -23 -43.5 -116t-82.5 -214q110 -96 186 -246q84 -162 93 -318.5t-56 -273.5q-82 -147 -199 -233t-252 -100 q-12 -2 -25.5 -3.5t-25.5 -1.5q-45 0 -90 8.5t-88 24.5q-33 -76 -61.5 -138.5t-51.5 -105.5q-27 -47 -78 -47q-23 0 -43 13q-33 16 -43 51t6 67q23 41 51.5 104.5t61.5 141.5q-39 29 -74.5 61.5t-70.5 73.5q-84 98 -111 228.5t-6.5 265.5zM208 423q18 -99 79 -171 q41 -47 84 -84q29 76 58.5 150.5t57.5 142.5q23 57 42.5 106t35.5 88q27 63 64 157.5t78 197.5q-43 18 -84 24q-47 6 -68 49q-47 -6 -89 -32.5t-75 -59.5q-68 -68 -116 -164t-66.5 -200.5t-0.5 -203.5zM524 78q74 -25 150 -19q94 10 176 74.5t143 175.5q20 39 28.5 89.5 t4.5 107.5t-22.5 117.5t-49.5 119.5q-43 86 -102 152q-35 -90 -67.5 -171t-55.5 -136q-33 -82 -76 -193q-31 -76 -63.5 -156.5t-65.5 -160.5z" />
<glyph unicode="&#xd9;" d="M13.5 1065q15.5 160 68.5 283q12 31 43 43t61 0q31 -12 43.5 -43t-0.5 -62q-43 -104 -57 -242.5t0 -280.5t54 -272.5t102 -214.5q92 -123 209 -110q125 12 194.5 75.5t103 168t38.5 246t1 309.5q-4 98 -4 189t11 169q4 33 30.5 52.5t59.5 15.5t52 -30t15 -58 q-10 -70 -9 -155t5 -179q2 -96 3 -200.5t-10 -207t-40 -198t-83 -170t-139 -125t-212 -62.5q-10 0 -18.5 -1t-18.5 -1q-184 0 -315 178q-76 100 -123 250t-63.5 311.5t-1 321.5zM306 1827q-11 35 5 67q18 33 52 45.5t69 -6.5q61 -33 119.5 -65.5t114.5 -67.5 q57 -35 110.5 -66.5t110.5 -60.5q33 -16 43 -51t-6 -68t-51 -44t-68 6q-59 31 -116.5 64.5t-113.5 66.5q-55 33 -110 65.5t-115 61.5v2q-33 16 -44 51z" />
<glyph unicode="&#xda;" d="M13.5 1065q15.5 160 68.5 283q12 31 43 43t61 0q31 -12 43.5 -43t-0.5 -62q-43 -104 -57 -242.5t0 -280.5t54 -272.5t102 -214.5q92 -123 209 -110q125 12 194.5 75.5t103 168t38.5 246t1 309.5q-4 98 -4 189t11 169q4 33 30.5 52.5t59.5 15.5t52 -30t15 -58 q-10 -70 -9 -155t5 -179q2 -96 3 -200.5t-10 -207t-40 -198t-83 -170t-139 -125t-212 -62.5q-10 0 -18.5 -1t-18.5 -1q-184 0 -315 178q-76 100 -123 250t-63.5 311.5t-1 321.5zM319 1657q7 35 41 55q59 35 119 66.5t119 60.5q59 31 114.5 59.5t108.5 61.5q31 18 67 9 t54 -42q18 -31 10 -66.5t-41 -54.5q-57 -35 -115.5 -65.5t-115.5 -59.5t-114.5 -58.5t-112.5 -63.5h-2q-31 -18 -67 -10.5t-54 40.5t-11 68z" />
<glyph unicode="&#xdb;" horiz-adv-x="1337" d="M66.5 1065q15.5 160 68.5 283q12 31 43 43t62 0t43 -43t0 -62q-43 -104 -57.5 -242.5t0 -280.5t54 -272.5t101.5 -214.5q92 -123 209 -110q125 12 194.5 75.5t103.5 168t39 246t1 309.5q-4 98 -4 189t10 169q4 33 30.5 52.5t59.5 15.5t52.5 -30t15.5 -58 q-10 -70 -9.5 -155t4.5 -179q2 -96 3.5 -200.5t-10 -207t-40 -198t-83 -170t-139.5 -125t-212 -62.5q-10 0 -18 -1t-19 -1q-184 0 -315 178q-76 100 -123 250t-63.5 311.5t-1 321.5zM230.5 1581.5q0.5 26.5 23.5 48.5q39 37 78 71t80 66q41 31 77.5 62t73.5 63q27 25 64 15 q12 -2 28 -15q41 -35 78 -72.5t74 -72.5q67 -72 141 -135q23 -18 24 -46t-18 -50q-18 -23 -45.5 -24t-50.5 17q-41 35 -77 70t-70 72q-25 23 -50.5 48t-52.5 50q-29 -25 -55.5 -47.5t-54.5 -44.5q-37 -31 -75 -62.5t-77 -64.5v-2q-23 -18 -50.5 -18.5t-45.5 22.5 q-20 23 -19.5 49.5z" />
<glyph unicode="&#xdc;" d="M13.5 1065q15.5 160 68.5 283q12 31 43 43t61 0q31 -12 43.5 -43t-0.5 -62q-43 -104 -57 -242.5t0 -280.5t54 -272.5t102 -214.5q92 -123 209 -110q125 12 194.5 75.5t103 168t38.5 246t1 309.5q-4 98 -4 189t11 169q4 33 30.5 52.5t59.5 15.5t52 -30t15 -58 q-10 -70 -9 -155t5 -179q2 -96 3 -200.5t-10 -207t-40 -198t-83 -170t-139 -125t-212 -62.5q-10 0 -18.5 -1t-18.5 -1q-184 0 -315 178q-76 100 -123 250t-63.5 311.5t-1 321.5zM258 1587q4 35 33.5 57.5t66.5 16.5q35 -4 56.5 -29.5t19.5 -58.5q16 -29 10 -61.5t-32 -53.5 q-25 -18 -56 -18q-45 0 -69 35q-39 51 -29 112zM581 1616q1 33 23 57q23 23 51 27q45 6 74 -23q47 -43 47 -106q2 -35 -23.5 -62.5t-64.5 -27.5q-35 0 -59.5 21.5t-28.5 53.5q-20 27 -19 60z" />
<glyph unicode="&#xdd;" horiz-adv-x="864" d="M-11 1316q5 32 34 52q29 18 60.5 12t49.5 -32q47 -68 94 -118t97 -100q43 -41 85 -85t83 -97q55 104 103 215t71 230q6 33 33.5 51t60.5 12t51 -33.5t12 -60.5q-33 -158 -95 -294t-134 -265q2 -10 2 -27q-4 -23 -17.5 -39t-31.5 -24q-43 -78 -80 -155t-64.5 -155.5 t-41 -160.5t-7.5 -170q2 -31 -17.5 -55.5t-49.5 -28.5q-6 -2 -17 -2q-35 0 -61 20q-37 29 -47 84q-4 23 6 43.5t27 34.5q4 86 22.5 167t48 157.5t66.5 151.5t76 147q-47 70 -95.5 122t-99.5 105q-53 51 -105.5 106.5t-105.5 130.5q-18 29 -13 61zM114 1657q7 35 42 55 q59 35 118.5 66.5t118.5 60.5q59 31 114.5 59.5t108.5 61.5q31 18 67 9t54 -42q18 -31 10 -66.5t-40 -54.5q-57 -35 -116 -65.5t-116 -59.5t-114.5 -58.5t-112.5 -63.5h-2q-31 -18 -67 -10.5t-54 40.5t-11 68z" />
<glyph unicode="&#xde;" horiz-adv-x="897" d="M12 1526q-2 37 23.5 63.5t62.5 28.5q35 4 62.5 -21.5t29.5 -62.5q4 -59 9.5 -155.5t11.5 -215.5q2 -27 3 -53.5t3 -54.5q168 41 307.5 13t227.5 -126q76 -84 90 -192.5t-33 -208.5q-66 -131 -208 -202t-341 -71h-4q10 -180 14 -329.5t4 -241.5q0 -37 -25.5 -63.5 t-62.5 -26.5t-63.5 26.5t-26.5 63.5q0 66 -3 167t-8 224t-11 260t-13.5 276.5t-14.5 275.5t-13 255t-11.5 214t-9.5 157zM227 870q4 -104 10.5 -209.5t10.5 -211.5q147 -2 252.5 41.5t146.5 127.5q25 53 17.5 107.5t-43.5 95.5q-59 63 -162 76.5t-232 -27.5z" />
<glyph unicode="&#xdf;" horiz-adv-x="1189" d="M22.5 1095q-6.5 111 1 196t30 148.5t69.5 116.5q41 49 94 77t109.5 38t112 6t104.5 -20q98 -33 155.5 -99.5t65.5 -154.5q4 -61 -9.5 -107.5t-37 -81t-52 -60.5t-53.5 -46q-29 -20 -43 -39q14 -10 33 -19.5t35 -19.5q55 -31 130 -79t141.5 -119.5t112.5 -173t46 -240.5 q0 -47 -17.5 -117t-79 -137.5t-181 -119.5t-324.5 -60q-35 -2 -60.5 21.5t-27.5 57.5q-2 35 22.5 62t59.5 29q76 2 153.5 15t141 43t103.5 79t40 127q0 100 -34 175t-84 128t-110.5 92t-115.5 70q-68 37 -114 72.5t-50 95.5q2 74 40 116.5t77 73.5q47 37 69.5 66.5 t18.5 83.5q-2 25 -15.5 44t-30 31.5t-33.5 19.5t-26 9q-55 18 -123.5 11t-115.5 -60q-29 -35 -42 -83t-16.5 -120t2 -169t15.5 -228q10 -154 22.5 -347.5t20.5 -451.5q0 -35 -24.5 -60.5t-59.5 -25.5q0 -2 -2 -2q-35 0 -59.5 24.5t-24.5 59.5q-8 256 -19.5 446.5 t-21.5 344.5q-12 150 -18.5 261z" />
<glyph unicode="&#xe0;" horiz-adv-x="1075" d="M3 514q-9 29 7 57q16 27 45 36t56 -7q63 -35 217 -6q4 14 8 26.5t8 26.5q12 39 23.5 73t19.5 62q8 31 14.5 77t12.5 99q8 66 17 134.5t25.5 130t43 111.5t69.5 81q41 27 80 4q41 -23 37 -69q-2 -23 5 -58t18.5 -74.5t26 -81.5t28.5 -81q23 -61 41 -119.5t29 -106.5 q4 -23 7 -46t7 -48q10 -23 6 -41q2 -16 4 -33.5t4 -35.5q8 -70 17.5 -142.5t24 -139.5t35.5 -125t56 -99q20 -23 18.5 -52.5t-24.5 -50.5q-23 -18 -49 -18q-29 0 -55 22l-6 7q-20 23 -42 45t-38 51q-23 31 -8 67q-29 86 -44.5 179.5t-25.5 185.5q-68 -27 -138.5 -49.5 t-140.5 -38.5q-16 -53 -32.5 -108.5t-28.5 -105.5t-19.5 -95t-7.5 -78q0 -31 -21.5 -52.5t-51.5 -21.5h-2q-29 2 -51.5 23.5t-20.5 52.5q0 70 21.5 163t50.5 193q-18 -2 -37 -3t-35 -1q-49 0 -91 8.5t-77 26.5q-27 16 -36 45zM376 1798q-11 35 5 68q18 33 52 45t69 -6 q61 -33 119.5 -66t113.5 -67q57 -35 110.5 -66.5t110.5 -60.5q33 -16 43.5 -51t-6.5 -68q-16 -33 -51 -44.5t-68 5.5q-59 31 -116.5 64.5t-112.5 66.5t-110.5 65.5t-114.5 61.5v2q-33 16 -44 51zM496 635q94 27 204 72v12q-4 23 -6 43t-6 39q-8 41 -25.5 93t-37.5 112 q-10 29 -19.5 56.5t-19.5 55.5q-8 -45 -14.5 -90t-10.5 -86q-6 -57 -13 -109.5t-20 -91.5q-6 -23 -14 -49t-18 -57z" />
<glyph unicode="&#xe1;" horiz-adv-x="1075" d="M3 514q-9 29 7 57q16 27 45 36t56 -7q63 -35 217 -6q4 14 8 26.5t8 26.5q12 39 23.5 73t19.5 62q8 31 14.5 77t12.5 99q8 66 17 134.5t25.5 130t43 111.5t69.5 81q41 27 80 4q41 -23 37 -69q-2 -23 5 -58t18.5 -74.5t26 -81.5t28.5 -81q23 -61 41 -119.5t29 -106.5 q4 -23 7 -46t7 -48q10 -23 6 -41q2 -16 4 -33.5t4 -35.5q8 -70 17.5 -142.5t24 -139.5t35.5 -125t56 -99q20 -23 18.5 -52.5t-24.5 -50.5q-23 -18 -49 -18q-29 0 -55 22l-6 7q-20 23 -42 45t-38 51q-23 31 -8 67q-29 86 -44.5 179.5t-25.5 185.5q-68 -27 -138.5 -49.5 t-140.5 -38.5q-16 -53 -32.5 -108.5t-28.5 -105.5t-19.5 -95t-7.5 -78q0 -31 -21.5 -52.5t-51.5 -21.5h-2q-29 2 -51.5 23.5t-20.5 52.5q0 70 21.5 163t50.5 193q-18 -2 -37 -3t-35 -1q-49 0 -91 8.5t-77 26.5q-27 16 -36 45zM378 1595.5q7 34.5 42 55.5q59 35 118.5 66.5 t118.5 60.5q59 31 115 59t109 61q31 18 66.5 9t53.5 -41q18 -31 10.5 -67t-40.5 -54q-57 -35 -115.5 -65.5t-116.5 -59.5q-57 -29 -114.5 -58.5t-112.5 -64.5h-2q-31 -18 -66.5 -10t-54.5 41q-18 33 -11 67.5zM496 635q94 27 204 72v12q-4 23 -6 43t-6 39q-8 41 -25.5 93 t-37.5 112q-10 29 -19.5 56.5t-19.5 55.5q-8 -45 -14.5 -90t-10.5 -86q-6 -57 -13 -109.5t-20 -91.5q-6 -23 -14 -49t-18 -57z" />
<glyph unicode="&#xe2;" horiz-adv-x="1075" d="M3 514q-9 29 7 57q16 27 45 36t56 -7q63 -35 217 -6q4 14 8 26.5t8 26.5q12 39 23.5 73t19.5 62q8 31 14.5 77t12.5 99q8 66 17 134.5t25.5 130t43 111.5t69.5 81q41 27 80 4q41 -23 37 -69q-2 -23 5 -58t18.5 -74.5t26 -81.5t28.5 -81q23 -61 41 -119.5t29 -106.5 q4 -23 7 -46t7 -48q10 -23 6 -41q2 -16 4 -33.5t4 -35.5q8 -70 17.5 -142.5t24 -139.5t35.5 -125t56 -99q20 -23 18.5 -52.5t-24.5 -50.5q-23 -18 -49 -18q-29 0 -55 22l-6 7q-20 23 -42 45t-38 51q-23 31 -8 67q-29 86 -44.5 179.5t-25.5 185.5q-68 -27 -138.5 -49.5 t-140.5 -38.5q-16 -53 -32.5 -108.5t-28.5 -105.5t-19.5 -95t-7.5 -78q0 -31 -21.5 -52.5t-51.5 -21.5h-2q-29 2 -51.5 23.5t-20.5 52.5q0 70 21.5 163t50.5 193q-18 -2 -37 -3t-35 -1q-49 0 -91 8.5t-77 26.5q-27 16 -36 45zM146 1489q1 35 30 63q51 47 102.5 90.5 t104.5 83.5q102 80 192 162q16 16 39 21.5t45 -0.5q10 -4 19.5 -8.5t17.5 -12.5q53 -45 101.5 -92t95.5 -94t91 -90t91 -84q29 -25 31 -60.5t-23 -64.5t-60.5 -31t-64.5 23q-51 43 -98 89t-92 93q-33 31 -65.5 63.5t-67.5 63.5q-35 -31 -71 -59.5t-70 -57.5 q-49 -41 -99.5 -82t-97.5 -84v-2q-29 -25 -64.5 -23.5t-60.5 29.5q-27 29 -26 64zM496 635q94 27 204 72v12q-4 23 -6 43t-6 39q-8 41 -25.5 93t-37.5 112q-10 29 -19.5 56.5t-19.5 55.5q-8 -45 -14.5 -90t-10.5 -86q-6 -57 -13 -109.5t-20 -91.5q-6 -23 -14 -49t-18 -57z " />
<glyph unicode="&#xe3;" horiz-adv-x="1075" d="M3 513.5q9 -28.5 36 -44.5q35 -18 77 -26.5t91 -8.5q16 0 34.5 1t37.5 3q-29 -100 -50.5 -193t-21.5 -163q-2 -31 20.5 -52.5t51.5 -23.5h2q31 0 52 21.5t21 52.5q0 33 7.5 78t19.5 95t28.5 105.5t32.5 108.5q70 16 140.5 38.5t138.5 49.5q10 -92 25.5 -185.5 t44.5 -179.5q-14 -37 8 -67q16 -29 37.5 -51.5t42.5 -44.5l6 -7q27 -23 55 -22q27 0 49 18q23 20 24.5 50t-18.5 53q-35 41 -56 99t-35.5 125t-24 139.5t-17.5 142.5q-2 18 -4 35.5t-4 33.5q4 18 -6 41q-4 25 -7 48.5t-7 45.5q-10 47 -29 105.5t-41 120.5q-14 39 -28.5 81 t-26 81.5t-18.5 74.5t-5 58q4 47 -37 69q-39 23 -80 -4q-43 -31 -69.5 -81t-43 -111.5t-25.5 -130t-17 -134.5q-6 -53 -12.5 -99t-14.5 -77q-8 -29 -19.5 -62.5t-23.5 -72.5q-4 -14 -8 -26.5t-8 -26.5q-154 -29 -217 6q-27 16 -55.5 7t-45.5 -36q-16 -29 -7 -57.5zM322 1616 q6 24 28 39q55 33 103.5 43t88.5 5t72.5 -19.5t59.5 -28.5q25 -12 45 -21.5t41.5 -12.5t45 2t54.5 22q23 14 47.5 8t36.5 -29q14 -23 7 -48.5t-29 -37.5q-41 -23 -77 -33t-67 -10q-49 0 -89 16.5t-73 32.5q-25 12 -47 22.5t-44.5 12.5t-49 -5t-59.5 -28q-23 -10 -47.5 -5 t-38.5 28t-8 47zM496 635q10 31 18 57.5t14 48.5q12 39 19.5 91.5t13.5 109.5q4 41 10.5 86t14.5 90q10 -29 19 -56.5t20 -55.5q20 -59 37.5 -111.5t25.5 -93.5q4 -18 6 -39t6 -43v-12q-111 -45 -204 -72z" />
<glyph unicode="&#xe4;" horiz-adv-x="1075" d="M3 514q-9 29 7 57q16 27 45 36t56 -7q63 -35 217 -6q4 14 8 26.5t8 26.5q12 39 23.5 73t19.5 62q8 31 14.5 77t12.5 99q8 66 17 134.5t25.5 130t43 111.5t69.5 81q41 27 80 4q41 -23 37 -69q-2 -23 5 -58t18.5 -74.5t26 -81.5t28.5 -81q23 -61 41 -119.5t29 -106.5 q4 -23 7 -46t7 -48q10 -23 6 -41q2 -16 4 -33.5t4 -35.5q8 -70 17.5 -142.5t24 -139.5t35.5 -125t56 -99q20 -23 18.5 -52.5t-24.5 -50.5q-23 -18 -49 -18q-29 0 -55 22l-6 7q-20 23 -42 45t-38 51q-23 31 -8 67q-29 86 -44.5 179.5t-25.5 185.5q-68 -27 -138.5 -49.5 t-140.5 -38.5q-16 -53 -32.5 -108.5t-28.5 -105.5t-19.5 -95t-7.5 -78q0 -31 -21.5 -52.5t-51.5 -21.5h-2q-29 2 -51.5 23.5t-20.5 52.5q0 70 21.5 163t50.5 193q-18 -2 -37 -3t-35 -1q-49 0 -91 8.5t-77 26.5q-27 16 -36 45zM330 1630q4 35 33.5 57.5t66.5 16.5 q35 -4 56.5 -29.5t19.5 -58.5q16 -29 10 -61.5t-33 -53.5q-25 -18 -55 -18q-45 0 -70 35q-39 51 -28 112zM496 635q94 27 204 72v12q-4 23 -6 43t-6 39q-8 41 -25.5 93t-37.5 112q-10 29 -19.5 56.5t-19.5 55.5q-8 -45 -14.5 -90t-10.5 -86q-6 -57 -13 -109.5t-20 -91.5 q-6 -23 -14 -49t-18 -57zM656.5 1575.5q0.5 32.5 23.5 56.5q23 23 51 27q45 6 74 -23q47 -43 47 -106q2 -35 -23.5 -62.5t-64.5 -27.5q-35 0 -59.5 21.5t-28.5 54.5q-20 27 -19.5 59.5z" />
<glyph unicode="&#xe5;" horiz-adv-x="1075" d="M3 514q-9 29 7 57q16 27 45 36t56 -7q63 -35 217 -6q4 14 8 26.5t8 26.5q12 39 23.5 73t19.5 62q8 31 14.5 77t12.5 99q8 66 17 134.5t25.5 130t43 111.5t69.5 81q41 27 80 4q41 -23 37 -69q-2 -23 5 -58t18.5 -74.5t26 -81.5t28.5 -81q23 -61 41 -119.5t29 -106.5 q4 -23 7 -46t7 -48q10 -23 6 -41q2 -16 4 -33.5t4 -35.5q8 -70 17.5 -142.5t24 -139.5t35.5 -125t56 -99q20 -23 18.5 -52.5t-24.5 -50.5q-23 -18 -49 -18q-29 0 -55 22l-6 7q-20 23 -42 45t-38 51q-23 31 -8 67q-29 86 -44.5 179.5t-25.5 185.5q-68 -27 -138.5 -49.5 t-140.5 -38.5q-16 -53 -32.5 -108.5t-28.5 -105.5t-19.5 -95t-7.5 -78q0 -31 -21.5 -52.5t-51.5 -21.5h-2q-29 2 -51.5 23.5t-20.5 52.5q0 70 21.5 163t50.5 193q-18 -2 -37 -3t-35 -1q-49 0 -91 8.5t-77 26.5q-27 16 -36 45zM358 1565q4 72 47.5 138t106.5 97q64 30 123 12 q66 0 117 -35.5t73 -101.5q29 -82 7.5 -170t-82.5 -139q-20 -16 -51 -30.5t-76 -14.5q-35 0 -76 12.5t-88 40.5q-106 66 -101 191zM469 1559q-6 -57 47 -93q35 -23 81 -34t83 18q35 29 47 84t-6 104q-12 39 -45 56q-12 -4 -27.5 -4t-27.5 10q-4 2 -11.5 6t-17.5 4 q-12 0 -33 -10q-35 -16 -61.5 -58.5t-28.5 -82.5zM496 635q94 27 204 72v12q-4 23 -6 43t-6 39q-8 41 -25.5 93t-37.5 112q-10 29 -19.5 56.5t-19.5 55.5q-8 -45 -14.5 -90t-10.5 -86q-6 -57 -13 -109.5t-20 -91.5q-6 -23 -14 -49t-18 -57z" />
<glyph unicode="&#xe6;" horiz-adv-x="1867" d="M44 754.5q-3 31.5 17 56.5q23 27 54.5 30t58.5 -18q57 -47 223 -47q2 4 18.5 50t42 114t57.5 146.5t67.5 149.5t72.5 123t70 68q43 20 82 -8q86 -20 151.5 -24t129 -1t135 11t172.5 12q72 4 140.5 6t133.5 2q29 0 51.5 -18t26.5 -47q6 -29 -8.5 -53.5t-40.5 -34.5 q-66 -27 -119 -86q-27 -27 -59 -27q-29 0 -54 21q-35 35 -24 80q-10 0 -20.5 -1.5t-20.5 -1.5q-123 -4 -246 -7t-244 3q-8 -98 -6 -215.5t6 -228.5q96 2 187.5 -5t163.5 -13q16 -2 32.5 -3.5t30.5 -3.5q35 -2 56.5 -26.5t17.5 -59.5q-2 -33 -26.5 -54t-57.5 -17 q-16 0 -32.5 1t-35.5 3q-66 6 -151.5 12t-177.5 6q2 -29 3 -54.5t1 -45.5q2 -35 5 -74t7 -80t8 -80t6 -79q35 -4 72 -5.5t74 -5.5q68 -4 137 -8t141 -12q23 -4 72 -3t101 4t97.5 7t59.5 8q33 10 61.5 -6t38.5 -49q10 -31 -6 -59.5t-49 -38.5q-25 -6 -80 -11.5t-116.5 -8.5 t-117 -4t-79.5 3q-68 8 -135.5 12t-135.5 9q-18 0 -63 -3.5t-96.5 -5.5t-94.5 2.5t-57 20.5q-8 8 -12 57t-6 126t-2 174.5t2 201.5q-76 -4 -142.5 -10t-117.5 -8q-29 -53 -68 -132t-77 -161t-67.5 -153t-35.5 -105q-6 -33 -33 -51.5t-59 -12.5q-33 6 -51.5 33t-12.5 59 q6 37 34 104.5t62.5 144.5t70.5 150.5t60 123.5q-20 2 -38.5 4t-36.5 6q-51 10 -94.5 25.5t-73.5 41.5q-27 23 -30 54.5zM582 786q35 8 82 11.5t94 5.5q4 129 9 247.5t13 206.5q-33 -57 -64.5 -133.5t-59 -147.5t-48 -124.5t-26.5 -65.5z" />
<glyph unicode="&#xe7;" horiz-adv-x="1355" d="M-27 915q39 279 222 414q178 127 444 84q193 -35 291 -142.5t78 -260.5q-4 -35 -30 -54.5t-60 -15.5q-33 4 -52.5 30.5t-15.5 59.5q8 59 -14.5 99t-59.5 67t-82 40t-82 19q-35 6 -75.5 8.5t-82.5 -3t-85 -19.5t-80 -41q-127 -92 -158 -309q-18 -125 0.5 -260t69.5 -252 t133 -203t188 -110q49 -12 107.5 -8.5t117 22t115 49.5t105.5 72q25 23 56.5 57.5t57 81.5t41 105.5t8.5 129.5q-2 35 19.5 58.5t54.5 28.5q35 2 58.5 -18.5t27.5 -53.5q12 -145 -45 -275.5t-176 -234.5q-88 -76 -195.5 -122t-216.5 -56q0 -47 -6 -99q66 14 136.5 12.5 t127.5 -34.5q109 -63 109 -199q0 -88 -40 -154.5t-116 -101.5q-43 -20 -92 -28.5t-96 -8.5q-84 0 -150.5 16.5t-85.5 32.5q-25 20 -28.5 53.5t18.5 57.5q18 23 47 29t54 -8q14 -6 48.5 -12.5t78 -8.5t85 4t72.5 27q14 10 29.5 32.5t15.5 69.5q0 29 -8 41t-18 19 q-23 12 -58 13t-70.5 -4t-67.5 -15.5t-50 -20.5q-20 -12 -45 -11t-45 17q-18 16 -26.5 40t-0.5 46q10 35 15.5 89t9.5 112q-4 2 -15 2q-141 33 -247.5 138.5t-173 247.5t-90 305t-1.5 314z" />
<glyph unicode="&#xe8;" horiz-adv-x="1386" d="M15.5 708.5q11.5 30.5 39.5 45.5q47 23 99.5 34t107.5 19q-4 117 -6 239.5t6 229.5q-84 8 -172 29q-33 8 -50 35.5t-9 60.5t35.5 50t60.5 9q174 -41 374.5 -42t403.5 9q72 4 139.5 5.5t133.5 3.5h2q29 0 51 -18.5t26 -47.5t-9 -54.5t-40 -35.5q-33 -10 -62.5 -32.5 t-55.5 -51.5q-25 -27 -60 -27q-33 0 -53 21q-16 16 -22.5 36.5t-2.5 43.5q-10 -2 -20 -2h-21q-123 -4 -245.5 -7.5t-243.5 1.5q-8 -98 -6 -216t6 -229q96 2 186 -4t162 -12q41 -4 66 -6q35 -4 56 -28t17 -58q-2 -33 -26.5 -54.5t-59.5 -19.5q-29 2 -67 6q-63 6 -149.5 12 t-178.5 6q2 -29 3 -54t1 -46q2 -37 5 -75t7 -78q4 -41 8.5 -81t6.5 -81q35 -2 71.5 -4t71.5 -4q70 -4 139.5 -8.5t141.5 -12.5q23 -4 72 -3t101 4t97 7t59 8q33 8 60.5 -7t38.5 -48q10 -31 -5.5 -59.5t-48.5 -38.5q-25 -8 -80 -13.5t-116.5 -8.5t-116.5 -4t-80 3 q-68 10 -136.5 13.5t-133.5 7.5q-35 4 -71 5t-70 5q-2 -6 -2 -11t-2 -9q-6 -39 -39 -56q-16 -10 -39 -10q-16 0 -31 6q-45 18 -106.5 56t-110.5 79q-23 16 -28 44t5 53q12 25 37 37t53 6q51 -12 109 -19q-4 31 -6 62.5t-6 64.5q-4 41 -8.5 82t-6.5 82q0 20 -1 44t-1 50 q-41 -4 -78.5 -13t-68.5 -26q-16 -6 -33 -6q-23 0 -42.5 11t-29.5 34q-14 31 -2.5 61.5zM15.5 708.5q11.5 30.5 39.5 45.5q47 23 99.5 34t107.5 19q-4 117 -6 239.5t6 229.5q-84 8 -172 29q-33 8 -50 35.5t-9 60.5t35.5 50t60.5 9q174 -41 374.5 -42t403.5 9q72 4 139.5 5.5 t133.5 3.5h2q29 0 51 -18.5t26 -47.5t-9 -54.5t-40 -35.5q-33 -10 -62.5 -32.5t-55.5 -51.5q-25 -27 -60 -27q-33 0 -53 21q-16 16 -22.5 36.5t-2.5 43.5q-10 -2 -20 -2h-21q-123 -4 -245.5 -7.5t-243.5 1.5q-8 -98 -6 -216t6 -229q96 2 186 -4t162 -12q41 -4 66 -6 q35 -4 56 -28t17 -58q-2 -33 -26.5 -54.5t-59.5 -19.5q-29 2 -67 6q-63 6 -149.5 12t-178.5 6q2 -29 3 -54t1 -46q2 -37 5 -75t7 -78q4 -41 8.5 -81t6.5 -81q35 -2 71.5 -4t71.5 -4q70 -4 139.5 -8.5t141.5 -12.5q23 -4 72 -3t101 4t97 7t59 8q33 8 60.5 -7t38.5 -48 q10 -31 -5.5 -59.5t-48.5 -38.5q-25 -8 -80 -13.5t-116.5 -8.5t-116.5 -4t-80 3q-68 10 -136.5 13.5t-133.5 7.5q-35 4 -71 5t-70 5q-2 -6 -2 -11t-2 -9q-6 -39 -39 -56q-16 -10 -39 -10q-16 0 -31 6q-45 18 -106.5 56t-110.5 79q-23 16 -28 44t5 53q12 25 37 37t53 6 q51 -12 109 -19q-4 31 -6 62.5t-6 64.5q-4 41 -8.5 82t-6.5 82q0 20 -1 44t-1 50q-41 -4 -78.5 -13t-68.5 -26q-16 -6 -33 -6q-23 0 -42.5 11t-29.5 34q-14 31 -2.5 61.5zM376 1798q-11 35 5 68q18 33 52 45t69 -6q61 -33 119.5 -66t113.5 -67q57 -35 110.5 -66.5 t110.5 -60.5q33 -16 43.5 -51t-6.5 -68q-16 -33 -51 -44.5t-68 5.5q-59 31 -116.5 64.5t-112.5 66.5t-110.5 65.5t-114.5 61.5v2q-33 16 -44 51z" />
<glyph unicode="&#xe9;" horiz-adv-x="1386" d="M15.5 708.5q11.5 30.5 39.5 45.5q47 23 99.5 34t107.5 19q-4 117 -6 239.5t6 229.5q-84 8 -172 29q-33 8 -50 35.5t-9 60.5t35.5 50t60.5 9q174 -41 374.5 -42t403.5 9q72 4 139.5 5.5t133.5 3.5h2q29 0 51 -18.5t26 -47.5t-9 -54.5t-40 -35.5q-33 -10 -62.5 -32.5 t-55.5 -51.5q-25 -27 -60 -27q-33 0 -53 21q-16 16 -22.5 36.5t-2.5 43.5q-10 -2 -20 -2h-21q-123 -4 -245.5 -7.5t-243.5 1.5q-8 -98 -6 -216t6 -229q96 2 186 -4t162 -12q41 -4 66 -6q35 -4 56 -28t17 -58q-2 -33 -26.5 -54.5t-59.5 -19.5q-29 2 -67 6q-63 6 -149.5 12 t-178.5 6q2 -29 3 -54t1 -46q2 -37 5 -75t7 -78q4 -41 8.5 -81t6.5 -81q35 -2 71.5 -4t71.5 -4q70 -4 139.5 -8.5t141.5 -12.5q23 -4 72 -3t101 4t97 7t59 8q33 8 60.5 -7t38.5 -48q10 -31 -5.5 -59.5t-48.5 -38.5q-25 -8 -80 -13.5t-116.5 -8.5t-116.5 -4t-80 3 q-68 10 -136.5 13.5t-133.5 7.5q-35 4 -71 5t-70 5q-2 -6 -2 -11t-2 -9q-6 -39 -39 -56q-16 -10 -39 -10q-16 0 -31 6q-45 18 -106.5 56t-110.5 79q-23 16 -28 44t5 53q12 25 37 37t53 6q51 -12 109 -19q-4 31 -6 62.5t-6 64.5q-4 41 -8.5 82t-6.5 82q0 20 -1 44t-1 50 q-41 -4 -78.5 -13t-68.5 -26q-16 -6 -33 -6q-23 0 -42.5 11t-29.5 34q-14 31 -2.5 61.5zM15.5 708.5q11.5 30.5 39.5 45.5q47 23 99.5 34t107.5 19q-4 117 -6 239.5t6 229.5q-84 8 -172 29q-33 8 -50 35.5t-9 60.5t35.5 50t60.5 9q174 -41 374.5 -42t403.5 9q72 4 139.5 5.5 t133.5 3.5h2q29 0 51 -18.5t26 -47.5t-9 -54.5t-40 -35.5q-33 -10 -62.5 -32.5t-55.5 -51.5q-25 -27 -60 -27q-33 0 -53 21q-16 16 -22.5 36.5t-2.5 43.5q-10 -2 -20 -2h-21q-123 -4 -245.5 -7.5t-243.5 1.5q-8 -98 -6 -216t6 -229q96 2 186 -4t162 -12q41 -4 66 -6 q35 -4 56 -28t17 -58q-2 -33 -26.5 -54.5t-59.5 -19.5q-29 2 -67 6q-63 6 -149.5 12t-178.5 6q2 -29 3 -54t1 -46q2 -37 5 -75t7 -78q4 -41 8.5 -81t6.5 -81q35 -2 71.5 -4t71.5 -4q70 -4 139.5 -8.5t141.5 -12.5q23 -4 72 -3t101 4t97 7t59 8q33 8 60.5 -7t38.5 -48 q10 -31 -5.5 -59.5t-48.5 -38.5q-25 -8 -80 -13.5t-116.5 -8.5t-116.5 -4t-80 3q-68 10 -136.5 13.5t-133.5 7.5q-35 4 -71 5t-70 5q-2 -6 -2 -11t-2 -9q-6 -39 -39 -56q-16 -10 -39 -10q-16 0 -31 6q-45 18 -106.5 56t-110.5 79q-23 16 -28 44t5 53q12 25 37 37t53 6 q51 -12 109 -19q-4 31 -6 62.5t-6 64.5q-4 41 -8.5 82t-6.5 82q0 20 -1 44t-1 50q-41 -4 -78.5 -13t-68.5 -26q-16 -6 -33 -6q-23 0 -42.5 11t-29.5 34q-14 31 -2.5 61.5zM378 1595.5q7 34.5 42 55.5q59 35 118.5 66.5t118.5 60.5q59 31 115 59t109 61q31 18 66.5 9 t53.5 -41q18 -31 10.5 -67t-40.5 -54q-57 -35 -115.5 -65.5t-116.5 -59.5q-57 -29 -114.5 -58.5t-112.5 -64.5h-2q-31 -18 -66.5 -10t-54.5 41q-18 33 -11 67.5z" />
<glyph unicode="&#xea;" horiz-adv-x="1386" d="M15.5 708.5q11.5 30.5 39.5 45.5q47 23 99.5 34t107.5 19q-4 117 -6 239.5t6 229.5q-84 8 -172 29q-33 8 -50 35.5t-9 60.5t35.5 50t60.5 9q174 -41 374.5 -42t403.5 9q72 4 139.5 5.5t133.5 3.5h2q29 0 51 -18.5t26 -47.5t-9 -54.5t-40 -35.5q-33 -10 -62.5 -32.5 t-55.5 -51.5q-25 -27 -60 -27q-33 0 -53 21q-16 16 -22.5 36.5t-2.5 43.5q-10 -2 -20 -2h-21q-123 -4 -245.5 -7.5t-243.5 1.5q-8 -98 -6 -216t6 -229q96 2 186 -4t162 -12q41 -4 66 -6q35 -4 56 -28t17 -58q-2 -33 -26.5 -54.5t-59.5 -19.5q-29 2 -67 6q-63 6 -149.5 12 t-178.5 6q2 -29 3 -54t1 -46q2 -37 5 -75t7 -78q4 -41 8.5 -81t6.5 -81q35 -2 71.5 -4t71.5 -4q70 -4 139.5 -8.5t141.5 -12.5q23 -4 72 -3t101 4t97 7t59 8q33 8 60.5 -7t38.5 -48q10 -31 -5.5 -59.5t-48.5 -38.5q-25 -8 -80 -13.5t-116.5 -8.5t-116.5 -4t-80 3 q-68 10 -136.5 13.5t-133.5 7.5q-35 4 -71 5t-70 5q-2 -6 -2 -11t-2 -9q-6 -39 -39 -56q-16 -10 -39 -10q-16 0 -31 6q-45 18 -106.5 56t-110.5 79q-23 16 -28 44t5 53q12 25 37 37t53 6q51 -12 109 -19q-4 31 -6 62.5t-6 64.5q-4 41 -8.5 82t-6.5 82q0 20 -1 44t-1 50 q-41 -4 -78.5 -13t-68.5 -26q-16 -6 -33 -6q-23 0 -42.5 11t-29.5 34q-14 31 -2.5 61.5zM15.5 708.5q11.5 30.5 39.5 45.5q47 23 99.5 34t107.5 19q-4 117 -6 239.5t6 229.5q-84 8 -172 29q-33 8 -50 35.5t-9 60.5t35.5 50t60.5 9q174 -41 374.5 -42t403.5 9q72 4 139.5 5.5 t133.5 3.5h2q29 0 51 -18.5t26 -47.5t-9 -54.5t-40 -35.5q-33 -10 -62.5 -32.5t-55.5 -51.5q-25 -27 -60 -27q-33 0 -53 21q-16 16 -22.5 36.5t-2.5 43.5q-10 -2 -20 -2h-21q-123 -4 -245.5 -7.5t-243.5 1.5q-8 -98 -6 -216t6 -229q96 2 186 -4t162 -12q41 -4 66 -6 q35 -4 56 -28t17 -58q-2 -33 -26.5 -54.5t-59.5 -19.5q-29 2 -67 6q-63 6 -149.5 12t-178.5 6q2 -29 3 -54t1 -46q2 -37 5 -75t7 -78q4 -41 8.5 -81t6.5 -81q35 -2 71.5 -4t71.5 -4q70 -4 139.5 -8.5t141.5 -12.5q23 -4 72 -3t101 4t97 7t59 8q33 8 60.5 -7t38.5 -48 q10 -31 -5.5 -59.5t-48.5 -38.5q-25 -8 -80 -13.5t-116.5 -8.5t-116.5 -4t-80 3q-68 10 -136.5 13.5t-133.5 7.5q-35 4 -71 5t-70 5q-2 -6 -2 -11t-2 -9q-6 -39 -39 -56q-16 -10 -39 -10q-16 0 -31 6q-45 18 -106.5 56t-110.5 79q-23 16 -28 44t5 53q12 25 37 37t53 6 q51 -12 109 -19q-4 31 -6 62.5t-6 64.5q-4 41 -8.5 82t-6.5 82q0 20 -1 44t-1 50q-41 -4 -78.5 -13t-68.5 -26q-16 -6 -33 -6q-23 0 -42.5 11t-29.5 34q-14 31 -2.5 61.5zM204.5 1606.5q0.5 31.5 26.5 56.5q45 41 90.5 80t92.5 76q47 35 89 70.5t83 72.5q33 31 73 16 q20 -4 33 -16q47 -41 90 -83t84 -83t81 -80t81 -76q25 -23 28 -54.5t-20 -55.5q-23 -25 -54.5 -27t-55.5 21q-47 39 -88 80l-82 82q-29 27 -58.5 55t-58.5 57q-33 -29 -63.5 -53.5t-63.5 -50.5q-43 -35 -87 -72t-87 -76v-2q-25 -23 -56.5 -20.5t-54.5 26.5 q-23 25 -22.5 56.5z" />
<glyph unicode="&#xeb;" horiz-adv-x="1386" d="M15.5 708.5q11.5 30.5 39.5 45.5q47 23 99.5 34t107.5 19q-4 117 -6 239.5t6 229.5q-84 8 -172 29q-33 8 -50 35.5t-9 60.5t35.5 50t60.5 9q174 -41 374.5 -42t403.5 9q72 4 139.5 5.5t133.5 3.5h2q29 0 51 -18.5t26 -47.5t-9 -54.5t-40 -35.5q-33 -10 -62.5 -32.5 t-55.5 -51.5q-25 -27 -60 -27q-33 0 -53 21q-16 16 -22.5 36.5t-2.5 43.5q-10 -2 -20 -2h-21q-123 -4 -245.5 -7.5t-243.5 1.5q-8 -98 -6 -216t6 -229q96 2 186 -4t162 -12q41 -4 66 -6q35 -4 56 -28t17 -58q-2 -33 -26.5 -54.5t-59.5 -19.5q-29 2 -67 6q-63 6 -149.5 12 t-178.5 6q2 -29 3 -54t1 -46q2 -37 5 -75t7 -78q4 -41 8.5 -81t6.5 -81q35 -2 71.5 -4t71.5 -4q70 -4 139.5 -8.5t141.5 -12.5q23 -4 72 -3t101 4t97 7t59 8q33 8 60.5 -7t38.5 -48q10 -31 -5.5 -59.5t-48.5 -38.5q-25 -8 -80 -13.5t-116.5 -8.5t-116.5 -4t-80 3 q-68 10 -136.5 13.5t-133.5 7.5q-35 4 -71 5t-70 5q-2 -6 -2 -11t-2 -9q-6 -39 -39 -56q-16 -10 -39 -10q-16 0 -31 6q-45 18 -106.5 56t-110.5 79q-23 16 -28 44t5 53q12 25 37 37t53 6q51 -12 109 -19q-4 31 -6 62.5t-6 64.5q-4 41 -8.5 82t-6.5 82q0 20 -1 44t-1 50 q-41 -4 -78.5 -13t-68.5 -26q-16 -6 -33 -6q-23 0 -42.5 11t-29.5 34q-14 31 -2.5 61.5zM15.5 708.5q11.5 30.5 39.5 45.5q47 23 99.5 34t107.5 19q-4 117 -6 239.5t6 229.5q-84 8 -172 29q-33 8 -50 35.5t-9 60.5t35.5 50t60.5 9q174 -41 374.5 -42t403.5 9q72 4 139.5 5.5 t133.5 3.5h2q29 0 51 -18.5t26 -47.5t-9 -54.5t-40 -35.5q-33 -10 -62.5 -32.5t-55.5 -51.5q-25 -27 -60 -27q-33 0 -53 21q-16 16 -22.5 36.5t-2.5 43.5q-10 -2 -20 -2h-21q-123 -4 -245.5 -7.5t-243.5 1.5q-8 -98 -6 -216t6 -229q96 2 186 -4t162 -12q41 -4 66 -6 q35 -4 56 -28t17 -58q-2 -33 -26.5 -54.5t-59.5 -19.5q-29 2 -67 6q-63 6 -149.5 12t-178.5 6q2 -29 3 -54t1 -46q2 -37 5 -75t7 -78q4 -41 8.5 -81t6.5 -81q35 -2 71.5 -4t71.5 -4q70 -4 139.5 -8.5t141.5 -12.5q23 -4 72 -3t101 4t97 7t59 8q33 8 60.5 -7t38.5 -48 q10 -31 -5.5 -59.5t-48.5 -38.5q-25 -8 -80 -13.5t-116.5 -8.5t-116.5 -4t-80 3q-68 10 -136.5 13.5t-133.5 7.5q-35 4 -71 5t-70 5q-2 -6 -2 -11t-2 -9q-6 -39 -39 -56q-16 -10 -39 -10q-16 0 -31 6q-45 18 -106.5 56t-110.5 79q-23 16 -28 44t5 53q12 25 37 37t53 6 q51 -12 109 -19q-4 31 -6 62.5t-6 64.5q-4 41 -8.5 82t-6.5 82q0 20 -1 44t-1 50q-41 -4 -78.5 -13t-68.5 -26q-16 -6 -33 -6q-23 0 -42.5 11t-29.5 34q-14 31 -2.5 61.5zM330 1712q4 35 33.5 57.5t66.5 16.5q35 -4 56.5 -29.5t19.5 -58.5q16 -29 10 -61.5t-33 -53.5 q-25 -18 -55 -18q-45 0 -70 34q-39 51 -28 113zM656.5 1657q0.5 33 23.5 57q23 23 51 27q45 6 74 -23q47 -43 47 -106q2 -35 -23.5 -62.5t-64.5 -27.5q-35 0 -59.5 21.5t-28.5 53.5q-20 27 -19.5 60z" />
<glyph unicode="&#xec;" horiz-adv-x="956" d="M-23 1403q0 2 2.5 14.5t9.5 25.5t23.5 25.5t46.5 14.5h7h10h12h6q29 0 54.5 -1t54.5 -1q27 -2 53.5 -2h52.5q2 0 10 4q18 2 39 -4q104 -2 202.5 7t187.5 38q33 10 62.5 -4.5t39.5 -44.5q10 -33 -4.5 -63t-46.5 -40q-88 -31 -183.5 -42t-193.5 -13q10 -121 6 -242 t-14 -241q-10 -150 -15.5 -290.5t17.5 -275.5q66 16 129 17.5t125 -2.5q55 -4 107 -3t106 13q33 6 60.5 -10.5t35.5 -51.5q8 -33 -9.5 -60.5t-49.5 -35.5q-70 -16 -133.5 -17t-124.5 3q-51 4 -97.5 4t-91.5 -10v-19q4 -37 -18.5 -63.5t-61.5 -32.5q-4 -2 -12 -2 q-25 0 -45.5 14.5t-30.5 38.5q-14 -6 -27.5 -12t-27.5 -10q-43 -18 -79 -33.5t-48 -22.5q-18 -6 -35 -6q-51 0 -74 47q-14 31 -1.5 61.5t42.5 45.5q14 6 51 22.5t82 32.5q18 10 38 17.5t38 15.5q-31 158 -26.5 317.5t14.5 319.5q10 125 14 241.5t-6 231.5h-61q-35 2 -67 2 h-62h-11v2q-82 10 -82 80zM105.5 1863q-11.5 35 5.5 68q18 33 52 45.5t68 -6.5q61 -33 120 -65.5t114 -67.5q57 -35 110.5 -66.5t110.5 -60.5q33 -16 43 -51t-6 -68t-51 -44t-68 5q-59 31 -116.5 65t-112.5 66q-55 33 -110.5 66t-114.5 61v2q-33 16 -44.5 51z" />
<glyph unicode="&#xed;" horiz-adv-x="956" d="M-23 1403q0 2 2.5 14.5t9.5 25.5t23.5 25.5t46.5 14.5h7h10h12h6q29 0 54.5 -1t54.5 -1q27 -2 53.5 -2h52.5q2 0 10 4q18 2 39 -4q104 -2 202.5 7t187.5 38q33 10 62.5 -4.5t39.5 -44.5q10 -33 -4.5 -63t-46.5 -40q-88 -31 -183.5 -42t-193.5 -13q10 -121 6 -242 t-14 -241q-10 -150 -15.5 -290.5t17.5 -275.5q66 16 129 17.5t125 -2.5q55 -4 107 -3t106 13q33 6 60.5 -10.5t35.5 -51.5q8 -33 -9.5 -60.5t-49.5 -35.5q-70 -16 -133.5 -17t-124.5 3q-51 4 -97.5 4t-91.5 -10v-19q4 -37 -18.5 -63.5t-61.5 -32.5q-4 -2 -12 -2 q-25 0 -45.5 14.5t-30.5 38.5q-14 -6 -27.5 -12t-27.5 -10q-43 -18 -79 -33.5t-48 -22.5q-18 -6 -35 -6q-51 0 -74 47q-14 31 -1.5 61.5t42.5 45.5q14 6 51 22.5t82 32.5q18 10 38 17.5t38 15.5q-31 158 -26.5 317.5t14.5 319.5q10 125 14 241.5t-6 231.5h-61q-35 2 -67 2 h-62h-11v2q-82 10 -82 80zM134 1638.5q7 34.5 42 55.5q59 35 118.5 66.5t119.5 60.5q59 31 114.5 59.5t108.5 61.5q31 18 66.5 9t54.5 -42q18 -31 10 -67t-41 -54q-57 -35 -115.5 -65.5t-115.5 -59.5t-114.5 -58.5t-113.5 -64.5h-2q-31 -18 -66.5 -10t-54.5 41 q-18 33 -11 67.5z" />
<glyph unicode="&#xee;" horiz-adv-x="956" d="M-23 1403q0 2 2.5 14.5t9.5 25.5t23.5 25.5t46.5 14.5h7h10h12h6q29 0 54.5 -1t54.5 -1q27 -2 53.5 -2h52.5q2 0 10 4q18 2 39 -4q104 -2 202.5 7t187.5 38q33 10 62.5 -4.5t39.5 -44.5q10 -33 -4.5 -63t-46.5 -40q-88 -31 -183.5 -42t-193.5 -13q10 -121 6 -242 t-14 -241q-10 -150 -15.5 -290.5t17.5 -275.5q66 16 129 17.5t125 -2.5q55 -4 107 -3t106 13q33 6 60.5 -10.5t35.5 -51.5q8 -33 -9.5 -60.5t-49.5 -35.5q-70 -16 -133.5 -17t-124.5 3q-51 4 -97.5 4t-91.5 -10v-19q4 -37 -18.5 -63.5t-61.5 -32.5q-4 -2 -12 -2 q-25 0 -45.5 14.5t-30.5 38.5q-14 -6 -27.5 -12t-27.5 -10q-43 -18 -79 -33.5t-48 -22.5q-18 -6 -35 -6q-51 0 -74 47q-14 31 -1.5 61.5t42.5 45.5q14 6 51 22.5t82 32.5q18 10 38 17.5t38 15.5q-31 158 -26.5 317.5t14.5 319.5q10 125 14 241.5t-6 231.5h-61q-35 2 -67 2 h-62h-11v2q-82 10 -82 80zM5.5 1642.5q0.5 26.5 23.5 49.5q39 37 77.5 70.5t79.5 66.5q41 31 78 61.5t74 63.5q27 25 63 14q12 -2 29 -14q41 -35 78 -73t74 -73q67 -72 141 -135q23 -18 24 -46t-18 -50q-18 -23 -46 -24t-50 18q-41 35 -77 69.5t-71 71.5q-25 23 -50 48.5 t-52 49.5q-29 -25 -55.5 -47t-55.5 -45q-37 -31 -74.5 -62.5t-76.5 -64.5v-2q-23 -18 -50.5 -18t-45.5 22q-20 23 -19.5 49.5z" />
<glyph unicode="&#xef;" horiz-adv-x="956" d="M-23 1403q0 2 2.5 14.5t9.5 25.5t23.5 25.5t46.5 14.5h7h10h12h6q29 0 54.5 -1t54.5 -1q27 -2 53.5 -2h52.5q2 0 10 4q18 2 39 -4q104 -2 202.5 7t187.5 38q33 10 62.5 -4.5t39.5 -44.5q10 -33 -4.5 -63t-46.5 -40q-88 -31 -183.5 -42t-193.5 -13q10 -121 6 -242 t-14 -241q-10 -150 -15.5 -290.5t17.5 -275.5q66 16 129 17.5t125 -2.5q55 -4 107 -3t106 13q33 6 60.5 -10.5t35.5 -51.5q8 -33 -9.5 -60.5t-49.5 -35.5q-70 -16 -133.5 -17t-124.5 3q-51 4 -97.5 4t-91.5 -10v-19q4 -37 -18.5 -63.5t-61.5 -32.5q-4 -2 -12 -2 q-25 0 -45.5 14.5t-30.5 38.5q-14 -6 -27.5 -12t-27.5 -10q-43 -18 -79 -33.5t-48 -22.5q-18 -6 -35 -6q-51 0 -74 47q-14 31 -1.5 61.5t42.5 45.5q14 6 51 22.5t82 32.5q18 10 38 17.5t38 15.5q-31 158 -26.5 317.5t14.5 319.5q10 125 14 241.5t-6 231.5h-61q-35 2 -67 2 h-62h-11v2q-82 10 -82 80zM129 1704q4 35 33.5 57.5t66.5 16.5q35 -4 56.5 -30t19.5 -58q16 -29 10 -62t-32 -53q-25 -18 -56 -19q-45 0 -69 35q-39 51 -29 113zM452 1732.5q1 32.5 23 57.5q23 23 51 27q45 6 74 -23q47 -43 47 -106q2 -35 -23.5 -63t-64.5 -28 q-35 0 -59.5 21.5t-28.5 54.5q-20 27 -19 59.5z" />
<glyph unicode="&#xf0;" horiz-adv-x="1765" d="M20 758q0 37 25 63.5t66 26.5q76 0 153 -6q-4 25 -5 48t-5 46q-10 100 -21.5 198.5t-39.5 176.5q-8 16 -5 41q-27 10 -43 34.5t-12 53.5q4 35 32 58.5t62 19.5q55 -6 146.5 -29t203 -60.5t235.5 -90t247 -116t235.5 -136t199.5 -154.5t142.5 -170t61.5 -180 q8 -127 -59.5 -219.5t-181.5 -157t-257 -105.5t-283.5 -66.5t-261 -37.5t-192.5 -21q-70 -8 -105.5 17.5t-43 58.5t13 62.5t63.5 31.5q-16 78 -31.5 155t-29.5 153q-10 53 -20.5 105t-20.5 106q-45 2 -89 4t-89 2q-37 0 -64 25.5t-27 62.5zM371 1311q25 -84 36 -175.5 t19 -183.5q4 -33 6 -62.5t6 -58.5q49 -4 97.5 -6t97.5 -2q37 0 62.5 -25.5t25.5 -62.5t-26.5 -63.5t-61.5 -26.5h-2q-41 0 -82 2l-82 4q10 -41 17.5 -83t15.5 -83q16 -82 31.5 -164.5t33.5 -162.5q82 6 186.5 17t213 30.5t212 48.5t182.5 73t126 103t41 139q-6 74 -65.5 150 t-155 148.5t-216 141t-247.5 127t-250 103.5t-221 72z" />
<glyph unicode="&#xf1;" horiz-adv-x="1083" d="M-25 1338.5q-6 -29.5 11 -56.5q23 -37 43 -74t43 -75q4 -8 9 -16.5t9 -16.5q20 -61 30.5 -128t14.5 -135.5t4 -137v-132.5v-106v-76v-141.5t-2 -141.5q0 -47 10.5 -72.5t34.5 -39.5q14 -10 39 -10q23 0 45 12q29 23 32 49.5t-1 58.5q2 72 2 142.5v142.5v76v104 q0 49 1 100.5t-1 104.5q0 -4 4 -4q25 -35 50.5 -68.5t52.5 -68.5q55 -74 114.5 -152t124 -152.5t133 -142t142.5 -123.5q27 -18 59 -14q33 6 53 33q27 37 39 140.5t14 239.5t-5 288.5t-20 290t-31 241.5t-36 143q-18 41 -42.5 53.5t-45.5 14.5q-33 2 -57.5 -20.5 t-26.5 -55.5q-2 -43 33 -67q14 -33 25.5 -107t21.5 -171t16.5 -210t8.5 -222.5t1 -206.5t-7 -163q-106 98 -202.5 220t-185.5 239q-27 35 -52 69.5t-52 67.5q-49 63 -96 139t-94 162q-23 59 -52.5 112.5t-72.5 100.5q-23 23 -52.5 26t-54.5 -16q-25 -18 -31 -47.5z M193 1663.5q6 24.5 28 38.5q55 33 103.5 43t88.5 5t72.5 -19.5t59.5 -28.5q25 -12 45 -21.5t41.5 -12.5t45 2t54.5 22q23 14 47.5 8t36.5 -29q14 -23 7 -48.5t-29 -37.5q-41 -23 -77 -33t-67 -10q-49 0 -89 16.5t-73 32.5q-25 12 -47 22.5t-44.5 12.5t-49.5 -5t-59 -28 q-23 -10 -47.5 -5t-38.5 28t-8 47.5z" />
<glyph unicode="&#xf2;" horiz-adv-x="1163" d="M3.5 740q19.5 134 80.5 259t152 215q135 133 288.5 141.5t288.5 -108.5q20 -16 27 -45q66 -51 124 -121.5t103 -156.5q82 -162 92 -318.5t-55 -273.5q-84 -150 -200 -236t-251 -100q-12 -2 -25.5 -2h-25.5q-129 0 -252 64.5t-229 187.5q-84 100 -110.5 230t-7 264z M171 525.5q17 -99.5 79 -171.5q88 -104 187.5 -152t197.5 -38q96 10 178 73.5t143 174.5q43 78 33 196.5t-71 239.5t-151.5 199.5t-180.5 89.5q-48 6 -68 51q-49 -8 -90 -34t-76 -58q-68 -68 -115 -165t-65 -201.5t-1 -204zM306 1827q-11 35 5 67q18 33 52 45.5t69 -6.5 q61 -33 119.5 -65.5t114.5 -67.5q57 -35 110.5 -66.5t110.5 -60.5q33 -16 43 -51t-6 -68t-51 -44t-68 6q-59 31 -116.5 64.5t-113.5 66.5q-55 33 -110 65.5t-115 61.5v2q-33 16 -44 51z" />
<glyph unicode="&#xf3;" horiz-adv-x="1163" d="M3.5 740q19.5 134 80.5 259t152 215q135 133 288.5 141.5t288.5 -108.5q20 -16 27 -45q66 -51 124 -121.5t103 -156.5q82 -162 92 -318.5t-55 -273.5q-84 -150 -200 -236t-251 -100q-12 -2 -25.5 -2h-25.5q-129 0 -252 64.5t-229 187.5q-84 100 -110.5 230t-7 264z M171 525.5q17 -99.5 79 -171.5q88 -104 187.5 -152t197.5 -38q96 10 178 73.5t143 174.5q43 78 33 196.5t-71 239.5t-151.5 199.5t-180.5 89.5q-48 6 -68 51q-49 -8 -90 -34t-76 -58q-68 -68 -115 -165t-65 -201.5t-1 -204zM278 1513.5q7 34.5 41 55.5q59 35 119 66.5 t119 60.5q59 31 114.5 59.5t108.5 61.5q31 18 67 9t54 -42q18 -31 10 -67t-41 -54q-57 -35 -115.5 -65.5t-115.5 -59.5t-114.5 -58.5t-112.5 -64.5h-2q-31 -18 -67 -10t-54 41t-11 67.5z" />
<glyph unicode="&#xf4;" horiz-adv-x="1163" d="M3.5 740q19.5 134 80.5 259t152 215q135 133 288.5 141.5t288.5 -108.5q20 -16 27 -45q66 -51 124 -121.5t103 -156.5q82 -162 92 -318.5t-55 -273.5q-84 -150 -200 -236t-251 -100q-12 -2 -25.5 -2h-25.5q-129 0 -252 64.5t-229 187.5q-84 100 -110.5 230t-7 264z M171 525.5q17 -99.5 79 -171.5q88 -104 187.5 -152t197.5 -38q96 10 178 73.5t143 174.5q43 78 33 196.5t-71 239.5t-151.5 199.5t-180.5 89.5q-48 6 -68 51q-49 -8 -90 -34t-76 -58q-68 -68 -115 -165t-65 -201.5t-1 -204zM222.5 1495.5q0.5 26.5 23.5 48.5q39 37 77.5 71 t79.5 66q41 31 78 62t74 63q27 25 63 15q12 -2 29 -15q41 -35 78 -72.5t74 -72.5q67 -72 141 -135q23 -18 24 -46t-18 -50q-18 -23 -46 -24t-50 17q-41 35 -77 70t-71 72q-25 23 -50 48t-52 50q-29 -25 -55.5 -47.5t-55.5 -44.5q-37 -31 -74.5 -62.5t-76.5 -64.5v-2 q-23 -18 -50.5 -18.5t-45.5 22.5q-20 23 -19.5 49.5z" />
<glyph unicode="&#xf5;" horiz-adv-x="1163" d="M3.5 740q19.5 134 80.5 259t152 215q135 133 288.5 141.5t288.5 -108.5q20 -16 27 -45q66 -51 124 -121.5t103 -156.5q82 -162 92 -318.5t-55 -273.5q-84 -150 -200 -236t-251 -100q-12 -2 -25.5 -2h-25.5q-129 0 -252 64.5t-229 187.5q-84 100 -110.5 230t-7 264z M171 525.5q17 -99.5 79 -171.5q88 -104 187.5 -152t197.5 -38q96 10 178 73.5t143 174.5q43 78 33 196.5t-71 239.5t-151.5 199.5t-180.5 89.5q-48 6 -68 51q-49 -8 -90 -34t-76 -58q-68 -68 -115 -165t-65 -201.5t-1 -204zM291 1599.5q6 24.5 28 38.5q55 33 103.5 43.5 t88.5 5t72.5 -19.5t59.5 -29q25 -12 45.5 -21t42 -12t45 2t53.5 21q23 14 47.5 8t36.5 -28q14 -23 7 -48.5t-29 -37.5q-41 -23 -76.5 -33t-66.5 -10q-49 0 -89.5 16t-72.5 33q-25 12 -47.5 22.5t-45 12.5t-49 -5.5t-59.5 -27.5q-23 -10 -47.5 -5t-38.5 27q-14 23 -8 47.5z " />
<glyph unicode="&#xf6;" horiz-adv-x="1163" d="M3.5 740q19.5 134 80.5 259t152 215q135 133 288.5 141.5t288.5 -108.5q20 -16 27 -45q66 -51 124 -121.5t103 -156.5q82 -162 92 -318.5t-55 -273.5q-84 -150 -200 -236t-251 -100q-12 -2 -25.5 -2h-25.5q-129 0 -252 64.5t-229 187.5q-84 100 -110.5 230t-7 264z M171 525.5q17 -99.5 79 -171.5q88 -104 187.5 -152t197.5 -38q96 10 178 73.5t143 174.5q43 78 33 196.5t-71 239.5t-151.5 199.5t-180.5 89.5q-48 6 -68 51q-49 -8 -90 -34t-76 -58q-68 -68 -115 -165t-65 -201.5t-1 -204zM258 1587q4 35 33.5 57.5t66.5 16.5 q35 -4 56.5 -29.5t19.5 -58.5q16 -29 10 -61.5t-32 -53.5q-25 -18 -56 -18q-45 0 -69 35q-39 51 -29 112zM581 1616q1 33 23 57q23 23 51 27q45 6 74 -23q47 -43 47 -106q2 -35 -23.5 -62.5t-64.5 -27.5q-35 0 -59.5 21.5t-28.5 53.5q-20 27 -19 60z" />
<glyph unicode="&#xf7;" horiz-adv-x="1603" d="M2 723q-2 37 22.5 63.5t61.5 28.5q53 2 136 4t171 4t169 2h134q68 -2 135.5 -4t137.5 -6q131 -6 263 -11t263 3q37 2 63.5 -23.5t30.5 -60.5q2 -37 -23.5 -64.5t-62.5 -29.5q-41 -2 -83 -3t-83 -1q-96 0 -190 4t-186 8q-68 4 -134.5 6t-134.5 4q-51 2 -131 1t-166 -2 t-167 -3t-134 -4q-37 -4 -63.5 21.5t-28.5 62.5zM604.5 324q-16.5 47 5.5 92q-4 49 22.5 91t74.5 56q43 8 88 -8q29 -10 49 -33.5t28 -54.5q20 -88 -26 -174q-29 -45 -82 -58.5t-100 15.5q-43 27 -59.5 74zM643 1194q8 51 52.5 85t99.5 26q51 -8 83.5 -46t28.5 -88 q23 -43 14.5 -92t-47.5 -80q-18 -14 -39.5 -20t-43.5 -6q-29 0 -57.5 13t-47.5 38q-55 74 -43 170z" />
<glyph unicode="&#xf8;" horiz-adv-x="1265" d="M40.5 637q20.5 135 81 260t150.5 215q117 115 250 136.5t256 -52.5q37 98 64.5 168t31.5 86q10 35 43 51.5t68 5.5q35 -12 52.5 -44.5t6.5 -67.5q-8 -23 -43.5 -116t-82.5 -214q110 -96 186 -246q84 -162 93 -318.5t-56 -273.5q-82 -147 -199 -233t-252 -100 q-12 -2 -25.5 -3.5t-25.5 -1.5q-45 0 -90 8.5t-88 24.5q-33 -76 -61.5 -138.5t-51.5 -105.5q-27 -47 -78 -47q-23 0 -43 13q-33 16 -43 51t6 67q23 41 51.5 104.5t61.5 141.5q-39 29 -74.5 61.5t-70.5 73.5q-84 98 -111 228.5t-6.5 265.5zM208 423q18 -99 79 -171 q41 -47 84 -84q29 76 58.5 150.5t57.5 142.5q23 57 42.5 106t35.5 88q27 63 64 157.5t78 197.5q-43 18 -84 24q-47 6 -68 49q-47 -6 -89 -32.5t-75 -59.5q-68 -68 -116 -164t-66.5 -200.5t-0.5 -203.5zM524 78q74 -25 150 -19q94 10 176 74.5t143 175.5q20 39 28.5 89.5 t4.5 107.5t-22.5 117.5t-49.5 119.5q-43 86 -102 152q-35 -90 -67.5 -171t-55.5 -136q-33 -82 -76 -193q-31 -76 -63.5 -156.5t-65.5 -160.5z" />
<glyph unicode="&#xf9;" d="M13.5 1065q15.5 160 68.5 283q12 31 43 43t61 0q31 -12 43.5 -43t-0.5 -62q-43 -104 -57 -242.5t0 -280.5t54 -272.5t102 -214.5q92 -123 209 -110q125 12 194.5 75.5t103 168t38.5 246t1 309.5q-4 98 -4 189t11 169q4 33 30.5 52.5t59.5 15.5t52 -30t15 -58 q-10 -70 -9 -155t5 -179q2 -96 3 -200.5t-10 -207t-40 -198t-83 -170t-139 -125t-212 -62.5q-10 0 -18.5 -1t-18.5 -1q-184 0 -315 178q-76 100 -123 250t-63.5 311.5t-1 321.5zM306 1827q-11 35 5 67q18 33 52 45.5t69 -6.5q61 -33 119.5 -65.5t114.5 -67.5 q57 -35 110.5 -66.5t110.5 -60.5q33 -16 43 -51t-6 -68t-51 -44t-68 6q-59 31 -116.5 64.5t-113.5 66.5q-55 33 -110 65.5t-115 61.5v2q-33 16 -44 51z" />
<glyph unicode="&#xfa;" d="M13.5 1065q15.5 160 68.5 283q12 31 43 43t61 0q31 -12 43.5 -43t-0.5 -62q-43 -104 -57 -242.5t0 -280.5t54 -272.5t102 -214.5q92 -123 209 -110q125 12 194.5 75.5t103 168t38.5 246t1 309.5q-4 98 -4 189t11 169q4 33 30.5 52.5t59.5 15.5t52 -30t15 -58 q-10 -70 -9 -155t5 -179q2 -96 3 -200.5t-10 -207t-40 -198t-83 -170t-139 -125t-212 -62.5q-10 0 -18.5 -1t-18.5 -1q-184 0 -315 178q-76 100 -123 250t-63.5 311.5t-1 321.5zM319 1657q7 35 41 55q59 35 119 66.5t119 60.5q59 31 114.5 59.5t108.5 61.5q31 18 67 9 t54 -42q18 -31 10 -66.5t-41 -54.5q-57 -35 -115.5 -65.5t-115.5 -59.5t-114.5 -58.5t-112.5 -63.5h-2q-31 -18 -67 -10.5t-54 40.5t-11 68z" />
<glyph unicode="&#xfb;" horiz-adv-x="1337" d="M66.5 1065q15.5 160 68.5 283q12 31 43 43t62 0t43 -43t0 -62q-43 -104 -57.5 -242.5t0 -280.5t54 -272.5t101.5 -214.5q92 -123 209 -110q125 12 194.5 75.5t103.5 168t39 246t1 309.5q-4 98 -4 189t10 169q4 33 30.5 52.5t59.5 15.5t52.5 -30t15.5 -58 q-10 -70 -9.5 -155t4.5 -179q2 -96 3.5 -200.5t-10 -207t-40 -198t-83 -170t-139.5 -125t-212 -62.5q-10 0 -18 -1t-19 -1q-184 0 -315 178q-76 100 -123 250t-63.5 311.5t-1 321.5zM230.5 1581.5q0.5 26.5 23.5 48.5q39 37 78 71t80 66q41 31 77.5 62t73.5 63q27 25 64 15 q12 -2 28 -15q41 -35 78 -72.5t74 -72.5q67 -72 141 -135q23 -18 24 -46t-18 -50q-18 -23 -45.5 -24t-50.5 17q-41 35 -77 70t-70 72q-25 23 -50.5 48t-52.5 50q-29 -25 -55.5 -47.5t-54.5 -44.5q-37 -31 -75 -62.5t-77 -64.5v-2q-23 -18 -50.5 -18.5t-45.5 22.5 q-20 23 -19.5 49.5z" />
<glyph unicode="&#xfc;" d="M13.5 1065q15.5 160 68.5 283q12 31 43 43t61 0q31 -12 43.5 -43t-0.5 -62q-43 -104 -57 -242.5t0 -280.5t54 -272.5t102 -214.5q92 -123 209 -110q125 12 194.5 75.5t103 168t38.5 246t1 309.5q-4 98 -4 189t11 169q4 33 30.5 52.5t59.5 15.5t52 -30t15 -58 q-10 -70 -9 -155t5 -179q2 -96 3 -200.5t-10 -207t-40 -198t-83 -170t-139 -125t-212 -62.5q-10 0 -18.5 -1t-18.5 -1q-184 0 -315 178q-76 100 -123 250t-63.5 311.5t-1 321.5zM258 1587q4 35 33.5 57.5t66.5 16.5q35 -4 56.5 -29.5t19.5 -58.5q16 -29 10 -61.5t-32 -53.5 q-25 -18 -56 -18q-45 0 -69 35q-39 51 -29 112zM581 1616q1 33 23 57q23 23 51 27q45 6 74 -23q47 -43 47 -106q2 -35 -23.5 -62.5t-64.5 -27.5q-35 0 -59.5 21.5t-28.5 53.5q-20 27 -19 60z" />
<glyph unicode="&#xfd;" horiz-adv-x="864" d="M-11 1316q5 32 34 52q29 18 60.5 12t49.5 -32q47 -68 94 -118t97 -100q43 -41 85 -85t83 -97q55 104 103 215t71 230q6 33 33.5 51t60.5 12t51 -33.5t12 -60.5q-33 -158 -95 -294t-134 -265q2 -10 2 -27q-4 -23 -17.5 -39t-31.5 -24q-43 -78 -80 -155t-64.5 -155.5 t-41 -160.5t-7.5 -170q2 -31 -17.5 -55.5t-49.5 -28.5q-6 -2 -17 -2q-35 0 -61 20q-37 29 -47 84q-4 23 6 43.5t27 34.5q4 86 22.5 167t48 157.5t66.5 151.5t76 147q-47 70 -95.5 122t-99.5 105q-53 51 -105.5 106.5t-105.5 130.5q-18 29 -13 61zM114 1657q7 35 42 55 q59 35 118.5 66.5t118.5 60.5q59 31 114.5 59.5t108.5 61.5q31 18 67 9t54 -42q18 -31 10 -66.5t-40 -54.5q-57 -35 -116 -65.5t-116 -59.5t-114.5 -58.5t-112.5 -63.5h-2q-31 -18 -67 -10.5t-54 40.5t-11 68z" />
<glyph unicode="&#xfe;" horiz-adv-x="897" d="M12 1526q-2 37 23.5 63.5t62.5 28.5q35 4 62.5 -21.5t29.5 -62.5q4 -59 9.5 -155.5t11.5 -215.5q2 -27 3 -53.5t3 -54.5q168 41 307.5 13t227.5 -126q76 -84 90 -192.5t-33 -208.5q-66 -131 -208 -202t-341 -71h-4q10 -180 14 -329.5t4 -241.5q0 -37 -25.5 -63.5 t-62.5 -26.5t-63.5 26.5t-26.5 63.5q0 66 -3 167t-8 224t-11 260t-13.5 276.5t-14.5 275.5t-13 255t-11.5 214t-9.5 157zM227 870q4 -104 10.5 -209.5t10.5 -211.5q147 -2 252.5 41.5t146.5 127.5q25 53 17.5 107.5t-43.5 95.5q-59 63 -162 76.5t-232 -27.5z" />
<glyph unicode="&#xff;" horiz-adv-x="864" d="M-11 1316q5 32 34 52q29 18 60.5 12t49.5 -32q47 -68 94 -118t97 -100q43 -41 85 -85t83 -97q55 104 103 215t71 230q6 33 33.5 51t60.5 12t51 -33.5t12 -60.5q-33 -158 -95 -294t-134 -265q2 -10 2 -27q-4 -23 -17.5 -39t-31.5 -24q-43 -78 -80 -155t-64.5 -155.5 t-41 -160.5t-7.5 -170q2 -31 -17.5 -55.5t-49.5 -28.5q-6 -2 -17 -2q-35 0 -61 20q-37 29 -47 84q-4 23 6 43.5t27 34.5q4 86 22.5 167t48 157.5t66.5 151.5t76 147q-47 70 -95.5 122t-99.5 105q-53 51 -105.5 106.5t-105.5 130.5q-18 29 -13 61zM125 1616q4 35 33.5 57.5 t66.5 16.5q35 -4 56.5 -30t19.5 -58q16 -29 10 -62t-32 -53q-25 -18 -56 -19q-45 0 -69 35q-39 51 -29 113zM452 1560.5q1 32.5 23 57.5q23 23 51 27q45 6 74 -23q47 -43 47 -106q2 -35 -23.5 -63t-64.5 -28q-35 0 -59.5 21.5t-28.5 54.5q-20 27 -19 59.5z" />
<glyph unicode="&#x152;" horiz-adv-x="1636" d="M8.5 728q20.5 134 81 259t150.5 215q41 41 85 64.5t83 33.5q59 31 137 48q14 2 88 3t175 1t211.5 1t201.5 5q72 4 139 6t133 2h2q29 0 51.5 -18.5t26.5 -47.5t-9.5 -53t-39.5 -35q-68 -27 -119 -86q-27 -27 -59 -26q-31 0 -54 22q-18 16 -23 37t-1 41h-20.5t-20.5 -2 q-123 -4 -246 -7t-244 3q-8 -98 -6 -216t6 -228q96 2 186.5 -5.5t161.5 -13.5q41 -4 66 -6q35 -2 56.5 -26.5t17.5 -59.5q-2 -33 -26.5 -54.5t-59.5 -17.5q-14 0 -30.5 1t-37.5 3q-63 6 -149 12.5t-179 6.5q2 -29 3.5 -54.5t1.5 -46.5q2 -35 5 -73.5t7 -79.5t8 -80t6 -80 q35 -4 71 -5t73 -5q70 -4 139 -8t141 -13q23 -4 72 -3t101 4.5t97 7.5t60 8q33 10 60.5 -6.5t37.5 -49.5q10 -31 -5 -59.5t-48 -38.5q-25 -6 -80 -11t-116.5 -8t-117 -4t-79.5 3q-68 8 -136.5 12t-134.5 8q-20 0 -76.5 -4t-113.5 -4q-27 -14 -62 -16q-12 -2 -25.5 -2h-25.5 q-129 0 -252 64.5t-227 186.5q-86 100 -112.5 230.5t-6 264.5zM187.5 621q-5.5 -86 11 -159t55.5 -118q74 -88 157 -137t169 -57q-4 80 -4.5 192.5t2.5 239.5q2 45 1 123.5t-3.5 170t-4.5 179.5t-4 151q-90 -29 -158.5 -91t-116.5 -143t-73.5 -173t-31 -178z" />
<glyph unicode="&#x153;" horiz-adv-x="1636" d="M8.5 728q20.5 134 81 259t150.5 215q41 41 85 64.5t83 33.5q59 31 137 48q14 2 88 3t175 1t211.5 1t201.5 5q72 4 139 6t133 2h2q29 0 51.5 -18.5t26.5 -47.5t-9.5 -53t-39.5 -35q-68 -27 -119 -86q-27 -27 -59 -26q-31 0 -54 22q-18 16 -23 37t-1 41h-20.5t-20.5 -2 q-123 -4 -246 -7t-244 3q-8 -98 -6 -216t6 -228q96 2 186.5 -5.5t161.5 -13.5q41 -4 66 -6q35 -2 56.5 -26.5t17.5 -59.5q-2 -33 -26.5 -54.5t-59.5 -17.5q-14 0 -30.5 1t-37.5 3q-63 6 -149 12.5t-179 6.5q2 -29 3.5 -54.5t1.5 -46.5q2 -35 5 -73.5t7 -79.5t8 -80t6 -80 q35 -4 71 -5t73 -5q70 -4 139 -8t141 -13q23 -4 72 -3t101 4.5t97 7.5t60 8q33 10 60.5 -6.5t37.5 -49.5q10 -31 -5 -59.5t-48 -38.5q-25 -6 -80 -11t-116.5 -8t-117 -4t-79.5 3q-68 8 -136.5 12t-134.5 8q-20 0 -76.5 -4t-113.5 -4q-27 -14 -62 -16q-12 -2 -25.5 -2h-25.5 q-129 0 -252 64.5t-227 186.5q-86 100 -112.5 230.5t-6 264.5zM187.5 621q-5.5 -86 11 -159t55.5 -118q74 -88 157 -137t169 -57q-4 80 -4.5 192.5t2.5 239.5q2 45 1 123.5t-3.5 170t-4.5 179.5t-4 151q-90 -29 -158.5 -91t-116.5 -143t-73.5 -173t-31 -178z" />
<glyph unicode="&#x178;" horiz-adv-x="864" d="M-11 1316q5 32 34 52q29 18 60.5 12t49.5 -32q47 -68 94 -118t97 -100q43 -41 85 -85t83 -97q55 104 103 215t71 230q6 33 33.5 51t60.5 12t51 -33.5t12 -60.5q-33 -158 -95 -294t-134 -265q2 -10 2 -27q-4 -23 -17.5 -39t-31.5 -24q-43 -78 -80 -155t-64.5 -155.5 t-41 -160.5t-7.5 -170q2 -31 -17.5 -55.5t-49.5 -28.5q-6 -2 -17 -2q-35 0 -61 20q-37 29 -47 84q-4 23 6 43.5t27 34.5q4 86 22.5 167t48 157.5t66.5 151.5t76 147q-47 70 -95.5 122t-99.5 105q-53 51 -105.5 106.5t-105.5 130.5q-18 29 -13 61zM125 1616q4 35 33.5 57.5 t66.5 16.5q35 -4 56.5 -30t19.5 -58q16 -29 10 -62t-32 -53q-25 -18 -56 -19q-45 0 -69 35q-39 51 -29 113zM452 1560.5q1 32.5 23 57.5q23 23 51 27q45 6 74 -23q47 -43 47 -106q2 -35 -23.5 -63t-64.5 -28q-35 0 -59.5 21.5t-28.5 54.5q-20 27 -19 59.5z" />
<glyph unicode="&#x2c6;" horiz-adv-x="772" d="M5.5 1481q0.5 26 23.5 49q39 37 77.5 70.5t79.5 66.5q41 31 78 61.5t74 63.5q27 25 63 14q12 -2 29 -14q41 -35 78 -73t74 -72q67 -73 141 -136q23 -18 24 -45.5t-18 -50.5q-18 -23 -46 -23.5t-50 17.5q-41 35 -77 69.5t-71 71.5q-25 23 -50 48.5t-52 50.5 q-29 -25 -55.5 -47.5t-55.5 -45.5q-37 -31 -74.5 -62.5t-76.5 -63.5v-3q-23 -18 -50.5 -18t-45.5 23q-20 23 -19.5 49z" />
<glyph unicode="&#x2dc;" horiz-adv-x="669" d="M19 1730.5q6 24.5 28 38.5q55 33 103.5 43.5t88.5 5t72.5 -19.5t59.5 -29q25 -12 45 -21t41.5 -12t45 2t54.5 21q23 14 47.5 8t36.5 -28q14 -23 7 -48.5t-30 -37.5q-41 -23 -76.5 -33t-66.5 -10q-49 0 -89 16t-73 33q-25 12 -47 22.5t-44.5 12.5t-49.5 -5.5t-59 -27.5 q-23 -10 -47.5 -5t-38.5 27q-14 23 -8 47.5z" />
<glyph unicode="&#x2000;" horiz-adv-x="991" />
<glyph unicode="&#x2001;" horiz-adv-x="1982" />
<glyph unicode="&#x2002;" horiz-adv-x="991" />
<glyph unicode="&#x2003;" horiz-adv-x="1982" />
<glyph unicode="&#x2004;" horiz-adv-x="660" />
<glyph unicode="&#x2005;" horiz-adv-x="495" />
<glyph unicode="&#x2006;" horiz-adv-x="330" />
<glyph unicode="&#x2007;" horiz-adv-x="330" />
<glyph unicode="&#x2008;" horiz-adv-x="247" />
<glyph unicode="&#x2009;" horiz-adv-x="396" />
<glyph unicode="&#x200a;" horiz-adv-x="110" />
<glyph unicode="&#x2010;" horiz-adv-x="759" d="M37 657q0 37 24.5 62.5t65.5 25.5q70 0 137.5 -4t132.5 -8q66 -4 127.5 -7t124.5 -3q37 0 62.5 -26.5t25.5 -63.5t-25.5 -62.5t-62.5 -25.5q-68 0 -133 4t-131 8q-63 4 -127.5 7t-130.5 3q-37 0 -63.5 27t-26.5 63z" />
<glyph unicode="&#x2011;" horiz-adv-x="759" d="M37 657q0 37 24.5 62.5t65.5 25.5q70 0 137.5 -4t132.5 -8q66 -4 127.5 -7t124.5 -3q37 0 62.5 -26.5t25.5 -63.5t-25.5 -62.5t-62.5 -25.5q-68 0 -133 4t-131 8q-63 4 -127.5 7t-130.5 3q-37 0 -63.5 27t-26.5 63z" />
<glyph unicode="&#x2012;" horiz-adv-x="759" d="M37 657q0 37 24.5 62.5t65.5 25.5q70 0 137.5 -4t132.5 -8q66 -4 127.5 -7t124.5 -3q37 0 62.5 -26.5t25.5 -63.5t-25.5 -62.5t-62.5 -25.5q-68 0 -133 4t-131 8q-63 4 -127.5 7t-130.5 3q-37 0 -63.5 27t-26.5 63z" />
<glyph unicode="&#x2013;" horiz-adv-x="759" d="M37 657q0 37 24.5 62.5t65.5 25.5q70 0 137.5 -4t132.5 -8q66 -4 127.5 -7t124.5 -3q37 0 62.5 -26.5t25.5 -63.5t-25.5 -62.5t-62.5 -25.5q-68 0 -133 4t-131 8q-63 4 -127.5 7t-130.5 3q-37 0 -63.5 27t-26.5 63z" />
<glyph unicode="&#x2014;" horiz-adv-x="1603" d="M2 723q-2 37 22.5 63.5t61.5 28.5q53 2 136 4t171 4t169 2h134q68 -2 135.5 -4t137.5 -6q131 -6 263 -11t263 3q37 2 63.5 -23.5t30.5 -60.5q2 -37 -23.5 -64.5t-62.5 -29.5q-41 -2 -83 -3t-83 -1q-96 0 -190 4t-186 8q-68 4 -134.5 6t-134.5 4q-51 2 -131 1t-166 -2 t-167 -3t-134 -4q-37 -4 -63.5 21.5t-28.5 62.5z" />
<glyph unicode="&#x2018;" horiz-adv-x="221" d="M8 1425q-10 37 8.5 69t53.5 42t67.5 -8.5t42.5 -52.5q14 -53 14.5 -102.5t-1.5 -96.5q-2 -39 -2.5 -76t10.5 -70q10 -35 -7.5 -67.5t-52.5 -42.5q-16 -4 -24 -4q-29 0 -52.5 17.5t-33.5 45.5q-16 53 -17.5 105.5t0.5 99.5q4 39 4 75t-10 66z" />
<glyph unicode="&#x2019;" horiz-adv-x="221" d="M8 1425q-10 37 8.5 69t53.5 42t67.5 -8.5t42.5 -52.5q14 -53 14.5 -102.5t-1.5 -96.5q-2 -39 -2.5 -76t10.5 -70q10 -35 -7.5 -67.5t-52.5 -42.5q-16 -4 -24 -4q-29 0 -52.5 17.5t-33.5 45.5q-16 53 -17.5 105.5t0.5 99.5q4 39 4 75t-10 66z" />
<glyph unicode="&#x201a;" horiz-adv-x="221" d="M14 207q-10 37 8.5 68.5t53.5 41.5t67.5 -8t42.5 -53q14 -53 14.5 -102.5t-1.5 -96.5q-2 -39 -2 -75.5t10 -69.5q10 -35 -7.5 -67.5t-52.5 -43.5q-16 -4 -24 -4q-29 0 -52.5 17.5t-33.5 46.5q-16 53 -17.5 105t0.5 100q4 39 4.5 74.5t-10.5 66.5z" />
<glyph unicode="&#x201c;" horiz-adv-x="509" d="M8 963q0 45 3 103t9.5 119.5t14.5 122t20 109.5q8 35 40 55.5t67 10.5q35 -8 55.5 -40t9.5 -67q-10 -43 -17 -96t-12 -109.5t-8.5 -110.5t-3.5 -97q0 -37 -26.5 -63t-63.5 -26t-62.5 26t-25.5 63zM266 954q6 39 11.5 85t9.5 94q10 92 17 149t22 92q14 35 47.5 49t68.5 0 t49.5 -48t-2.5 -68q-4 -10 -7 -32t-6 -49.5t-7 -57t-6 -54.5q-4 -49 -9 -98t-14 -90q-4 -33 -29.5 -53.5t-56.5 -20.5h-16q-35 6 -56.5 37t-15.5 65z" />
<glyph unicode="&#x201d;" horiz-adv-x="509" d="M8 963q0 45 3 103t9.5 119.5t14.5 122t20 109.5q8 35 40 55.5t67 10.5q35 -8 55.5 -40t9.5 -67q-10 -43 -17 -96t-12 -109.5t-8.5 -110.5t-3.5 -97q0 -37 -26.5 -63t-63.5 -26t-62.5 26t-25.5 63zM266 954q6 39 11.5 85t9.5 94q10 92 17 149t22 92q14 35 47.5 49t68.5 0 t49.5 -48t-2.5 -68q-4 -10 -7 -32t-6 -49.5t-7 -57t-6 -54.5q-4 -49 -9 -98t-14 -90q-4 -33 -29.5 -53.5t-56.5 -20.5h-16q-35 6 -56.5 37t-15.5 65z" />
<glyph unicode="&#x201e;" horiz-adv-x="473" d="M14 207q-10 37 8.5 68.5t53.5 41.5t67.5 -8t42.5 -53q14 -53 14.5 -102.5t-1.5 -96.5q-2 -39 -2 -75.5t10 -69.5q10 -35 -7.5 -67.5t-52.5 -43.5q-16 -4 -24 -4q-29 0 -52.5 17.5t-33.5 46.5q-16 53 -17.5 105t0.5 100q4 39 4.5 74.5t-10.5 66.5zM261 -24.5 q3 51.5 9 98.5q8 39 11.5 73.5t-2.5 67.5q-6 37 15 67.5t56 36.5q37 6 66.5 -15t38.5 -56q10 -53 4 -103.5t-10 -95.5q-6 -39 -9.5 -75.5t2.5 -69.5q6 -37 -14 -68t-55 -37q-18 -4 -27 -2q-29 4 -50.5 23.5t-27.5 48.5q-10 55 -7 106.5z" />
<glyph unicode="&#x2022;" horiz-adv-x="358" d="M41 770q8 51 52.5 85t99.5 26q51 -8 83.5 -46t28.5 -87q23 -43 14.5 -92.5t-47.5 -80.5q-18 -14 -39.5 -20t-44.5 -6q-29 0 -57.5 13t-46.5 38q-55 74 -43 170z" />
<glyph unicode="&#x2026;" horiz-adv-x="776" d="M10 150q4 35 34 57t67 16q35 -4 56 -29.5t19 -58.5q16 -29 10 -61.5t-32 -53.5q-25 -18 -55 -18q-45 0 -70 35q-39 51 -29 113zM295 152q8 35 38.5 55t67.5 12q35 -8 54.5 -34.5t15.5 -59.5q12 -31 4 -62.5t-37 -50.5q-29 -16 -55 -14q-45 4 -68 39q-33 51 -20 115z M549 123q29 59 86 80q35 12 68 -4.5t45 -51.5q12 -33 -1.5 -63.5t-41.5 -44.5q-18 -27 -50 -37t-61 4q-31 14 -43 39q-20 41 -2 78z" />
<glyph unicode="&#x202f;" horiz-adv-x="396" />
<glyph unicode="&#x2039;" horiz-adv-x="1226" d="M16 784q-2 29 12.5 51.5t39.5 32.5l120 60q57 29 137.5 67.5t168.5 81.5l176 86t160.5 81t123 64.5t64.5 37.5q31 23 66.5 17.5t58.5 -36.5q23 -29 17.5 -64.5t-36.5 -58.5q-41 -33 -250.5 -138t-572.5 -280q53 -31 117.5 -69.5t144.5 -85.5q76 -47 163 -98.5t167 -97.5 t141 -79t90 -41q35 -10 52.5 -42.5t7.5 -67.5q-10 -29 -34 -46.5t-52 -17.5q-16 0 -25 4q-66 20 -219.5 107.5t-382.5 226.5q-61 37 -123.5 74t-118 68.5t-96.5 55t-59 30.5q-53 20 -58 77z" />
<glyph unicode="&#x203a;" horiz-adv-x="1179" d="M37 1282.5q-4 36.5 18 65.5q23 29 60 32.5t65 -18.5q29 -23 86.5 -55.5t131 -71.5t157.5 -81t166 -81q102 -49 194 -95t160 -83q39 -23 45 -64q6 -43 -20 -73q-29 -31 -89.5 -83t-139 -113.5t-171 -128t-181.5 -129t-169 -115t-135 -85.5q-25 -10 -43 -10q-53 0 -78 43 q-18 33 -9 69t42 54q68 39 168 106.5t207.5 143.5t208 152.5t170.5 134.5q-53 27 -113.5 56.5t-124.5 59.5q-94 45 -182 89.5t-164 84t-135.5 74.5t-91.5 62q-29 23 -33 59.5z" />
<glyph unicode="&#x205f;" horiz-adv-x="495" />
<glyph unicode="&#x20ac;" horiz-adv-x="1310" d="M-13 716.5q7 28.5 29 49.5q8 63 24.5 124.5t39.5 121.5q43 111 121 186.5t180 114.5t225 40t258 -42q41 -12 89 -30.5t93.5 -45.5t84 -61.5t61.5 -81.5q16 -35 4 -69t-47 -50q-33 -16 -67.5 -4t-51.5 45q-4 10 -16.5 24.5t-37 30.5t-64.5 34.5t-101 37.5q-78 25 -163 32 t-161.5 -13.5t-140 -72t-100.5 -143.5q-20 -49 -37 -113q76 14 164 23.5t176 16t171 10.5t146.5 6t102.5 2h41q37 0 62.5 -26.5t25.5 -63.5t-25.5 -62.5t-62.5 -25.5q-82 0 -195 -4.5t-229.5 -12.5t-224 -20t-177.5 -29q0 -33 2 -64.5t7 -62.5q59 14 133.5 26.5t151.5 21.5 t149.5 15.5t130 9.5t92.5 5t37 2q37 0 62.5 -25.5t25.5 -62.5t-25.5 -62.5t-62.5 -25.5q-45 0 -127 -6t-175 -16.5t-184.5 -22.5t-152.5 -27q25 -45 58.5 -82t78.5 -65q63 -37 137 -59.5t148.5 -23.5t146.5 23.5t129 81.5l10 8q57 57 99.5 106.5t74.5 125.5q16 33 50 47 t67 -2q35 -16 48.5 -49t-1.5 -68q-43 -98 -96 -160.5t-117 -123.5l-10 -11q-78 -78 -180.5 -116.5t-216.5 -38.5q-92 0 -189.5 26.5t-189.5 81.5q-90 53 -148.5 128t-93.5 167q-2 2 -3 2t-3 2q-10 14 -12 28.5t-2 29.5q-31 110 -27 237q-8 8 -10 14q-16 29 -9 57.5z" />
<glyph unicode="&#x2122;" horiz-adv-x="1181" d="M8 1393q-4 33 14.5 58.5t51.5 31.5q53 8 114.5 12t94.5 2q43 -2 66.5 -3t37.5 -5q10 0 15.5 -1t15.5 1q20 33 61 37q8 0 28.5 -2t41.5 -21q4 -4 5 -6t5 -4q31 -25 31 -61q2 -29 -15.5 -50.5t-44.5 -27.5q-37 -10 -60.5 -15.5t-39.5 -7.5t-30.5 -1t-32.5 3q2 -47 2 -111.5 t-4 -144.5q-2 -47 -3.5 -95t0.5 -69q4 -10 5 -28q-2 -33 -25 -54.5t-53 -21.5h-4q-31 0 -48.5 13.5t-23.5 44t-6 84t2 132.5q0 27 1 60t1 67.5v68.5v60q-29 -2 -57.5 -5t-55.5 -7h-12q-29 0 -51.5 18.5t-26.5 47.5zM487 856q-12 31 0 59q14 37 36 113t40.5 155t30.5 145.5 t12 86.5q-2 31 18.5 54.5t51.5 27.5t56.5 -14.5t29.5 -48.5q6 -37 22.5 -79t34.5 -83q4 -12 9.5 -24.5t11.5 -22.5q6 25 16 57q14 39 30.5 83t33.5 79q27 49 84 43q27 -4 44 -22.5t21 -45.5q6 -47 17.5 -94t23.5 -96q10 -39 19.5 -79t17.5 -83q2 -12 4 -23.5t6 -25.5 q6 -29 12.5 -61.5t6.5 -63.5q2 -35 -20.5 -57.5t-55.5 -24.5q-31 2 -55.5 23.5t-24.5 54.5q-2 20 -7 44.5t-9 51.5l-13 55l-8 40t-8 42q-4 -16 -9 -31.5t-12 -31.5q-6 -16 -16 -35q-12 -27 -14 -37v-6q0 -33 -21.5 -55.5t-54.5 -22.5t-55.5 21.5t-24.5 54.5v6 q-2 18 -15.5 48t-25.5 54q-4 10 -8 18.5t-8 16.5q-20 -84 -41 -157.5t-37 -108.5q-20 -49 -72 -49q-16 0 -31 6q-31 12 -43 43z" />
<glyph unicode="&#x25fc;" horiz-adv-x="1495" d="M0 0v1495h1495v-1495h-1495z" />
<glyph unicode="&#xfb01;" horiz-adv-x="1607" d="M12 1337q-16 37 4 74q18 35 62 41q76 8 169 14.5t198.5 9.5t218 5t225.5 4q158 4 300 7t247 11q33 4 58.5 -18.5t27.5 -57.5q4 -35 -18.5 -59.5t-57.5 -28.5q-72 -4 -161 -7t-189 -5q18 -135 22 -278.5t2 -287t-7 -282.5t-1 -266q4 -2 10 -8q78 4 151 2t130 -14 q35 -6 53.5 -34t11.5 -63q-8 -33 -35.5 -51t-60.5 -12q-53 10 -129 10t-156 -4l-8 -4t-8 -2t-6 -1t-6 -1q-6 0 -19 4q-82 -8 -152.5 -17.5t-111.5 -17.5h-14q-29 0 -52.5 19.5t-27.5 48.5q-6 35 13.5 61.5t54.5 32.5q4 2 60 10t140 18q6 147 10.5 287.5t2.5 279t-9.5 279 t-21.5 287.5h-39q-188 -4 -369.5 -9t-324.5 -16q23 -86 33 -178t18 -180q2 -23 3 -43t5 -41q55 18 117.5 27.5t122 11.5t109.5 -1t79 -7q35 -4 53.5 -32t14.5 -60q-4 -35 -32 -54.5t-60 -15.5q-47 8 -108.5 7t-121 -7t-108 -19.5t-64.5 -29.5v-82q0 -55 -1 -128t0 -143.5 t3 -127t8 -80.5q12 -20 12.5 -45t-16.5 -45q-25 -35 -65 -35q-27 0 -49 16q-18 14 -30.5 38t-19 83t-7.5 170t1 299q2 74 2 140.5t-2 88.5q-4 25 -5 49.5t-5 51.5q-8 106 -22.5 215.5t-51.5 195.5z" />
<glyph unicode="&#xfb02;" horiz-adv-x="1951" d="M10 1378q-18 41 4 76q18 37 64 43q158 18 287 22.5t260 8.5q88 4 181 6t200 10h2h2q4 0 5 -1t3 -1q33 0 51 -22l4 -4q8 -8 14 -21q4 -12 5 -16q4 -8 4 -15v-2v-2q0 -41 -4.5 -110.5t-11.5 -147.5t-16 -157.5t-15 -143.5l-11 -84q-16 -166 -48 -321.5t-62 -278.5 q98 0 206.5 11.5t219.5 23.5q129 16 249 26.5t226 6.5q35 0 58.5 -26t21.5 -60q0 -35 -25.5 -59.5t-60.5 -22.5q-98 4 -212 -7.5t-237 -25.5q-117 -14 -231.5 -25.5t-222.5 -11.5q-29 0 -55.5 1t-51.5 3q-39 2 -63 37q-23 31 -13 70q35 125 74 302t59 376l11 84q4 45 10 102 t12 118.5t11.5 121t9.5 108.5q-80 -4 -153 -6t-142 -4q-104 -4 -207 -7t-219 -14q25 -90 35 -184t18 -186q2 -23 3 -44.5t5 -43.5q55 18 121 27.5t127 12.5t112.5 0t82.5 -8q35 -4 55 -32.5t14 -63.5q-4 -35 -32.5 -55.5t-63.5 -13.5q-47 6 -111.5 6t-126 -7.5t-110.5 -19.5 t-66 -31v-86q0 -57 -1 -132t0 -147.5t3 -132t8 -83.5q12 -20 12.5 -46t-16.5 -49q-12 -16 -30.5 -25t-36.5 -9q-25 0 -51 16q-18 14 -30.5 39t-19 87t-7.5 176t1 308v76v70v56.5t-2 35.5q-2 25 -4 50.5t-4 53.5q-10 111 -24.5 224.5t-53.5 199.5z" />
</font>
</defs>
</svg>
