<?xml version="1.0" encoding="utf-8"?>
<!-- Generator: Adobe Illustrator 16.0.0, SVG Export Plug-In . SVG Version: 6.00 Build 0)  -->
<!DOCTYPE svg PUBLIC "-//W3C//DTD SVG 1.1//EN" "http://www.w3.org/Graphics/SVG/1.1/DTD/svg11.dtd">
<svg version="1.1" id="google_x2B_" xmlns="http://www.w3.org/2000/svg" xmlns:xlink="http://www.w3.org/1999/xlink" x="0px"
	 y="0px" width="1000px" height="1000px" viewBox="0 0 1000 1000" enable-background="new 0 0 1000 1000" xml:space="preserve">
<g>
	<path fill="#010101" d="M627.581,661.882c-9.152-12.771-20.007-24.902-32.351-35.97c-12.132-10.96-24.263-21.708-35.863-31.926
		l-41.076-32.031c-5.534-4.895-11.706-10.854-18.198-17.771c-4.682-4.895-6.917-12.132-6.917-21.922
		c0-10.109,2.448-18.091,7.556-24.263c6.277-7.77,13.089-15.219,20.219-22.348c12.131-9.152,23.944-18.943,35.331-29.159
		c11.918-10.748,22.772-22.773,32.244-35.863c9.79-13.408,17.559-28.838,23.198-45.865c5.641-17.027,8.514-37.033,8.514-59.381
		c0-22.454-3.299-42.886-9.791-60.87c-6.385-17.453-14.047-32.989-22.879-46.292c-8.727-13.196-18.091-24.583-27.774-33.841
		c-0.213-0.212-0.427-0.532-0.532-0.532h41.821L717.184,100H436.988c-31.606,0-66.192,4.044-102.798,11.812
		c-37.672,7.875-73.854,25.965-107.694,53.527l-0.319,0.32c-25.328,22.241-44.695,47.781-57.465,76.088
		s-19.155,56.827-19.155,84.814c0,23.306,4.469,46.717,13.302,69.491c8.833,22.879,21.921,43.524,38.736,61.189
		c16.92,17.666,37.991,32.138,62.786,42.993c24.795,10.854,53.528,16.281,85.24,16.281c6.066,0,12.131-0.213,17.984-0.532
		c-0.319,0.745-0.532,1.49-0.851,2.235c-2.767,7.769-4.043,17.026-4.043,28.307c0,19.581,4.256,36.396,12.557,49.909
		c3.512,5.747,7.13,11.386,10.961,16.815c-7.449,0.531-15.431,1.17-23.944,1.914c-17.771,1.49-36.926,4.257-56.826,8.087
		c-20.006,3.833-40.545,9.153-60.871,15.645c-20.858,6.703-40.545,15.643-58.636,26.604c-35.118,20.751-59.806,45.545-73.215,73.64
		c-13.195,27.562-19.9,52.782-19.9,74.918c0,22.985,5.427,45.121,16.069,66.085c10.642,20.856,27.03,39.588,48.845,55.763
		c21.497,15.856,48.42,28.732,80.238,38.098c31.606,9.363,68.746,14.152,110.568,14.152c49.377,0,93.966-6.491,132.489-19.367
		c38.523-12.876,71.3-30.011,97.265-50.868c26.18-21.069,46.291-45.439,59.914-72.682c13.621-27.35,20.538-55.444,20.538-83.646
		c0-20.963-2.874-39.798-8.621-56.187C644.501,689.656,636.946,674.863,627.581,661.882z M405.808,667.946
		c10.642-0.532,14.26-0.638,15.325-0.638h14.153c2.128,0,4.576,0.319,7.342,0.638c20.219,14.475,38.098,27.669,52.997,39.057
		c15.11,11.491,27.456,22.773,36.82,33.521c8.939,10.322,15.749,20.964,20.113,31.394c4.257,10.216,6.491,21.815,6.491,34.585
		c0,32.031-12.451,57.783-38.098,78.643c-26.072,21.176-65.34,31.926-116.633,31.926c-58.422,0-105.14-12.238-138.767-36.29
		c-32.883-23.518-48.952-52.994-48.952-90.135c0-18.196,3.512-33.309,10.322-45.015c7.023-12.557,15.537-22.986,25.114-31.073
		c9.684-8.301,19.581-14.792,29.478-19.155c10.322-4.683,18.623-8.087,24.476-10.321c11.493-3.618,23.625-6.705,35.969-9.26
		c12.238-2.554,24.05-4.469,35.012-5.532C388.355,669.118,397.721,668.267,405.808,667.946z M496.582,358.061
		c0,9.791-1.489,22.454-4.363,37.565c-2.554,13.621-9.364,25.752-20.538,37.033c-7.981,7.981-18.304,14.792-30.861,20.219
		c-12.451,5.427-25.115,8.087-37.778,8.087c-21.604,0-39.801-6.065-55.55-18.516c-16.495-12.983-30.329-29.265-41.29-48.314
		c-11.067-19.368-19.475-40.544-24.795-62.892c-5.427-22.454-8.194-42.993-8.194-60.977c0-14.153,1.596-28.201,4.789-41.609
		c2.98-12.557,8.833-24.37,17.559-35.118c7.875-9.896,18.303-17.984,30.967-23.944c12.664-6.065,25.859-9.045,39.162-9.045
		c20.858,0,38.629,6.066,54.485,18.517c16.495,12.983,30.542,29.69,41.822,49.484c11.493,20.219,20.219,42.141,25.966,65.233
		C493.708,317.09,496.582,338.693,496.582,358.061z"/>
	<polygon fill="#010101" points="785.185,476.822 785.185,357.636 723.463,357.636 723.463,476.822 601.083,476.822 
		601.083,540.672 723.463,540.672 723.463,663.052 785.185,663.052 785.185,540.672 907.564,540.672 907.564,476.822 	"/>
</g>
</svg>
