<?xml version="1.0" encoding="utf-8"?>
<!-- Generator: Adobe Illustrator 16.0.0, SVG Export Plug-In . SVG Version: 6.00 Build 0)  -->
<!DOCTYPE svg PUBLIC "-//W3C//DTD SVG 1.1//EN" "http://www.w3.org/Graphics/SVG/1.1/DTD/svg11.dtd">
<svg version="1.1" id="linkedIn" xmlns="http://www.w3.org/2000/svg" xmlns:xlink="http://www.w3.org/1999/xlink" x="0px" y="0px"
	 width="1000px" height="1000px" viewBox="0 0 1000 1000" enable-background="new 0 0 1000 1000" xml:space="preserve">
<g>
	<path fill="#010101" d="M260.664,187.75c0,47.794-36.487,86.693-93.48,86.693c-54.73,0-91.217-38.748-90.011-86.693
		C75.967,137.542,112.454,100,168.391,100C224.177,100,259.457,137.542,260.664,187.75z M81.697,900V342.744h173.237V900H81.697z"/>
	<path fill="#010101" d="M393.946,520.504c0-69.505-2.262-128.759-4.522-177.76h150.47l7.992,76.291h3.467
		c22.767-35.282,79.758-88.956,172.031-88.956c113.985,0,199.472,75.235,199.472,239.276V900H749.619V591.218
		c0-71.77-25.029-120.771-87.75-120.771c-47.795,0-76.291,33.021-87.75,64.984c-4.523,10.252-6.785,27.289-6.785,43.271V900H393.946
		V520.504z"/>
</g>
</svg>
