<?xml version="1.0" encoding="utf-8"?>
<!-- Generator: Adobe Illustrator 16.0.0, SVG Export Plug-In . SVG Version: 6.00 Build 0)  -->
<!DOCTYPE svg PUBLIC "-//W3C//DTD SVG 1.1//EN" "http://www.w3.org/Graphics/SVG/1.1/DTD/svg11.dtd">
<svg version="1.1" id="twitter" xmlns="http://www.w3.org/2000/svg" xmlns:xlink="http://www.w3.org/1999/xlink" x="0px" y="0px"
	 width="1000px" height="1000px" viewBox="0 0 1000 1000" enable-background="new 0 0 1000 1000" xml:space="preserve">
<path id="logo" fill="#010101" d="M935.1,226.781c26.601-26.6,30.601-65.2,30.601-65.2s-33.3,22.6-65.2,35.9
	c-32,13.3-55.9,17.3-55.9,17.3s-8-51.9-111.8-62.6c-103.8-10.7-163.7,46.6-197,94.5c-33.3,47.9-21.3,143.8-21.3,143.8
	s-125.1-14.6-222.3-58.6c-97.2-43.9-177.1-146.4-177.1-146.4s-12,16-20,37.3c-8,21.3-12,54.6-2.7,114.5
	c9.3,59.9,77.2,103.8,77.2,107.8s-21.3,1.3-43.9-4c-22.6-5.3-41.3-17.3-41.3-17.3s4,71.899,41.3,121.099
	c37.3,49.301,111.8,70.6,111.8,70.6s-22.6,8-39.9,8c-17.3,0-42.6-8-42.6-8s1.3,38.602,51.9,86.5
	c50.6,47.9,123.8,50.602,123.8,50.602s-24,25.299-98.5,58.6c-74.5,33.299-181,24-181,24s8.7,7.9,25.7,19.1
	c67.8,38.5,144.5,63,226.4,69.6c44.4,2.4,94.5-0.4,150-11.5c38.101-7.6,72.101-16.799,102.8-27.4
	c170.5-69.799,298.2-222.799,332.5-408.599c9.301-72,5.2-132.4,5.2-132.4s33.3-26.6,51.9-39.9c18.6-13.3,46.6-58.6,46.6-58.6
	l-102.5,25.3C889.8,270.781,908.5,253.381,935.1,226.781z"/>
</svg>
