<?xml version="1.0" encoding="utf-8"?>
<!-- Generator: Adobe Illustrator 16.0.0, SVG Export Plug-In . SVG Version: 6.00 Build 0)  -->
<!DOCTYPE svg PUBLIC "-//W3C//DTD SVG 1.1//EN" "http://www.w3.org/Graphics/SVG/1.1/DTD/svg11.dtd">
<svg version="1.1" xmlns="http://www.w3.org/2000/svg" xmlns:xlink="http://www.w3.org/1999/xlink" x="0px" y="0px" width="250px"
	 height="202.054px" viewBox="0 0 250 202.054" enable-background="new 0 0 250 202.054" xml:space="preserve">
<g id="Layer_1" display="none">
	
		<image display="inline" overflow="visible" width="2197" height="1462" xlink:href="../../../../../../Desktop/pencil.jpg"  transform="matrix(0.4268 0 0 0.4268 -145.7065 -27.0005)">
	</image>
	
		<image overflow="visible" width="2197" height="1462" xlink:href="../../../../../../Desktop/pencil.jpg"  transform="matrix(1 0 0 1 -773.9995 -441.0005)">
	</image>
</g>
<g id="Layer_5">
</g>
<g id="Layer_2">
</g>
<g id="Layer_3">
	<polygon fill="#783535" points="232.876,6.849 236.301,13.698 232.876,20.547 	"/>
	<polygon fill="#F7F6F5" points="0,178.082 13.699,160.958 20.547,160.958 	"/>
	<polygon fill="#2D2827" points="23.972,167.808 20.547,160.958 0,178.082 	"/>
	<polygon fill="#EBCFBC" points="13.699,160.958 51.37,116.438 20.547,160.958 	"/>
	<polygon fill="#754732" points="65.068,126.712 65.068,136.986 20.547,160.958 	"/>
	<polygon fill="#724134" points="65.068,136.986 71.917,150.684 20.547,160.958 	"/>
	<polygon fill="#562D1F" points="75.342,140.411 71.917,150.684 65.068,136.986 	"/>
	<polygon fill="#E0C9B8" points="51.37,116.438 65.068,126.712 20.547,160.958 	"/>
	<polygon fill="#6F3411" points="71.917,150.684 126.712,106.164 75.342,140.411 	"/>
	<polygon fill="#623010" points="184.932,61.644 126.712,106.164 188.356,51.37 	"/>
	<polygon fill="#8F4414" points="75.342,140.411 188.356,51.37 126.712,106.164 	"/>
	<polygon fill="#94400D" points="65.068,136.986 82.192,113.013 75.342,140.411 	"/>
	<polygon fill="#8F3A0C" points="65.068,126.712 82.192,113.013 65.068,136.986 	"/>
	<polygon fill="#9A4211" points="75.342,140.411 188.356,51.37 82.192,113.013 	"/>
	<polygon fill="#9B4312" points="184.932,37.671 188.356,51.37 82.192,113.013 	"/>
	<polygon fill="#DC7311" points="181.507,37.671 184.932,37.671 82.192,113.013 	"/>
	<polygon fill="#F3AD2B" points="65.068,126.712 82.192,113.013 51.37,116.438 	"/>
	<polygon fill="#F5B530" points="109.588,75.342 82.192,113.013 51.37,116.438 	"/>
	<polygon fill="#F2B129" points="181.507,37.671 109.588,75.342 82.192,113.013 	"/>
	<polygon fill="#F7BB3B" points="167.808,30.822 109.588,75.342 181.507,37.671 	"/>
	<polygon fill="#D0C9C5" points="181.507,20.547 167.808,30.822 181.507,37.671 	"/>
	<polygon fill="#928277" points="188.356,30.822 181.507,37.671 184.932,37.671 	"/>
	<polygon fill="#F6F3F5" points="181.507,20.547 195.205,23.972 188.356,30.822 	"/>
	<polygon fill="#C8C2BD" points="181.507,37.671 181.507,20.547 188.356,30.822 	"/>
	<polygon fill="#8C7D74" points="184.932,37.671 195.205,37.671 188.356,30.822 	"/>
	<polygon fill="#988E84" points="188.356,51.37 195.205,37.671 184.932,37.671 	"/>
	<polygon fill="#393939" points="195.205,54.794 188.356,51.37 184.932,61.644 	"/>
	<polygon fill="#BEBDBA" points="195.205,37.671 195.205,54.794 188.356,51.37 	"/>
	<polygon fill="#94908C" points="202.054,47.945 195.205,54.794 195.205,37.671 	"/>
	<polygon fill="#89807A" points="212.329,41.096 202.054,47.945 208.904,30.822 	"/>
	<polygon fill="#C3BEBB" points="195.205,37.671 208.904,30.822 202.054,47.945 	"/>
	<polygon fill="#B1A79E" points="188.356,30.822 195.205,23.972 195.205,37.671 	"/>
	<polygon fill="#928981" points="208.904,30.822 195.205,23.972 195.205,37.671 	"/>
	<polygon fill="#5E5C5B" points="212.329,41.096 222.603,30.822 208.904,30.822 	"/>
	<polygon fill="#B6B4B3" points="222.603,20.547 222.603,30.822 208.904,30.822 	"/>
	<polygon fill="#B4B2B0" points="195.205,23.972 205.479,10.274 208.904,30.822 	"/>
	<polygon fill="#B6B6B5" points="222.603,20.547 205.479,10.274 208.904,30.822 	"/>
	<polygon fill="#9E9589" points="215.753,10.274 222.603,20.547 205.479,10.274 	"/>
	<polygon fill="#C3BCB8" points="205.479,6.849 205.479,10.274 215.753,10.274 	"/>
	<polygon fill="#D6D1CE" points="198.63,10.274 205.479,10.274 205.479,6.849 	"/>
	<polygon fill="#C2BBB5" points="181.507,20.547 198.63,10.274 195.205,23.972 	"/>
	<polygon fill="#FCFEFB" points="205.479,10.274 195.205,23.972 198.63,10.274 	"/>
	<polygon fill="#F7AFB1" points="215.753,0 205.479,6.849 215.753,10.274 	"/>
	<polygon fill="#F69697" points="226.027,0 215.753,10.274 215.753,0 	"/>
	<polygon fill="#994545" points="232.876,6.849 226.027,0 222.603,20.547 	"/>
	<polygon fill="#BB5A59" points="215.753,10.274 222.603,20.547 226.027,0 	"/>
	<polygon fill="#732B2F" points="232.876,6.849 232.876,20.547 222.603,20.547 	"/>
	<polygon fill="#783236" points="222.603,20.547 222.603,30.822 226.027,27.397 	"/>
	<polygon fill="#763739" points="232.876,20.547 226.027,27.397 222.603,20.547 	"/>
	<polygon fill="#6E493D" points="20.547,160.958 44.52,160.958 23.972,167.808 	"/>
	<polyline fill="#79564E" points="71.917,150.684 44.52,160.958 20.547,160.958 71.917,150.684 	"/>
</g>
<g id="Layer_4">
	<polygon opacity="0.5" fill="#271D19" points="71.917,150.684 68.493,178.082 44.52,160.958 	"/>
	<polygon opacity="0.5" fill="#514848" points="10.274,202.054 68.493,178.082 44.52,160.958 	"/>
	<polygon opacity="0.5" fill="#4C382F" points="71.917,150.684 119.863,147.259 126.712,106.164 	"/>
	<polygon opacity="0.5" fill="#4E4740" points="68.493,178.082 71.917,150.684 89.041,171.232 	"/>
	<polygon opacity="0.5" fill="#534541" points="119.863,147.259 89.041,171.232 71.917,150.684 	"/>
	<polygon opacity="0.5" fill="#473228" points="184.932,61.644 167.808,106.164 126.712,106.164 	"/>
	<polygon opacity="0.5" fill="#414040" points="195.205,54.794 202.054,78.767 184.932,61.644 	"/>
	<polygon opacity="0.5" fill="#584A48" points="119.863,147.259 167.808,106.164 126.712,106.164 	"/>
	<polygon opacity="0.5" fill="#584B48" points="184.932,61.644 167.808,106.164 202.054,78.767 	"/>
	<polygon opacity="0.5" fill="#404040" points="202.054,47.945 212.329,71.917 195.205,54.794 	"/>
	<polygon opacity="0.5" fill="#494949" points="212.329,41.096 226.027,61.643 202.054,47.945 	"/>
	<polygon opacity="0.5" fill="#5A5754" points="202.054,78.767 212.329,71.917 195.205,54.794 	"/>
	<polygon opacity="0.5" fill="#585657" points="226.027,61.643 212.329,71.917 202.054,47.945 	"/>
	<polygon opacity="0.5" fill="#463F3E" points="212.329,41.096 236.789,51.623 222.603,30.822 	"/>
	<polygon opacity="0.5" fill="#5B5958" points="226.027,61.643 236.789,51.623 212.329,41.096 	"/>
	<polygon opacity="0.5" fill="#4D3D3B" points="222.603,30.822 226.027,27.397 250,37.671 	"/>
	<polygon opacity="0.5" fill="#645B5B" points="236.789,51.623 250,37.671 222.603,30.822 	"/>
</g>
</svg>
