<?xml version="1.0" encoding="utf-8"?>
<!-- Generator: Adobe Illustrator 16.0.0, SVG Export Plug-In . SVG Version: 6.00 Build 0)  -->
<!DOCTYPE svg PUBLIC "-//W3C//DTD SVG 1.1//EN" "http://www.w3.org/Graphics/SVG/1.1/DTD/svg11.dtd">
<svg version="1.1" id="Layer_1" xmlns="http://www.w3.org/2000/svg" xmlns:xlink="http://www.w3.org/1999/xlink" x="0px" y="0px"
	 width="250px" height="203.045px" viewBox="0 0 250 203.045" enable-background="new 0 0 250 203.045" xml:space="preserve">
<g id="Layer_1_1_" display="none">
	
		<image display="inline" overflow="visible" enable-background="new    " width="2197" height="1462" xlink:href="../../../../../../Desktop/pencil.jpg"  transform="matrix(0.4268 0 0 0.4268 277.2927 360)">
	</image>
	
		<image display="inline" overflow="visible" enable-background="new    " width="2197" height="1462" xlink:href="../../../../../../Desktop/pencil.jpg"  transform="matrix(1 0 0 1 -350.9993 -54)">
	</image>
</g>
<g id="Layer_5">
	<polygon opacity="0.5" fill="#271D19" enable-background="new    " points="76.498,152.997 73.162,179.69 49.806,163.007 	"/>
	<polygon opacity="0.5" fill="#514848" enable-background="new    " points="16.441,203.045 73.162,179.69 49.806,163.007 	"/>
	<polygon opacity="0.5" fill="#4C382F" enable-background="new    " points="76.498,152.997 123.21,149.661 129.883,109.622 	"/>
	<polygon opacity="0.5" fill="#4E4740" enable-background="new    " points="73.162,179.69 76.498,152.997 93.182,173.017 	"/>
	<polygon opacity="0.5" fill="#534541" enable-background="new    " points="123.21,149.661 93.182,173.017 76.498,152.997 	"/>
	<polygon opacity="0.5" fill="#473228" enable-background="new    " points="186.605,66.247 169.923,109.622 129.883,109.622 	"/>
	<polygon opacity="0.5" fill="#414040" enable-background="new    " points="196.615,59.574 203.288,82.93 186.605,66.247 	"/>
	<polygon opacity="0.5" fill="#584A48" enable-background="new    " points="123.21,149.661 169.923,109.622 129.883,109.622 	"/>
	<polygon opacity="0.5" fill="#584B48" enable-background="new    " points="186.605,66.247 169.923,109.622 203.288,82.93 	"/>
	<polygon opacity="0.5" fill="#404040" enable-background="new    " points="203.288,52.901 213.298,76.256 196.615,59.574 	"/>
	<polygon opacity="0.5" fill="#494949" enable-background="new    " points="213.298,46.228 226.643,66.247 203.288,52.901 	"/>
	<polygon opacity="0.5" fill="#5A5754" enable-background="new    " points="203.288,82.93 213.298,76.256 196.615,59.574 	"/>
	<polygon opacity="0.5" fill="#585657" enable-background="new    " points="226.643,66.247 213.298,76.256 203.288,52.901 	"/>
	<polygon opacity="0.5" fill="#463F3E" enable-background="new    " points="213.298,46.228 237.128,56.485 223.307,36.218 	"/>
	<polygon opacity="0.5" fill="#5B5958" enable-background="new    " points="226.643,66.247 237.128,56.485 213.298,46.228 	"/>
	<polygon opacity="0.5" fill="#4D3D3B" enable-background="new    " points="223.307,36.218 226.643,32.882 250,42.891 	"/>
	<polygon opacity="0.5" fill="#645B5B" enable-background="new    " points="237.128,56.485 250,42.891 223.307,36.218 	"/>
</g>
<g id="Layer_2">
	<polygon fill="#6C3C29" points="68.934,133.273 68.934,143.996 50.552,147.06 	"/>
	<polygon fill="#754236" points="76.594,150.124 68.934,143.996 67.402,151.656 	"/>
	<polygon fill="#53291B" points="71.998,157.783 76.594,150.124 67.402,151.656 	"/>
	<polygon fill="#794938" points="50.552,147.06 67.402,151.656 68.934,143.996 	"/>
	<polygon fill="#BBA58C" points="68.934,133.273 62.807,131.742 50.552,147.06 	"/>
	<polygon fill="#DFB992" points="56.679,128.677 49.02,136.337 62.807,131.742 	"/>
	<polygon fill="#C2967F" points="50.552,147.06 49.02,136.337 62.807,131.742 	"/>
	<polygon fill="#EBCEBB" points="56.679,128.677 56.679,124.081 42.892,134.805 	"/>
	<polygon fill="#EAD2BD" points="52.083,124.081 56.679,124.081 42.892,134.805 	"/>
	<polygon fill="#FCE2D4" points="49.02,136.337 42.892,134.805 56.679,128.677 	"/>
	<polygon fill="#D7CDCE" points="13.787,170.038 18.382,171.57 0,186.889 	"/>
	<polygon fill="#3D3A3A" points="22.978,177.698 22.978,173.102 0,186.889 	"/>
	<polygon fill="#1E1816" points="18.382,171.57 22.978,173.102 0,186.889 	"/>
	<polygon fill="#DFC1AF" points="35.233,159.315 18.382,171.57 22.978,159.315 	"/>
	<polygon fill="#D9B8A4" points="13.787,170.038 22.978,159.315 18.382,171.57 	"/>
	<polygon fill="#DABAA7" points="35.233,159.315 50.552,147.06 35.233,143.996 	"/>
	<polygon fill="#E5D3C5" points="22.978,159.315 35.233,143.996 35.233,159.315 	"/>
	<polygon fill="#E1C1AB" points="49.02,136.337 35.233,143.996 50.552,147.06 	"/>
	<polygon fill="#EFD9CB" points="42.892,134.805 35.233,143.996 49.02,136.337 	"/>
	<polygon fill="#6D412D" points="35.233,159.315 29.105,166.975 18.382,171.57 	"/>
	<polygon fill="#7B4935" points="22.978,173.102 29.105,166.975 18.382,171.57 	"/>
	<polygon fill="#623828" points="39.829,160.847 35.233,159.315 29.105,166.975 	"/>
	<polygon fill="#5F3021" points="50.552,147.06 47.488,156.252 35.233,159.315 	"/>
	<polygon fill="#744839" points="67.402,151.656 47.488,156.252 50.552,147.06 	"/>
	<polygon fill="#71453A" points="56.679,163.911 47.488,156.252 67.402,151.656 	"/>
	<polygon fill="#6B4237" points="71.998,157.783 56.679,163.911 67.402,151.656 	"/>
	<polygon fill="#5F3626" points="39.829,160.847 35.233,159.315 47.488,156.252 	"/>
	<polygon fill="#704032" points="56.679,163.911 39.829,160.847 47.488,156.252 	"/>
	<polygon fill="#805348" points="38.298,171.57 39.829,160.847 56.679,163.911 	"/>
	<polygon fill="#734436" points="29.105,166.975 38.298,171.57 39.829,160.847 	"/>
	<polygon fill="#643F35" points="22.978,177.698 22.978,173.102 38.298,171.57 	"/>
	<polygon fill="#683D31" points="29.105,166.975 22.978,173.102 38.298,171.57 	"/>
	<polygon fill="#EFBB78" points="56.679,124.081 56.679,121.018 52.083,124.081 	"/>
	<polygon fill="#F2A625" points="68.934,133.273 68.934,124.081 62.807,131.742 	"/>
	<polygon fill="#F6AB28" points="56.679,128.677 68.934,124.081 62.807,131.742 	"/>
	<polygon fill="#F7B12D" points="56.679,121.018 56.679,128.677 68.934,124.081 	"/>
	<polygon fill="#F5B833" points="76.594,105.785 56.679,121.018 68.934,124.081 	"/>
	<polygon fill="#F0A023" points="68.934,133.273 88.849,116.422 68.934,124.081 	"/>
	<polygon fill="#944512" points="68.934,143.996 91.912,137.869 76.594,150.124 	"/>
	<polygon fill="#783A11" points="71.998,157.783 87.317,145.528 76.594,150.124 	"/>
	<polygon fill="#854217" points="91.912,137.869 87.317,145.528 76.594,150.124 	"/>
	<polygon fill="#823D12" points="101.104,134.805 87.317,145.528 91.912,137.869 	"/>
	<polygon fill="#973E0D" points="68.934,133.273 91.912,137.869 68.934,143.996 	"/>
	<polygon fill="#994010" points="88.849,116.422 68.934,133.273 91.912,137.869 	"/>
	<polygon fill="#F5B02B" points="76.594,105.274 88.849,116.422 68.934,124.081 	"/>
	<polygon fill="#9A4C1C" points="91.912,137.869 113.358,121.018 101.104,134.805 	"/>
	<polygon fill="#672E13" points="125.614,116.422 101.104,134.805 113.358,121.018 	"/>
	<polygon fill="#984110" points="88.849,116.422 113.358,121.018 91.912,137.869 	"/>
	<polygon fill="#F6B22F" points="76.594,105.274 88.849,116.422 91.912,94.977 	"/>
	<polygon fill="#F5B128" points="113.358,98.04 88.849,116.422 91.912,94.977 	"/>
	<polygon fill="#9B4312" points="113.358,121.018 113.358,98.04 88.849,116.422 	"/>
	<polygon fill="#914717" points="125.614,116.422 128.677,108.763 113.358,121.018 	"/>
	<polygon fill="#974412" points="113.358,98.04 128.677,108.763 113.358,121.018 	"/>
	<polygon fill="#F6BF44" points="113.358,79.657 113.358,98.04 91.912,94.977 	"/>
	<polygon fill="#9B4312" points="128.677,108.763 134.805,82.721 113.358,98.04 	"/>
	<polygon fill="#F5B733" points="113.358,79.657 134.805,82.721 113.358,98.04 	"/>
	<polygon fill="#9C4312" points="154.719,88.849 128.677,108.763 134.805,82.721 	"/>
	<polygon fill="#8B3F14" points="145.528,101.104 128.677,108.763 154.719,88.849 	"/>
	<polygon fill="#6B3014" points="125.614,116.422 128.677,108.763 145.528,101.104 	"/>
	<polygon fill="#F5B62E" points="134.805,82.721 137.868,61.275 113.358,79.657 	"/>
	<polygon fill="#EC9821" points="162.379,62.807 134.805,82.721 137.868,61.275 	"/>
	<polygon fill="#9A4211" points="154.719,88.849 162.379,62.807 134.805,82.721 	"/>
	<polygon fill="#94420F" points="191.485,61.275 162.379,62.807 154.719,88.849 	"/>
	<polygon fill="#904215" points="174.634,78.125 154.719,88.849 191.485,61.275 	"/>
	<polygon fill="#713312" points="145.528,101.104 154.719,88.849 174.634,78.125 	"/>
	<polygon fill="#984311" points="162.379,62.807 191.485,41.361 191.485,61.275 	"/>
	<polygon fill="#F7C95C" points="162.379,42.893 162.379,62.807 137.868,61.275 	"/>
	<polygon fill="#F6B734" points="191.485,41.361 162.379,62.807 162.379,42.893 	"/>
	<polygon fill="#F8C042" points="173.101,35.232 162.379,42.893 191.485,41.361 	"/>
	<polygon fill="#FFBB49" points="177.698,33.702 173.101,35.232 191.485,41.361 	"/>
	<polygon fill="#F0954C" points="186.889,36.765 177.698,33.702 191.485,41.361 	"/>
	<polygon fill="#673215" points="191.485,61.275 196.08,61.275 174.634,78.125 	"/>
	<polygon fill="#99470F" points="191.485,41.361 197.612,55.147 191.485,61.275 	"/>
	<polygon fill="#6D3823" points="196.08,47.488 191.485,41.361 197.612,55.147 	"/>
	<polygon fill="#8B4517" points="196.08,61.275 197.612,55.147 191.485,61.275 	"/>
	<polygon fill="#F0AFAE" points="222.122,9.191 214.463,7.66 223.654,1.532 	"/>
	<polygon fill="#EE9398" points="235.91,3.063 222.122,9.191 223.654,1.532 	"/>
	<polygon fill="#ED9B96" points="229.781,0 223.654,1.532 235.91,3.063 	"/>
	<polygon fill="#E37F7E" points="228.25,15.319 222.122,9.191 235.91,3.063 	"/>
	<polygon fill="#BE5B5B" points="240.505,7.66 228.25,15.319 235.91,3.063 	"/>
	<polygon fill="#8A3637" points="231.313,18.382 228.25,15.319 240.505,7.66 	"/>
	<polygon fill="#6E2628" points="243.569,21.446 231.313,18.382 240.505,7.66 	"/>
	<polygon fill="#7D4145" points="243.569,13.787 243.569,21.446 240.505,7.66 	"/>
	<polygon fill="#6E3232" points="238.972,27.574 234.377,24.51 232.845,32.169 	"/>
	<polygon fill="#752D2E" points="231.313,18.382 234.377,24.51 243.569,21.446 	"/>
	<polygon fill="#79383A" points="238.972,27.574 234.377,24.51 243.569,21.446 	"/>
	<polygon fill="#CFCAC6" points="177.698,33.702 182.293,29.105 186.889,36.765 	"/>
	<polygon fill="#988C80" points="191.485,41.361 194.548,35.232 186.889,36.765 	"/>
	<polygon fill="#736A5D" points="200.676,42.893 191.485,41.361 196.08,47.488 	"/>
	<polygon fill="#B1A8A1" points="182.293,29.105 194.548,35.232 186.889,36.765 	"/>
	<polygon fill="#8D7D73" points="191.485,41.361 194.548,35.232 200.676,42.893 	"/>
	<polygon fill="#BDBFBC" points="196.08,47.488 202.207,50.552 197.612,55.147 	"/>
	<polygon fill="#A39F9B" points="200.676,42.893 196.08,47.488 202.207,50.552 	"/>
	<polygon fill="#4C4644" points="197.612,55.147 200.676,58.212 196.08,61.275 	"/>
	<polygon fill="#636160" points="202.207,50.552 200.676,58.212 197.612,55.147 	"/>
	<polygon fill="#757473" points="205.271,52.083 202.207,50.552 200.676,58.212 	"/>
	<polygon fill="#474645" points="211.399,52.083 200.676,58.212 205.271,52.083 	"/>
	<polygon fill="#585855" points="212.931,44.424 205.271,52.083 211.399,52.083 	"/>
	<polygon fill="#CAC8C6" points="202.207,50.552 203.74,44.424 200.676,42.893 	"/>
	<polygon fill="#766A64" points="205.271,52.083 203.74,44.424 202.207,50.552 	"/>
	<polygon fill="#CAC6C4" points="212.931,44.424 203.74,44.424 205.271,52.083 	"/>
	<polygon fill="#B2ACA6" points="211.399,36.765 212.931,44.424 203.74,44.424 	"/>
	<polygon fill="#BEB4A7" points="194.548,35.232 194.548,30.637 197.612,35.232 	"/>
	<polygon fill="#524337" points="199.144,30.637 194.548,30.637 197.612,35.232 	"/>
	<polygon fill="#ADA39B" points="200.676,42.893 197.612,35.232 194.548,35.232 	"/>
	<polygon fill="#8C857B" points="203.74,39.829 200.676,42.893 203.74,44.424 	"/>
	<polygon fill="#998F88" points="211.399,36.765 203.74,44.424 203.74,39.829 	"/>
	<polygon fill="#85796F" points="197.612,35.232 203.74,39.829 200.676,42.893 	"/>
	<polygon fill="#D8D3CD" points="194.548,35.232 182.293,29.105 194.548,30.637 	"/>
	<polygon fill="#D4D0D0" points="185.357,26.042 182.293,29.105 194.548,30.637 	"/>
	<polygon fill="#DDDBDB" points="197.612,35.232 199.144,30.637 203.74,39.829 	"/>
	<polygon fill="#6C544E" points="211.399,36.765 208.336,30.637 203.74,39.829 	"/>
	<polygon fill="#91887E" points="199.144,30.637 208.336,30.637 203.74,39.829 	"/>
	<polygon fill="#D7D1CC" points="200.676,24.51 199.144,30.637 208.336,30.637 	"/>
	<polygon fill="#EBE6E4" points="194.548,30.637 200.676,24.51 199.144,30.637 	"/>
	<polygon fill="#DAD6D4" points="191.485,21.446 185.357,26.042 194.548,30.637 	"/>
	<polygon fill="#FCFEFF" points="200.676,24.51 194.548,30.637 191.485,21.446 	"/>
	<polygon fill="#D2D1CF" points="214.463,7.66 214.463,12.255 208.336,10.723 	"/>
	<polygon fill="#D6D4D1" points="211.399,7.66 208.336,10.723 214.463,7.66 	"/>
	<polygon fill="#CCC9C2" points="214.463,12.255 222.122,9.191 214.463,7.66 	"/>
	<polygon fill="#A49B93" points="228.25,15.319 222.122,16.851 222.122,9.191 	"/>
	<polygon fill="#B9B3AC" points="214.463,12.255 222.122,9.191 222.122,16.851 	"/>
	<polygon fill="#75695E" points="228.25,15.319 231.313,18.382 225.186,21.446 	"/>
	<polygon fill="#8C7E73" points="222.122,16.851 225.186,21.446 228.25,15.319 	"/>
	<polygon fill="#9B8F86" points="231.313,18.382 226.718,24.51 234.377,24.51 	"/>
	<polygon fill="#83776B" points="225.186,21.446 226.718,24.51 231.313,18.382 	"/>
	<polygon fill="#949896" points="234.377,24.51 228.25,32.169 232.845,32.169 	"/>
	<polygon fill="#AFA9A5" points="226.718,24.51 228.25,27.574 234.377,24.51 	"/>
	<polygon fill="#C6C7C3" points="228.25,32.169 228.25,27.574 234.377,24.51 	"/>
	<polygon fill="#5F5C5A" points="232.845,32.169 228.25,36.765 228.25,32.169 	"/>
	<polygon fill="#DBD5D4" points="199.144,16.851 208.336,10.723 205.271,18.382 	"/>
	<polygon fill="#FFFCFB" points="214.463,12.255 205.271,18.382 208.336,10.723 	"/>
	<polygon fill="#D3D4D5" points="222.122,16.851 214.463,18.382 214.463,12.255 	"/>
	<polygon fill="#C5BCB9" points="205.271,18.382 211.399,18.382 214.463,12.255 	"/>
	<polygon fill="#BFB6AE" points="211.399,22.978 211.399,18.382 205.271,18.382 	"/>
	<polygon fill="#CFC7C1" points="214.463,18.382 211.399,18.382 214.463,12.255 	"/>
	<polygon fill="#BFB4AA" points="211.399,22.978 215.995,22.978 211.399,18.382 	"/>
	<polygon fill="#7D736F" points="214.463,18.382 211.399,18.382 215.995,22.978 	"/>
	<polygon fill="#F2ECEA" points="222.122,16.851 215.995,22.978 214.463,18.382 	"/>
	<polygon fill="#867C76" points="225.186,21.446 222.122,22.978 222.122,16.851 	"/>
	<polygon fill="#91867F" points="226.718,24.51 223.654,26.042 225.186,21.446 	"/>
	<polygon fill="#625146" points="222.122,22.978 223.654,26.042 225.186,21.446 	"/>
	<polygon fill="#CCC3BD" points="215.995,22.978 222.122,22.978 222.122,16.851 	"/>
	<polygon fill="#968E87" points="215.995,29.105 211.399,22.978 215.995,22.978 	"/>
	<polygon fill="#8A7771" points="220.591,27.574 215.995,22.978 222.122,22.978 	"/>
	<polygon fill="#8A7F79" points="223.654,26.042 220.591,27.574 222.122,22.978 	"/>
	<polygon fill="#84746B" points="215.995,29.105 220.591,27.574 215.995,22.978 	"/>
	<polygon fill="#7A6F69" points="219.057,33.702 215.995,29.105 220.591,27.574 	"/>
	<polygon fill="#A8A19B" points="226.718,24.51 220.591,27.574 228.25,27.574 	"/>
	<polygon fill="#A19D98" points="219.057,33.702 228.25,27.574 220.591,27.574 	"/>
	<polygon fill="#B9B7B6" points="228.25,32.169 225.186,33.702 228.25,27.574 	"/>
	<polygon fill="#BDB7B8" points="219.057,33.702 225.186,33.702 228.25,27.574 	"/>
	<polygon fill="#CACBCA" points="219.057,39.829 219.057,33.702 225.186,33.702 	"/>
	<polygon fill="#BFC4C3" points="225.186,38.297 225.186,33.702 219.057,39.829 	"/>
	<polygon fill="#C9C6C6" points="228.25,32.169 225.186,33.702 225.186,38.297 	"/>
	<polygon fill="#585452" points="228.25,36.765 225.186,38.297 228.25,32.169 	"/>
	<polygon fill="#5E5C5C" points="219.057,39.829 219.057,44.424 225.186,38.297 	"/>
	<polygon fill="#4B4546" points="228.25,36.765 219.057,44.424 225.186,38.297 	"/>
	<polygon fill="#CEC7C2" points="191.485,21.446 199.144,16.851 200.676,24.51 	"/>
	<polygon fill="#AAA69E" points="205.271,18.382 200.676,24.51 199.144,16.851 	"/>
	<polygon fill="#C9C2BC" points="211.399,22.978 200.676,24.51 205.271,18.382 	"/>
	<polygon fill="#96867E" points="208.336,30.637 211.399,22.978 200.676,24.51 	"/>
	<polygon fill="#BAB4B0" points="215.995,29.105 208.336,30.637 211.399,22.978 	"/>
	<polygon fill="#AEADAE" points="211.399,36.765 215.995,29.105 208.336,30.637 	"/>
	<polygon fill="#8A837B" points="219.057,33.702 211.399,36.765 219.057,39.829 	"/>
	<polygon fill="#8D837D" points="215.995,29.105 211.399,36.765 219.057,33.702 	"/>
	<polygon fill="#8D8A81" points="212.931,44.424 211.399,36.765 219.057,39.829 	"/>
	<polygon fill="#787776" points="211.399,52.083 219.057,44.424 212.931,44.424 	"/>
	<polygon fill="#89817B" points="219.057,39.829 219.057,44.424 212.931,44.424 	"/>
</g>
<g id="Layer_3">
</g>
<g id="Layer_4">
</g>
</svg>
