<?xml version="1.0" encoding="utf-8"?>
<!-- Generator: Adobe Illustrator 16.0.0, SVG Export Plug-In . SVG Version: 6.00 Build 0)  -->
<!DOCTYPE svg PUBLIC "-//W3C//DTD SVG 1.1//EN" "http://www.w3.org/Graphics/SVG/1.1/DTD/svg11.dtd">
<svg version="1.1" id="Layer_4" xmlns="http://www.w3.org/2000/svg" xmlns:xlink="http://www.w3.org/1999/xlink" x="0px" y="0px"
	 width="100px" height="100px" viewBox="0 0 100 100" enable-background="new 0 0 100 100" xml:space="preserve">
<path d="M50,0C22.386,0,0,22.386,0,50c0,27.615,22.386,50,50,50c27.615,0,50-22.385,50-50C100,22.386,77.615,0,50,0z M71.681,67.859
	c-0.227,0.487-0.321,0.771-0.349,0.885c0.001,0.006,0.003,0.012,0.004,0.018c0.138,0.676-0.221,0.961-0.447,1.071
	c-0.169,0.082-0.35,0.129-0.549,0.14c-0.069,0.074-0.159,0.156-0.276,0.223l-0.031,0.018c-0.22,0.127-0.802,0.461-1.459,0.461
	c-0.034,0-0.069-0.001-0.104-0.003c-0.5-0.025-1.209-0.3-1.733-1.463c-0.275-0.611-0.262-1.398-0.257-1.553
	c0.003-0.863,0.201-1.247,0.439-1.626c0.017-0.028,0.034-0.056,0.053-0.084c0.303-0.5,0.716-0.543,0.892-0.562
	c0.062-0.007,0.062-0.007,0.092-0.022c0.073-0.041,0.165-0.102,0.264-0.167c0.342-0.227,0.766-0.511,1.273-0.511
	c0.081,0,0.163,0.008,0.24,0.023c0.523,0.099,1.085,0.377,1.583,0.785C71.949,66.012,72.097,66.963,71.681,67.859z M74.62,43.306
	c-0.679,1.37-2.108,1.688-3.256,1.942c-0.222,0.049-0.43,0.096-0.626,0.146c-0.98,0.256-3.138,0.98-4.134,1.349
	c-0.742,0.273-2.814,1.001-3.748,1.328c-0.002,0.98-0.012,3.204-0.048,4.573c-0.047,1.822,0.145,9,0.47,11.142
	c0.142,0.929,0.392,2.138,0.633,3.306c0.34,1.645,0.634,3.065,0.663,3.81c0.011,0.274,0.032,0.584,0.055,0.885
	c0.105,1.521,0.176,2.524-0.579,2.833c-0.434,0.178-2.2,0.56-2.695,0.56c-0.434,0-2.207-0.251-2.31-1.412
	c-0.054-0.616-0.431-4.132-0.607-4.963c-0.197-0.92-0.776-4.878-0.826-5.897c-0.012-0.236-0.042-0.77-0.082-1.451
	c-0.171-2.917-0.334-5.812-0.3-6.368c0.028-0.446-0.041-2.889-0.109-4.876c-0.549,0.214-1.234,0.493-1.711,0.728
	c-0.599,0.295-1.265,0.657-1.661,0.877c0.021,1.728,0.097,8.358,0.138,9.226c0.051,1.061,0.968,10.233,1.299,11.187
	c0.371,1.063,0.688,2.826,0.553,3.592c-0.144,0.836-0.534,1.322-2.266,1.655c-0.346,0.065-0.666,0.1-0.954,0.1
	c-1.313,0-2.145-0.712-2.342-2.004c-0.045-0.296-0.114-0.729-0.194-1.23c-0.271-1.688-0.64-3.997-0.716-4.919
	c-0.033-0.392-0.165-1.396-0.319-2.558c-0.381-2.889-0.67-5.157-0.639-5.896c0.021-0.501-0.02-1.39-0.058-2.248
	c-0.058-1.267-0.088-2.063-0.033-2.471c0.042-0.305,0.084-0.666,0.117-0.974c-0.157-0.017-0.318-0.031-0.449-0.044
	c-0.093-0.008-0.196,0.006-0.324,0.023c-0.143,0.02-0.304,0.041-0.495,0.041c-0.215,0-0.424-0.028-0.636-0.087
	c-0.804-0.219-1.469-0.649-1.823-1.181c-0.674-1.015-0.487-1.655-0.214-2.015c0.188-0.246,0.583-0.555,1.212-1.037
	c0.324-0.248,0.66-0.505,0.888-0.703c0.448-0.393,1.322-1.06,1.77-1.396c0.012-1.268,0.052-5.581,0.093-6.302
	c0.023-0.391,0.023-1.646,0.023-2.859c0-1.294,0-2.517,0.025-2.966c0.012-0.208,0.033-0.526,0.06-0.898
	c0.064-0.912,0.198-2.81,0.139-3.178c-0.002-0.011-0.164-1.021-0.225-1.53c-0.237,0.05-0.485,0.125-0.741,0.202
	c-0.659,0.199-2.164,0.786-2.89,1.073c-0.132,2.154-0.712,11.587-0.88,13.655c-0.191,2.354-0.425,9.183-0.382,9.874
	c0.024,0.377,0.046,2.805,0.077,6.466c0.022,2.726,0.046,5.543,0.068,6.267c0.008,0.268,0.012,0.556,0.016,0.856
	c0.019,1.348,0.042,3.023,0.517,4.372c0.554,1.568,0.826,2.064,1.006,2.394l0.048,0.087c0.341,0.631,0.167,1.062-0.092,1.334
	c0.012,0.153-0.009,0.313-0.084,0.47c-0.23,0.469-0.843,0.724-1.873,0.779c-0.143,0.008-0.279,0.018-0.41,0.026
	c-0.277,0.019-0.538,0.037-0.796,0.037c-0.303,0-0.556-0.025-0.796-0.079c-0.791-0.177-1.087-0.61-1.288-1.052
	c-0.132-0.288-0.912-2.488-0.968-3.454c-0.013-0.222-0.104-0.744-0.201-1.297c-0.249-1.429-0.559-3.206-0.415-4.271
	c0.171-1.258,0.016-6.335-0.053-8.014c-0.028-0.711-0.249-7.833-0.094-9.632c0.083-0.942,0.249-4.189,0.396-7.053
	c0.108-2.106,0.21-4.095,0.271-5.017c0.093-1.419,0.145-3.459,0.17-4.689c-0.488,0.203-1.071,0.44-1.531,0.611
	c-0.474,0.174-1.261,0.59-2.022,0.991c-0.677,0.355-1.375,0.725-1.905,0.951c-0.618,0.265-1.204,0.491-1.676,0.674
	c-0.356,0.139-0.665,0.258-0.839,0.337c-0.27,0.122-0.546,0.185-0.823,0.185c-0.283,0-0.512-0.063-0.68-0.118
	c-0.084-0.027-0.17-0.062-0.251-0.096c-0.131,0.056-0.287,0.096-0.468,0.096c-0.159,0-0.318-0.032-0.472-0.095
	c-0.478-0.195-1.124-0.679-1.379-0.94c-0.02-0.017-0.109-0.08-0.176-0.126c-0.392-0.272-0.927-0.647-0.927-1.255
	c0-0.633,0.261-0.918,0.562-1.249c0.311-0.339,0.574-0.393,0.878-0.455c0.199-0.041,0.5-0.103,1.036-0.281
	c1.228-0.41,1.745-0.639,1.75-0.641c0.898-0.38,2.008-0.929,3.081-1.458c0.69-0.341,1.405-0.693,2.06-1.001
	c1.034-0.483,1.521-0.525,2.008-0.527c0.214-0.001,0.333-0.002,0.601-0.112c0.251-0.103,0.397-0.203,0.583-0.331
	c0.441-0.304,0.941-0.649,2.611-1.068c2.456-0.616,4.333-1.311,5.038-1.695c0.431-0.236,0.911-0.355,1.428-0.355
	c0.724,0,1.288,0.239,1.497,0.342c0.067,0.033,0.135,0.065,0.202,0.098c0.702,0.339,1.676,0.809,1.915,1.803
	c0.542-0.035,1.083,0.151,1.547,0.531c0.029,0.023,0.128,0.072,0.199,0.108c0.303,0.149,0.803,0.396,1.04,0.99
	c0.447,0.369,0.588,0.899,0.445,4.198c-0.19,4.365-0.19,5.493-0.19,7.361c0,0.973-0.062,2.858-0.15,4.163
	c0.627-0.26,1.57-0.633,3.006-1.176c0.062-0.707,0.188-2.177,0.317-3.646c0.089-1.021,0.179-2.042,0.248-2.808
	c0.034-0.384,0.062-0.704,0.085-0.928c0.011-0.114,0.02-0.204,0.025-0.266c0.013-0.116,0.037-0.214,0.072-0.295
	c0.136-1.105,0.439-3.985,0.529-5.228c-0.136-0.235-0.157-0.271,0.124-2.041c0.262-1.64,0.299-1.703,0.366-1.82l0.199-0.346
	l0.212-0.001c0.238-0.253,0.614-0.608,1.121-0.775c0.252-0.082,0.573-0.124,0.952-0.124c0.662,0,1.805,0.154,2.229,0.445
	c0.582,0.396,1.296,0.98,1.388,1.507c0.053,0.297-0.046,0.614-0.273,1.302c-0.146,0.438-0.312,0.936-0.397,1.375
	c-0.175,0.898-0.988,8.407-0.988,9.41c0,0.589-0.042,1.434-0.081,2.087c1.329-0.367,3.696-1.027,4.518-1.297
	c1.017-0.333,3.062-0.795,4.258-0.795c0.296,0,0.534,0.027,0.729,0.083c0.73,0.212,1.697,0.719,2.021,1.451
	C74.793,42.583,74.787,42.966,74.62,43.306z"/>
</svg>
